%FSTAX24Y24*%
%MOIN*%
%IN gong.bottomsoldermask.ger *%
%ADD10C,0.0800*%
%ADD11C,0.1000*%
D10*X042472Y012313D03*X043926Y014937D03*X040073Y012454D03*
X039347Y015365D03*X038836Y012039D03*X03811Y01495D03*X035454Y016975D03*
X032499Y016454D03*X039699Y016765D03*X0367Y016713D03*X039699Y016765D03*
X0367Y016713D03*X035454Y016975D03*X032499Y016454D03*X038836Y012039D03*
X03811Y01495D03*X037643Y011744D03*X036917Y014655D03*X034741Y010012D03*
X037741D03*X034741D03*X037741D03*X037643Y011744D03*X036917Y014655D03*
X040073Y012454D03*X039347Y015365D03*X042472Y012313D03*
X043926Y014937D03*X018176Y009543D03*X019175Y009491D03*
X020174Y009438D03*X021172Y009386D03*X022171Y009334D03*X02317Y009281D03*
X024168Y009229D03*X024325Y012225D03*X023327Y012277D03*
X022328Y012329D03*X021329Y012382D03*X020331Y012434D03*
X019332Y012486D03*X018333Y012539D03*X012021Y017012D03*X009689Y0189D03*
X003881Y012399D03*X004658Y015297D03*X003881Y012399D03*
X004658Y015297D03*X006996Y012294D03*X009327Y010406D03*
X006996Y012294D03*X009327Y010406D03*X006327Y011181D03*
X008659Y009293D03*X006327Y011181D03*X008659Y009293D03*
X012021Y017012D03*X009689Y0189D03*X003305Y015836D03*X002676Y015058D03*
X003305Y015836D03*X002676Y015058D03*X023809Y015041D03*
X022311Y015119D03*X034456Y01556D03*X035954Y015639D03*X029455Y013942D03*
X030865Y014455D03*X029455Y013942D03*X030865Y014455D03*X034456Y01556D03*
X035954Y015639D03*X019791Y005015D03*X018974Y006273D03*
X019791Y005015D03*X018974Y006273D03*X028907Y006986D03*
X029141Y005504D03*X028907Y006986D03*X029141Y005504D03*
X023809Y015041D03*X022311Y015119D03*X005633Y012603D03*
X004952Y011267D03*X010005Y016897D03*X01117Y015953D03*X010005Y016897D03*
X01117Y015953D03*X005633Y012603D03*X004952Y011267D03*D11*
X02878Y015624D03*X02857Y018617D03*X02878Y015624D03*X02857Y018617D03*
D10*X018987Y008474D03*X021983Y008317D03*X018987Y008474D03*
X021983Y008317D03*X030799Y018868D03*X033795Y018711D03*
X030799Y018868D03*X033795Y018711D03*X014309Y010109D03*
X013195Y009105D03*X014309Y010109D03*X013195Y009105D03*
X018176Y009543D03*X019175Y009491D03*X020174Y009438D03*
X021172Y009386D03*X022171Y009334D03*X02317Y009281D03*X024168Y009229D03*
X024325Y012225D03*X023327Y012277D03*X022328Y012329D03*
X021329Y012382D03*X020331Y012434D03*X019332Y012486D03*
X018333Y012539D03*X013718Y011447D03*X013049Y012191D03*X01238Y012934D03*
X011711Y013677D03*X011041Y01442D03*X010372Y015163D03*X009703Y015906D03*
X007474Y013899D03*X008143Y013156D03*X008812Y012413D03*
X009481Y011669D03*X01015Y010926D03*X010819Y010183D03*X011489Y00944D03*
X014795Y007893D03*X014274Y004938D03*X014795Y007893D03*
X014274Y004938D03*X035598Y014366D03*X034632Y014107D03*
X033666Y013848D03*X0327Y013589D03*X031734Y013331D03*X030768Y013072D03*
X029802Y012813D03*X030579Y009915D03*X031545Y010174D03*
X032511Y010433D03*X033477Y010692D03*X034443Y01095D03*X035409Y011209D03*
X036374Y011468D03*X035598Y014366D03*X034632Y014107D03*
X033666Y013848D03*X0327Y013589D03*X031734Y013331D03*X030768Y013072D03*
X029802Y012813D03*X030579Y009915D03*X031545Y010174D03*
X032511Y010433D03*X033477Y010692D03*X034443Y01095D03*X035409Y011209D03*
X036374Y011468D03*X013718Y011447D03*X013049Y012191D03*X01238Y012934D03*
X011711Y013677D03*X011041Y01442D03*X010372Y015163D03*X009703Y015906D03*
X007474Y013899D03*X008143Y013156D03*X008812Y012413D03*
X009481Y011669D03*X01015Y010926D03*X010819Y010183D03*X011489Y00944D03*
X017319Y012805D03*X014518Y01388D03*X017319Y012805D03*X014518Y01388D03*
X016655Y011076D03*X016498Y00808D03*X012422Y006327D03*X009488Y006951D03*
X00979Y009351D03*X012217Y007588D03*X005611Y009795D03*X008127Y008161D03*
X006547Y014518D03*X008435Y016849D03*X006547Y014518D03*
X008435Y016849D03*X00571Y014969D03*X006333Y017903D03*X00571Y014969D03*
X006333Y017903D03*X005611Y009795D03*X008127Y008161D03*X0078Y004166D03*
X008217Y007137D03*X0078Y004166D03*X008217Y007137D03*X009182Y017669D03*
X006509Y019031D03*X009182Y017669D03*X006509Y019031D03*X00979Y009351D03*
X012217Y007588D03*X012422Y006327D03*X009488Y006951D03*
X016655Y011076D03*X016498Y00808D03*X014814Y015189D03*X015747Y01483D03*
X016681Y014472D03*X025199Y014477D03*X026195Y01439D03*X027191Y014303D03*
X022359Y005599D03*X023242Y00513D03*X024125Y00466D03*X022359Y005599D03*
X023242Y00513D03*X024125Y00466D03*X025199Y014477D03*X026195Y01439D03*
X027191Y014303D03*X024788Y007088D03*X025626Y007632D03*
X026465Y008177D03*X024788Y007088D03*X025626Y007632D03*
X026465Y008177D03*X014814Y015189D03*X015747Y01483D03*X016681Y014472D03*
X018209Y016589D03*X015325Y017416D03*X012137Y015064D03*
X014653Y016698D03*X014923Y011739D03*X012916Y013968D03*
X014923Y011739D03*X012916Y013968D03*X013807Y017404D03*
X011476Y019292D03*X021027Y013917D03*X024023Y01376D03*X018765Y003881D03*
X017265Y006479D03*X018765Y003881D03*X017265Y006479D03*
X021027Y013917D03*X024023Y01376D03*X013807Y017404D03*X011476Y019292D03*
X012137Y015064D03*X014653Y016698D03*X021697Y017085D03*X024498Y01601D03*
X023919Y000849D03*X021137Y001973D03*X021411Y003781D03*
X018895Y002147D03*X021411Y003781D03*X018895Y002147D03*
X023919Y000849D03*X021137Y001973D03*X02698Y019241D03*X026928Y016242D03*
X02698Y019241D03*X026928Y016242D03*X021697Y017085D03*X024498Y01601D03*
X026375Y006516D03*X026741Y003539D03*X028107Y008179D03*
X027741Y011156D03*X028145Y003827D03*X027675Y00679D03*X033205Y006353D03*
X03026Y005781D03*X033298Y007605D03*X03031Y007343D03*X037484Y008701D03*
X034484Y008649D03*X037484Y008701D03*X034484Y008649D03*X033128Y00893D03*
X03014Y008668D03*X033128Y00893D03*X03014Y008668D03*X028827Y012133D03*
X029245Y009162D03*X028827Y012133D03*X029245Y009162D03*
X033298Y007605D03*X03031Y007343D03*X033205Y006353D03*X03026Y005781D03*
X037773Y00737D03*X034773Y007318D03*X037773Y00737D03*X034773Y007318D03*
X028145Y003827D03*X027675Y00679D03*X028107Y008179D03*X027741Y011156D03*
X021127Y006111D03*X023321Y008157D03*X021127Y006111D03*
X023321Y008157D03*X026375Y006516D03*X026741Y003539D03*
X018209Y016589D03*X015325Y017416D03*X040812Y010404D03*
X039964Y010934D03*X030973Y017222D03*X030938Y016223D03*
X030973Y017222D03*X030938Y016223D03*X040812Y010404D03*
X039964Y010934D03*X025902Y009727D03*X026526Y012662D03*
X025902Y009727D03*X026526Y012662D03*D11*X04105Y015895D03*D03*
X024729Y018171D03*D03*X003781Y017785D03*D03*X016936Y001775D03*D03*
X025543Y002019D03*D03*X026539Y001932D03*D03*X027535Y001845D03*D03*
X018994Y014442D03*D03*X019701Y015149D03*D03*X020408Y015856D03*D03*
M02*