%FSTAX24Y24*%
%MOIN*%
%IN gong.topsilkscreen.ger *%
%ADD10C,0.0050*%
%ADD11C,0.0071*%
%ADD12C,0.0100*%
%ADD13C,0.0130*%
%ADD14C,0.0140*%
%ADD15C,0.0180*%
%ADD16C,0.0190*%
%ADD17C,0.0200*%
%ADD18C,0.0250*%
%ADD19C,0.0300*%
D12*X044121Y014257D02*G01X043246Y014742D01*X042277Y012993D01*
X043151Y012508D01*X044121Y014257D01*X039953Y015001D02*
X038983Y014759D01*X039467Y012818D01*X040437Y01306D01*X039953Y015001D01*
X038716Y014586D02*X037746Y014344D01*X03823Y012403D01*X0392Y012645D01*
X038716Y014586D01*X032905Y017033D02*X033079Y016048D01*
X035048Y016395D01*X034875Y01738D01*X032905Y017033D01*X037191Y017221D02*
X037208Y016221D01*X039208Y016256D01*X03919Y017256D01*X037191Y017221D01*
X037208Y016221D01*X039208Y016256D01*X03919Y017256D01*X037191Y017221D01*
X032905Y017033D02*X033079Y016048D01*X035048Y016395D01*X034875Y01738D01*
X032905Y017033D01*X038716Y014586D02*X037746Y014344D01*X03823Y012403D01*
X0392Y012645D01*X038716Y014586D01*X037523Y014291D02*X036553Y014049D01*
X037037Y012108D01*X038007Y01235D01*X037523Y014291D01*X037241Y009512D02*
Y010512D01*X035241D01*Y009512D01*X037241D01*Y010512D01*X035241D01*
Y009512D01*X037241D01*X037523Y014291D02*X036553Y014049D01*
X037037Y012108D01*X038007Y01235D01*X037523Y014291D01*X039953Y015001D02*
X038983Y014759D01*X039467Y012818D01*X040437Y01306D01*X039953Y015001D01*
X044121Y014257D02*X043246Y014742D01*X042277Y012993D01*
X043151Y012508D01*X044121Y014257D01*D10*X005063Y001127D02*
X004863Y001327D01*X005363Y001227D02*X005163Y001427D01*
X003363Y001827D02*X003213Y001977D01*X003763Y000877D02*
X003613Y001027D01*X005113Y001427D02*X004963Y001577D01*
X000613Y000777D02*X000513Y000877D01*X001163Y000727D02*
X001063Y000827D01*X001213Y002127D02*X001113Y002227D01*
X002263Y001827D02*X002163Y001927D01*X002913Y001877D02*
X002813Y001977D01*X003963Y000677D02*X003863Y000777D01*
X004813Y001327D02*X004713Y001427D01*X000513Y000927D02*
X000463Y000977D01*X000713Y000727D02*X000663Y000777D01*
X000813Y000927D02*X000763Y000977D01*X000963Y002027D02*
X000913Y002077D01*X000963Y001277D02*X000913Y001327D01*
X001013Y001727D02*X000963Y001777D01*X001063Y002227D02*
X001013Y002277D01*X001263Y002027D02*X001213Y002077D01*
X001263Y001477D02*X001213Y001527D01*X001613Y000927D02*
X001563Y000977D01*X001663Y000777D02*X001613Y000827D01*
X001763Y000727D02*X001713Y000777D01*X001913Y000927D02*
X001863Y000977D01*X002013Y001727D02*X001963Y001777D01*
X002113Y001927D02*X002063Y001977D01*X002313Y001727D02*
X002263Y001777D01*X002613Y000727D02*X002563Y000777D01*
X003063Y001727D02*X003013Y001777D01*X003113Y000727D02*
X003063Y000777D01*X003663Y000627D02*X003613Y000677D01*
X003713Y000527D02*X003663Y000577D01*X003813Y000477D02*
X003763Y000527D01*X003963Y001927D02*X003913Y001977D01*
X003963Y001077D02*X003913Y001127D01*X004063Y001877D02*
X004013Y001927D01*X004113Y001727D02*X004063Y001777D01*
X004113Y000927D02*X004063Y000977D01*X004413Y001927D02*
X004363Y001977D01*X004713Y001477D02*X004663Y001527D01*
X004713Y000877D02*X004663Y000927D01*X004763Y000777D02*
X004713Y000827D01*X004863Y001077D02*X004813Y001127D01*
X004863Y000727D02*X004813Y000777D01*X004913Y000927D02*
X004863Y000977D01*X005163Y001727D02*X005113Y001777D01*
X005213Y001927D02*X005163Y001977D01*X005213Y001577D02*
X005163Y001627D01*X005313Y001877D02*X005263Y001927D01*
X005363Y001777D02*X005313Y001827D01*X000513Y002077D02*
X000463Y002027D01*X000613Y002227D02*X000513Y002127D01*
X000713Y002277D02*X000663Y002227D01*X000813Y002077D02*
X000763Y002027D01*X000963Y001527D02*X000913Y001477D01*
X000963Y000977D02*X000913Y000927D01*X001063Y000827D02*
X000963Y000727D01*X001263Y001777D02*X001213Y001727D01*
X001263Y000777D02*X001213Y000727D01*X001613Y001777D02*
X001563Y001727D01*X001713Y001927D02*X001613Y001827D01*
X001813Y001977D02*X001763Y001927D01*X001913Y001777D02*
X001863Y001727D01*X002013Y000977D02*X001963Y000927D01*
X002113Y000777D02*X002063Y000727D01*X002263Y000877D02*
X002163Y000777D01*X002313Y000977D02*X002263Y000927D01*
X002613Y001977D02*X002563Y001927D01*X002863Y000777D02*
X002813Y000727D01*X002913Y001777D02*X002863Y001727D01*
X002963Y001927D02*X002913Y001877D01*X003063Y001977D02*
X003013Y001927D01*X003363Y000777D02*X003313Y000727D01*
X003663Y000777D02*X003613Y000727D01*X003763Y001977D02*
X003613Y001827D01*X003963Y001777D02*X003913Y001727D01*
X004063Y000977D02*X003963Y000877D01*X004113Y001127D02*
X004063Y001077D01*X004113Y000727D02*X004063Y000677D01*
X004163Y001977D02*X004063Y001877D01*X004213Y000527D02*
X004163Y000477D01*X004413Y000677D02*X004263Y000527D01*
X004713Y001127D02*X004663Y001077D01*X004763Y001927D02*
X004663Y001827D01*X004863Y001977D02*X004813Y001927D01*
X005013Y001777D02*X004963Y001727D01*X005063Y000977D02*
X005013Y000927D01*X005213Y000777D02*X005163Y000727D01*
X005313Y000827D02*X005263Y000777D01*X005363Y001627D02*
X005313Y001577D01*X005363Y000927D02*X005313Y000877D01*
X000763Y002277D02*Y000727D01*X000713Y002277D02*Y000727D01*
X004163Y001977D02*Y000477D01*X004113Y001977D02*Y000477D01*
X004263Y001977D02*Y000527D01*X004213Y001977D02*Y000527D01*
X000663Y002227D02*Y000777D01*X000613Y002227D02*Y000777D01*
X004313Y001977D02*Y000577D01*X004363Y001977D02*Y000627D01*
X000563Y002177D02*Y000827D01*X004413Y001977D02*Y000677D01*
X003213Y001977D02*Y000727D01*X003163Y001977D02*Y000727D01*
X003113Y001977D02*Y000727D01*X003063Y001977D02*Y000727D01*
X002863Y001977D02*Y000727D01*X002813Y001977D02*Y000727D01*
X002763Y001977D02*Y000727D01*X002713Y001977D02*Y000727D01*
X002663Y001977D02*Y000727D01*X002613Y001977D02*Y000727D01*
X002563Y001977D02*Y000727D01*X002063Y001977D02*Y000727D01*
X002013Y001977D02*Y000727D01*X001863Y001977D02*Y000727D01*
X001813Y001977D02*Y000727D01*X000513Y002127D02*Y000877D01*
X003313Y001927D02*Y000727D01*X003263Y001927D02*Y000727D01*
X001763Y001927D02*Y000727D01*X002163Y001927D02*Y000777D01*
X002113Y001927D02*Y000777D01*X001713Y001927D02*Y000777D01*
X003913Y001977D02*Y000877D01*X003863Y001977D02*Y000877D01*
X003813Y001977D02*Y000877D01*X003763Y001977D02*Y000877D01*
X003363Y001827D02*Y000727D01*X001663Y001877D02*Y000777D01*
X002213Y001877D02*Y000827D01*X000463Y002027D02*Y000977D01*
X003713Y001927D02*Y000927D01*X001613Y001827D02*Y000827D01*
X003663Y001927D02*Y000977D01*X002263Y001827D02*Y000877D01*
X003613Y000677D02*X004413D01*X003613Y001027D02*X004413D01*
X003613Y001077D02*X004413D01*X003613Y001777D02*X004413D01*
X003613Y001827D02*Y001027D01*Y001827D02*X004413D01*X002563Y001777D02*
X003363D01*X002563Y001827D02*X003363D01*X001263Y001527D02*Y000727D01*
X001213Y001527D02*Y000727D01*X001163Y001527D02*Y000727D01*
X001113Y001527D02*Y000727D01*X000963Y001527D02*Y000727D01*
X005063Y001477D02*Y000727D01*X004963Y001977D02*Y001227D01*
X003663Y000977D02*X004413D01*X003663Y001877D02*X004413D01*X002563D02*
X003313D01*X002313Y001727D02*Y000977D01*X001563Y001727D02*Y000977D01*
X001013Y001527D02*Y000777D01*X000513Y000877D02*X001263D01*
X000513Y000927D02*X001263D01*X005163Y001427D02*Y000727D01*
X005113Y001427D02*Y000727D01*X004913Y001977D02*Y001277D01*
X004663Y000927D02*X005363D01*X004663Y001777D02*X005363D01*
X003663Y000627D02*X004363D01*X001063Y001527D02*Y000827D01*X000563D02*
X001263D01*X000513Y002077D02*X001213D01*X000513Y002127D02*X001213D01*
X004863Y001977D02*Y001327D01*X004663Y001827D02*X005313D01*
X003663Y000577D02*X004313D01*X001613Y000877D02*X002263D01*
X001613Y000927D02*X002263D01*X001613Y001777D02*X002263D01*
X001613Y001827D02*X002263D01*X005213Y001377D02*Y000777D01*
X004813Y001927D02*Y001327D01*X004713Y000827D02*X005313D01*
X004713Y000877D02*X005313D01*X004713Y001877D02*X005313D01*
X001613Y000827D02*X002213D01*X000563Y002177D02*X001163D01*
X005263Y001327D02*Y000777D01*X004763Y001927D02*Y001377D01*
X003713Y000527D02*X004263D01*X001663Y001877D02*X002213D01*
X001013Y002277D02*Y001727D01*X000963Y002277D02*Y001727D01*
X005313Y001327D02*Y000827D01*X004813Y001327D02*X005313D01*
X004763Y000777D02*X005263D01*X004763Y001927D02*X005263D01*
X001663Y000777D02*X002163D01*X001113Y002227D02*Y001727D01*
X001063Y002227D02*Y001727D01*X000613Y002227D02*X001113D01*
X004763Y001377D02*X005213D01*X004713Y001427D02*X005163D01*
X004713Y001877D02*Y001427D01*X001713Y001927D02*X002163D01*
X001163Y002177D02*Y001727D01*X005163Y001977D02*Y001577D01*
X004963Y001227D02*X005363D01*X004913Y001277D02*X005313D01*
X004863Y001127D02*Y000727D01*X001213Y002127D02*Y001727D01*
X000613Y000777D02*X001013D01*X005263Y001927D02*Y001577D01*
X005213Y001927D02*Y001577D01*X005013Y001177D02*X005363D01*
X005013Y001527D02*Y001177D01*X004813Y001127D02*Y000777D01*
X004763Y001127D02*Y000777D01*X004663Y001527D02*X005013D01*
X003813Y000477D02*X004163D01*X003663Y001927D02*X004013D01*X002963D02*
X003313D01*X000913Y001327D02*X001263D01*X000913Y001377D02*X001263D01*
X000913Y001427D02*X001263D01*X000913Y001477D02*X001263D01*
X000913Y001527D02*X001263D01*X005363Y001227D02*Y000927D01*
X005313Y001877D02*Y001577D01*X004863Y000727D02*X005163D01*
X004863Y001977D02*X005163D01*X004713Y001127D02*Y000827D01*
X004663Y001577D02*X004963D01*X004663Y001627D02*X004963D01*
X004663Y001677D02*X004963D01*X004663Y001727D02*X004963D01*
X003913Y000777D02*Y000477D01*X003863Y000777D02*Y000477D01*
X003813Y000777D02*Y000477D01*X003713Y000927D02*X004013D01*
X003613Y000727D02*X003913D01*X003613Y000777D02*X003913D01*
X001763Y000727D02*X002063D01*X001263Y002027D02*Y001727D01*
X000713Y002277D02*X001013D01*X001813Y001977D02*X002063D01*
X000713Y000727D02*X000963D01*X005363Y001777D02*Y001577D01*
X004663Y000977D02*X004863D01*X004663Y001027D02*X004863D01*
X004663Y001077D02*X004863D01*X004663Y001127D02*Y000927D01*
X003963Y001077D02*Y000877D01*X00102Y004102D02*X00092Y004202D01*
X00102Y003502D02*X00092Y003602D01*X00127D02*X00117Y003702D01*
X00232Y003952D02*X00222Y004052D01*X00517Y002902D02*X00507Y003002D01*
X00572Y003852D02*X00562Y003952D01*X00057Y002852D02*X00052Y002902D01*
X00087Y003802D02*X00082Y003852D01*X00107Y002852D02*X00102Y002902D01*
X00117Y004352D02*X00112Y004402D01*X00127Y004302D02*X00122Y004352D01*
X00132Y004202D02*X00127Y004252D01*X00132Y003502D02*X00127Y003552D01*
X00167Y003052D02*X00162Y003102D01*X00172Y002902D02*X00167Y002952D01*
X00182Y002852D02*X00177Y002902D01*X00197Y003052D02*X00192Y003102D01*
X00207Y003852D02*X00202Y003902D01*X00217Y004052D02*X00212Y004102D01*
X00237Y003852D02*X00232Y003902D01*X00267Y002852D02*X00262Y002902D01*
X00292Y004352D02*X00287Y004402D01*X00322Y002852D02*X00317Y002902D01*
X00347Y004352D02*X00342Y004402D01*X00367Y002852D02*X00362Y002902D01*
X00372Y003902D02*X00367Y003952D01*X00397Y003852D02*X00392Y003902D01*
X00402Y003052D02*X00397Y003102D01*X00427Y004052D02*X00422Y004102D01*
X00427Y003002D02*X00422Y003052D01*X00442Y003352D02*X00437Y003402D01*
X00482Y003502D02*X00477Y003552D01*X00507Y003602D02*X00502Y003652D01*
X00507Y003052D02*X00502Y003102D01*X00527Y002852D02*X00522Y002902D01*
X00532Y003352D02*X00527Y003402D01*X00537Y003852D02*X00532Y003902D01*
X00537Y003052D02*X00532Y003102D01*X00547Y003702D02*X00542Y003752D01*
X00577Y004352D02*X00572Y004402D01*X00577Y003752D02*X00572Y003802D01*
X00607Y003602D02*X00602Y003652D01*X00607Y002852D02*X00602Y002902D01*
X00627Y003802D02*X00622Y003852D01*X00627Y003052D02*X00622Y003102D01*
X00057Y004402D02*X00052Y004352D01*X00082Y002902D02*X00077Y002852D01*
X00087Y004202D02*X00082Y004152D01*X00087Y003602D02*X00082Y003552D01*
X00102Y003902D02*X00092Y003802D01*X00132Y003852D02*X00117Y003702D01*
X00132Y002902D02*X00127Y002852D01*X00167Y003902D02*X00162Y003852D01*
X00177Y004052D02*X00167Y003952D01*X00187Y004102D02*X00182Y004052D01*
X00197Y003902D02*X00192Y003852D01*X00207Y003102D02*X00202Y003052D01*
X00217Y002902D02*X00212Y002852D01*X00232Y003002D02*X00222Y002902D01*
X00237Y003102D02*X00232Y003052D01*X00267Y004402D02*X00262Y004352D01*
X00292Y002902D02*X00287Y002852D01*X00322Y004402D02*X00317Y004352D01*
X00347Y002902D02*X00342Y002852D01*X00367Y003152D02*X00362Y003102D01*
X00372Y004102D02*X00367Y004052D01*X00372Y003302D02*X00367Y003252D01*
X00377Y003402D02*X00372Y003352D01*X00382Y003502D02*X00377Y003452D01*
X00387Y003652D02*X00382Y003602D01*X00392Y003752D02*X00387Y003702D01*
X00397Y003852D02*X00392Y003802D01*X00402Y003252D02*X00397Y003202D01*
X00407Y003352D02*X00402Y003302D01*X00412Y003452D02*X00407Y003402D01*
X00417Y003602D02*X00412Y003552D01*X00422Y003702D02*X00417Y003652D01*
X00427Y003802D02*X00422Y003752D01*X00427Y002902D02*X00422Y002852D01*
X00442Y003552D02*X00437Y003502D01*X00482Y003402D02*X00477Y003352D01*
X00507Y004402D02*X00502Y004352D01*X00507Y003402D02*X00502Y003352D01*
X00532Y003652D02*X00527Y003602D01*X00537Y004202D02*X00532Y004152D01*
X00537Y003752D02*X00532Y003702D01*X00547Y003952D02*X00537Y003852D01*
X00547Y003102D02*X00542Y003052D01*X00572Y003002D02*X00557Y002852D01*
X00577Y004252D02*X00572Y004202D01*X00577Y003102D02*X00572Y003052D01*
X00607Y003852D02*X00602Y003802D01*X00607Y003102D02*X00602Y003052D01*
X00627Y003652D02*X00622Y003602D01*X00627Y002902D02*X00622Y002852D01*
X00347Y004402D02*Y002852D01*X00342Y004402D02*Y002852D01*
X00337Y004402D02*Y002852D01*X00332Y004402D02*Y002852D01*
X00327Y004402D02*Y002852D01*X00322Y004402D02*Y002852D01*
X00317Y004402D02*Y002852D01*X00292Y004402D02*Y002852D01*
X00287Y004402D02*Y002852D01*X00282Y004402D02*Y002852D01*
X00277Y004402D02*Y002852D01*X00272Y004402D02*Y002852D01*
X00267Y004402D02*Y002852D01*X00262Y004402D02*Y002852D01*
X00112Y004402D02*Y002852D01*X00107Y004402D02*Y002852D01*
X00102Y004402D02*Y002852D01*X00082Y004402D02*Y002852D01*
X00077Y004402D02*Y002852D01*X00072Y004402D02*Y002852D01*
X00067Y004402D02*Y002852D01*X00062Y004402D02*Y002852D01*
X00057Y004402D02*Y002852D01*X00052Y004402D02*Y002852D01*
X00117Y004352D02*Y002852D01*X00397Y004102D02*Y002852D01*
X00212Y004102D02*Y002852D01*X00207Y004102D02*Y002852D01*
X00192Y004102D02*Y002852D01*X00187Y004102D02*Y002852D01*
X00182Y004052D02*Y002852D01*X00222Y004052D02*Y002902D01*
X00217Y004052D02*Y002902D01*X00177Y004052D02*Y002902D01*
X00557Y003952D02*Y002852D01*X00552Y003952D02*Y002852D01*
X00547Y003952D02*Y002852D01*X00172Y004002D02*Y002902D01*
X00562Y003952D02*Y002902D01*X00227Y004002D02*Y002952D01*
X00167Y003952D02*Y002952D01*X00567Y003902D02*Y002952D01*
X00392Y003802D02*Y002852D01*X00232Y003952D02*Y003002D01*
X00572Y003852D02*Y003002D01*X00402Y004102D02*Y003252D01*
X00387Y003702D02*Y002852D01*X00532Y004402D02*Y003602D01*
X00527Y004402D02*Y003602D01*X00522Y004402D02*Y003602D01*
X00517Y004402D02*Y003602D01*X00512Y004402D02*Y003602D01*
X00507Y004402D02*Y003602D01*X00502Y004402D02*Y003602D01*
X00122Y003652D02*Y002852D01*X00052Y004202D02*X00132D01*
X00502Y003752D02*X00577D01*X00502Y004202D02*X00577D01*X00502Y004252D02*
X00577D01*X00502Y004302D02*X00577D01*X00502Y004352D02*X00577D01*
X00502Y004402D02*X00577D01*X00407Y004102D02*Y003352D01*
X00382Y003602D02*Y002852D01*X00237Y003852D02*Y003102D01*
X00162Y003852D02*Y003102D01*X00127Y003602D02*Y002852D01*
X00052Y003602D02*X00127D01*X00052Y003752D02*X00127D01*X00052Y003802D02*
X00127D01*X00052Y004252D02*X00127D01*X00052Y004302D02*X00127D01*
X00502Y003802D02*X00572D01*X00502Y003852D02*X00572D01*X00052Y003652D02*
X00122D01*X00052Y004352D02*X00122D01*X00577Y003752D02*Y003102D01*
X00507Y003002D02*X00572D01*X00507Y003052D02*X00572D01*X00412Y004102D02*
Y003452D01*X00362Y002852D02*X00427D01*X00362Y002902D02*X00427D01*
X00362Y002952D02*X00427D01*X00362Y003002D02*X00427D01*X00362Y003052D02*
X00427D01*X00167Y003002D02*X00232D01*X00167Y003052D02*X00232D01*
X00167Y003902D02*X00232D01*X00167Y003952D02*X00232D01*X00132Y003502D02*
Y002852D01*X00052Y003702D02*X00117D01*X00377Y003452D02*Y002852D01*
X00367Y003902D02*X00427D01*X00367Y003952D02*X00427D01*X00367Y004002D02*
X00427D01*X00367Y004052D02*X00427D01*X00367Y004102D02*X00427D01*
X00167Y002952D02*X00227D01*X00122Y004352D02*Y003752D01*
X00052Y004402D02*X00112D01*X00532Y003402D02*Y002852D01*
X00527Y003402D02*Y002852D01*X00512Y002952D02*X00567D01*
X00172Y004002D02*X00227D01*X00127Y004302D02*Y003752D01*
X00522Y003402D02*Y002902D01*X00517Y003402D02*Y002902D01*
X00417Y004102D02*Y003602D01*X00372Y003352D02*Y002852D01*
X00172Y002902D02*X00222D01*X00517D02*X00562D01*X00512Y003402D02*
Y002952D01*X00437Y003352D02*X00482D01*X00437Y003402D02*X00482D01*
X00437Y003452D02*X00482D01*X00437Y003502D02*X00482D01*X00437Y003552D02*
X00482D01*X00177Y004052D02*X00222D01*X00507Y003402D02*Y003002D01*
X00422Y004102D02*Y003702D01*X00367Y003252D02*Y002852D01*
X00392Y003802D02*X00427D01*X00362Y003102D02*X00397D01*X00132Y004202D02*
Y003852D01*X00097D01*Y004152D02*X00132D01*X00527Y002852D02*X00557D01*
X00502Y003102D02*X00532D01*X00502Y003152D02*X00532D01*X00502Y003202D02*
X00532D01*X00502Y003252D02*X00532D01*X00502Y003302D02*X00532D01*
X00502Y003352D02*X00532D01*X00502Y003402D02*X00532D01*X00427Y004102D02*
Y003802D01*X00182Y002852D02*X00212D01*X00097Y003552D02*X00127D01*
X00627Y003102D02*Y002852D01*Y003852D02*Y003602D01*X00622Y003102D02*
Y002852D01*Y003852D02*Y003602D01*X00617Y003102D02*Y002852D01*
Y003852D02*Y003602D01*X00612Y003102D02*Y002852D01*Y003852D02*
Y003602D01*X00607Y003102D02*Y002852D01*Y003852D02*Y003602D01*
X00602Y002852D02*X00627D01*X00602Y002902D02*X00627D01*X00602Y002952D02*
X00627D01*X00602Y003002D02*X00627D01*X00602Y003052D02*X00627D01*
X00602Y003102D02*Y002852D01*Y003602D02*X00627D01*X00602Y003652D02*
X00627D01*X00602Y003702D02*X00627D01*X00602Y003752D02*X00627D01*
X00602Y003802D02*X00627D01*X00602Y003852D02*Y003602D01*
X00542Y003902D02*X00567D01*X00187Y004102D02*X00212D01*D12*
X017808Y012066D02*X024798Y011699D01*X024694Y009702D01*
X017703Y010068D01*X017808Y012066D01*X017769Y011317D02*
X018018Y011304D01*X017992Y010804D01*X017743Y010817D01*
X010392Y018974D02*X009763Y018197D01*X011317Y016938D01*
X011947Y017716D01*X010392Y018974D01*X005011Y014685D02*
X004045Y014944D01*X003528Y013012D01*X004494Y012753D01*
X005011Y014685D01*X004045Y014944D01*X003528Y013012D01*
X004494Y012753D01*X005011Y014685D01*X008624Y010333D02*X009253Y01111D01*
X007699Y012368D01*X00707Y011591D01*X008624Y010333D01*X009253Y01111D01*
X007699Y012368D01*X00707Y011591D01*X008624Y010333D01*X007955Y009219D02*
X008585Y009996D01*X00703Y011255D01*X006401Y010478D01*X007955Y009219D01*
X008585Y009996D01*X00703Y011255D01*X006401Y010478D01*X007955Y009219D01*
X010392Y018974D02*X009763Y018197D01*X011317Y016938D01*
X011947Y017716D01*X010392Y018974D01*X002287Y015373D02*
X002382Y015463D01*X002497Y015525D01*X002624Y015556D01*
X002754Y015552D01*X002879Y015515D01*X002991Y015447D01*
X003081Y015352D01*X003143Y015238D01*X003173Y015111D01*X00317Y01498D01*
X003133Y014855D01*X003065Y014744D01*X00297Y014654D01*X002855Y014592D01*
X002728Y014561D01*X002598Y014565D01*X002473Y014602D01*X002361Y01467D01*
X002272Y014765D01*X002209Y014879D01*X002179Y015006D01*
X002182Y015137D01*X002219Y015262D01*X002287Y015373D01*X00362Y016224D02*
X00376Y016086D01*X00387Y015924D01*X003946Y015744D01*X003985Y015552D01*
X003987Y015355D01*X00395Y015163D01*X003876Y014981D01*X003768Y014818D01*
X00363Y014678D01*X003468Y014568D01*X003287Y014492D01*X003095Y014452D01*
X002899Y014451D01*X002707Y014488D01*X002525Y014562D01*X002361Y01467D01*
X002222Y014808D01*X002112Y01497D01*X002036Y01515D01*X001996Y015342D01*
X001995Y015538D01*X002032Y015731D01*X002106Y015913D01*
X002214Y016076D01*X002351Y016216D01*X002514Y016326D01*
X002694Y016402D01*X002886Y016442D01*X003082Y016443D01*
X003275Y016406D01*X003456Y016332D01*X00362Y016224D01*X002287Y015373D02*
X002382Y015463D01*X002497Y015525D01*X002624Y015556D01*
X002754Y015552D01*X002879Y015515D01*X002991Y015447D01*
X003081Y015352D01*X003143Y015238D01*X003173Y015111D01*X00317Y01498D01*
X003133Y014855D01*X003065Y014744D01*X00297Y014654D01*X002855Y014592D01*
X002728Y014561D01*X002598Y014565D01*X002473Y014602D01*X002361Y01467D01*
X002272Y014765D01*X002209Y014879D01*X002179Y015006D01*
X002182Y015137D01*X002219Y015262D01*X002287Y015373D01*X00362Y016224D02*
X00376Y016086D01*X00387Y015924D01*X003946Y015744D01*X003985Y015552D01*
X003987Y015355D01*X00395Y015163D01*X003876Y014981D01*X003768Y014818D01*
X00363Y014678D01*X003468Y014568D01*X003287Y014492D01*X003095Y014452D01*
X002899Y014451D01*X002707Y014488D01*X002525Y014562D01*X002361Y01467D01*
X002222Y014808D01*X002112Y01497D01*X002036Y01515D01*X001996Y015342D01*
X001995Y015538D01*X002032Y015731D01*X002106Y015913D01*
X002214Y016076D01*X002351Y016216D01*X002514Y016326D01*
X002694Y016402D01*X002886Y016442D01*X003082Y016443D01*
X003275Y016406D01*X003456Y016332D01*X00362Y016224D01*X022784Y014594D02*
X022836Y015592D01*X022337Y015618D01*X022207Y015608D01*
X022084Y015565D01*X021976Y015491D01*X021891Y015391D01*
X021835Y015274D01*X021811Y015145D01*X021822Y015015D01*
X021865Y014892D01*X021939Y014785D01*X022038Y0147D01*X022156Y014644D01*
X022285Y01462D01*X023783Y014541D01*X023913Y014552D01*X024036Y014595D01*
X024143Y014669D01*X024228Y014768D01*X024284Y014886D01*
X024308Y015014D01*X024298Y015145D01*X024254Y015268D01*X02418Y015375D01*
X024081Y01546D01*X023963Y015516D01*X023835Y01554D01*X022337Y015618D01*
X023086Y015579D02*X023034Y014581D01*X023283Y014568D02*
X023336Y015566D01*X035481Y015113D02*X035981Y015139D01*
X036109Y015163D01*X036227Y015219D01*X036326Y015304D01*X0364Y015412D01*
X036444Y015535D01*X036454Y015665D01*X03643Y015793D01*X036374Y015911D01*
X036289Y01601D01*X036181Y016084D01*X036058Y016128D01*X035928Y016138D01*
X03443Y016059D01*X034302Y016036D01*X034184Y015979D01*X034085Y015895D01*
X034011Y015787D01*X033967Y015664D01*X033957Y015534D01*
X033981Y015406D01*X034037Y015288D01*X034122Y015188D01*X03423Y015115D01*
X034353Y015071D01*X034483Y015061D01*X035981Y015139D01*
X035481Y015113D02*X035429Y016112D01*X03493Y016086D02*X034982Y015087D01*
X030566Y013814D02*X031036Y013985D01*X031151Y014045D01*
X031248Y014134D01*X031318Y014244D01*X031357Y014368D01*
X031363Y014498D01*X031334Y014626D01*X031274Y014742D01*
X031186Y014838D01*X031076Y014908D01*X030951Y014947D01*
X030821Y014953D01*X030694Y014925D01*X029284Y014412D01*
X029168Y014351D01*X029072Y014263D01*X029002Y014153D01*
X028963Y014029D01*X028957Y013898D01*X028985Y013771D01*
X029045Y013655D01*X029134Y013559D01*X029244Y013489D01*
X029368Y013449D01*X029499Y013444D01*X029626Y013472D01*
X031036Y013985D01*X030566Y013814D02*X030224Y014754D01*
X029754Y014583D02*X030096Y013643D01*X030566Y013814D02*
X031036Y013985D01*X031151Y014045D01*X031248Y014134D01*
X031318Y014244D01*X031357Y014368D01*X031363Y014498D01*
X031334Y014626D01*X031274Y014742D01*X031186Y014838D01*
X031076Y014908D01*X030951Y014947D01*X030821Y014953D01*
X030694Y014925D01*X029284Y014412D01*X029168Y014351D01*
X029072Y014263D01*X029002Y014153D01*X028963Y014029D01*
X028957Y013898D01*X028985Y013771D01*X029045Y013655D01*
X029134Y013559D01*X029244Y013489D01*X029368Y013449D01*
X029499Y013444D01*X029626Y013472D01*X031036Y013985D01*
X030566Y013814D02*X030224Y014754D01*X029754Y014583D02*
X030096Y013643D01*X035481Y015113D02*X035981Y015139D01*
X036109Y015163D01*X036227Y015219D01*X036326Y015304D01*X0364Y015412D01*
X036444Y015535D01*X036454Y015665D01*X03643Y015793D01*X036374Y015911D01*
X036289Y01601D01*X036181Y016084D01*X036058Y016128D01*X035928Y016138D01*
X03443Y016059D01*X034302Y016036D01*X034184Y015979D01*X034085Y015895D01*
X034011Y015787D01*X033967Y015664D01*X033957Y015534D01*
X033981Y015406D01*X034037Y015288D01*X034122Y015188D01*X03423Y015115D01*
X034353Y015071D01*X034483Y015061D01*X035981Y015139D01*
X035481Y015113D02*X035429Y016112D01*X03493Y016086D02*X034982Y015087D01*
X018827Y005582D02*X019666Y006126D01*X019393Y006546D01*
X019309Y006645D01*X019201Y006719D01*X019078Y006762D01*
X018948Y006773D01*X018819Y006749D01*X018702Y006693D01*
X018602Y006608D01*X018528Y0065D01*X018485Y006377D01*X018475Y006247D01*
X018498Y006119D01*X018555Y006001D01*X019372Y004743D01*
X019456Y004644D01*X019564Y00457D01*X019687Y004526D01*X019817Y004516D01*
X019945Y00454D01*X020063Y004596D01*X020162Y004681D01*X020236Y004788D01*
X02028Y004911D01*X02029Y005041D01*X020266Y00517D01*X02021Y005288D01*
X019393Y006546D01*X019802Y005917D02*X018963Y005372D01*
X019099Y005162D02*X019938Y005707D01*X018827Y005582D02*
X019666Y006126D01*X019393Y006546D01*X019309Y006645D01*
X019201Y006719D01*X019078Y006762D01*X018948Y006773D01*
X018819Y006749D01*X018702Y006693D01*X018602Y006608D01*X018528Y0065D01*
X018485Y006377D01*X018475Y006247D01*X018498Y006119D01*
X018555Y006001D01*X019372Y004743D01*X019456Y004644D01*X019564Y00457D01*
X019687Y004526D01*X019817Y004516D01*X019945Y00454D01*X020063Y004596D01*
X020162Y004681D01*X020236Y004788D01*X02028Y004911D01*X02029Y005041D01*
X020266Y00517D01*X02021Y005288D01*X019393Y006546D01*X019802Y005917D02*
X018963Y005372D01*X019099Y005162D02*X019938Y005707D01*
X029557Y006076D02*X028569Y00592D01*X028647Y005426D01*X028685Y005301D01*
X028753Y00519D01*X028847Y0051D01*X028962Y005037D01*X029089Y005007D01*
X02922Y00501D01*X029345Y005047D01*X029456Y005116D01*X029546Y00521D01*
X029608Y005325D01*X029639Y005452D01*X029635Y005582D01*X0294Y007064D01*
X029363Y007189D01*X029295Y0073D01*X029201Y00739D01*X029086Y007453D01*
X028959Y007483D01*X028828Y00748D01*X028703Y007442D01*X028592Y007374D01*
X028502Y00728D01*X02844Y007165D01*X028409Y007038D01*X028413Y006907D01*
X028647Y005426D01*X02853Y006167D02*X029518Y006323D01*X029479Y00657D02*
X028491Y006414D01*X029557Y006076D02*X028569Y00592D01*X028647Y005426D01*
X028685Y005301D01*X028753Y00519D01*X028847Y0051D01*X028962Y005037D01*
X029089Y005007D01*X02922Y00501D01*X029345Y005047D01*X029456Y005116D01*
X029546Y00521D01*X029608Y005325D01*X029639Y005452D01*X029635Y005582D01*
X0294Y007064D01*X029363Y007189D01*X029295Y0073D01*X029201Y00739D01*
X029086Y007453D01*X028959Y007483D01*X028828Y00748D01*X028703Y007442D01*
X028592Y007374D01*X028502Y00728D01*X02844Y007165D01*X028409Y007038D01*
X028413Y006907D01*X028647Y005426D01*X02853Y006167D02*X029518Y006323D01*
X029479Y00657D02*X028491Y006414D01*X022784Y014594D02*X022836Y015592D01*
X022337Y015618D01*X022207Y015608D01*X022084Y015565D01*
X021976Y015491D01*X021891Y015391D01*X021835Y015274D01*
X021811Y015145D01*X021822Y015015D01*X021865Y014892D01*
X021939Y014785D01*X022038Y0147D01*X022156Y014644D01*X022285Y01462D01*
X023783Y014541D01*X023913Y014552D01*X024036Y014595D01*
X024143Y014669D01*X024228Y014768D01*X024284Y014886D01*
X024308Y015014D01*X024298Y015145D01*X024254Y015268D01*X02418Y015375D01*
X024081Y01546D01*X023963Y015516D01*X023835Y01554D01*X022337Y015618D01*
X023086Y015579D02*X023034Y014581D01*X023283Y014568D02*
X023336Y015566D01*X004733Y011939D02*X004506Y011494D01*X004463Y01137D01*
X004452Y01124D01*X004476Y011112D01*X004532Y010994D01*X004617Y010895D01*
X004725Y010821D01*X004848Y010777D01*X004978Y010767D01*
X005106Y010791D01*X005224Y010847D01*X005323Y010932D01*X005397Y01104D01*
X006078Y012376D01*X006122Y012499D01*X006132Y012629D01*
X006108Y012758D01*X006052Y012875D01*X005967Y012975D01*X00586Y013049D01*
X005737Y013092D01*X005607Y013102D01*X005478Y013079D01*X00536Y013022D01*
X005261Y012938D01*X005187Y01283D01*X004506Y011494D01*X004733Y011939D02*
X005624Y011485D01*X005851Y011931D02*X00496Y012385D01*X010467Y015879D02*
X010856Y015565D01*X010967Y015496D01*X011092Y015459D01*
X011223Y015456D01*X01135Y015486D01*X011464Y015549D01*X011559Y015639D01*
X011627Y01575D01*X011664Y015875D01*X011668Y016005D01*X011637Y016132D01*
X011575Y016247D01*X011485Y016342D01*X010319Y017286D01*
X010208Y017354D01*X010083Y017391D01*X009952Y017394D01*
X009826Y017364D01*X009711Y017302D01*X009616Y017212D01*
X009548Y017101D01*X009511Y016975D01*X009507Y016845D01*
X009538Y016718D01*X0096Y016603D01*X00969Y016509D01*X010856Y015565D01*
X010467Y015879D02*X011097Y016656D01*X010708Y016971D02*
X010079Y016194D01*X010467Y015879D02*X010856Y015565D01*
X010967Y015496D01*X011092Y015459D01*X011223Y015456D01*X01135Y015486D01*
X011464Y015549D01*X011559Y015639D01*X011627Y01575D01*X011664Y015875D01*
X011668Y016005D01*X011637Y016132D01*X011575Y016247D01*
X011485Y016342D01*X010319Y017286D01*X010208Y017354D01*
X010083Y017391D01*X009952Y017394D01*X009826Y017364D01*
X009711Y017302D01*X009616Y017212D01*X009548Y017101D01*
X009511Y016975D01*X009507Y016845D01*X009538Y016718D01*X0096Y016603D01*
X00969Y016509D01*X010856Y015565D01*X010467Y015879D02*X011097Y016656D01*
X010708Y016971D02*X010079Y016194D01*X004733Y011939D02*
X004506Y011494D01*X004463Y01137D01*X004452Y01124D01*X004476Y011112D01*
X004532Y010994D01*X004617Y010895D01*X004725Y010821D01*
X004848Y010777D01*X004978Y010767D01*X005106Y010791D01*
X005224Y010847D01*X005323Y010932D01*X005397Y01104D01*X006078Y012376D01*
X006122Y012499D01*X006132Y012629D01*X006108Y012758D01*
X006052Y012875D01*X005967Y012975D01*X00586Y013049D01*X005737Y013092D01*
X005607Y013102D01*X005478Y013079D01*X00536Y013022D01*X005261Y012938D01*
X005187Y01283D01*X004506Y011494D01*X004733Y011939D02*X005624Y011485D01*
X005851Y011931D02*X00496Y012385D01*D17*X029384Y017126D02*
X029563Y015178D01*D12*X029313Y01516D01*X029174Y017156D01*
X029313Y01516D02*X028066Y015073D01*D17*X027988Y017104D01*D12*
X027941Y018911D01*X028462Y019641D01*D17*X029563Y015178D02*
X02958Y014929D01*D19*X028084Y014824D01*D17*X028066Y015073D01*D12*
X029372Y01717D02*X029132Y019007D01*X028488Y019654D01*X028287Y015102D02*
X028203Y017066D01*D17*X029384Y017126D02*X029563Y015178D01*D12*
X029313Y01516D01*X029174Y017156D01*X029313Y01516D02*X028066Y015073D01*
D17*X027988Y017104D01*D12*X027941Y018911D01*X028462Y019641D01*D17*
X029563Y015178D02*X02958Y014929D01*D19*X028084Y014824D01*D17*
X028066Y015073D01*D12*X029372Y01717D02*X029132Y019007D01*
X028488Y019654D01*X028287Y015102D02*X028203Y017066D01*
X016718Y002447D02*X016945Y002893D01*X017163Y00222D01*X017836Y002439D01*
X017609Y001993D01*X018054Y001766D01*X017382Y001548D01*X0176Y000875D01*
X017155Y001102D01*X016928Y000657D01*X016709Y001329D01*
X016037Y001111D01*X016264Y001556D01*X015818Y001783D01*
X016491Y002002D01*X016272Y002674D01*X016718Y002447D01*
X016945Y002893D01*X017163Y00222D01*X017836Y002439D01*X017609Y001993D01*
X018054Y001766D01*X017382Y001548D01*X0176Y000875D01*X017155Y001102D01*
X016928Y000657D01*X016709Y001329D01*X016037Y001111D01*
X016264Y001556D01*X015818Y001783D01*X016491Y002002D01*
X016272Y002674D01*X016718Y002447D01*X02126Y008855D02*X021208Y007857D01*
X021458Y007844D01*X02151Y008842D01*X019513Y008947D01*X019461Y007948D01*
X021458Y007844D01*X02126Y008855D02*X021208Y007857D01*X021458Y007844D01*
X02151Y008842D01*X019513Y008947D01*X019461Y007948D01*X021458Y007844D01*
X033072Y019249D02*X03302Y018251D01*X033269Y018238D01*X033322Y019236D01*
X031325Y019341D01*X031272Y018342D01*X033269Y018238D01*
X033072Y019249D02*X03302Y018251D01*X033269Y018238D01*X033322Y019236D01*
X031325Y019341D01*X031272Y018342D01*X033269Y018238D01*
X013901Y009068D02*X013232Y009811D01*X01286Y009477D01*X012775Y009377D01*
X012719Y00926D01*X012695Y009131D01*X012706Y009001D01*X012749Y008878D01*
X012823Y00877D01*X012922Y008686D01*X01304Y00863D01*X013168Y008606D01*
X013299Y008616D01*X013422Y00866D01*X013529Y008733D01*X014644Y009737D01*
X014729Y009836D01*X014785Y009954D01*X014809Y010083D01*
X014798Y010213D01*X014755Y010336D01*X014681Y010443D01*
X014582Y010528D01*X014464Y010584D01*X014335Y010608D01*
X014205Y010598D01*X014082Y010554D01*X013975Y01048D01*X01286Y009477D01*
X013417Y009978D02*X014087Y009235D01*X014272Y009403D02*
X013603Y010146D01*X013901Y009068D02*X013232Y009811D01*X01286Y009477D01*
X012775Y009377D01*X012719Y00926D01*X012695Y009131D01*X012706Y009001D01*
X012749Y008878D01*X012823Y00877D01*X012922Y008686D01*X01304Y00863D01*
X013168Y008606D01*X013299Y008616D01*X013422Y00866D01*X013529Y008733D01*
X014644Y009737D01*X014729Y009836D01*X014785Y009954D01*
X014809Y010083D01*X014798Y010213D01*X014755Y010336D01*
X014681Y010443D01*X014582Y010528D01*X014464Y010584D01*
X014335Y010608D01*X014205Y010598D01*X014082Y010554D01*X013975Y01048D01*
X01286Y009477D01*X013417Y009978D02*X014087Y009235D01*X014272Y009403D02*
X013603Y010146D01*X024053Y018377D02*X023818Y018819D01*
X024494Y018612D01*X024701Y019288D01*X024936Y018847D01*
X025377Y019082D01*X02517Y018405D01*X025847Y018199D01*X025405Y017964D01*
X02564Y017522D01*X024964Y017729D01*X024757Y017053D01*X024522Y017494D01*
X024081Y01726D01*X024288Y017936D01*X023611Y018143D01*X024053Y018377D01*
X024687Y019847D02*X025039Y019185D01*X025701Y019537D01*
X025391Y018523D01*X026405Y018213D01*X025743Y01786D01*X026095Y017198D01*
X025081Y017508D01*X024771Y016494D01*X024419Y017156D01*
X023757Y016804D01*X024067Y017818D01*X023052Y018129D01*
X023715Y018481D01*X024771Y016494D02*X024419Y017156D01*
X023757Y016804D01*X024067Y017818D01*X023052Y018129D01*
X023715Y018481D01*X023363Y019143D01*X024377Y018833D01*
X024687Y019847D01*X025039Y019185D01*X025701Y019537D01*
X025391Y018523D01*X026405Y018213D01*X025743Y01786D01*X024053Y018377D02*
X023818Y018819D01*X024494Y018612D01*X024701Y019288D01*
X024936Y018847D01*X025377Y019082D01*X02517Y018405D01*X025847Y018199D01*
X025405Y017964D01*X02564Y017522D01*X024964Y017729D01*X024757Y017053D01*
X024522Y017494D01*X024081Y01726D01*X024288Y017936D01*X023611Y018143D01*
X024053Y018377D01*X024687Y019847D02*X025039Y019185D01*
X025701Y019537D01*X025391Y018523D01*X026405Y018213D01*X025743Y01786D01*
X026095Y017198D01*X025081Y017508D01*X024771Y016494D01*
X024419Y017156D01*X023757Y016804D01*X024067Y017818D01*
X023052Y018129D01*X023715Y018481D01*X024771Y016494D02*
X024419Y017156D01*X023757Y016804D01*X024067Y017818D01*
X023052Y018129D01*X023715Y018481D01*X023363Y019143D01*
X024377Y018833D01*X024687Y019847D01*X025039Y019185D01*
X025701Y019537D01*X025391Y018523D01*X026405Y018213D01*X025743Y01786D01*
X017808Y012066D02*X024798Y011699D01*X024694Y009702D01*
X017703Y010068D01*X017808Y012066D01*X017769Y011317D02*
X018018Y011304D01*X017992Y010804D01*X017743Y010817D01*
X012195Y009403D02*X007511Y014605D01*X008997Y015943D01*
X013681Y010741D01*X012195Y009403D01*X012752Y009905D02*
X012585Y010091D01*X012956Y010425D01*X013124Y010239D01*
X021115Y015856D02*X018994Y013735D01*X018287Y014442D01*Y015149D01*
X018994D01*Y015856D01*X019701D01*Y016563D01*X020408D01*
X021115Y015856D01*X018994Y013027D02*X017933Y014088D01*Y015502D01*
X01864D01*Y016209D01*X019347D01*Y016917D01*X020762D01*
X021822Y015856D01*X018994Y013027D01*X021115Y015856D02*
X018994Y013735D01*X018287Y014442D01*Y015149D01*X018994D01*Y015856D01*
X019701D01*Y016563D01*X020408D01*X021115Y015856D01*X018994Y013027D02*
X017933Y014088D01*Y015502D01*X01864D01*Y016209D01*X019347D01*
Y016917D01*X020762D01*X021822Y015856D01*X018994Y013027D01*
X01355Y006589D02*X013376Y005604D01*X013361Y005409D01*X013385Y005214D01*
X013446Y005028D01*X013542Y004857D01*X013669Y004708D01*
X013824Y004587D01*X013999Y004498D01*X014187Y004446D01*
X014383Y004431D01*X014577Y004454D01*X014764Y004515D01*
X014935Y004611D01*X015083Y004739D01*X015204Y004893D01*
X015293Y005068D01*X015346Y005257D01*X015693Y007226D01*
X015708Y007422D01*X015685Y007617D01*X015624Y007803D01*
X015527Y007974D01*X0154Y008122D01*X015246Y008243D01*X015071Y008332D01*
X014882Y008385D01*X014686Y0084D01*X014492Y008376D01*X014306Y008315D01*
X014135Y008219D01*X013986Y008092D01*X013865Y007937D01*
X013776Y007763D01*X013723Y007574D01*X01355Y006589D01*X013782Y005025D02*
X013776Y004894D01*X013804Y004767D01*X013865Y004651D01*
X013953Y004555D01*X014063Y004485D01*X014187Y004446D01*X014318Y00444D01*
X014445Y004468D01*X014561Y004529D01*X014657Y004617D01*
X014727Y004727D01*X014767Y004851D01*X014772Y004982D01*
X014744Y005109D01*X014684Y005225D01*X014596Y005321D01*
X014485Y005391D01*X014361Y00543D01*X014231Y005436D01*X014103Y005408D01*
X013987Y005348D01*X013891Y005259D01*X013821Y005149D01*
X013782Y005025D01*X014708Y0074D02*X014621Y006908D01*X014824Y006618D01*
X014535Y006415D01*X014193Y007355D02*X014364Y006885D01*
X014684Y006736D01*X014535Y006415D01*X013769Y007058D02*
X014152Y006737D01*X014504Y006768D01*X014535Y006415D01*X01355Y006589D02*
X014042Y006502D01*X014332Y006705D01*X014535Y006415D01*
X015519Y006242D02*X015027Y006328D01*X014737Y006126D01*
X014535Y006415D01*X015474Y006757D02*X015004Y006586D01*
X014855Y006266D01*X014535Y006415D01*X015177Y007181D02*
X014856Y006798D01*X014887Y006446D01*X014535Y006415D01*X014361Y00543D02*
X014448Y005923D01*X014245Y006212D01*X014535Y006415D01*
X014877Y005476D02*X014706Y005945D01*X014385Y006095D01*
X014535Y006415D01*X015301Y005772D02*X014918Y006094D01*
X014565Y006063D01*X014535Y006415D01*X013595Y006073D02*
X014065Y006244D01*X014214Y006565D01*X014535Y006415D01*
X013892Y005649D02*X014213Y006032D01*X014182Y006384D01*
X014535Y006415D01*X015766Y006198D02*X015939Y007183D01*X015958Y0074D01*
X015939Y007617D01*X015883Y007828D01*X015791Y008025D01*
X015666Y008204D01*X015512Y008358D01*X015333Y008483D01*
X015136Y008575D01*X014925Y008631D01*X014708Y00865D01*X014491Y008631D01*
X014281Y008575D01*X014083Y008483D01*X013905Y008358D01*
X013751Y008204D01*X013626Y008025D01*X013534Y007828D01*
X013477Y007617D01*X01313Y005648D01*X013111Y00543D01*X01313Y005213D01*
X013186Y005003D01*X013278Y004805D01*X013403Y004627D01*
X013557Y004473D01*X013736Y004348D01*X013933Y004256D01*
X014144Y004199D01*X014361Y00418D01*X014578Y004199D01*X014788Y004256D01*
X014986Y004348D01*X015164Y004473D01*X015319Y004627D01*
X015443Y004805D01*X015536Y005003D01*X015592Y005213D01*
X015766Y006198D01*X01355Y006589D02*X013376Y005604D01*X013361Y005409D01*
X013385Y005214D01*X013446Y005028D01*X013542Y004857D01*
X013669Y004708D01*X013824Y004587D01*X013999Y004498D01*
X014187Y004446D01*X014383Y004431D01*X014577Y004454D01*
X014764Y004515D01*X014935Y004611D01*X015083Y004739D01*
X015204Y004893D01*X015293Y005068D01*X015346Y005257D01*
X015693Y007226D01*X015708Y007422D01*X015685Y007617D01*
X015624Y007803D01*X015527Y007974D01*X0154Y008122D01*X015246Y008243D01*
X015071Y008332D01*X014882Y008385D01*X014686Y0084D01*X014492Y008376D01*
X014306Y008315D01*X014135Y008219D01*X013986Y008092D01*
X013865Y007937D01*X013776Y007763D01*X013723Y007574D01*X01355Y006589D01*
X013782Y005025D02*X013776Y004894D01*X013804Y004767D01*
X013865Y004651D01*X013953Y004555D01*X014063Y004485D01*
X014187Y004446D01*X014318Y00444D01*X014445Y004468D01*X014561Y004529D01*
X014657Y004617D01*X014727Y004727D01*X014767Y004851D01*
X014772Y004982D01*X014744Y005109D01*X014684Y005225D01*
X014596Y005321D01*X014485Y005391D01*X014361Y00543D01*X014231Y005436D01*
X014103Y005408D01*X013987Y005348D01*X013891Y005259D01*
X013821Y005149D01*X013782Y005025D01*X014708Y0074D02*X014621Y006908D01*
X014824Y006618D01*X014535Y006415D01*X014193Y007355D02*
X014364Y006885D01*X014684Y006736D01*X014535Y006415D01*
X013769Y007058D02*X014152Y006737D01*X014504Y006768D01*
X014535Y006415D01*X01355Y006589D02*X014042Y006502D01*X014332Y006705D01*
X014535Y006415D01*X015519Y006242D02*X015027Y006328D01*
X014737Y006126D01*X014535Y006415D01*X015474Y006757D02*
X015004Y006586D01*X014855Y006266D01*X014535Y006415D01*
X015177Y007181D02*X014856Y006798D01*X014887Y006446D01*
X014535Y006415D01*X014361Y00543D02*X014448Y005923D01*X014245Y006212D01*
X014535Y006415D01*X014877Y005476D02*X014706Y005945D01*
X014385Y006095D01*X014535Y006415D01*X015301Y005772D02*
X014918Y006094D01*X014565Y006063D01*X014535Y006415D01*
X013595Y006073D02*X014065Y006244D01*X014214Y006565D01*
X014535Y006415D01*X013892Y005649D02*X014213Y006032D01*
X014182Y006384D01*X014535Y006415D01*X015766Y006198D02*
X015939Y007183D01*X015958Y0074D01*X015939Y007617D01*X015883Y007828D01*
X015791Y008025D01*X015666Y008204D01*X015512Y008358D01*
X015333Y008483D01*X015136Y008575D01*X014925Y008631D01*X014708Y00865D01*
X014491Y008631D01*X014281Y008575D01*X014083Y008483D01*
X013905Y008358D01*X013751Y008204D01*X013626Y008025D01*
X013534Y007828D01*X013477Y007617D01*X01313Y005648D01*X013111Y00543D01*
X01313Y005213D01*X013186Y005003D01*X013278Y004805D01*X013403Y004627D01*
X013557Y004473D01*X013736Y004348D01*X013933Y004256D01*
X014144Y004199D01*X014361Y00418D01*X014578Y004199D01*X014788Y004256D01*
X014986Y004348D01*X015164Y004473D01*X015319Y004627D01*
X015443Y004805D01*X015536Y005003D01*X015592Y005213D01*
X015766Y006198D01*D18*X001565Y017383D02*X00174Y016985D01*D16*
X002041Y016724D01*D13*X002323Y016704D01*D18*X001781Y017607D02*
X001842Y01785D01*D16*X002077Y018101D01*D13*X002668Y018367D01*D18*
X001557Y017438D02*X001291Y017367D01*X001739Y017528D02*X001569Y01744D01*
X001816Y017553D02*X002434Y017731D01*D17*X002446Y017733D02*
X002923Y017794D01*D15*X003062Y017796D02*X002956Y0178D01*
X003077Y017775D02*X003154Y017533D01*D14*X003175Y017479D02*
X00347Y017125D01*X0035Y017153D02*X003919Y017146D01*X003926Y01717D02*
X004201Y017323D01*D12*X004222Y017338D02*X004451Y017553D01*
X004447Y017576D02*X004478Y017732D01*D15*X003069Y01782D02*
X003197Y018145D01*D14*X003193Y018167D02*X003458Y018376D01*
X003452Y01841D02*X003869Y018484D01*D12*X00388Y018486D02*
X00409Y018418D01*D15*X00274Y017743D02*X002849Y017401D01*D14*
X002844Y017384D02*X003288Y016868D01*X003963Y016826D01*X003952Y01684D02*
X00435Y017047D01*D12*X004326Y017043D02*X0046Y017356D01*
X004613Y017375D02*X004679Y017595D01*D15*X00281Y017804D02*
X002932Y018272D01*D14*X002919Y018281D02*X003337Y018644D01*
X003839Y018733D01*X004125Y018615D01*D18*X001565Y017383D02*
X00174Y016985D01*D16*X002041Y016724D01*D13*X002323Y016704D01*D18*
X001781Y017607D02*X001842Y01785D01*D16*X002077Y018101D01*D13*
X002668Y018367D01*D18*X001557Y017438D02*X001291Y017367D01*
X001739Y017528D02*X001569Y01744D01*X001816Y017553D02*X002434Y017731D01*
D17*X002446Y017733D02*X002923Y017794D01*D15*X003062Y017796D02*
X002956Y0178D01*X003077Y017775D02*X003154Y017533D01*D14*
X003175Y017479D02*X00347Y017125D01*X0035Y017153D02*X003919Y017146D01*
X003926Y01717D02*X004201Y017323D01*D12*X004222Y017338D02*
X004451Y017553D01*X004447Y017576D02*X004478Y017732D01*D15*
X003069Y01782D02*X003197Y018145D01*D14*X003193Y018167D02*
X003458Y018376D01*X003452Y01841D02*X003869Y018484D01*D12*
X00388Y018486D02*X00409Y018418D01*D15*X00274Y017743D02*
X002849Y017401D01*D14*X002844Y017384D02*X003288Y016868D01*
X003963Y016826D01*X003952Y01684D02*X00435Y017047D01*D12*
X004326Y017043D02*X0046Y017356D01*X004613Y017375D02*X004679Y017595D01*
D15*X00281Y017804D02*X002932Y018272D01*D14*X002919Y018281D02*
X003337Y018644D01*X003839Y018733D01*X004125Y018615D01*D18*
X042167Y017851D02*X041749Y017973D01*D16*X041356Y01791D01*D13*
X041159Y017706D01*D18*X042199Y017542D02*X042346Y017338D01*D16*
X042387Y016998D01*D13*X042211Y016373D01*D18*X042213Y017822D02*
X04233Y018071D01*X042165Y017625D02*X042207Y017812D01*X042135Y01755D02*
X041874Y016961D01*D17*X041869Y016951D02*X041609Y016547D01*D15*
X04152Y016439D02*X041592Y016517D01*X041495Y016441D02*X04126Y016537D01*
D14*X041205Y016555D02*X040744Y016557D01*X040746Y016516D02*
X040471Y0162D01*X040485Y016179D02*X040426Y01587D01*D12*
X040424Y015844D02*X040441Y015531D01*X040461Y015519D02*
X040561Y015395D01*D15*X041534Y016418D02*X0417Y016111D01*D14*
X04172Y016099D02*X04171Y015762D01*X04174Y015745D02*X041528Y015378D01*
D12*X041523Y015368D02*X041336Y015252D01*D18*X042167Y017851D02*
X041749Y017973D01*D16*X041356Y01791D01*D13*X041159Y017706D01*D18*
X042199Y017542D02*X042346Y017338D01*D16*X042387Y016998D01*D13*
X042211Y016373D01*D18*X042213Y017822D02*X04233Y018071D01*
X042165Y017625D02*X042207Y017812D01*X042135Y01755D02*X041874Y016961D01*
D17*X041869Y016951D02*X041609Y016547D01*D15*X04152Y016439D02*
X041592Y016517D01*X041495Y016441D02*X04126Y016537D01*D14*
X041205Y016555D02*X040744Y016557D01*X040746Y016516D02*X040471Y0162D01*
X040485Y016179D02*X040426Y01587D01*D12*X040424Y015844D02*
X040441Y015531D01*X040461Y015519D02*X040561Y015395D01*D15*
X041534Y016418D02*X0417Y016111D01*D14*X04172Y016099D02*
X04171Y015762D01*X04174Y015745D02*X041528Y015378D01*D12*
X041523Y015368D02*X041336Y015252D01*X036728Y01208D02*X029967Y010269D01*
X029449Y0122D01*X03621Y014012D01*X036728Y01208D01*X036534Y012805D02*
X036292Y01274D01*X036163Y013223D01*X036405Y013288D01*X036728Y01208D02*
X029967Y010269D01*X029449Y0122D01*X03621Y014012D01*X036728Y01208D01*
X036534Y012805D02*X036292Y01274D01*X036163Y013223D01*X036405Y013288D01*
X012195Y009403D02*X007511Y014605D01*X008997Y015943D01*
X013681Y010741D01*X012195Y009403D01*X012752Y009905D02*
X012585Y010091D01*X012956Y010425D01*X013124Y010239D01*
X015039Y013145D02*X015398Y014078D01*X015164Y014168D01*
X014806Y013234D01*X016673Y012518D01*X017031Y013451D01*
X015164Y014168D01*X015039Y013145D02*X015398Y014078D01*
X015164Y014168D01*X014806Y013234D01*X016673Y012518D01*
X017031Y013451D01*X015164Y014168D01*X016024Y008605D02*
X017023Y008553D01*X017128Y01055D01*X016129Y010603D01*X016024Y008605D01*
X010081Y007336D02*X009873Y006358D01*X011829Y005942D01*X012037Y00692D01*
X010081Y007336D01*X011519Y007477D02*X012107Y008286D01*
X010489Y009462D01*X009901Y008652D01*X011519Y007477D01*
X007436Y008014D02*X00798Y008853D01*X006303Y009942D01*X005758Y009104D01*
X007436Y008014D01*X008509Y016146D02*X007732Y016775D01*
X006474Y015221D01*X007251Y014592D01*X008509Y016146D01*
X007732Y016775D01*X006474Y015221D01*X007251Y014592D01*
X008509Y016146D01*X006719Y01731D02*X00574Y017518D01*X005325Y015562D01*
X006303Y015354D01*X006719Y01731D01*X00574Y017518D01*X005325Y015562D01*
X006303Y015354D01*X006719Y01731D01*X007436Y008014D02*X00798Y008853D01*
X006303Y009942D01*X005758Y009104D01*X007436Y008014D01*
X008643Y006572D02*X007653Y006712D01*X007374Y004731D01*
X008364Y004592D01*X008643Y006572D01*X007653Y006712D01*
X007374Y004731D01*X008364Y004592D01*X008643Y006572D01*X007181Y01925D02*
X006727Y018359D01*X008509Y017451D01*X008963Y018342D01*X007181Y01925D01*
X006727Y018359D01*X008509Y017451D01*X008963Y018342D01*X007181Y01925D01*
X011519Y007477D02*X012107Y008286D01*X010489Y009462D01*
X009901Y008652D01*X011519Y007477D01*X010081Y007336D02*
X009873Y006358D01*X011829Y005942D01*X012037Y00692D01*X010081Y007336D01*
X016024Y008605D02*X017023Y008553D01*X017128Y01055D01*X016129Y010603D01*
X016024Y008605D01*X016788Y014667D02*X016844Y015202D01*X016631Y01568D01*
X016195Y015997D01*X01566Y016053D01*X015182Y01584D01*X014865Y015405D01*
X014809Y014869D01*X014801Y01454D01*X016257Y013981D01*X016471Y014231D01*
X016788Y014667D01*X015783Y01562D02*X01625Y015441D01*X02724Y014519D02*
X027146Y015049D01*X02681Y01545D01*X026304Y015635D01*X025774Y015541D01*
X025373Y015205D01*X025188Y014699D01*X025282Y014169D01*X025365Y01385D01*
X026919Y013714D01*X027055Y014013D01*X02724Y014519D01*X026011Y015159D02*
X026509Y015115D01*X024254Y004841D02*X024375Y005365D01*
X024222Y005866D01*X023829Y006234D01*X023304Y006354D01*
X022803Y006201D01*X022436Y005808D01*X022315Y005283D01*
X022267Y004957D01*X023644Y004225D01*X023887Y004447D01*
X024254Y004841D01*X023373Y005909D02*X023815Y005675D01*
X024254Y004841D02*X024375Y005365D01*X024222Y005866D01*
X023829Y006234D01*X023304Y006354D01*X022803Y006201D01*
X022436Y005808D01*X022315Y005283D01*X022267Y004957D01*
X023644Y004225D01*X023887Y004447D01*X024254Y004841D01*
X023373Y005909D02*X023815Y005675D01*X02724Y014519D02*X027146Y015049D01*
X02681Y01545D01*X026304Y015635D01*X025774Y015541D01*X025373Y015205D01*
X025188Y014699D01*X025282Y014169D01*X025365Y01385D01*X026919Y013714D01*
X027055Y014013D01*X02724Y014519D01*X026011Y015159D02*X026509Y015115D01*
X02637Y008378D02*X02597Y008738D01*X025458Y008847D01*X024946Y008681D01*
X024586Y00828D01*X024477Y007768D01*X024643Y007256D01*X025043Y006896D01*
X025304Y006696D01*X026613Y007546D01*X026536Y007866D01*X02637Y008378D01*
X025008Y008125D02*X025428Y008398D01*X02637Y008378D02*X02597Y008738D01*
X025458Y008847D01*X024946Y008681D01*X024586Y00828D01*X024477Y007768D01*
X024643Y007256D01*X025043Y006896D01*X025304Y006696D01*
X026613Y007546D01*X026536Y007866D01*X02637Y008378D01*X025008Y008125D02*
X025428Y008398D01*X016788Y014667D02*X016844Y015202D01*X016631Y01568D01*
X016195Y015997D01*X01566Y016053D01*X015182Y01584D01*X014865Y015405D01*
X014809Y014869D01*X014801Y01454D01*X016257Y013981D01*X016471Y014231D01*
X016788Y014667D01*X015783Y01562D02*X01625Y015441D01*X015944Y017759D02*
X015668Y016797D01*X017591Y016246D01*X017866Y017207D01*
X015944Y017759D01*X014506Y016006D02*X013962Y016845D01*
X012284Y015755D01*X012829Y014917D01*X014506Y016006D01*
X013622Y013931D02*X012879Y013262D01*X014217Y011776D01*X01496Y012445D01*
X013622Y013931D01*X012879Y013262D01*X014217Y011776D01*X01496Y012445D01*
X013622Y013931D01*X012179Y019366D02*X01155Y018589D01*X013104Y017331D01*
X013733Y018108D01*X012179Y019366D01*X023497Y013287D02*X02355Y014286D01*
X021553Y014391D01*X0215Y013392D01*X023497Y013287D01*X017948Y006296D02*
X017082Y005796D01*X018082Y004064D01*X018948Y004564D01*
X017948Y006296D01*X017082Y005796D01*X018082Y004064D01*
X018948Y004564D01*X017948Y006296D01*X023497Y013287D02*X02355Y014286D01*
X021553Y014391D01*X0215Y013392D01*X023497Y013287D01*X012179Y019366D02*
X01155Y018589D01*X013104Y017331D01*X013733Y018108D01*X012179Y019366D01*
X014506Y016006D02*X013962Y016845D01*X012284Y015755D01*
X012829Y014917D01*X014506Y016006D01*X023852Y015723D02*X02421Y016656D01*
X022343Y017373D01*X021984Y016439D01*X023852Y015723D01*
X021788Y002249D02*X021414Y001322D01*X023268Y000572D01*X023643Y0015D01*
X021788Y002249D01*X019042Y002838D02*X019587Y002D01*X021264Y003089D01*
X02072Y003928D01*X019042Y002838D01*X019587Y002D01*X021264Y003089D01*
X02072Y003928D01*X019042Y002838D01*X021788Y002249D02*X021414Y001322D01*
X023268Y000572D01*X023643Y0015D01*X021788Y002249D01*X026437Y01675D02*
X027437Y016733D01*X027472Y018733D01*X026472Y01875D01*X026437Y01675D01*
X027437Y016733D01*X027472Y018733D01*X026472Y01875D01*X026437Y01675D01*
X023852Y015723D02*X02421Y016656D01*X022343Y017373D01*X021984Y016439D01*
X023852Y015723D01*X026184Y003974D02*X027176Y004096D01*
X026933Y006081D01*X02594Y005959D01*X026184Y003974D01*X028299Y010721D02*
X027306Y010599D01*X02755Y008614D01*X028542Y008736D01*X028299Y010721D01*
X028247Y006375D02*X02726Y006218D01*X027572Y004243D01*X02856Y004399D01*
X028247Y006375D01*X030656Y006367D02*X030846Y005385D01*X03281Y005767D01*
X032619Y006748D01*X030656Y006367D01*X030764Y007885D02*
X030851Y006889D01*X032844Y007063D01*X032757Y008059D01*
X030764Y007885D01*X034975Y009158D02*X034993Y008158D01*
X036992Y008193D01*X036975Y009193D01*X034975Y009158D01*
X034993Y008158D01*X036992Y008193D01*X036975Y009193D01*
X034975Y009158D01*X030594Y00921D02*X030682Y008214D01*X032674Y008388D01*
X032587Y009384D01*X030594Y00921D01*X030682Y008214D01*X032674Y008388D01*
X032587Y009384D01*X030594Y00921D01*X02868Y009587D02*X02967Y009727D01*
X029392Y011707D01*X028401Y011568D01*X02868Y009587D01*X02967Y009727D01*
X029392Y011707D01*X028401Y011568D01*X02868Y009587D01*X030764Y007885D02*
X030851Y006889D01*X032844Y007063D01*X032757Y008059D01*
X030764Y007885D01*X030656Y006367D02*X030846Y005385D01*X03281Y005767D01*
X032619Y006748D01*X030656Y006367D01*X035264Y007826D02*
X035282Y006827D01*X037281Y006861D01*X037264Y007861D01*
X035264Y007826D01*X035282Y006827D01*X037281Y006861D01*
X037264Y007861D01*X035264Y007826D01*X028247Y006375D02*X02726Y006218D01*
X027572Y004243D01*X02856Y004399D01*X028247Y006375D01*X028299Y010721D02*
X027306Y010599D01*X02755Y008614D01*X028542Y008736D01*X028299Y010721D01*
X023296Y00745D02*X022614Y008182D01*X021151Y006818D01*X021833Y006086D01*
X023296Y00745D01*X022614Y008182D01*X021151Y006818D01*X021833Y006086D01*
X023296Y00745D01*X026184Y003974D02*X027176Y004096D01*X026933Y006081D01*
X02594Y005959D01*X026184Y003974D01*X015944Y017759D02*X015668Y016797D01*
X017591Y016246D01*X017866Y017207D01*X015944Y017759D01*
X040228Y011358D02*X040329Y011275D01*X040405Y011169D01*
X040451Y011047D01*X040463Y010917D01*X040442Y010788D01*
X040388Y010669D01*X040305Y010569D01*X040198Y010493D01*
X040076Y010447D01*X039946Y010435D01*X039817Y010456D01*X039699Y01051D01*
X039598Y010593D01*X039522Y0107D01*X039476Y010822D01*X039464Y010952D01*
X039485Y011081D01*X039539Y011199D01*X039623Y0113D01*X039729Y011376D01*
X039851Y011422D01*X039981Y011434D01*X04011Y011413D01*X040228Y011358D01*
X041236Y010139D02*X041116Y009984D01*X040968Y009855D01*
X040798Y009758D01*X040612Y009695D01*X040418Y00967D01*X040222Y009683D01*
X040033Y009734D01*X039858Y009821D01*X039702Y009941D01*
X039573Y010089D01*X039476Y010259D01*X039413Y010444D01*
X039388Y010639D01*X039401Y010834D01*X039452Y011024D01*
X039539Y011199D01*X039659Y011355D01*X039807Y011484D01*
X039977Y011581D01*X040163Y011644D01*X040357Y011669D01*
X040553Y011656D01*X040742Y011605D01*X040917Y011517D01*
X041073Y011398D01*X041202Y01125D01*X041299Y01108D01*X041362Y010894D01*
X041387Y0107D01*X041374Y010504D01*X041323Y010315D01*X041236Y010139D01*
X030439Y01624D02*X03046Y016369D01*X030514Y016488D01*X030597Y016589D01*
X030704Y016665D01*X030826Y01671D01*X030956Y016723D01*X031085Y016701D01*
X031203Y016647D01*X031304Y016564D01*X03138Y016458D01*X031426Y016336D01*
X031438Y016206D01*X031416Y016077D01*X031362Y015958D01*
X031279Y015857D01*X031173Y015782D01*X031051Y015736D01*
X030921Y015723D01*X030792Y015745D01*X030673Y015799D01*
X030573Y015882D01*X030497Y015988D01*X030451Y016111D01*X030439Y01624D01*
X030991Y017722D02*X031185Y017696D01*X03137Y017633D01*X03154Y017534D01*
X031687Y017405D01*X031806Y017249D01*X031892Y017073D01*
X031943Y016883D01*X031955Y016688D01*X031929Y016494D01*
X031866Y016308D01*X031767Y016138D01*X031638Y015991D01*
X031482Y015872D01*X031306Y015786D01*X031117Y015736D01*
X030921Y015723D01*X030727Y015749D01*X030541Y015813D01*
X030372Y015911D01*X030224Y016041D01*X030105Y016197D01*
X030019Y016373D01*X029969Y016562D01*X029956Y016758D01*
X029982Y016952D01*X030046Y017137D01*X030144Y017307D01*
X030274Y017454D01*X03043Y017573D01*X030606Y017659D01*X030795Y01771D01*
X030991Y017722D01*X030439Y01624D02*X03046Y016369D01*X030514Y016488D01*
X030597Y016589D01*X030704Y016665D01*X030826Y01671D01*X030956Y016723D01*
X031085Y016701D01*X031203Y016647D01*X031304Y016564D01*X03138Y016458D01*
X031426Y016336D01*X031438Y016206D01*X031416Y016077D01*
X031362Y015958D01*X031279Y015857D01*X031173Y015782D01*
X031051Y015736D01*X030921Y015723D01*X030792Y015745D01*
X030673Y015799D01*X030573Y015882D01*X030497Y015988D01*
X030451Y016111D01*X030439Y01624D01*X030991Y017722D02*X031185Y017696D01*
X03137Y017633D01*X03154Y017534D01*X031687Y017405D01*X031806Y017249D01*
X031892Y017073D01*X031943Y016883D01*X031955Y016688D01*
X031929Y016494D01*X031866Y016308D01*X031767Y016138D01*
X031638Y015991D01*X031482Y015872D01*X031306Y015786D01*
X031117Y015736D01*X030921Y015723D01*X030727Y015749D01*
X030541Y015813D01*X030372Y015911D01*X030224Y016041D01*
X030105Y016197D01*X030019Y016373D01*X029969Y016562D01*
X029956Y016758D01*X029982Y016952D01*X030046Y017137D01*
X030144Y017307D01*X030274Y017454D01*X03043Y017573D01*X030606Y017659D01*
X030795Y01771D01*X030991Y017722D01*X040228Y011358D02*X040329Y011275D01*
X040405Y011169D01*X040451Y011047D01*X040463Y010917D01*
X040442Y010788D01*X040388Y010669D01*X040305Y010569D01*
X040198Y010493D01*X040076Y010447D01*X039946Y010435D01*
X039817Y010456D01*X039699Y01051D01*X039598Y010593D01*X039522Y0107D01*
X039476Y010822D01*X039464Y010952D01*X039485Y011081D01*
X039539Y011199D01*X039623Y0113D01*X039729Y011376D01*X039851Y011422D01*
X039981Y011434D01*X04011Y011413D01*X040228Y011358D01*X041236Y010139D02*
X041116Y009984D01*X040968Y009855D01*X040798Y009758D01*
X040612Y009695D01*X040418Y00967D01*X040222Y009683D01*X040033Y009734D01*
X039858Y009821D01*X039702Y009941D01*X039573Y010089D01*
X039476Y010259D01*X039413Y010444D01*X039388Y010639D01*
X039401Y010834D01*X039452Y011024D01*X039539Y011199D01*
X039659Y011355D01*X039807Y011484D01*X039977Y011581D01*
X040163Y011644D01*X040357Y011669D01*X040553Y011656D01*
X040742Y011605D01*X040917Y011517D01*X041073Y011398D01*X041202Y01125D01*
X041299Y01108D01*X041362Y010894D01*X041387Y0107D01*X041374Y010504D01*
X041323Y010315D01*X041236Y010139D01*X02799Y001303D02*X025001Y001564D01*
X025088Y002561D01*X02563Y003015D01*X026084Y002473D01*X026626Y002928D01*
X027081Y002386D01*X027622Y002841D01*X028077Y002299D01*X02799Y001303D01*
X025001Y001564D01*X025088Y002561D01*X02563Y003015D01*X026084Y002473D01*
X026626Y002928D01*X027081Y002386D01*X027622Y002841D01*
X028077Y002299D01*X02799Y001303D01*X027192Y010986D02*X0274Y011965D01*
X027422Y012159D01*X027405Y012355D01*X02735Y012543D01*X02726Y012717D01*
X027138Y01287D01*X026988Y012997D01*X026816Y013091D01*X02663Y013151D01*
X026435Y013172D01*X026239Y013156D01*X026051Y013101D01*
X025877Y013011D01*X025724Y012889D01*X025598Y012739D01*
X025503Y012567D01*X025443Y01238D01*X025028Y010424D01*X025006Y010229D01*
X025023Y010034D01*X025077Y009846D01*X025167Y009672D01*X02529Y009518D01*
X025439Y009392D01*X025611Y009297D01*X025798Y009238D01*
X025993Y009216D01*X026188Y009233D01*X026376Y009287D01*X02655Y009377D01*
X026704Y0095D01*X02683Y00965D01*X026925Y009821D01*X026984Y010008D01*
X027192Y010986D01*X027015Y012558D02*X027025Y012688D01*
X027001Y012816D01*X026945Y012934D01*X02686Y013033D01*X026753Y013107D01*
X02663Y013151D01*X026499Y013161D01*X026371Y013137D01*X026253Y013081D01*
X026154Y012996D01*X02608Y012889D01*X026037Y012765D01*X026026Y012635D01*
X02605Y012507D01*X026106Y012389D01*X026191Y01229D01*X026299Y012216D01*
X026422Y012172D01*X026552Y012162D01*X02668Y012186D01*X026798Y012242D01*
X026897Y012327D01*X026971Y012435D01*X027015Y012558D01*
X026006Y010216D02*X02611Y010705D01*X025917Y011002D01*X026214Y011194D01*
X026523Y010243D02*X026368Y010719D01*X026053Y010879D01*
X026214Y011194D01*X026957Y010525D02*X026585Y01086D01*X026232Y010841D01*
X026214Y011194D01*X027192Y010986D02*X026703Y01109D01*X026406Y010898D01*
X026214Y011194D01*X025236Y011402D02*X025725Y011298D01*
X026021Y011491D01*X026214Y011194D01*X025263Y010885D02*X025738Y01104D01*
X025899Y011355D01*X026214Y011194D01*X025545Y010451D02*
X025879Y010823D01*X025861Y011176D01*X026214Y011194D01*
X026422Y012172D02*X026318Y011683D01*X02651Y011387D01*X026214Y011194D01*
X025905Y012145D02*X026059Y01167D01*X026374Y011509D01*X026214Y011194D01*
X025471Y011863D02*X025842Y011529D01*X026195Y011547D01*
X026214Y011194D01*X027165Y011503D02*X026689Y011349D01*
X026529Y011034D01*X026214Y011194D01*X026883Y011937D02*
X026548Y011566D01*X026567Y011213D01*X026214Y011194D01*
X027192Y010986D02*X0274Y011965D01*X027422Y012159D01*X027405Y012355D01*
X02735Y012543D01*X02726Y012717D01*X027138Y01287D01*X026988Y012997D01*
X026816Y013091D01*X02663Y013151D01*X026435Y013172D01*X026239Y013156D01*
X026051Y013101D01*X025877Y013011D01*X025724Y012889D01*
X025598Y012739D01*X025503Y012567D01*X025443Y01238D01*X025028Y010424D01*
X025006Y010229D01*X025023Y010034D01*X025077Y009846D01*
X025167Y009672D01*X02529Y009518D01*X025439Y009392D01*X025611Y009297D01*
X025798Y009238D01*X025993Y009216D01*X026188Y009233D01*
X026376Y009287D01*X02655Y009377D01*X026704Y0095D01*X02683Y00965D01*
X026925Y009821D01*X026984Y010008D01*X027192Y010986D01*
X027015Y012558D02*X027025Y012688D01*X027001Y012816D01*
X026945Y012934D01*X02686Y013033D01*X026753Y013107D01*X02663Y013151D01*
X026499Y013161D01*X026371Y013137D01*X026253Y013081D01*
X026154Y012996D01*X02608Y012889D01*X026037Y012765D01*X026026Y012635D01*
X02605Y012507D01*X026106Y012389D01*X026191Y01229D01*X026299Y012216D01*
X026422Y012172D01*X026552Y012162D01*X02668Y012186D01*X026798Y012242D01*
X026897Y012327D01*X026971Y012435D01*X027015Y012558D01*
X026006Y010216D02*X02611Y010705D01*X025917Y011002D01*X026214Y011194D01*
X026523Y010243D02*X026368Y010719D01*X026053Y010879D01*
X026214Y011194D01*X026957Y010525D02*X026585Y01086D01*X026232Y010841D01*
X026214Y011194D01*X027192Y010986D02*X026703Y01109D01*X026406Y010898D01*
X026214Y011194D01*X025236Y011402D02*X025725Y011298D01*
X026021Y011491D01*X026214Y011194D01*X025263Y010885D02*X025738Y01104D01*
X025899Y011355D01*X026214Y011194D01*X025545Y010451D02*
X025879Y010823D01*X025861Y011176D01*X026214Y011194D01*
X026422Y012172D02*X026318Y011683D01*X02651Y011387D01*X026214Y011194D01*
X025905Y012145D02*X026059Y01167D01*X026374Y011509D01*X026214Y011194D01*
X025471Y011863D02*X025842Y011529D01*X026195Y011547D01*
X026214Y011194D01*X027165Y011503D02*X026689Y011349D01*
X026529Y011034D01*X026214Y011194D01*X026883Y011937D02*
X026548Y011566D01*X026567Y011213D01*X026214Y011194D01*X0Y0D02*X045D01*
Y02D01*X0D01*Y0D01*X045D01*Y02D01*X0D01*Y0D01*D11*X043621Y014166D02*
X043649Y014069D01*X04358Y013944D01*X043483Y013916D01*X04342Y013951D01*
X043393Y014048D01*X043372Y014305D01*X043309Y014339D01*X043171Y01409D01*
X043414Y013791D02*X043441Y013694D01*X043372Y013569D01*
X043275Y013542D01*X043213Y013576D01*X043185Y013673D01*X043164Y01393D01*
X043101Y013965D01*X042963Y013715D01*X043251Y013351D02*
X042876Y013559D01*X04297Y013507D02*X043053Y013215D01*X042772Y013371D02*
X042991Y013434D01*X03965Y014594D02*X039737Y014542D01*X039771Y014403D01*
X039719Y014317D01*X03965Y014299D01*X039563Y014351D01*X039373Y014525D01*
X039303Y014507D01*X039373Y01423D01*X039754Y014178D02*X03984Y014126D01*
X039875Y013987D01*X039823Y013901D01*X039753Y013884D01*
X039667Y013936D01*X039476Y014109D01*X039407Y014092D01*
X039476Y013814D01*X039935Y013745D02*X039519Y013641D01*
X039623Y013667D02*X039883Y013511D01*X039571Y013433D02*
X039688Y013628D01*X038344Y014162D02*X038357Y01411D01*X038123Y013867D01*
X038136Y013815D01*X038413Y013884D02*X038066Y014092D01*
X033302Y016632D02*X033355Y016641D01*X03358Y01639D01*X033633Y0164D01*
X033584Y016681D02*X033352Y01635D01*X03781Y016518D02*X037811Y016482D01*
X037525Y016477D01*X037806Y016768D01*X03752Y016763D01*X037521Y016727D01*
X03781Y016518D02*X037811Y016482D01*X037525Y016477D01*X037806Y016768D01*
X03752Y016763D01*X037521Y016727D01*X033302Y016632D02*X033355Y016641D01*
X03358Y01639D01*X033633Y0164D01*X033584Y016681D02*X033352Y01635D01*
X038344Y014162D02*X038357Y01411D01*X038123Y013867D01*X038136Y013815D01*
X038413Y013884D02*X038066Y014092D01*X037237Y013814D02*
X037324Y013762D01*X036908Y013659D01*X036925Y013589D01*
X036908Y013659D02*X036891Y013728D01*X037393Y013191D02*
X037445Y013277D01*X03741Y013416D01*X037324Y013468D01*X037046Y013399D01*
X036994Y013312D01*X037029Y013173D01*X037116Y013121D01*
X037393Y013191D01*X037289Y013312D02*X03715Y013277D01*X037496Y012775D02*
X037549Y012861D01*X037514Y013D01*X037427Y013052D01*X03715Y012983D01*
X037098Y012896D01*X037133Y012758D01*X037219Y012706D01*
X037496Y012775D01*X037393Y012896D02*X037254Y012861D01*
X037609Y012619D02*X037193Y012515D01*X037297Y012541D02*
X037557Y012385D01*X037245Y012307D02*X037362Y012502D01*
X036919Y009976D02*X036883D01*X036758Y010262D01*X036651Y009976D02*
Y010012D01*X03683Y010423D01*X036866D01*X036919Y009976D02*X036883D01*
X036758Y010262D01*X036651Y009976D02*Y010012D01*X03683Y010423D01*
X036866D01*X037237Y013814D02*X037324Y013762D01*X036908Y013659D01*
X036925Y013589D01*X036908Y013659D02*X036891Y013728D01*
X037393Y013191D02*X037445Y013277D01*X03741Y013416D01*X037324Y013468D01*
X037046Y013399D01*X036994Y013312D01*X037029Y013173D01*
X037116Y013121D01*X037393Y013191D01*X037289Y013312D02*X03715Y013277D01*
X037496Y012775D02*X037549Y012861D01*X037514Y013D01*X037427Y013052D01*
X03715Y012983D01*X037098Y012896D01*X037133Y012758D01*X037219Y012706D01*
X037496Y012775D01*X037393Y012896D02*X037254Y012861D01*
X037609Y012619D02*X037193Y012515D01*X037297Y012541D02*
X037557Y012385D01*X037245Y012307D02*X037362Y012502D01*X03965Y014594D02*
X039737Y014542D01*X039771Y014403D01*X039719Y014317D01*X03965Y014299D01*
X039563Y014351D01*X039373Y014525D01*X039303Y014507D01*X039373Y01423D01*
X039754Y014178D02*X03984Y014126D01*X039875Y013987D01*X039823Y013901D01*
X039753Y013884D01*X039667Y013936D01*X039476Y014109D01*
X039407Y014092D01*X039476Y013814D01*X039935Y013745D02*
X039519Y013641D01*X039623Y013667D02*X039883Y013511D01*
X039571Y013433D02*X039688Y013628D01*X043621Y014166D02*
X043649Y014069D01*X04358Y013944D01*X043483Y013916D01*X04342Y013951D01*
X043393Y014048D01*X043372Y014305D01*X043309Y014339D01*X043171Y01409D01*
X043414Y013791D02*X043441Y013694D01*X043372Y013569D01*
X043275Y013542D01*X043213Y013576D01*X043185Y013673D01*X043164Y01393D01*
X043101Y013965D01*X042963Y013715D01*X043251Y013351D02*
X042876Y013559D01*X04297Y013507D02*X043053Y013215D01*X042772Y013371D02*
X042991Y013434D01*X018527Y010776D02*X01855Y011204D01*X018323Y010966D01*
X018608Y010951D01*X019045Y011107D02*X018978Y011182D01*
X018835Y011189D01*X01876Y011122D01*X018745Y010836D01*X018813Y010761D01*
X018955Y010754D01*X01903Y010821D01*X019045Y011107D01*X018899Y011043D02*
X018891Y0109D01*X019259Y011095D02*X019334Y011163D01*X019312Y010735D01*
X019383Y010731D01*X019312Y010735D02*X019241Y010739D01*
X019616Y011077D02*X019691Y011144D01*X019834Y011137D01*
X019901Y011062D01*X019897Y01099D01*X019822Y010923D01*X01989Y010848D01*
X019886Y010776D01*X019811Y010709D01*X019669Y010716D01*
X019601Y010791D01*X019822Y010923D02*X019751Y010927D01*
X010395Y018467D02*X010495Y018477D01*X010607Y018387D01*
X010617Y018287D01*X010572Y018231D01*X010472Y018221D01*
X010215Y018245D01*X01017Y018189D01*X010392Y018009D01*X010728Y018197D02*
X010829Y018208D01*X01094Y018118D01*X01095Y018017D01*X010905Y017962D01*
X010805Y017951D01*X010548Y017975D01*X010503Y017919D01*X010725Y01774D01*
X011134Y01796D02*X010864Y017627D01*X010932Y01771D02*X011233Y017742D01*
X011031Y017492D02*X011007Y017718D01*X004549Y014476D02*
X004599Y014389D01*X004562Y014251D01*X004475Y0142D01*X004406Y014219D01*
X004355Y014306D01*X004273Y01455D01*X004204Y014568D01*X00413Y014292D01*
X004438Y014062D02*X004488Y013975D01*X004451Y013837D01*
X004364Y013786D01*X004295Y013805D01*X004244Y013892D01*
X004162Y014136D01*X004093Y014154D01*X004019Y013878D01*
X004387Y013595D02*X003973Y013706D01*X004076Y013678D02*
X004228Y013416D01*X003917Y013499D02*X004114Y013613D01*
X004549Y014476D02*X004599Y014389D01*X004562Y014251D01*X004475Y0142D01*
X004406Y014219D01*X004355Y014306D01*X004273Y01455D01*X004204Y014568D01*
X00413Y014292D01*X004438Y014062D02*X004488Y013975D01*X004451Y013837D01*
X004364Y013786D01*X004295Y013805D01*X004244Y013892D01*
X004162Y014136D01*X004093Y014154D01*X004019Y013878D01*
X004387Y013595D02*X003973Y013706D01*X004076Y013678D02*
X004228Y013416D01*X003917Y013499D02*X004114Y013613D01*
X008566Y010885D02*X008466Y010874D01*X008735Y011208D01*X00868Y011253D01*
X008735Y011208D02*X008791Y011163D01*X008067Y01129D02*X008077Y011189D01*
X008188Y011099D01*X008289Y01111D01*X008468Y011332D01*X008458Y011432D01*
X008347Y011522D01*X008246Y011512D01*X008067Y01129D01*X008222Y011255D02*
X008312Y011366D01*X007733Y011559D02*X007744Y011459D01*
X007855Y011369D01*X007955Y01138D01*X008135Y011602D01*X008125Y011702D01*
X008014Y011792D01*X007913Y011781D01*X007733Y011559D01*
X007889Y011525D02*X007979Y011636D01*X00755Y011616D02*X007819Y011949D01*
X007752Y011866D02*X007451Y011834D01*X007653Y012084D02*
X007677Y011858D01*X008566Y010885D02*X008466Y010874D01*
X008735Y011208D01*X00868Y011253D01*X008735Y011208D02*X008791Y011163D01*
X008067Y01129D02*X008077Y011189D01*X008188Y011099D01*X008289Y01111D01*
X008468Y011332D01*X008458Y011432D01*X008347Y011522D01*
X008246Y011512D01*X008067Y01129D01*X008222Y011255D02*X008312Y011366D01*
X007733Y011559D02*X007744Y011459D01*X007855Y011369D01*X007955Y01138D01*
X008135Y011602D01*X008125Y011702D01*X008014Y011792D01*
X007913Y011781D01*X007733Y011559D01*X007889Y011525D02*
X007979Y011636D01*X00755Y011616D02*X007819Y011949D01*X007752Y011866D02*
X007451Y011834D01*X007653Y012084D02*X007677Y011858D01*
X007998Y009782D02*X00797Y009805D01*X008053Y010105D01*X00779Y009951D02*
X007812Y009978D01*X008209Y010185D01*X008237Y010163D01*
X007665Y010052D02*X007637Y010074D01*X00772Y010375D01*X007457Y01022D02*
X007479Y010248D01*X007876Y010455D01*X007904Y010432D01*
X007998Y009782D02*X00797Y009805D01*X008053Y010105D01*X00779Y009951D02*
X007812Y009978D01*X008209Y010185D01*X008237Y010163D01*
X007665Y010052D02*X007637Y010074D01*X00772Y010375D01*X007457Y01022D02*
X007479Y010248D01*X007876Y010455D01*X007904Y010432D01*
X010395Y018467D02*X010495Y018477D01*X010607Y018387D01*
X010617Y018287D01*X010572Y018231D01*X010472Y018221D01*
X010215Y018245D01*X01017Y018189D01*X010392Y018009D01*X010728Y018197D02*
X010829Y018208D01*X01094Y018118D01*X01095Y018017D01*X010905Y017962D01*
X010805Y017951D01*X010548Y017975D01*X010503Y017919D01*X010725Y01774D01*
X011134Y01796D02*X010864Y017627D01*X010932Y01771D02*X011233Y017742D01*
X011031Y017492D02*X011007Y017718D01*X018527Y010776D02*X01855Y011204D01*
X018323Y010966D01*X018608Y010951D01*X019045Y011107D02*
X018978Y011182D01*X018835Y011189D01*X01876Y011122D01*X018745Y010836D01*
X018813Y010761D01*X018955Y010754D01*X01903Y010821D01*X019045Y011107D01*
X018899Y011043D02*X018891Y0109D01*X019259Y011095D02*X019334Y011163D01*
X019312Y010735D01*X019383Y010731D01*X019312Y010735D02*
X019241Y010739D01*X019616Y011077D02*X019691Y011144D01*
X019834Y011137D01*X019901Y011062D01*X019897Y01099D01*X019822Y010923D01*
X01989Y010848D01*X019886Y010776D01*X019811Y010709D01*X019669Y010716D01*
X019601Y010791D01*X019822Y010923D02*X019751Y010927D01*
X012285Y010637D02*X012279Y010537D01*X012375Y01043D01*X012476Y010425D01*
X012688Y010616D01*X012693Y010717D01*X012598Y010823D01*
X012497Y010829D01*X012285Y010637D01*X012433Y010579D02*
X012539Y010675D01*X012152Y010998D02*X012051Y011004D01*
X011998Y010956D01*X011993Y010855D01*X012088Y010749D01*
X012189Y010744D01*X012242Y010791D01*X012247Y010892D01*
X012152Y010998D01*X012157Y011099D01*X01221Y011147D01*X012311Y011142D01*
X012407Y011036D01*X012401Y010935D01*X012348Y010887D01*
X012247Y010892D01*X012024Y01146D02*X011706Y011174D01*X012035Y011182D01*
X011844Y011394D01*X035669Y012721D02*X035756Y01267D01*X035894Y012707D01*
X035945Y012795D01*X035871Y013071D01*X035784Y013121D01*
X035646Y013084D01*X035595Y012997D01*X035669Y012721D01*
X035788Y012827D02*X035752Y012965D01*X035287Y012767D02*
X035237Y012679D01*X035255Y01261D01*X035343Y01256D01*X03548Y012597D01*
X035531Y012684D01*X035513Y012753D01*X035425Y012804D01*
X035287Y012767D01*X0352Y012817D01*X035181Y012886D01*X035232Y012974D01*
X03537Y01301D01*X035457Y01296D01*X035476Y012891D01*X035425Y012804D01*
X034818Y012863D02*X034929Y012449D01*X035071Y012746D01*
X034795Y012672D01*X035669Y012721D02*X035756Y01267D01*X035894Y012707D01*
X035945Y012795D01*X035871Y013071D01*X035784Y013121D01*
X035646Y013084D01*X035595Y012997D01*X035669Y012721D01*
X035788Y012827D02*X035752Y012965D01*X035287Y012767D02*
X035237Y012679D01*X035255Y01261D01*X035343Y01256D01*X03548Y012597D01*
X035531Y012684D01*X035513Y012753D01*X035425Y012804D01*
X035287Y012767D01*X0352Y012817D01*X035181Y012886D01*X035232Y012974D01*
X03537Y01301D01*X035457Y01296D01*X035476Y012891D01*X035425Y012804D01*
X034818Y012863D02*X034929Y012449D01*X035071Y012746D01*
X034795Y012672D01*X012285Y010637D02*X012279Y010537D01*X012375Y01043D01*
X012476Y010425D01*X012688Y010616D01*X012693Y010717D01*
X012598Y010823D01*X012497Y010829D01*X012285Y010637D01*
X012433Y010579D02*X012539Y010675D01*X012152Y010998D02*
X012051Y011004D01*X011998Y010956D01*X011993Y010855D01*
X012088Y010749D01*X012189Y010744D01*X012242Y010791D01*
X012247Y010892D01*X012152Y010998D01*X012157Y011099D01*X01221Y011147D01*
X012311Y011142D01*X012407Y011036D01*X012401Y010935D01*
X012348Y010887D01*X012247Y010892D01*X012024Y01146D02*X011706Y011174D01*
X012035Y011182D01*X011844Y011394D01*X016802Y009101D02*
X016374Y009124D01*X016612Y008896D01*X016627Y009182D01*
X016385Y009338D02*X0164Y009623D01*X016816Y009386D01*X016409Y009801D02*
X016837Y009779D01*X01673Y009784D02*X016527Y01001D01*X016848Y009993D02*
X016679Y009841D01*X010384Y00687D02*X010468Y006925D01*X010379Y006506D01*
X010449Y006491D01*X010379Y006506D02*X010309Y00652D01*X011012Y006736D02*
X010957Y006821D01*X010818Y006851D01*X010733Y006796D01*
X010673Y006516D01*X010728Y006431D01*X010868Y006402D01*
X010953Y006457D01*X011012Y006736D01*X010858Y006696D02*
X010828Y006556D01*X011432Y006647D02*X011377Y006732D01*
X011237Y006761D01*X011152Y006706D01*X011093Y006427D01*
X011148Y006342D01*X011287Y006313D01*X011372Y006368D01*
X011432Y006647D01*X011277Y006607D02*X011247Y006467D01*X011621Y00668D02*
X011532Y006261D01*X011554Y006365D02*X011808Y00653D01*X011742Y006216D02*
X011618Y006407D01*X011432Y008026D02*X011332Y00801D01*X011584Y008357D01*
X011526Y008399D01*X011584Y008357D02*X011642Y008315D01*
X010912Y008404D02*X010928Y008304D01*X011043Y00822D01*X011143Y008236D01*
X011311Y008467D01*X011295Y008567D01*X01118Y00865D01*X01108Y008635D01*
X010912Y008404D01*X011069Y008377D02*X011153Y008493D01*
X010565Y008655D02*X010581Y008556D01*X010696Y008472D01*
X010796Y008487D01*X010964Y008719D01*X010948Y008818D01*
X010833Y008902D01*X010733Y008887D01*X010565Y008655D01*
X010723Y008629D02*X010807Y008745D01*X010379Y008703D02*
X010631Y009049D01*X010568Y008963D02*X010268Y008915D01*
X010457Y009175D02*X010493Y008951D01*X007419Y008579D02*
X007374Y008608D01*X00738Y008945D01*X007335Y008974D01*X007179Y008734D02*
X007574Y008818D01*X007059Y008812D02*X007014Y008841D01*X00702Y009178D01*
X006975Y009207D01*X00682Y008968D02*X007215Y009052D01*X007946Y016188D02*
X007913Y016147D01*X007578Y016188D01*X007544Y016146D01*
X007766Y015966D02*X007724Y016368D01*X007677Y015855D02*
X007643Y015814D01*X007308Y015855D01*X007275Y015813D01*
X007497Y015633D02*X007454Y016035D01*X007946Y016188D02*
X007913Y016147D01*X007578Y016188D01*X007544Y016146D01*
X007766Y015966D02*X007724Y016368D01*X007677Y015855D02*
X007643Y015814D01*X007308Y015855D01*X007275Y015813D01*
X007497Y015633D02*X007454Y016035D01*X005894Y016865D02*
X005859Y016872D01*X005918Y017152D01*X006138Y016813D01*
X006198Y017092D01*X006163Y0171D01*X005805Y016446D02*X00577Y016453D01*
X005829Y016732D01*X006049Y016394D01*X006109Y016673D01*X006074Y01668D01*
X005894Y016865D02*X005859Y016872D01*X005918Y017152D01*
X006138Y016813D01*X006198Y017092D01*X006163Y0171D01*X005805Y016446D02*
X00577Y016453D01*X005829Y016732D01*X006049Y016394D01*X006109Y016673D01*
X006074Y01668D01*X007419Y008579D02*X007374Y008608D01*X00738Y008945D01*
X007335Y008974D01*X007179Y008734D02*X007574Y008818D01*
X007059Y008812D02*X007014Y008841D01*X00702Y009178D01*X006975Y009207D01*
X00682Y008968D02*X007215Y009052D01*X008199Y006238D02*X00826Y006157D01*
X007835Y006217D01*X007826Y006146D01*X007835Y006217D02*
X007845Y006288D01*X00811Y005601D02*X00819Y005662D01*X00821Y005804D01*
X008149Y005884D01*X007866Y005924D01*X007786Y005863D01*
X007766Y005722D01*X007827Y005641D01*X00811Y005601D01*X008059Y005753D02*
X007917Y005773D01*X00805Y005177D02*X008131Y005238D01*X008151Y005379D01*
X00809Y00546D01*X007807Y0055D01*X007726Y005439D01*X007706Y005297D01*
X007767Y005217D01*X00805Y005177D01*X007999Y005328D02*X007858Y005348D01*
X008096Y00499D02*X007671Y00505D01*X007778Y005035D02*X00796Y004793D01*
X007642Y004838D02*X007823Y004974D01*X008199Y006238D02*X00826Y006157D01*
X007835Y006217D01*X007826Y006146D01*X007835Y006217D02*
X007845Y006288D01*X00811Y005601D02*X00819Y005662D01*X00821Y005804D01*
X008149Y005884D01*X007866Y005924D01*X007786Y005863D01*
X007766Y005722D01*X007827Y005641D01*X00811Y005601D01*X008059Y005753D02*
X007917Y005773D01*X00805Y005177D02*X008131Y005238D01*X008151Y005379D01*
X00809Y00546D01*X007807Y0055D01*X007726Y005439D01*X007706Y005297D01*
X007767Y005217D01*X00805Y005177D01*X007999Y005328D02*X007858Y005348D01*
X008096Y00499D02*X007671Y00505D01*X007778Y005035D02*X00796Y004793D01*
X007642Y004838D02*X007823Y004974D01*X007544Y018624D02*X007513Y01872D01*
X007385Y018785D01*X007289Y018754D01*X00716Y018499D01*X007191Y018403D01*
X007318Y018338D01*X007414Y018369D01*X007544Y018624D01*
X007384Y018625D02*X007319Y018498D01*X007544Y018624D02*X007513Y01872D01*
X007385Y018785D01*X007289Y018754D01*X00716Y018499D01*X007191Y018403D01*
X007318Y018338D01*X007414Y018369D01*X007544Y018624D01*
X007384Y018625D02*X007319Y018498D01*X011432Y008026D02*X011332Y00801D01*
X011584Y008357D01*X011526Y008399D01*X011584Y008357D02*
X011642Y008315D01*X010912Y008404D02*X010928Y008304D01*X011043Y00822D01*
X011143Y008236D01*X011311Y008467D01*X011295Y008567D01*X01118Y00865D01*
X01108Y008635D01*X010912Y008404D01*X011069Y008377D02*X011153Y008493D01*
X010565Y008655D02*X010581Y008556D01*X010696Y008472D01*
X010796Y008487D01*X010964Y008719D01*X010948Y008818D01*
X010833Y008902D01*X010733Y008887D01*X010565Y008655D01*
X010723Y008629D02*X010807Y008745D01*X010379Y008703D02*
X010631Y009049D01*X010568Y008963D02*X010268Y008915D01*
X010457Y009175D02*X010493Y008951D01*X010384Y00687D02*X010468Y006925D01*
X010379Y006506D01*X010449Y006491D01*X010379Y006506D02*X010309Y00652D01*
X011012Y006736D02*X010957Y006821D01*X010818Y006851D01*
X010733Y006796D01*X010673Y006516D01*X010728Y006431D01*
X010868Y006402D01*X010953Y006457D01*X011012Y006736D01*
X010858Y006696D02*X010828Y006556D01*X011432Y006647D02*
X011377Y006732D01*X011237Y006761D01*X011152Y006706D01*
X011093Y006427D01*X011148Y006342D01*X011287Y006313D01*
X011372Y006368D01*X011432Y006647D01*X011277Y006607D02*
X011247Y006467D01*X011621Y00668D02*X011532Y006261D01*X011554Y006365D02*
X011808Y00653D01*X011742Y006216D02*X011618Y006407D01*X016802Y009101D02*
X016374Y009124D01*X016612Y008896D01*X016627Y009182D01*
X016385Y009338D02*X0164Y009623D01*X016816Y009386D01*X016409Y009801D02*
X016837Y009779D01*X01673Y009784D02*X016527Y01001D01*X016848Y009993D02*
X016679Y009841D01*X016145Y017292D02*X016233Y017341D01*X01637Y017302D01*
X016419Y017214D01*X016399Y017145D01*X016311Y017096D01*
X016066Y017018D01*X016046Y016949D01*X016321Y01687D01*X016556Y017174D02*
X016645Y017223D01*X016782Y017184D01*X016831Y017095D01*
X016811Y017027D01*X016723Y016978D01*X016478Y0169D01*X016458Y016831D01*
X016733Y016752D01*X017243Y016977D02*X017194Y017066D01*
X017057Y017105D01*X016968Y017056D01*X01689Y016781D01*X016939Y016693D01*
X017076Y016654D01*X017164Y016703D01*X017243Y016977D01*
X017086Y016948D02*X017047Y016811D01*X017434Y016997D02*
X017316Y016585D01*X017346Y016688D02*X017611Y016835D01*
X017522Y016526D02*X017412Y016725D01*X013963Y016122D02*
X013942Y016023D01*X013708Y016382D01*X013648Y016343D01*
X013708Y016382D02*X013768Y016421D01*X013356Y016154D02*
X013463Y015989D01*X013456Y015878D01*X013351Y015916D01*
X013244Y016081D01*X013576Y016062D02*X013568Y015951D01*
X013463Y015989D01*X013644Y015957D02*X013469Y016227D01*
X013545Y013429D02*X013646Y013424D01*X013742Y013318D01*
X013736Y013217D01*X013683Y013169D01*X013582Y013175D01*
X013333Y013238D01*X01328Y01319D01*X013471Y012978D01*X013832Y013111D02*
X013933Y013106D01*X014028Y012999D01*X014023Y012899D01*X01397Y012851D01*
X013869Y012856D01*X013619Y01292D01*X013566Y012872D01*X013758Y01266D01*
X01431Y01258D02*X014315Y012681D01*X014219Y012787D01*X014119Y012792D01*
X013906Y012601D01*X013901Y0125D01*X013997Y012394D01*X014097Y012389D01*
X01431Y01258D01*X014161Y012638D02*X014055Y012543D01*X014482Y012495D02*
X014164Y012208D01*X014243Y01228D02*X014546Y012264D01*X014307Y012049D02*
X014319Y012276D01*X013545Y013429D02*X013646Y013424D01*
X013742Y013318D01*X013736Y013217D01*X013683Y013169D01*
X013582Y013175D01*X013333Y013238D01*X01328Y01319D01*X013471Y012978D01*
X013832Y013111D02*X013933Y013106D01*X014028Y012999D01*
X014023Y012899D01*X01397Y012851D01*X013869Y012856D01*X013619Y01292D01*
X013566Y012872D01*X013758Y01266D01*X01431Y01258D02*X014315Y012681D01*
X014219Y012787D01*X014119Y012792D01*X013906Y012601D01*X013901Y0125D01*
X013997Y012394D01*X014097Y012389D01*X01431Y01258D01*X014161Y012638D02*
X014055Y012543D01*X014482Y012495D02*X014164Y012208D01*X014243Y01228D02*
X014546Y012264D01*X014307Y012049D02*X014319Y012276D01*
X012182Y018859D02*X012282Y018869D01*X012393Y018779D01*
X012404Y018679D01*X012359Y018623D01*X012258Y018613D01*
X012002Y018637D01*X011957Y018581D01*X012179Y018401D01*
X012515Y018589D02*X012615Y0186D01*X012726Y01851D01*X012737Y018409D01*
X012692Y018354D01*X012591Y018343D01*X012335Y018367D01*X01229Y018311D01*
X012512Y018132D01*X01307Y018139D02*X013059Y01824D01*X012948Y01833D01*
X012848Y018319D01*X012668Y018097D01*X012678Y017997D01*X01279Y017907D01*
X01289Y017917D01*X01307Y018139D01*X012914Y018174D02*X012824Y018063D01*
X013254Y018083D02*X012984Y01775D01*X013051Y017833D02*X013353Y017864D01*
X01315Y017615D02*X013127Y017841D01*X023197Y013696D02*X023122Y013629D01*
X022979Y013636D01*X022912Y013711D01*X022915Y013783D01*X02299Y01385D01*
X023212Y013982D01*X023216Y014053D01*X02293Y014068D01*X022769Y013719D02*
X022694Y013651D01*X022551Y013659D01*X022484Y013734D01*
X022487Y013805D01*X022563Y013873D01*X022784Y014004D01*
X022788Y014076D01*X022502Y01409D01*X022056Y013756D02*X022123Y013681D01*
X022266Y013674D01*X022341Y013741D01*X022356Y014027D01*
X022288Y014102D01*X022146Y014109D01*X022071Y014042D01*
X022056Y013756D01*X022202Y01382D02*X02221Y013963D01*X021874Y013694D02*
X021896Y014122D01*X02189Y014015D02*X021665Y013812D01*X021682Y014133D02*
X021834Y013965D01*X017769Y005821D02*X017866Y005795D01*
X017938Y005671D01*X017912Y005573D01*X01785Y005538D01*X017752Y005564D01*
X017521Y005678D01*X017459Y005642D01*X017602Y005395D01*X017983Y00545D02*
X018081Y005424D01*X018152Y0053D01*X018126Y005202D01*X018064Y005167D01*
X017966Y005193D01*X017736Y005307D01*X017674Y005271D01*
X017817Y005024D01*X01834Y004831D02*X018366Y004929D01*X018295Y005052D01*
X018197Y005079D01*X01795Y004936D01*X017924Y004838D01*X017995Y004714D01*
X018093Y004688D01*X01834Y004831D01*X018207Y004919D02*X018083Y004848D01*
X018491Y004712D02*X01812Y004498D01*X018213Y004552D02*X018506Y004473D01*
X018227Y004312D02*X018286Y004532D01*X017769Y005821D02*
X017866Y005795D01*X017938Y005671D01*X017912Y005573D01*X01785Y005538D01*
X017752Y005564D01*X017521Y005678D01*X017459Y005642D01*
X017602Y005395D01*X017983Y00545D02*X018081Y005424D01*X018152Y0053D01*
X018126Y005202D01*X018064Y005167D01*X017966Y005193D01*
X017736Y005307D01*X017674Y005271D01*X017817Y005024D01*X01834Y004831D02*
X018366Y004929D01*X018295Y005052D01*X018197Y005079D01*X01795Y004936D01*
X017924Y004838D01*X017995Y004714D01*X018093Y004688D01*X01834Y004831D01*
X018207Y004919D02*X018083Y004848D01*X018491Y004712D02*X01812Y004498D01*
X018213Y004552D02*X018506Y004473D01*X018227Y004312D02*
X018286Y004532D01*X023197Y013696D02*X023122Y013629D01*
X022979Y013636D01*X022912Y013711D01*X022915Y013783D01*X02299Y01385D01*
X023212Y013982D01*X023216Y014053D01*X02293Y014068D01*X022769Y013719D02*
X022694Y013651D01*X022551Y013659D01*X022484Y013734D01*
X022487Y013805D01*X022563Y013873D01*X022784Y014004D01*
X022788Y014076D01*X022502Y01409D01*X022056Y013756D02*X022123Y013681D01*
X022266Y013674D01*X022341Y013741D01*X022356Y014027D01*
X022288Y014102D01*X022146Y014109D01*X022071Y014042D01*
X022056Y013756D01*X022202Y01382D02*X02221Y013963D01*X021874Y013694D02*
X021896Y014122D01*X02189Y014015D02*X021665Y013812D01*X021682Y014133D02*
X021834Y013965D01*X012182Y018859D02*X012282Y018869D01*
X012393Y018779D01*X012404Y018679D01*X012359Y018623D01*
X012258Y018613D01*X012002Y018637D01*X011957Y018581D01*
X012179Y018401D01*X012515Y018589D02*X012615Y0186D01*X012726Y01851D01*
X012737Y018409D01*X012692Y018354D01*X012591Y018343D01*
X012335Y018367D01*X01229Y018311D01*X012512Y018132D01*X01307Y018139D02*
X013059Y01824D01*X012948Y01833D01*X012848Y018319D01*X012668Y018097D01*
X012678Y017997D01*X01279Y017907D01*X01289Y017917D01*X01307Y018139D01*
X012914Y018174D02*X012824Y018063D01*X013254Y018083D02*X012984Y01775D01*
X013051Y017833D02*X013353Y017864D01*X01315Y017615D02*X013127Y017841D01*
X013963Y016122D02*X013942Y016023D01*X013708Y016382D01*
X013648Y016343D01*X013708Y016382D02*X013768Y016421D01*
X013356Y016154D02*X013463Y015989D01*X013456Y015878D01*
X013351Y015916D01*X013244Y016081D01*X013576Y016062D02*
X013568Y015951D01*X013463Y015989D01*X013644Y015957D02*
X013469Y016227D01*X023692Y016205D02*X0236Y016163D01*X023467Y016215D01*
X023425Y016307D01*X023451Y016374D01*X023543Y016415D01*
X023795Y016471D01*X02382Y016538D01*X023553Y01664D01*X023292Y016358D02*
X0232Y016317D01*X023066Y016368D01*X023025Y01646D01*X023051Y016527D01*
X023143Y016568D01*X023395Y016625D01*X02342Y016692D01*X023153Y016794D01*
X022833Y016458D02*X022987Y016858D01*X022948Y016758D02*
X022671Y016635D01*X022787Y016935D02*X022879Y016727D01*
X021939Y001764D02*X022032Y001804D01*X022164Y00175D01*X022204Y001657D01*
X022177Y001591D01*X022084Y001551D01*X021832Y001499D01*
X021805Y001433D01*X02207Y001326D01*X022336Y001604D02*X022429Y001643D01*
X022562Y00159D01*X022601Y001497D01*X022575Y00143D01*X022482Y001391D01*
X022229Y001339D01*X022203Y001272D01*X022468Y001165D01*
X022794Y001496D02*X022633Y001099D01*X022673Y001198D02*
X022952Y001316D01*X022832Y001018D02*X022743Y001228D01*
X019586Y002723D02*X019607Y002822D01*X01984Y002462D01*X0199Y002501D01*
X01984Y002462D02*X01978Y002423D01*X020125Y003073D02*X020026Y003094D01*
X019906Y003016D01*X019885Y002917D01*X020041Y002678D01*X02014Y002657D01*
X020259Y002735D01*X02028Y002833D01*X020125Y003073D01*X020044Y002935D02*
X020122Y002816D01*X020236Y00323D02*X020469Y002871D01*X020411Y002961D02*
X020474Y003257D01*X020649Y002988D02*X020426Y003035D01*
X019586Y002723D02*X019607Y002822D01*X01984Y002462D01*X0199Y002501D01*
X01984Y002462D02*X01978Y002423D01*X020125Y003073D02*X020026Y003094D01*
X019906Y003016D01*X019885Y002917D01*X020041Y002678D01*X02014Y002657D01*
X020259Y002735D01*X02028Y002833D01*X020125Y003073D01*X020044Y002935D02*
X020122Y002816D01*X020236Y00323D02*X020469Y002871D01*X020411Y002961D02*
X020474Y003257D01*X020649Y002988D02*X020426Y003035D01*
X021939Y001764D02*X022032Y001804D01*X022164Y00175D01*X022204Y001657D01*
X022177Y001591D01*X022084Y001551D01*X021832Y001499D01*
X021805Y001433D01*X02207Y001326D01*X022336Y001604D02*X022429Y001643D01*
X022562Y00159D01*X022601Y001497D01*X022575Y00143D01*X022482Y001391D01*
X022229Y001339D01*X022203Y001272D01*X022468Y001165D01*
X022794Y001496D02*X022633Y001099D01*X022673Y001198D02*
X022952Y001316D01*X022832Y001018D02*X022743Y001228D01*
X026836Y017136D02*X026766Y017209D01*X027195Y017202D01*
X027196Y017273D01*X027195Y017202D02*X027194Y01713D01*X026848Y017779D02*
X026775Y017709D01*X026772Y017566D01*X026843Y017493D01*
X027128Y017488D01*X027201Y017559D01*X027203Y017701D01*
X027133Y017774D01*X026848Y017779D01*X026917Y017635D02*
X027059Y017633D01*X026779Y017959D02*X027208Y017951D01*
X027101Y017953D02*X02689Y018171D01*X027212Y018166D02*X027048Y018008D01*
X026836Y017136D02*X026766Y017209D01*X027195Y017202D01*
X027196Y017273D01*X027195Y017202D02*X027194Y01713D01*X026848Y017779D02*
X026775Y017709D01*X026772Y017566D01*X026843Y017493D01*
X027128Y017488D01*X027201Y017559D01*X027203Y017701D01*
X027133Y017774D01*X026848Y017779D01*X026917Y017635D02*
X027059Y017633D01*X026779Y017959D02*X027208Y017951D01*
X027101Y017953D02*X02689Y018171D01*X027212Y018166D02*X027048Y018008D01*
X023692Y016205D02*X0236Y016163D01*X023467Y016215D01*X023425Y016307D01*
X023451Y016374D01*X023543Y016415D01*X023795Y016471D01*X02382Y016538D01*
X023553Y01664D01*X023292Y016358D02*X0232Y016317D01*X023066Y016368D01*
X023025Y01646D01*X023051Y016527D01*X023143Y016568D01*X023395Y016625D01*
X02342Y016692D01*X023153Y016794D01*X022833Y016458D02*X022987Y016858D01*
X022948Y016758D02*X022671Y016635D01*X022787Y016935D02*
X022879Y016727D01*X026535Y004341D02*X026455Y004403D01*
X026438Y004545D01*X0265Y004625D01*X026571Y004633D01*X02665Y004571D01*
X026818Y004376D01*X026889Y004385D01*X026854Y004668D01*
X026482Y004766D02*X026403Y004829D01*X026385Y00497D01*X026447Y00505D01*
X026518Y005059D01*X026598Y004997D01*X026766Y004801D01*X026837Y00481D01*
X026802Y005094D01*X026395Y005475D02*X026333Y005396D01*X02635Y005254D01*
X02643Y005192D01*X026714Y005227D01*X026776Y005306D01*X026758Y005448D01*
X026679Y00551D01*X026395Y005475D01*X026484Y005342D02*X026625Y00536D01*
X026303Y005644D02*X026728Y005696D01*X026622Y005683D02*X026383Y00587D01*
X026702Y005909D02*X026562Y00573D01*X027619Y010098D02*X028045Y01015D01*
X027771Y010332D01*X027805Y010049D01*X028071Y009937D02*
X028106Y009654D01*X027654Y009814D01*X028128Y009477D02*
X027702Y009424D01*X027808Y009437D02*X028047Y009251D01*
X027728Y009212D02*X027868Y009391D01*X027921Y005925D02*
X028002Y005866D01*X027579Y005799D01*X02759Y005728D01*X027579Y005799D02*
X027568Y005869D01*X027645Y005384D02*X027839Y005415D01*
X027937Y005363D01*X02786Y005283D01*X027666Y005252D01*X027818Y005547D02*
X027916Y005495D01*X027838Y005415D01*X027941Y005567D02*
X027624Y005516D01*X031046Y006042D02*X031103Y006126D01*
X031243Y006153D01*X031327Y006097D01*X03134Y006027D01*X031284Y005943D01*
X031101Y005762D01*X031114Y005692D01*X031395Y005746D01*
X031467Y006124D02*X031523Y006208D01*X031664Y006235D01*
X031747Y006179D01*X031761Y006109D01*X031704Y006025D01*
X031521Y005844D01*X031535Y005774D01*X031815Y005828D01*
X032168Y006261D02*X032084Y006317D01*X031944Y00629D01*X031888Y006206D01*
X031942Y005926D01*X032026Y005869D01*X032166Y005896D01*X032223Y00598D01*
X032168Y006261D01*X032041Y006163D02*X032069Y006023D01*X03233Y006365D02*
X032411Y005944D01*X032391Y006049D02*X03256Y0063D01*X032622Y005985D02*
X032433Y006112D01*X03119Y007528D02*X031255Y007605D01*X031292Y007178D01*
X031363Y007184D01*X031292Y007178D02*X031221Y007172D01*X03183Y007584D02*
X031753Y007649D01*X031611Y007636D01*X031546Y007559D01*
X031571Y007274D01*X031648Y007209D01*X03179Y007222D01*X031855Y007299D01*
X03183Y007584D01*X031694Y0075D02*X031707Y007358D01*X032257Y007621D02*
X03218Y007686D01*X032038Y007674D01*X031973Y007596D01*X031997Y007312D01*
X032075Y007247D01*X032217Y007259D01*X032282Y007336D01*
X032257Y007621D01*X032121Y007537D02*X032134Y007395D01*
X032429Y007708D02*X032466Y007281D01*X032457Y007388D02*X032652Y00762D01*
X03268Y0073D02*X032506Y007446D01*X035375Y008772D02*X035445Y008844D01*
X035452Y008416D01*X035524Y008417D01*X035452Y008416D02*
X035381Y008415D01*X036018Y008783D02*X035945Y008853D01*
X035802Y008851D01*X035732Y008778D01*X035737Y008492D01*X03581Y008422D01*
X035952Y008425D01*X036023Y008497D01*X036018Y008783D01*
X035876Y008709D02*X035878Y008566D01*X036446Y00879D02*X036373Y008861D01*
X036231Y008858D01*X03616Y008785D01*X036165Y0085D01*X036238Y00843D01*
X036381Y008432D01*X036451Y008505D01*X036446Y00879D01*X036304Y008716D02*
X036307Y008574D01*X036623Y008865D02*X036631Y008436D01*
X036629Y008544D02*X03684Y008762D01*X036845Y00844D02*X036682Y008598D01*
X035375Y008772D02*X035445Y008844D01*X035452Y008416D01*
X035524Y008417D01*X035452Y008416D02*X035381Y008415D01*
X036018Y008783D02*X035945Y008853D01*X035802Y008851D01*
X035732Y008778D01*X035737Y008492D01*X03581Y008422D01*X035952Y008425D01*
X036023Y008497D01*X036018Y008783D01*X035876Y008709D02*
X035878Y008566D01*X036446Y00879D02*X036373Y008861D01*X036231Y008858D01*
X03616Y008785D01*X036165Y0085D01*X036238Y00843D01*X036381Y008432D01*
X036451Y008505D01*X036446Y00879D01*X036304Y008716D02*X036307Y008574D01*
X036623Y008865D02*X036631Y008436D01*X036629Y008544D02*X03684Y008762D01*
X036845Y00844D02*X036682Y008598D01*X03102Y008853D02*X031085Y00893D01*
X031122Y008503D01*X031193Y008509D01*X031122Y008503D02*
X031051Y008497D01*X03166Y008909D02*X031583Y008974D01*X031441Y008961D01*
X031376Y008884D01*X031401Y008599D01*X031478Y008534D01*X03162Y008547D01*
X031685Y008624D01*X03166Y008909D01*X031524Y008825D02*X031537Y008683D01*
X032087Y008946D02*X03201Y009011D01*X031868Y008999D01*X031803Y008921D01*
X031828Y008637D01*X031905Y008572D01*X032047Y008584D01*
X032112Y008661D01*X032087Y008946D01*X031951Y008862D02*X031964Y00872D01*
X032259Y009033D02*X032296Y008606D01*X032287Y008713D02*
X032482Y008945D01*X03251Y008625D02*X032336Y008771D01*X03102Y008853D02*
X031085Y00893D01*X031122Y008503D01*X031193Y008509D01*X031122Y008503D02*
X031051Y008497D01*X03166Y008909D02*X031583Y008974D01*X031441Y008961D01*
X031376Y008884D01*X031401Y008599D01*X031478Y008534D01*X03162Y008547D01*
X031685Y008624D01*X03166Y008909D01*X031524Y008825D02*X031537Y008683D01*
X032087Y008946D02*X03201Y009011D01*X031868Y008999D01*X031803Y008921D01*
X031828Y008637D01*X031905Y008572D01*X032047Y008584D01*
X032112Y008661D01*X032087Y008946D01*X031951Y008862D02*X031964Y00872D01*
X032259Y009033D02*X032296Y008606D01*X032287Y008713D02*
X032482Y008945D01*X03251Y008625D02*X032336Y008771D01*X028984Y010243D02*
X028924Y010163D01*X028943Y010021D01*X029024Y00996D01*X029307Y01D01*
X029368Y010081D01*X029348Y010222D01*X029267Y010283D01*
X028984Y010243D01*X029075Y010112D02*X029216Y010132D01*
X028984Y010243D02*X028924Y010163D01*X028943Y010021D01*X029024Y00996D01*
X029307Y01D01*X029368Y010081D01*X029348Y010222D01*X029267Y010283D01*
X028984Y010243D01*X029075Y010112D02*X029216Y010132D01*X03119Y007528D02*
X031255Y007605D01*X031292Y007178D01*X031363Y007184D01*
X031292Y007178D02*X031221Y007172D01*X03183Y007584D02*X031753Y007649D01*
X031611Y007636D01*X031546Y007559D01*X031571Y007274D01*
X031648Y007209D01*X03179Y007222D01*X031855Y007299D01*X03183Y007584D01*
X031694Y0075D02*X031707Y007358D01*X032257Y007621D02*X03218Y007686D01*
X032038Y007674D01*X031973Y007596D01*X031997Y007312D01*
X032075Y007247D01*X032217Y007259D01*X032282Y007336D01*
X032257Y007621D01*X032121Y007537D02*X032134Y007395D01*
X032429Y007708D02*X032466Y007281D01*X032457Y007388D02*X032652Y00762D01*
X03268Y0073D02*X032506Y007446D01*X031046Y006042D02*X031103Y006126D01*
X031243Y006153D01*X031327Y006097D01*X03134Y006027D01*X031284Y005943D01*
X031101Y005762D01*X031114Y005692D01*X031395Y005746D01*
X031467Y006124D02*X031523Y006208D01*X031664Y006235D01*
X031747Y006179D01*X031761Y006109D01*X031704Y006025D01*
X031521Y005844D01*X031535Y005774D01*X031815Y005828D01*
X032168Y006261D02*X032084Y006317D01*X031944Y00629D01*X031888Y006206D01*
X031942Y005926D01*X032026Y005869D01*X032166Y005896D01*X032223Y00598D01*
X032168Y006261D01*X032041Y006163D02*X032069Y006023D01*X03233Y006365D02*
X032411Y005944D01*X032391Y006049D02*X03256Y0063D01*X032622Y005985D02*
X032433Y006112D01*X035593Y007439D02*X035663Y007512D01*
X035806Y007514D01*X035878Y007444D01*X035879Y007373D01*X035809Y0073D01*
X035598Y007154D01*X035599Y007082D01*X035884Y007087D01*
X036021Y007447D02*X036091Y007519D01*X036234Y007522D01*
X036307Y007452D01*X036308Y00738D01*X036238Y007308D01*X036026Y007161D01*
X036027Y00709D01*X036313Y007095D01*X036735Y007459D02*X036663Y007529D01*
X03652Y007527D01*X03645Y007454D01*X036455Y007169D01*X036527Y007098D01*
X03667Y007101D01*X03674Y007173D01*X036735Y007459D01*X036594Y007385D02*
X036596Y007242D01*X036913Y007534D02*X03692Y007105D01*X036918Y007212D02*
X037129Y00743D01*X037134Y007109D02*X036971Y007267D01*X035593Y007439D02*
X035663Y007512D01*X035806Y007514D01*X035878Y007444D01*
X035879Y007373D01*X035809Y0073D01*X035598Y007154D01*X035599Y007082D01*
X035884Y007087D01*X036021Y007447D02*X036091Y007519D01*
X036234Y007522D01*X036307Y007452D01*X036308Y00738D01*X036238Y007308D01*
X036026Y007161D01*X036027Y00709D01*X036313Y007095D01*X036735Y007459D02*
X036663Y007529D01*X03652Y007527D01*X03645Y007454D01*X036455Y007169D01*
X036527Y007098D01*X03667Y007101D01*X03674Y007173D01*X036735Y007459D01*
X036594Y007385D02*X036596Y007242D01*X036913Y007534D02*X03692Y007105D01*
X036918Y007212D02*X037129Y00743D01*X037134Y007109D02*X036971Y007267D01*
X027921Y005925D02*X028002Y005866D01*X027579Y005799D01*X02759Y005728D01*
X027579Y005799D02*X027568Y005869D01*X027645Y005384D02*
X027839Y005415D01*X027937Y005363D01*X02786Y005283D01*X027666Y005252D01*
X027818Y005547D02*X027916Y005495D01*X027838Y005415D01*
X027941Y005567D02*X027624Y005516D01*X027619Y010098D02*X028045Y01015D01*
X027771Y010332D01*X027805Y010049D01*X028071Y009937D02*
X028106Y009654D01*X027654Y009814D01*X028128Y009477D02*
X027702Y009424D01*X027808Y009437D02*X028047Y009251D01*
X027728Y009212D02*X027868Y009391D01*X022584Y007324D02*X022685Y00732D01*
X02279Y007418D01*X022793Y007518D01*X022598Y007727D01*X022497Y007731D01*
X022393Y007634D01*X022389Y007533D01*X022584Y007324D01*X02264Y007473D02*
X022543Y007578D01*X022584Y007324D02*X022685Y00732D01*X02279Y007418D01*
X022793Y007518D01*X022598Y007727D01*X022497Y007731D01*
X022393Y007634D01*X022389Y007533D01*X022584Y007324D01*X02264Y007473D02*
X022543Y007578D01*X026535Y004341D02*X026455Y004403D01*
X026438Y004545D01*X0265Y004625D01*X026571Y004633D01*X02665Y004571D01*
X026818Y004376D01*X026889Y004385D01*X026854Y004668D01*
X026482Y004766D02*X026403Y004829D01*X026385Y00497D01*X026447Y00505D01*
X026518Y005059D01*X026598Y004997D01*X026766Y004801D01*X026837Y00481D01*
X026802Y005094D01*X026395Y005475D02*X026333Y005396D01*X02635Y005254D01*
X02643Y005192D01*X026714Y005227D01*X026776Y005306D01*X026758Y005448D01*
X026679Y00551D01*X026395Y005475D01*X026484Y005342D02*X026625Y00536D01*
X026303Y005644D02*X026728Y005696D01*X026622Y005683D02*X026383Y00587D01*
X026702Y005909D02*X026562Y00573D01*X016145Y017292D02*X016233Y017341D01*
X01637Y017302D01*X016419Y017214D01*X016399Y017145D01*X016311Y017096D01*
X016066Y017018D01*X016046Y016949D01*X016321Y01687D01*X016556Y017174D02*
X016645Y017223D01*X016782Y017184D01*X016831Y017095D01*
X016811Y017027D01*X016723Y016978D01*X016478Y0169D01*X016458Y016831D01*
X016733Y016752D01*X017243Y016977D02*X017194Y017066D01*
X017057Y017105D01*X016968Y017056D01*X01689Y016781D01*X016939Y016693D01*
X017076Y016654D01*X017164Y016703D01*X017243Y016977D01*
X017086Y016948D02*X017047Y016811D01*X017434Y016997D02*
X017316Y016585D01*X017346Y016688D02*X017611Y016835D01*
X017522Y016526D02*X017412Y016725D01*
M02*