M48
FMAT,2
INCH,LZ
T1C0.0280
T2C0.0400
%
T1
X042472Y012313
X043926Y014937
X040073Y012454
X039347Y015365
X038836Y012039
X03811Y01495
X035454Y016975
X032499Y016454
X039699Y016765
X0367Y016713
X039699Y016765
X0367Y016713
X035454Y016975
X032499Y016454
X038836Y012039
X03811Y01495
X037643Y011744
X036917Y014655
X034741Y010012
X037741Y010012
X034741Y010012
X037741Y010012
X037643Y011744
X036917Y014655
X040073Y012454
X039347Y015365
X042472Y012313
X043926Y014937
X018176Y009543
X019175Y009491
X020174Y009438
X021172Y009386
X022171Y009334
X02317Y009281
X024168Y009229
X024325Y012225
X023327Y012277
X022328Y012329
X021329Y012382
X020331Y012434
X019332Y012486
X018333Y012539
X012021Y017012
X009689Y0189
X003881Y012399
X004658Y015297
X003881Y012399
X004658Y015297
X006996Y012294
X009327Y010406
X006996Y012294
X009327Y010406
X006327Y011181
X008659Y009293
X006327Y011181
X008659Y009293
X012021Y017012
X009689Y0189
X003305Y015836
X002676Y015058
X003305Y015836
X002676Y015058
X023809Y015041
X022311Y015119
X034456Y01556
X035954Y015639
X029455Y013942
X030865Y014455
X029455Y013942
X030865Y014455
X034456Y01556
X035954Y015639
X019791Y005015
X018974Y006273
X019791Y005015
X018974Y006273
X028907Y006986
X029141Y005504
X028907Y006986
X029141Y005504
X023809Y015041
X022311Y015119
X005633Y012603
X004952Y011267
X010005Y016897
X01117Y015953
X010005Y016897
X01117Y015953
X005633Y012603
X004952Y011267
X018987Y008474
X021983Y008317
X018987Y008474
X021983Y008317
X030799Y018868
X033795Y018711
X030799Y018868
X033795Y018711
X014309Y010109
X013195Y009105
X014309Y010109
X013195Y009105
X018176Y009543
X019175Y009491
X020174Y009438
X021172Y009386
X022171Y009334
X02317Y009281
X024168Y009229
X024325Y012225
X023327Y012277
X022328Y012329
X021329Y012382
X020331Y012434
X019332Y012486
X018333Y012539
X013718Y011447
X013049Y012191
X01238Y012934
X011711Y013677
X011041Y01442
X010372Y015163
X009703Y015906
X007474Y013899
X008143Y013156
X008812Y012413
X009481Y011669
X01015Y010926
X010819Y010183
X011489Y00944
X014795Y007893
X014274Y004938
X014795Y007893
X014274Y004938
X035598Y014366
X034632Y014107
X033666Y013848
X0327Y013589
X031734Y013331
X030768Y013072
X029802Y012813
X030579Y009915
X031545Y010174
X032511Y010433
X033477Y010692
X034443Y01095
X035409Y011209
X036374Y011468
X035598Y014366
X034632Y014107
X033666Y013848
X0327Y013589
X031734Y013331
X030768Y013072
X029802Y012813
X030579Y009915
X031545Y010174
X032511Y010433
X033477Y010692
X034443Y01095
X035409Y011209
X036374Y011468
X013718Y011447
X013049Y012191
X01238Y012934
X011711Y013677
X011041Y01442
X010372Y015163
X009703Y015906
X007474Y013899
X008143Y013156
X008812Y012413
X009481Y011669
X01015Y010926
X010819Y010183
X011489Y00944
X017319Y012805
X014518Y01388
X017319Y012805
X014518Y01388
X016655Y011076
X016498Y00808
X012422Y006327
X009488Y006951
X00979Y009351
X012217Y007588
X005611Y009795
X008127Y008161
X006547Y014518
X008435Y016849
X006547Y014518
X008435Y016849
X00571Y014969
X006333Y017903
X00571Y014969
X006333Y017903
X005611Y009795
X008127Y008161
X0078Y004166
X008217Y007137
X0078Y004166
X008217Y007137
X009182Y017669
X006509Y019031
X009182Y017669
X006509Y019031
X00979Y009351
X012217Y007588
X012422Y006327
X009488Y006951
X016655Y011076
X016498Y00808
X014814Y015189
X015747Y01483
X016681Y014472
X025199Y014477
X026195Y01439
X027191Y014303
X022359Y005599
X023242Y00513
X024125Y00466
X022359Y005599
X023242Y00513
X024125Y00466
X025199Y014477
X026195Y01439
X027191Y014303
X024788Y007088
X025626Y007632
X026465Y008177
X024788Y007088
X025626Y007632
X026465Y008177
X014814Y015189
X015747Y01483
X016681Y014472
X018209Y016589
X015325Y017416
X012137Y015064
X014653Y016698
X014923Y011739
X012916Y013968
X014923Y011739
X012916Y013968
X013807Y017404
X011476Y019292
X021027Y013917
X024023Y01376
X018765Y003881
X017265Y006479
X018765Y003881
X017265Y006479
X021027Y013917
X024023Y01376
X013807Y017404
X011476Y019292
X012137Y015064
X014653Y016698
X021697Y017085
X024498Y01601
X023919Y000849
X021137Y001973
X021411Y003781
X018895Y002147
X021411Y003781
X018895Y002147
X023919Y000849
X021137Y001973
X02698Y019241
X026928Y016242
X02698Y019241
X026928Y016242
X021697Y017085
X024498Y01601
X026375Y006516
X026741Y003539
X028107Y008179
X027741Y011156
X028145Y003827
X027675Y00679
X033205Y006353
X03026Y005781
X033298Y007605
X03031Y007343
X037484Y008701
X034484Y008649
X037484Y008701
X034484Y008649
X033128Y00893
X03014Y008668
X033128Y00893
X03014Y008668
X028827Y012133
X029245Y009162
X028827Y012133
X029245Y009162
X033298Y007605
X03031Y007343
X033205Y006353
X03026Y005781
X037773Y00737
X034773Y007318
X037773Y00737
X034773Y007318
X028145Y003827
X027675Y00679
X028107Y008179
X027741Y011156
X021127Y006111
X023321Y008157
X021127Y006111
X023321Y008157
X026375Y006516
X026741Y003539
X018209Y016589
X015325Y017416
X040812Y010404
X039964Y010934
X030973Y017222
X030938Y016223
X030973Y017222
X030938Y016223
X040812Y010404
X039964Y010934
X025902Y009727
X026526Y012662
X025902Y009727
X026526Y012662
T2
X02878Y015624
X02857Y018617
X02878Y015624
X02857Y018617
X016936Y001775
X016936Y001775
X024729Y018171
X024729Y018171
X020408Y015856
X018994Y014442
X019701Y015149
X020408Y015856
X018994Y014442
X019701Y015149
X003781Y017785
X003781Y017785
X04105Y015895
X04105Y015895
X027535Y001845
X025543Y002019
X026539Y001932
X027535Y001845
X025543Y002019
X026539Y001932
M30
