<?xml version="1.0" encoding="UTF-8"?>
<svg id="Layer_2" data-name="Layer 2" xmlns="http://www.w3.org/2000/svg" viewBox="0 0 1202.04 822.72">
  <g id="Layer_1-2" data-name="Layer 1">
    <path d="M1033.61,23.26c.39-.16.14-1.66,1.81-1.66,7.64.01,13.71,4.92,8.43,12.47-.8,1.15-2.51,1.48-2.71,1.8-.25.42.93,4.4.14,6.6-1.18,3.28-3.78,4.94-4.11,9.01-.28,3.35,2.89,6.34.82,10.18,11.43-1.44,21.65,2.6,32.68,3.91,14.92,1.78,29.89,2.98,44.65,5.17,12.32,1.83,24.66,8.48,35.55,14.55,4.78,2.66,9.59,5.59,13.62,9.34,1.96.01,8.06-14.94,12.48-4.48-1.79,3.64-4.96,9.44-2.48,13.52.6.98,2.68,1.45,3.54,2.46,3.19,3.73,5.27,8.41,10.7,9.3,1.99.33,7.18-1.34,8.18,2.93.42,1.8-1.26,2.66-1.56,4.01-.21.94.65,2.12.15,3.27-.84,1.95-5.64,5.31-6.54,6.75-1.88,2.98-3.08,5.27-5.22,8.51-5.92,8.99-18.31,29.88-17.64,40.33.07,1.14,5.41,13.79,6.45,15.38,4.45,6.86,16.28,17.37,22.79,21.71,4.18,2.79,7.8,1.26,6.4,8.63-.79,4.14-3.01,2.16-6.15,3.81-10.14,5.34-25.11,13.04-33.84,19.88-7.96,6.23-11.66,10.4-14.77,20.51-2.47,8.02.95,10.6.8,18.01-.07,3.76-2.24,8.17-1.78,11.91.49,3.97,8.45,14.24,10.21,18.87,2,5.25,3.1,11.59-2.15,15.29-1.98,1.39-5.41,1.4-5.99,3.08-.16.46-.17,9.05-.06,9.77.81,5.47,4.9,11.41,4.88,19.18-.02,5.38-3.02,10.12-2.9,15.4l-5.99-1.01c-2.68,24.7-9.28,52.35-26.02,71.5-9.56,10.94-18.43,16.12-31.12,22.88-19,10.13-32.71,17.3-53.8,23-20.74,5.6-33.43,6.48-55.01,7.3-9.13.35-22.44,2.24-30.4,1.96-5.7-.2-32.23-6.11-35.67-3.61,4.37,9.07,8.56,18.77,12.22,28.27.81,2.09.76,4.34,1.57,6.43.94,2.41,3.95,5.94,4.22,7.87.52,3.65-2.44,5.56-2.58,7.9-.15,2.51,2.12,5.61,1.58,8.96-1.01,6.22-5.23,1.53-6.33,1.7-.96.15-2.04,2.27-3.67,1.85-.25-.17-1.6-4.7-2.36-5.66-4.79-6.01-26.42-20.87-33.39-23.11-5.3-1.7-13.56-2.59-19.24-4.2-1.31.91-.73,18.63-.99,21.5-1.32,14.51-8.89,37.32-15.16,50.85-10.58,22.83-32.98,48.75-54.54,62.46-7.47,4.75-18.12,6.59-26.35,10.17,1.07,2.35,1.92,4.2-.58,5.91-4.29,2.93-16.83,3.89-20.97,7.02-4.64,3.51-5.74,13.97-8.98,18.02-1.83,2.3-6.06,4.41-8.17,6.93-2.03.52-4.96-2.66-7.28-3.42-3.71-1.22-20.01-6.5-22.91-6.92-6.49-.94-19.07-2.12-25.55-1.51-2.03.19-3.55,1.96-6.02,1.98-3.11.03-5.69-1.37-9.92-.92-6.25.66-11.82,4.92-18.14,4.8-4.65,4.9-7.51,11.26-11.07,16.99-7.24,11.64-15.07,24.18-21.25,36.74-4.92,9.99-8.94,21.42-13.17,31.79l5.91,3.04c.15,1.53-11.76,20.32-13.59,21.31-5.4,2.91-4.68.26-7.4-2.21-.7-.64-2.63-.11-2.94-1.19s.33-3.05-.17-4.63c-5.18-16.45-7.53-27.23-11.24-43.77-3.49-15.56-8.02-27.17-14.75-41.25-3.29-6.88-8.38-6.08-13.7-9.31-4.58-2.77-7.08-9.83-12.07-7.4l-1.46-3.78c-2.33,1.66-11.13,1.46-12.53,2.27-.38.22-5.58,4.67-6.53,5.49-4.24,3.67-3.39,7.57-10.79,5.81-1.97-.47-3.17-2.37-5.24-2.75-1.31-.24-9.88-.72-10.99-.58-1.66.21-4.18,3.28-7.07,3.53-1.85.16-3.49-.89-4.91-.8-5.87.37-15.66,3.45-18.57-3.62-2.07-5.03.97-8.15-.13-12.87-.27-1.14-3.69-6.26-4.52-6.78-2.16-1.34-3.29.11-4.68.05-.3-.01-2.12-4.98-4.09.01-4.12-9.84-6.93-7.25-15.32-9.68-12.43-3.59-44.86-15.82-52.85-25.65-1.35-1.66-4.32-9.09-5.64-10.37-10.84-10.55-14.43-20.44-17.59-35.91-3.81-18.63.03-39.37-.11-58.39-3.37.57-5.9,2.85-9.53,3.04-4.47.24-7.47-2.42-11.85-2-8.79.85-9.92,5.93-22.19,4.93-1.5-.12-3,.79-4.47.43-5.78-1.42-5.19-9.32-4.94-13.89.34-6.17,7.14-36.2,4.97-38.51-8.45,1.71-17.46,5.01-25.74,6.75-17.3,3.63-36.13,5.83-53.76,8.24-27.15,3.71-50.69,7.76-77.91,3.94-19.39-2.72-62.04-11.73-77.83-21.91-21.55-13.89-37.02-51.48-38.74-77.52-.76-11.44,1.47-25.34.52-36.03-.25-2.85-4.02-6.72-4.41-12.1-.32-4.39,1.34-8.01.84-11.77-1.24-9.51-15.38-11.72-4.5-22.62,2.06-2.06,4.58-2.59,6.56-4.44,15.59-14.47,22.18-29.96,17.63-51.29-7.06-5.77-13.11-13.76-21.75-17.64-6.41-2.87-13.28.33-7.91-9.59l-4.88-1.12-.11-6.89,1.82.82c4.28-4.02,12.64-5.94,18.2-10.29,1.85-1.45,15.63-16.55,16.63-18.37,3.3-6.01,3.01-9.6.15-15.46-1.06-2.16-5.65-6.99-5.78-7.44-1.13-3.91-5.47-11.73-8.98-14.8-4.02-3.53-9.48-2-7.63-10.51,2.22-10.23,15.06-1.48,18.53-8.74,2.75-5.76-2.46-14.33-3.47-20.18-2.58-14.94,1.81-30.15,13.32-39.97,4.26-3.64,9.77-6.34,14.13-9.62,12.99-9.77,26.27-22.82,43.55-24.38,5.86-.53,2.91-.4,7.27-1.8,15.74-5.06,30.7-4.02,46.69-5.21,7.66-.57,13.56-.98,11.17-10.39-.92-3.6-6.48-16.01-8.76-19.01-3.09-4.08-10.32-6.77-8.86-12.65h7s-.37-7.1-.37-7.1c6.13-4.33,8.19,1.17,12.33,2.65,1.06.38,12.68,3.25,13.37,3.23,1.25-.03,2.84-1.35,4.35-1.42,10.78-.48,30.4,2.81,39.28-2.91,1.74-1.12,2.29-3.49,4.08-4.92,3.23-2.61,16.93-9.95,20.92-11.08,20.53-5.77,34.22-4.14,54.43-4.56,2.89-.06,7.05-2.48,8.14-2.51.31-.01,4.85.56,5.84.67.7.08.66,1.62,1.41,1.86,14.41,4.72,27.07,2.44,41.44,5.36,22.93,4.66,35.89,11.96,55.89,22.11,13.12,6.66,17.11,6.72,22.03-8.23,2.54-.68,6.33.21,7.92,2.32,3.94,5.2,4.41,3.73,9.86,7.1,2.47,1.52,7,8.4,9.18,2.56l1.38-.12c3.17,1.61,1,5.39,1.97,6.95.57.93,10.26,6.37,11.47,6.58,1.57.27,2.54-1.23,3.68-1.25,8.02-.16,3.97,2.57,6.32,6.28,3.01,4.74,9.37,4.65,13.8,6.2,3.31,1.16,7.32,5.33,9.24,5.82,1.52.39,3.2-.84,3.85-.46,2.52,1.46,7.36,6.3,11.61,7.95,18.14,7.04,37.76.34,46.98-17.18,1.76-3.35,2.69-11.99,5.56-13.31,2.27-1.04,3.87,1.25,5.63-4.66,6.48.06,5.77,5.96,9.38,8.8l9.28,16.99c3.38,2.81,4.17-2.34,7.67-2.8l.55-2.91c3.43,2.85,5.28,5.44,3.95,10.02,1.12,1.69,10.82.21,12.88-.39,12.53-3.65,29.04-10.46,40.9-15.7,7.52-3.32,20.41-17.92,28.41-21.8,2.77-1.34,5.73-.67,7.36-1.64,1.85-1.1,2.66-5.37,7.76-6.32,7.19-1.33,5.39,1.62,6.27,5.11.21.82,1.77.65,1.95,1.4,2.09,8.35-4.73,8.92-5.01,14.8-.07,1.58-.15,1.72,1.53,1.53l25.23-8.8c10.51,2.03,17.09-5.15,26.09-8.89,22.52-9.35,54.75-17.74,78.78-22.22,19.16-3.57,40.38-6.06,60.92-4.06,12.7,1.24,34.29,6.25,44.41,13.52,7.53,5.41,10.65,15.37,19.59,17.47,7.65,1.8,37.33,1.37,44.5-.53,4.22-1.12,9.45-5.74,14.6-7.92ZM950.4,26.25c-3.09-3.01-7.99-6.74-12.21-8.29-40.5-14.88-108.92.05-148.47,14.93l-7.73,3.76c6.7-.37,13.03-2.88,19.61-3.87,25.12-3.8,49.91-5.65,74.96-7.11,8.69-.51,13.68.69,21.24,3.68,12.28,4.85,22.07,5.07,27.68,19.34,6.19,15.73-8.22,35.14-15.72,48.26-.46.81-1.62,2.19-.29,2.71,6.22-3,12.29-6.31,18.51-9.28,1.41-.67,3.19-.07,4.67-1.02,1.34-.86,18.71-22.03,20.14-24.37,3.18-5.21,8.41-16.88,7.68-22.83-.39-3.19-7.44-13.33-10.09-15.9ZM301.98,14.68c-16.87-.59-33.74-.04-49.76,5.72-8.85,3.18-16.49,8.88-19.92,18.08-2.18,5.85,1.25,21.43,5.27,26.12,1.62,1.89,5.27,2.54,6.75,4.03.93.93.4,2.35,1.31,3.11.85.71,18.13,9.64,19.64,10.16,1.6.54,2.97,1.08,4.71.78-4.4-9.39-9.43-17.67-9.04-28.52.27-7.49,3.94-15.49,9.55-20.47,1.13-1.01,7-5.22,8.29-5.92,2.55-1.39,26.36-8.73,23.2-13.07ZM342.99,27.67c-11.02.69-24.16-3.33-35.02-.54-3.11.8-25.12,11.95-27.9,14.1-12.12,9.36-7.22,24.74.1,35.77,12.01,18.09,26.09,31.06,45.29,40.71,2.11,1.06,15.7,6.9,17.03,6.98.75.05,1.74.21,1.51-.52-5.8-8.14-11.33-16.43-17.33-24.18-.35-.45-2.23-.44-3.12-1.33-2.12-2.12-10.11-15.89-11.72-19.32-.78-1.66-4.85-11.24-4.91-12.17-.12-2,1.56-9.71,2.36-11.74,6.21-15.8,18.96-17.81,31.95-25.05,1.31-.73,2.14-.89,1.77-2.72ZM218,38.66l-16.36-.65-12.64,2.14,28.99,14.51c-1.43-5.31.29-10.58,0-16ZM459.6,67.07c-11.62-8.2-29.64-13.45-43.18-18.32-12.81-4.61-29.89-12-43.9-11.02-4.46.31-2.87.07-6.97-.11-8.99-.41-22.07,3.65-29.91,8.2-.84.49-6.85,4.54-7.14,4.86-1.12,1.2-.93,2.97-1.59,4.22-.46.88-1.76.45-1.99,2.22-.26,1.98,1.88,13.27,2.86,15.27.72,1.48,18.05,25.61,19.21,26.78,1.43,1.44,11.63,7.6,14.51,9.49,5.62,3.7,12.01,6.29,17,11,1.05-6.85-1.19-15.96,3.03-21.96,1.36-1.93,3.16-2.22,4.18-3.33,1.78-1.93.99-4.85,5.89-5.67,5.71-.96,22.06,3.65,27.14,6.67,21.67,12.9,25.64,25.41,40.27,42.78,1.87,2.22,2.03,5.06,5.49,6.5,1.32-3.39-.73-6.21.14-9.77.75-3.1,11.35-25.11,13.36-27.73,5.95-7.77,16.76-7.1,24.99-10.99-3.91-2.35-6.88-5.86-10.48-8.49-1.5-1.09-3.52-.95-5.05-1.98-2.12-1.43-4.29-5.42-6.74-6.3-2.25-.81-4.94,1.2-8.04-.68-.9-.55-1.21-2.23-2.17-3.03-3.45-2.87-7.27-6.06-10.91-8.62ZM894.26,94.95c4.94-5.41,7.72-6.77,12.12-14.39,5.18-8.98,9.73-18.29,8.15-28.91-11.02-15.61-30.86-14.05-48.08-14.02-28.79.04-71.67,5.62-98.48,16.53-5.58,2.27-11.41,7.5-17.97,8.53-.19,1.94,2.03.69,3.07.51,3.73-.63,7.29-1.42,11.1-1.81,15.62-1.63,33.95-2.41,49.33-1.79,13.05.52,40.4,3.28,47.51,15.5,8.01,13.76,3.86,28.14-5.01,40.09-3.39,4.56-8.29,8.82-11.01,14.48,1.7,1.35,18.82-7.6,21.61-9.39,11.04-7.06,19.55-16.44,27.66-25.32ZM1012.99,43.68c-13.37.02-26.61,1.05-39.95.05-1.41,7.84-2.84,16.16-7.05,22.93l46.99-22.98ZM212.98,67.68c-4.07-2.3-38.52-20.78-39.98-19.01l9.65,21.9c3.87-.68,7.93.23,11.74-.03,5.02-.34,6.98-1.1,13.1-1.07.88,0,5.52-.37,5.49-1.79ZM1023.99,50.67c-1.09-1.18-20.41,9.95-23.02,11.51-1.27.76-2.54-.2-1.97,2.48,8.18-4.31,17.46-1.85,25.97-4.04l-.98-9.95ZM580.99,166.66l.99-98.99c-5.52,2.88-6.74,8.93-10.14,13.35-2.4,3.1-6.94,8.8-9.41,11.59-1.84,2.08-11.13,8.51-11.33,9.71,13.1,18.58,16.52,41.9,26.83,61.91.74,1.43.91,2.85,3.05,2.43ZM839.76,99.41c.34-.28,3.23-5.63,4.25-7.23,2.41-3.77,3.88-8.45,6.98-11.97-8.91-7.62-20.23-10.14-31.67-11.16-41.61-3.72-81.45,8.64-121.08,18.38-3.64.9-8.41.87-12.25,2.26,2.53,4.81,8.09,2.13,13.26,4.23,2.46,1,19.8,11.48,21.41,13.1,4.98,4.98,3,12.33,3.34,18.66,4.32-2.12,9.47-3.61,13.7-5.79,8.78-4.52,20.76-12.48,30.96-13.06,9.26-.53,13.55,1.29,21.67,5.11,1.33.63,2.89-.12,3.69.33.37.21,5.33,5.4,5.81,6.08,2.43,3.5,4.19,9.36,6.18,13.32l18.02-13.46c5.82-7.98,8.26-12.67,15.73-18.79ZM600.57,76.08c-1.19-1.13-6.7-7.4-7.58-6.41l-3,91.99c3.14-1.37,2.82-6.15,4.11-9.17.49-1.14,2.57-1.59,3.11-4.09s-.6-3.89.3-6.7c.3-.94,8.63-12.67,10.11-14.93,3.8-5.81,10.64-13.73,14-19.34.74-1.24,1.6-5.82,3.19-7.45.26-3.07-13.16-12.45-15.73-14.92-2.77-2.65-5.51-6.12-8.52-8.98ZM1148.73,93.93c-1.52-.99-17.01-7.86-20.23-9.27-19.85-8.74-41.82-7.56-62.89-10.11-11.58-1.4-18.72-3.52-31.08-3.84-33.39-.87-66.44,3.9-92.82,24.22l-15.7,8.24c1.7,2.43,1.77.75,3.29.32,11.7-3.29,21.48-5.18,33.09-7.93,24.87-5.88,47.39-14.07,73.11-14.99,24.13-.86,57.78-1.35,79.38,9.71,8.74,4.48,18.91,15.33,21.72,25.06,2.26,7.82,1.09,15.9,2.16,23.72-3.13,2.72-4.02,6.52-6.33,9.58-3.84,5.09-12.35,11-15.39,15.8-.36.57-.69,1.17-1.03,1.76-.26,1.52-.05,1.73,1.48,1.49,2.53-.39,7.81-3.33,10.34-4.67,4.32-2.28,11.64-7.91,15.87-9.17,2.57-.76,5.73,1.05,7.56-.09,1.03-.65,1.55-2.63,2.65-3.63,9.15-8.32,13.09-8.97,14.07-23.03.45-6.5-3.55-17.28-7.56-22.36-.89-1.13-10.83-10.24-11.69-10.8ZM647.99,71.68l-25.99,7.48c2.36,2.07,7.07,10.24,10.29,9.4l15.7-16.88ZM552.99,84.68c-.97-1.19-13.97.37-16.42-.04-.86-.14-10.29-3.07-11.52-3.53-2.06-.77-3.54-3.63-6.05-3.44,1.46,3.04,5.22,3.83,7.41,6.08,1.69,1.74,3.61,6.63,4.89,7.61.32.24,6.93,2.97,7.33,3.01,4.63.52,11.6-6.06,14.37-9.7ZM255.99,92.66c.21-.16-1.44-2.96-2.06-3.43-2.27-1.7-13.62-6.4-16.73-7.27-21.66-6.02-42.04-.8-63.69-.22-26.82.72-52.99-1.72-79.2,8.73-8.49,3.39-40.1,24.52-45.83,31.17-5.13,5.94-8.8,15.64-8.47,23.5.17,4.17,3.05,16.45,5.1,19.92,1.05,1.77,2.98,2.07,3.56,2.93,1.38,2.06,1.65,4.26,3.81,6.69,3.84,4.32,24.13,17.01,29,17.03,1.48,0,3.15-1.14,3.94-1.09.88.06.72,2.42,2.19,2.91,1.6.53,3.79-.2,5.63.4,7.78,2.54,17.11,7.72,24.94,10.06,6.91,2.06,14.92,2.23,21.81,4.68l-7.08-5.41c-31.81-10.44-63.05-36.23-49.36-73.54,4.89-13.32,18.95-20.66,30.37-27.63,1.79-1.1,2.84-3.19,4.73-4.27,26.55-15.1,85.32-9.76,115.86-7.16,7.14.61,14.28.25,21.49,2ZM1114.73,102.93c-24.63-12.48-53.23-11.25-80.28-11.01-22.78.2-40.26,7.17-62.46,11.24l-25.99,7.5c5.41.35,10.77-.39,16.06-1.43,15.75-3.09,32.44-7.32,49.43-6.53,4.69.22,10.83,2.05,15.01,2.05,10.93-.02,15.18-.53,25.73,5.19,24.5,13.28,19.51,46.56,1.8,63.28-6.18,5.83-14.81,9.14-21.04,14.45,5.47-.36,11.02-1.24,16.5-1.8,26.04-2.63,35.31-10.9,54.75-26.5,4.18-3.36,4.12-3.8,7.18-6.75,6.71-6.47,15.23-11.94,15.48-22.55.32-13.49-5.03-17.21-12.16-27.13ZM851.99,94.67l-5.45,5.04c-9.04,18.08-22.82,30.41-39.8,41.2-16.39,10.42-31.59,14.24-47.42,22.58-3.17,1.67-5.54,4.75-7.95,6.05-6.17,3.35-16.38,6.08-22.57,9.43-1.15.62-2.52,1.24-2.8,2.69,12.7-2.35,23.53-9.39,35.3-14.19,21.7-8.86,45-15.03,62.1-31.9,9.43-9.31,14.43-15.48,21.18-26.82,2.49-4.18,8.54-7.44,7.41-14.08ZM684.23,101.48c-.49-.35-.6-1.91-1.88-2.64-7.32-4.11-17.2-.92-23.35,3.84,3.65,5.95,12,4.28,17.2,6.29,2.28.88,3.94,2.86,6.12,3.87,6.36,2.92,11.03,2.6,14.17,9.83,8.72,20.08-9.79,30.07-24.54,37.46-1.37.69-4.42,2.1-4.96,3.53,3.94,1.79,5.7-1.07,8.71-1.77,2.28-.53,4.77.23,6.59-.19,1.04-.24,1.13-2.57,2.71-3.49,2.89-1.7,7.74-1.74,10.91-5.1,2.15-2.28,1.77-4.66,3.04-6.7s6.91-5.53,7.99-7.53c1.39-2.59,6.39-14.46,6.85-16.98,2.03-11.18-7.32-16.17-16.75-18.78-2.1-.58-12.29-1.25-12.82-1.63ZM300.68,118.96c-.27-.22-5.02-2.53-5.71-2.78-39.95-14.66-70.75-17.23-113.43-17.54-31.77-.23-60.66,2.72-83.09,28-8.82,9.94-8.74,28.03-1.89,38.96,10.08,16.09,44.74,31.83,62.46,38.52,29.3,11.06,55.91,13.77,86.44,17.56,6.87.85,13.35,2.91,20.51,1.98-.36-2-2.16-1.59-3.47-2.02-18.78-6.07-42.69-10.84-59.76-20.24-7.35-4.05-14.68-9.01-18.68-16.53-3.46-6.5-1.89-6.2-2.17-11.82-.32-6.13-1.84-8.75.6-15.38,7.53-20.5,22.59-29.78,42.2-36.8l22.29-2.21c.74-1.57-3.65-3.92-.48-4.99,2.42-.82,2.37,3.94,1.48,4.98,11.69.81,23.78-1.45,35.23.28,6.53.98,12.23,4.2,18.77,3.72.45-.41-.63-3.14-1.3-3.7ZM399.99,99.67c-9.83-3.01-14.77,16.48-6.49,18.99,2.77-4.01.91-8.79,2.15-12.82s4.17-2.84,4.34-6.17ZM514.99,108.68c-3.27-.88-9.08-1.42-12.42-.94-1.5.22-2.59,1.47-4.18,1.83-7.42,1.66-7.31-.23-12.38,6.62-2,2.7-9.51,18.24-10.01,21.06-.53,3,2.3,13.49,3.56,16.34,2.3,5.18,9.55,10.02,14.53,12.47,10.17,5.01,22.98,7.37,34.14,11.86,3.66,1.47,7.75,2.96,11.45,4.55,4.21,1.81,8.02,4.59,12.31,6.18-2.04-3.76-6.62-5.18-9.39-8.1-1.82-1.92-3.38-6.15-4.3-6.95-1.72-1.49-6.37-1.85-8.7-3.05-6.8-3.48-14.12-7.52-19.62-11.37-7.17-5.02-14.04-6.56-17.36-15.67-2.46-6.74-.04-5.78,1.89-10.84.77-2.03.41-4.12,1.6-6.39,1.87-3.56,8.9-5.81,9.45-11.58l9.42-6.03ZM418.99,152.67c-.09-.05.37-1.37-.71-1.99-1.84-1.06-5.25-.49-7.83-1.96-1.9-1.08-4.58-5.95-4.95-6.07-3.61-1.14-1.93,1.93-2.71,2.75-1.89,1.98-7.75,1.83-9.56.04-.88-.87-.66-4.98-1.79-6.71-.79-1.21-2.95-1.72-4.02-2.98-1.19-1.4-1.36-3.5-2.44-4.56-1.27-1.25-9.72-3.73-12.68-5.32-2.62-1.41-19.94-14.46-21.31-13.18.33,3.73,3.17,4.52,4.95,6.76,4.98,6.3,10.58,14.86,17.71,19.06,3.56,2.1,7.35,2.2,10.32,3.63,5.32,2.55,18.01,10.47,22.78,11.36,3.59.68,8.28-1.79,12.24-.82-2.81,4.14,5.02,5.39,8.31,7.19,3.94,2.14,8.72,5.74,12.44,7.56,9.5,4.63,20.44,8.14,30.24,12.25,2.35-1.97-5.71-3.74-6.19-4.04-4.29-2.66-9.84-8.39-14.53-10.73-2.78-1.39-6.71-1.59-9.96-3.04-2.63-1.17-9.2-6.84-10.04-7.05-3.33-.84-4.89.9-10.28-2.13ZM417.99,118.67c-5.08.35-8.81-3.8-12.99-6-.99,5.07-4.59,14.42,2.07,16.5,1.41.44,2.83-.64,2.91-.52.45.62-.97,3.32.99,3.01.03-4.68,4.87-6.84,8.01-9.5l-1.92-.93.92-2.56ZM678.43,145.12c14.93-10.6,11.76-21.08-4.74-26.65-3.53-1.19-6.73-.75-9.49-1.52-4.87-1.35-8.82-5.58-14.47-4.04-1.13.31-7.55,4.38-7.74,5.27-.68,3.16,7.12,3.21,9,3.98,4.95,2.01,8.61,5.31,14.76,5.74,2.39,7.81,4.14,15.21.24,22.77,4.66-1.76,8.5-2.75,12.43-5.54ZM1055.41,127.26c-2.14-2.9-7.33-8.63-10.49-10.02s-22.2-5.29-25.22-4.63c-1.18.26-1.32,2.97-2.2,3.03-.75.05-2.87-2.7-7.94-.92-2.16.76-2.82,2.14-4.29,2.72-1.88.73-4.82-.52-6.28,1.73,10.25,8.91,18.54,22.07,19.9,36.11.87,9.03-5.87,20.85-8.9,29.38,10.85-4.76,25.81-10.13,34.51-18.02,1.1-1,8.1-8.91,8.49-9.67.73-1.42,5.28-16.44,5.45-18.16.19-1.94-.37-7.34-.88-9.25-.45-1.7-1.66-1.64-2.15-2.3ZM789.8,142.39c.31-.18.48-1.6,1.17-2.07.62-.42,1.76.12,2.49-.63,4.42-4.55.52-12.91-3.04-16.95-1.39-1.58-9.15-5.64-11.19-5.9-1.46-.19-9.87.83-11.26,1.31-2.68.93-.32,1.25.25,1.77,7.15,6.51,17.92,11.49,18.77,22.75.94-.05,1.92.24,2.8-.28ZM980.99,192.66c3.01.34,6.57-1.82,8.93-3.56s12.67-12.89,13.82-15.18c.79-1.56,5.05-13.51,5.25-14.85.14-1-3.56-18.32-4.22-19.69-3.87-2.42-11.52-15.63-14.48-16.51-2.32-.69-11.8.46-14.56,1.02-8.29,1.67-28.92,6.92-34.76,12.33-.87.8.03,2.11-.17,2.28-6.36,5.04-12.91,8.94-17.15,16.81l-15.64,14.86c2.95,1.97,5.31-2.6,6.83-3.4,2.73-1.42,6.13-1.9,8.44-3.12,3.57-1.89,10.13-11.76,13.19-14.02,3.91-2.88,22.62-11.59,27.3-12.7,8.2-1.96,12.97-2.29,19.71,2.76,4.31,3.22,13.32,10.87,13.43,16.46.05,2.93-2.39,14.49-3.42,17.5-.86,2.5-2.62,4.77-3.51,7.27l-8.97,11.73ZM514.99,124.68l-7.97,6.74c-.88,3.17-4.47,7.45-3.89,10.5.77,4.06,15.31,15.17,17.86,12.74l-5.09-13.2c-4.02-3.52-2.51-11.85-.9-16.78ZM922.98,125.67c-7.15,2.85-14.89,3.22-22.21,5.28-29.95,8.43-62.11,22.4-91.07,32.93-6.32,2.3-14.45,3.44-19.71,7.78,7.44-1.31,14.38-4.89,21.56-6.93,7.53-2.14,16.7-2.82,22.53-6.42,7.38-4.56,16.23-5.31,24.1-7.96,2.63-.88,4.02-3.51,4.53-3.64,19.27-5,39.09-11.6,57.91-18.95,1.42-.56,2.92.96,2.36-2.09ZM770.99,147.66c6.52-1.82,3.87-8.46.99-12.48-6.49-9.1-12.33-8.55-21.99-4.49,1.68,4.2,4.96,1.4,9.03,2.45,5.26,1.36,14.31,8.16,11.97,14.53ZM315.64,137.05c-18.87-4.27-35.51-7.48-54.9-7.74-1.32-.02-2.2-.87-2.75,1.34,5.18.25,9.81,2.66,14.78,3.73,29.97,6.45,59.84,11.93,88.78,22.22,8.57,3.05,16.6,8.28,25.41,10.59,10.8,2.82,23.14,3.41,34.02,6.47.56-2.8-.76-1.61-2.13-2.32-6.04-3.12-16.05-2.93-22.88-5.16-8.6-2.8-18.77-9.83-27-13-5.18-2-11.88-2.27-16.98-4.02-12.53-4.3-24.01-9.32-36.35-12.11ZM657.68,134.97c-4.41-4.83-15.64-7.27-21.89-5-3.05,1.11-8.81,3.25-11.54,4.46-5.47,2.42-9.9,12.47-12.26,17.74-6.9,15.45-9.09,26.74-9.35,43.75-.02,1.19-.82,1.72.86,2.75.35-4.3,4.15-4.28,6.46-6.57,1.05-1.05,3.49-6.48,4.25-7.2,1.13-1.07,3.68-.69,4.56-1.44s.63-3.03,1.29-4c2.98-4.4,12.1-13.21,16.57-16.61,6.37-4.86,31.15-16.81,21.06-27.87ZM538.43,141.25c-3.92-3.78-7.47-7.65-12.95-9.56-3.65.17,1.73,11.51,2.32,12.66,4.13,7.95,22.29,29.37,29.28,34.72.89.68,4.11,3.32,4.9,2.59-4.57-9.08-9.89-17.83-14.76-26.72-3.63-6.63-2.63-7.73-8.8-13.68ZM927.99,133.68c-5.19-.14-8.98,3.81-13.11,5.36-14.46,5.43-29.72,9.71-43.99,15.04-52.73,19.68-106.55,36.21-158.91,57.09-21.37,8.52-45.64,13.53-67.57,23.42-1.77.8-4.89,2.73-6.43,4.07,4.56,2.09,7.51-.76,11.49-1,7.29-.44,23.65-1.67,30.08-1.07,2.43.23,5.19,2.01,5.76,1.92.96-.15,2.22-1.95,3.65-2.38,17.41-5.2,37.91-3.31,57.22-7.77,7.36-1.7,15.3-2.12,23.04-4.96,4.21-1.54,11.61-7.71,12.35-7.77,3.79-.28,6.95,1.34,12.52-.57,33.16-11.36,67.5-26.65,96.11-44.44,10.91-6.79,22.68-19.69,31.84-29.41,2.15-2.29,3.81-5.21,5.95-7.54ZM245.72,136.98c-.7-.3-14.09-2.1-15.05-1.93-3.29.59-5.41,3.13-7.38,3.44-2.43.38-5.11-1.62-8.58-.61-.53.15-7.27,5.02-8.19,5.81-9.3,8.05-16.83,25.67-10.49,37.23,4.99,9.1,14.15,10.74,22.27,14.98,1.34.7,1.54,2.31,1.88,2.51.4.24,8.7.58,8.79-1.24-2.46-3.68-3.1-10.29-2.69-14.74.15-1.69,2.36-14.32,2.73-14.99.72-1.3,2.61-1.31,3.45-2.79,2.65-4.61,2.7-7.78,7.64-12.38,3.87-3.6,18.02-8.91,22.97-9.1,13.9-.52,49.18,15.81,60.49,24.44,6.45,4.92,12.88,11.31,19.97,16,9.64,6.36,20.53,9.74,30.08,14.9,31.61,17.09,70.06,24.23,105.84,24.11,6.65-.02,12.05-.85,18.04-1.02,5.04-.14,9.56,2.31,14.5,1.05-.27-1.73-1.99-1.74-3.22-2.26-21.19-9.05-47.14-16.94-67.12-27.88-3.89-2.13-14.85-10.92-17.4-11.6-14.02-3.75-32.75-4.26-46.5-8.5-8.31-2.56-15.7-7.48-25.71-10.29-6.48-1.82-13.11-4.96-17.79-6.21-19.99-5.32-42.69-8.33-63.31-12.69-7.11-1.5-19.7-3.9-25.22-6.24ZM433.61,139.05c-3.13-2.03-5.81-2.85-9.62-2.38.37,8.23,4.68,5.13,7.73,6.24,2.63.96,1.95,5.78,2.42,6.6s16.1,8.84,16.84,8.15l-6.07-8.19c-3.5-2.85-7.71-8.08-11.3-10.42ZM759.78,143.88c-.54-.76-3.19-1.1-4.28-1.21-18.9-1.89-30.5,15.33-45.99,23.02l-32.5,28.48c-.25,2.76,7.74-1.21,8.6-1.48,7.71-2.46,19.04-8.47,26.66-13.03,5.16-3.09,1.31-5.66,11.67-8.55,8.95-2.5,18.99-7.41,26.97-13.03,3.74-2.63,12.51-9.08,8.88-14.2ZM966.69,194.36c3.43-2.55,13.12-14.9,15.5-19,3.5-6.02,7.54-17.87,2.35-23.74-.94-1.06-7.15-5.44-8.3-5.74-1.4-.36-10.94.47-12.71.82-5.31,1.05-17.88,7.1-22.44,10.6-3.5,2.69-7.39,8.55-10.21,10.75-16.53,12.89-43.96,22.37-63.11,31.69-9.12,4.44-18.16,9.99-27.47,14.73-4.04,2.06-9.48,2.99-12.31,6.18l36.73-10.29c19.12-13.42,41.04-22.66,61.19-34.29,2.46-1.42,4.96-4.72,7.83-6.17,1.14-.57,11.19-4.22,11.85-4.26,3.54-.18,12.89,8.33,13.02,11.5.18,4.75-6.1,11.82-6.68,16.85l-5.93,6.65c.76.58,11.08-2.08,12.8-2.69,1.11-.39,7.33-3.19,7.9-3.61ZM280.57,157.11c-10.87-3.67-16.6-7-27.83-1.2-.74.38-6.55,4.12-6.81,4.44-3.75,4.59-8.86,20.02-8.87,25.96,0,5.44,5.22,9.23,5.95,14.36,1.59.26,1.12-2.01,1.26-3.19,1.57-12.44-1.95-18.52,7.29-29.74,7.88-9.57,24.13-7.23,34.44-2.56s19.49,11.26,29.09,16.91c7.64,4.5,16,8.83,24.91,9.58-1.57-2.6-4.63-4.68-7.09-6.4-17.63-12.28-32.13-21.32-52.33-28.15ZM300.99,184.66c-2.81-3.21-8.31-4.12-12.34-6.15-2.33-1.18-4.09-3.71-7.11-4.89-1.53-.6-16.85-3.07-17.81-2.75-6.73,2.26-9.46,11.99-9.3,18.41.25,10.46,4.84,19.69,16.56,19.38-.55-7.15-4.84-14.33.95-20.54,7.8-8.38,19.31-7.1,29.05-3.46ZM667.36,184.05c2.56-1.92,6.1-2.91,8.67-4.84,4.11-3.1,5.53-6.8-1.47-5.5-10.53,1.95-23.87,8.63-33.06,13.96-10.53,6.12-26.66,16.69-31.29,28.71-.65,1.7-1.37,3.4-1.21,5.28,2.77.29,3.42-3.04,5.72-3.77,13.08-4.18,15.61-9.53,25.54-16.56,5.89-4.17,15.57-6.85,21.63-11.26,1.39-1.01,3.68-4.67,5.48-6.01ZM1154.69,188.95c-1.93-3.24-1.77-4.44-2.6-5.82-.68-1.14-7.53-8.28-8.4-8.28-4.72,1.36-10.66,5.1-15.46,5.63-3.19.35-5.07-1.6-7.31-1.29-6.29.88-19.41,6.92-26.9,9-12.05,3.34-24.4,5.39-36.25,9.56-5.9,2.08-3.32.74-9.23.87-3.74.08-8.06,2.22-11.21,2.66-59.85,8.24-123.31,19.13-182.83,30.38-1.46.28-3.1,0-3.5,1.98,6.74.4,13.76.26,20.54.05,33.51-1.02,67.32-2.46,101-4,51.53-2.36,107.85-9.14,158.95-6.03,11.33.69,33.7,5.78,43.49,1.47,1.33-.59,2.7-3.02,4.01-3.98-3.9-2.94-7.82-6.27-10.95-10.03-5.59-6.73-8.93-14.78-13.34-22.18ZM946.98,175.67l-18.74,8.77c-14.04,9.4-30.05,17.2-44.6,26.37-1.03.65-2.36,1.6-2.65,2.84,4.46,1.23,7.24-1.79,10.77-2.72,11.04-2.9,23.81-2.47,33.78-7.22,2.59-1.24,14.99-9.87,16.48-11.79,1.57-2.03,7.21-14.57,4.97-16.25ZM52.34,191.31c-3.83-3.47-7.88-9.34-10.85-13.62-8.87,8.63-2.99,6.72,3.21,10.77,4.24,2.77,7.15,6.17,12.28,7.72.99.3,4.13,1.51,4-.5-3.14-1.04-6.15-2.12-8.64-4.37ZM533.98,219.68c-6.45-2.49-12.51-6.95-18.61-9.89-18.1-8.73-38.19-14.78-56.68-22.32-6.1-2.49-12.45-4.73-18.7-6.79.56,3.58,2.32,2.23,2.96,2.67,24.25,16.76,59.84,22.93,83.78,35.29,1.41.73,6.43,3.69,7.26,1.04ZM544.62,195.05c-6.55-4.1-19.73-7.76-27.53-10.97-2.94-1.21-6.43-5.75-10.1-1.89,7.23,11.35,21.02,14.46,31.92,21.07,4.61,2.79,15.3,13.14,18.02,13.98s5.38.38,8.05.43c.32-4.59-3.46-5.68-5.61-8.36-4.59-5.72-8.07-10.06-14.76-14.25ZM481.99,232.67c-10.8,2.08-20.28-1.84-30.51-2.99-23.93-2.7-45.82-2.75-69.46-10.54-5.08-1.67-9.43-4.71-14.65-6.45-5.66-1.89-13.11-2.05-18.42-3.49-3.62-.98-7.26-5.49-10.67-6.33-11.29-2.77-25.45-3.92-36.57-6.43-2.5-.56-4.64-2.7-7.88-3.12-4.54-.59-14.72-.12-14.55,6.02.1,3.61,9.96,14.91,13.45,16.08,1.6.54,3.64.14,5.33.66,14.48,4.52,27.37,5.74,41.98,9.03,4.1.92,9.1,3.71,13.54,4.48,2.47.42.83-.94.41-1.92,3.67-.63,7.03.85,10.51,1.07,2.71.17,9.15-.55,11.79.09,1.48.36,4.05,4.13,7.02,5.11.63.21,6.8,1.67,7.18,1.69,1.71.09,10.05-3.06,14-3.04,16.2.06,32.56.81,48.98,1.32,8.05.25,19.09,2.28,27.01.73,1.63-.32,1.75.65,1.51-1.97ZM65.99,208.67c-10.66-2.43-20.37-7.54-29.99-13.01-1.23,5.79,3.74,6.92,6.02,9.75,3.46,4.29,7.48,14.63,5.98,20.25,1.95-2.65,6.88-3.85,8.66-5.33.82-.68,7.73-8.25,8.35-9.15.58-.84,1.4-.98.99-2.51ZM409.99,244.68c-11.54.22-22.91.19-34.37-1.14-40.93-4.74-82.76-6.13-123.4-11.6-42.76-5.75-90.25-7.33-131.62-17.38-4.38-1.06-13.03-5.68-17.13-5.44-1.9.11-7.06,2.51-10.48,3.03-3.64.55-7.39.56-11.06.06l-10.6,12.32-49.35,37.14c4.3-2.25,8.06.12,11.55.05,13.13-.26,47.92-6.09,58.27-3.36,2.95.78,4.66,3.03,7.7,3.38,4.31.49,10.9-1.02,15-1.02,26.37,0,52.81-1.93,79.06-1.15l1.05-1.96c53.06-3.62,106.3-4.14,159.83-6.19,16.29-.62,31.45-1.54,47.77-4.02,2.03-.31,6.93-.76,7.77-2.72ZM795,229.66l-.43-1.91-31.02,5.98-11.56,3.93,37.48-2c3.34-4.21,9.13-.93,12.03-2.18.9-.39.76-2.2,2.07-2.61,1.4-.44,7.45,1.76,7.41-3.2-3.5-.5-6.92.42-10.33.63-1.17.07-2.72-.94-4.04-.71-1.15.2.05,2.52-1.61,2.07ZM1160.99,234.67c-25.31-3.02-50.96-4.83-76.49-4.44-18.09.28-36.73,2.2-54.99,3.45-50.09,3.41-103.59,4.28-154,5.05-13.96.21-31.21-.68-44.53,1.43-4.97.79-18.8,5.62-22.77,3.85-1.23-.55-1.17-2.35-1.79-2.36-1.5-.04-4.04,1.6-6.07,1.68-4.77.19-8.3-.64-13.84.38-1.63.3-1.73-.68-1.52,1.96,12.13,3.34,24.45-.75,36.53-.47,20.11.47,38.11.24,58.06,2.39,23.48,2.53,43.68-1.49,66.98,2.54,2.43.42,5.11-1.33,6.95,1.55l1-2.06,11.03,3.05c.68-.97.22-1.96,1.91-2.11,2.58-.22,14.81.83,17.94,1.22,4.52.57,10.25,2.38,14.59,3.9-.11-4.67,2.62-6.61,7-7,.2,2.03,1.41,5.38,2.63,6.89,4.91,6.11,32.22,7.33,40.62,9.38,4.11,1.01,10.94,5.01,14.53,5.56,2.4.37,4.24-1.01,6.59-.77,4.77.5,17.89,5.26,20.1,4.96,2.68-.36,3.6-2.54,3.58-5.02l4.97,1c.34-5.27,2.22-4.86,6.37-3.9,2.32.54,8.29,2.27,7.53,5.28l-4.92,6.07c7.43,4.62,6.36-1.31,9.01-4.71,4.37-5.6,11.24-12.44,16.43-17.38,2.18-2.08,3.82-4.46,5.52-5.93,4.95-4.28,14.1-6.75,18.3-10.42.78-.68,3.48-4.22,2.76-5.01ZM563.99,234.67l-80-2c-.86,2.69,3.95,2.58,5.64,2.85,13.84,2.18,35.91,3.9,49.82,4.1,9.49.14,7.95-.35,16.15-1.93,2.41-.46,8.02,2.22,8.39-3.03ZM602.99,233.68c-4.94,1.86-6.11,1.75-10.99-.01.98,1.92-6.9,9.56-7.7,9.82-3.53,1.11-6.16-.54-9.34-1.39-6.9,10.17-.54,13.26,8.91,15.68l.12,4.89c7.74,1.52,13.91-17.73,18.01-4l2.48-2.97,5,3.98c1.4-2.42,1.71-2.93,4.5-3.5-1.31-1.87-6.27-3.25-6.88-5.18s.87-4.34.39-5.39c-1.09-2.38-9.16-4.61-4.5-11.92ZM441.99,243.68c-10.26-.48-21.01-1.21-30.99,1.48,4.37,4.47,6.09-.57,6.47-.5,1.08.22,3.17,2.42,5.42,1.51l19.09-2.49ZM668.99,260.68c-5.1-2.1-9.67-.95-14.99-1.01-1.6,1.19-.01,1.82,1.47,2,2.79.34,7.45.66,10.33.79,1.61.07,2.72.08,3.19-1.78ZM922.36,275.31c-8.55-6.49-7.11-2.73-15.71-3.72s-18.52-4.97-28.18-5.91c-13.13-1.27-26.69.55-38.93.02-9.23-.4-24.52-5.7-34.16-5.94-4.11-.1-9.78,1.88-14.39.91-.02,1.34,2.97,2.13,4.02,2.47,7.67,2.44,18.87,7.24,26.18,10.82,14.71,7.2,24.82,14.41,37.61,23.36,15.1,10.57,39.73,19.05,57.74,13.4,19.11-5.99,23.22-20.6,8.47-34.37-.89-.83-1.99-.54-2.66-1.04ZM810.56,285.13c-14.16-13-34.09-15.51-51.65-19.88-4.64-1.16-9.82-5.76-15.92-4.57-.51,2.67.58,1.74,2,2.44,13.09,6.46,32.05,8.49,45.69,14.36,7.14,3.07,14.54,9.79,21.82,13.18,3.54-.09-1.4-5.03-1.95-5.53ZM311.99,261.68c-20.07,1.99-40.38.19-60.54.95-25.52.97-51.33,4.95-76.96,6.13-41.56,1.91-83.69-.27-125.02,2.89-2.22.17-21.49-.82-21.5.53,1.03,3.88,5.22,9.42,8.64,11.36,2.12,1.2,6.57,1.5,8.09,3.4,1.24,1.56,1,4.18,2.26,6.26,2.73,4.54,10.76,9.29,14.46,12.53,1.31,1.14,6.5,8.9,7.06,8.92,1.58-.48,6.75-5.86,7.21-5.96,2-.42,6.54-.21,8.75.02,1.61.17,2.2,1.86,4.55,1.58,6.29-.76,15.59-5.43,21.8-7.33,2.55-.78,8.28-.69,11.23-1.75,4.3-1.54,8.33-4.96,13.52-6.48,12.9-3.78,27.84-3.47,39.71-6.27,2.77-.65,11.27-4.61,13.23-4.4,1.24.13,2.52,2.29,3.99,2.28,3.6-.04,11.43-3.4,15.47-4.2,31.92-6.32,63.45-8.92,94.27-16.73l9.76-3.72ZM1022.62,281.05c-8.89-6.41-30.94-10.82-41.88-12.63-3.99-.66-6.39-3.23-10.76-1.74.27,1.32,1.67,2.08,2.68,2.81,7.99,5.78,16.04,11.55,23.82,17.17,20.82,15.04,17.99,37.38,11.23,59.24-5.78,18.7-20.75,51.39-40.54,58.46-24.43,8.73-53.96,16.89-79.82,20.18-13.01,1.65-34.13,3.72-46.88,3.92-2.43.04-5.94-1.97-8.5-.3l17.75,6.25c22.48,3.71,52.25,15.28,74.78,13.29,6.65-.59,12.75-4.33,19.08-4.94,4.95-.48,9.24.96,14.64-.34,6.16-1.49,7.2-4.38,15.14-3.64,11.79,1.1,27.97-.64,39.83-3.39,7.33-1.7,19.88-8.55,24.78-14.22,1.7-1.96,8.93-13.46,9.95-14.02.95-.53,2.47.82,3.04.51-.24-.99-.67-1.57-.24-2.66,2.85-7.35,11.9-24.75,13.04-31.08.27-1.48-.82-2.91-.66-3.8.25-1.37,1.44-2.42,1.48-3.15.58-9.43-3.72-21.72-8.57-29.85l1.96-1.94c-6.04-3.36-6.68-10.51-9.81-16.19-5.88-10.69-16.09-31.11-25.56-37.93ZM755.72,276.98c-39.61-15.45-86-6.33-128.24-7.21-1.94-.04-3.6-.92-5.48-1.1.54,6.63,7.25,7.5,11.35,10.14,11.85,7.64,18.64,10.2,31.63,15.37,8.39,3.34,8.62,3.48,17.4,5.6,26.87,6.49,51.43,29.54,79.05,28.92,4.37-.1,9.21-2.31,14.07-2.1s11.57,3.05,16.99,3.07c2.37.01,9.74-.68,9.99-3,2.37,5.59,6.56,2.63,12.05,2.96,7.78.47,15.68,1.58,23.45,2.03-.85-1.61-1.5-3.43-2.56-4.93-19.42-27.56-50.02-38.16-79.72-49.74ZM1137.99,269.67c-1.96-.34-2.85,1.31-3.96,2.53-1.69,1.85-10.06,13.48-9.81,15.01,3.23,1.81,11.8,10.41,14.6,5.76,1.74-2.88-1.25-11.69-1.44-15.97-.1-2.26,1.13-4.87.61-7.32ZM965.77,312.44c.36-.69-.93-4.01-.75-6.15.22-2.62,2.74-6.3,2.76-8.31,0-.37-2.49-6.33-2.78-6.8-2.02-3.15-10.04-11.64-13.07-13.96-4.8-3.67-12.84-7.83-18.93-6.07,3.53,7.14,12.16,13.59,11.74,22.22-.07,1.49-1.58,2.35-1.65,3.73-.19,3.83,2.12,7.53-2.05,11.89-.41.42-8.62,6.61-9.28,6.96-30.37,16.37-47.07,4.38-75.2-7.35-1.57-.66-2.71-1.29-4.56-.93,2.84,3.66,6.43,6.84,9.79,9.98,8.28,7.73,15.03,13.08,24.12,19.6,2.08,1.49,4.39,5.03,6.14,5.86,5.27,2.51,15.32,3.33,21.17,4.83,3.81.98,8.2,3.77,12.07,4.39,4.16.67,14.37-1.53,17.65-4.25,5.56-4.6,17.78-19.98,20.29-26.71,1.53-4.1.38-4.76,2.56-8.95ZM421.99,271.68c-12.1,1.52-23.35,5.75-35.51,6.98-7.56.77-13.09-.07-19.95-.03-25.88.14-50.86,6.62-76.09,7.99-25.71,1.4-39.69,3.68-61.79,18.21-4.26,2.8-3.95,4.59-5.95,6.54-1.66,1.63-5.27,2.85-6.6,4.91-1.47,2.27-3.06,12.93-3.11,15.89-.05,2.59.76,13.44,1.27,15.73,1.31,5.9,11.69,13.67,17.68,14.33,8.55.95,29.67-4.33,36.54-9.56,2.02-1.54,2.74-3.75,4.27-5.01,1.96-1.61,6.51-2.76,7.01-3.26,27.86-28.23,67.46-46.8,106.5-56.94l35.72-15.77ZM534.61,286.3c1.01-1.22,5.24-6.71,5.8-7.71,3.84-6.83-1.32-6.2-6.79-5.79-42.07,3.11-86.87,20.26-127.6,30.39-3.69.92-8.07.87-11.27,1.73-19.31,5.19-34.25,18.03-48.74,31.26-1.18,1.07-14.35,11.49-13.01,12.48,6.85-1.31,13.83.89,20.65,1.85,8.1,1.14,12.99,1.33,20.86,1.56,4.46.13,14.4,4.09,20.1,4.48,12.68.87,47.09-8.61,57.05-16.22,1.15-.88,2.07-3.77,3.85-4.66l1.95,2.96c13.36-6.25,26.71-12.52,38.79-21,10-7.02,31.08-22.49,38.38-31.33ZM1090.61,286.07c-12.37-5.83-24.98-6-38.04-8.48-3.95-.75-8.04-3.76-12.57-2.92,1.36,2.49,5.58,3,7.45,5.03,8.38,9.1,27.09,39.12,31.34,50.66,8.01,21.73-2.35,53.65-13.14,72.97-1.74,3.12-19.75,26.67-21.72,27.76-5.02,2.79-13.79,5.31-19.15,7.65-27.03,11.81-43.29,18.46-74.34,18.95-4.22.07-9.22-2.3-12.91-2.54-6.35-.41-13.6,2.02-19.78,2.26-16.82.65-66.05-10.31-82.46-16.55-6.19-2.36-12.92-6.4-19.32-8.68-1.58-.56-7.14-2.32-8.5-2.52-1.94-.29-1.61.4-1.47,1.99,3.41.89,4.65,5.54,7.46,8.04,3.45,3.07,10.03,6.11,13.56,9.44,4.01,3.78,7.15,9.9,11,13.99,3.64,3.86,17.94,18.41,21.64,20.36,5.35,2.82,27.85,9.11,34.04,10,3.63.52,7.33-3.65,10.57-2.69,1.95.47,2.15,3.18,3.39,3.94,6,3.68,23.87,2.72,31.61,3.32,4.45.34,10.63,2.45,16.3,2.21,30.41-1.29,58.13-1.19,85.72-13.87,5.45-2.51,11.12-3.03,17.89-7.02,2.09-1.24,5.02-4.73,5.38-4.73,1.17.02,3.23,1.66,4.27.91.38-.27.53-2.15,2.2-3.32,7.66-5.36,18.24-7.98,25.84-14.18,16.77-13.69,31.33-43.36,33.09-64.9,1.79-21.85,4.05-52.6-2.49-73.49-2.28-7.28-6.85-13.62-11.5-19.57-8.95,4.8-7.07-1.95-10.02-4.91-.63-.63-13.81-8.38-15.36-9.11ZM974.66,342.35c9.56-17.63,16.3-45.17-.65-60.2-1.46-1.3-11.72-8.65-10.03-3,.1.34,4.72,3.52,5.48,4.53,10.26,13.78,5.26,34.9-1.26,49.69-3.06,6.93-9.81,13.2-15.14,17.83s-13.94,11.85-21.61,11.53c-2.27-.09-3.35-1.88-4.89-1.97-1.86-.11-4,1.24-6.97.87-1.37-.17-24.43-6.76-26.5-7.56-9.55-3.65-16.86-12.68-26.02-16.98l-24.07-20.42c2.87,10.96,11.7,18.6,17.86,27.63,1.15,1.68,1.16,4.23,2.1,5.65.8,1.22,10.75,8.79,13.08,11.18,1.25,1.28,1.46,3.66,2.22,4.27,1.37,1.12,5.03.59,6.48,1.53.73.47,1.18,2.67,2.75,3.75,33.87,23.24,59.64,7.31,81.54-21.26,1.06-1.38,5.21-6.25,5.65-7.08ZM553.57,388.25c11.67-12.8,8.78-19.97,10.53-34.97,1.43-12.28,3.89-24.93,4.93-37.17.52-6.21-.68-15.08-.02-20.84.44-3.8,5.49-7.52.45-10.59-10.21,8.85-16.23,20.99-24.32,31.63-13.63,28.01-34.79,55.81-44.85,85.15-3.45,10.06-7.33,19.88-10.78,29.7-.68,1.92-4.62,14.22-4.51,15,.22,1.56,1.18,1.36,2.49.51,1-.65,4.13-3.2,4.97-4.06,5.57-5.72,5.11-4.77,11.24-9.24,4.11-3,12.83-14.5,16.6-17.39,1.37-1.05,4.47-1.09,6.63-2.88,4.26-3.53,9.34-10.6,13.53-14.42,3.81-3.48,9.17-6.09,13.12-10.42ZM620.61,299.06c-3.2-3.08-8.07-7.19-11.62-9.89-1-.76-1.26-1.95-3-1.49-.02,8.05,3.04,15.93,3.99,23.5,1.34,10.75.64,22.24,2.05,32.86.45,3.39,2.92,6.14,2.97,9.64l4.95-.99c2.67,4.39.17,8.97,1.29,13.24.6,2.27,4.1,6.1,5.25,8.74,2.78,6.37,4.01,14.42,7.06,20.94l15.96,15.05c2.67,1.03.83-3.57,1.63-4.84,6.55-3.66,7.47,3.54,10.31,6.89,11.2,13.2,25.95,21.95,37.49,34.49l19.05,15.47c-.2-2.09-.68-4.16-.56-6.27,1.33-24.05-5.91-43.23-17.07-64.59l-26.69-41.8c-19.4-15.19-35.5-34.07-53.05-50.95ZM997.34,298.3c-1.34-1.13-1.02-3.5-4.35-2.63,1.33,7.98,2.06,15.25.68,23.18-3.78,21.55-20.47,46.06-37.18,59.82-10.34,8.51-27.67,14.67-40.99,13.98-10.39-.54-20.34-5.69-29.39-10.6-6.62-3.6-14.01-7.05-18.11-13.38-2.43,5.26,1.86,3.69,1.99,6.42-4.65,11.83-4.69,23.07-12.56,33.55-1.47,1.95-4.96,2.48-4.44,6.03.45.45,10.24-2.02,12.49-2.06,31.24-.59,49.8-3.08,79.72-13.22,5.27-1.79,11.58-3.34,16.68-5.32,4.35-1.69,22.29-18.87,24.58-22.41,5.1-7.91,17.92-38.83,19.35-47.75,1.53-9.54-1.11-19.38-8.46-25.59ZM53.65,312.01c-.67-.72-6.96-5.98-7.65-5.34.07,7.99-4.51,14.26-4,21.99,5.22-2.22,13.7-2.49,16.56-8,.62-1.2-3.84-7.5-4.9-8.65ZM146.99,307.67c-1.9-1.64-20.3,5.88-23.23,7.26-30.04,14.15-54.99,39.33-56.54,74.25-.83,18.67,11.69,44.12,25.84,55.93,3.75,3.13,7.55,6.37,11.46,9.54,15.6,12.64,58.65,17.15,77.88,15.02,16.61-1.84,32.37-.36,48.13-1.96,19.21-1.95,38.72-2.98,57.98-5.02,10.52-1.11,16.69-2.59,26.68-4.3,27.61-4.74,55.32-5.63,78.51-23.41,1.25-.96,1.51-1.44,2.28-2.8-2.61-.32-7.35,1.24-9.76,2.21-47.15,18.93-62.59,19.71-113.68,17.25-16.99-.82-31.94,2.13-50.04.04-11.72-1.35-31.85-3.66-42.75-6.25-8.82-2.09-27.39-13.57-35.9-18.1-13.92-7.42-22.15-7.59-29.11-23.94-2.67-6.28-5.56-32.67-3.73-40.01.19-.75,1.82-.59,1.98-1.37.47-2.28-.99-5.6.55-9.26,1-2.36,5.77-6,6.37-8.66l-2-1.93c-.12-2.05,4.65-10.82,6.2-12.82.71-.91,8.25-8.83,8.8-9.2,3.38-2.29,6.56-3.79,9.75-6.77.68-.64,5.09-4.99,4.31-5.66ZM207.99,307.67c-11.05,5.19-24.68,13.77-28.56,25.93-3.46,10.86-5.75,22.18-2.17,33.29,6.95,21.55,17.86,34.45,41.98,30.53,44.95-7.3,63.63-36.44,95.7-64.3l12.04-8.47-.51-1.99c-5.28-.11-4.62,2.25-7.09,3.85-10.71,6.97-19.89,15.66-29.86,23.17-2.81,2.11-9.59,4.46-11.26,6.26-.87.93-.69,2.72-1.54,3.46-12.58,10.99-34.22,13.34-50.15,11.18-8.43-1.14-6.16-3.15-9.87-6.63-.98-.92-2.74-.94-4.14-2.36-8.41-8.59-10.72-28.8-9.28-40.31.27-2.18,5.2-13.1,4.7-13.62ZM169.99,309.68c-4.17.57-8.34,3.37-11.74,5.69-9.06,6.17-21.76,17.09-27.68,26.38-8.59,13.47-12.95,37.55-8.09,52.92,5.94,18.79,24.81,25.94,40.8,33.2,19.33,8.78,29.12,11.71,49.68,14.3,16.94,2.13,35.2,4.06,52.46,1.43,2.18-.33,4.29-1.69,6.08-2.93,1.85,4.98,9.06,2.67,13.97,3,4.59.31,11.32,1.7,15.57,1.65,5.32-.07,9.4-3.07,14.57-3.53,3.23-.28,6.85.83,8.71.57,3.09-.44,8.53-4.74,13.65-2.7.33-2.18.07-1.62-1.29-2.24-10.84-4.88-17.25-11.48-26.47-18.7-2.27-1.77-6.4-3.32-8.63-5.17-4.56-3.79-7.36-11.13-8.61-16.88-3.76,4.68-9.67,5.07-14.76,8.75-2.14,1.55-3.87,4.52-5.88,6.05-13.51,10.34-38.94,20.47-55.89,21.21-4.84.21-9.05-2.06-12.98-2.02-2.99.03-5.55,2.08-8.98,2.09-14.46.02-37.72-23.51-44.94-35.14-3.52-5.67-5.49-14.16-8.54-19.27-.56-.93-1.96-.59-2.01-.69-.36-.67,1.66-1.54,1.68-2.45.01-.43-2.6-5.21-2.72-8.08-.65-15.22,11.97-32.55,19.36-45.11l12.67-12.33ZM776.33,385.3c3.52,1.53,7.05,2.98,10.96,3.2l8.21-5.83c1.12-8.33,5.21-10.41.47-18.49-7.53-12.84-32.8-21.93-46.79-24.18-2.04-.33-4.44.54-6.26.07-15.95-4.15-34.61-18.16-51.14-20.78-1.92-.3-2.93-.29-4.78.39l17.49,12.99c15.34,14.62,34.99,24.64,50.56,39.47,1.92,1.83,6.24,8.5,7.23,9.24,1.88,1.41,8.84.83,11.81,1.74,1.85.57,1.96,2.06,2.24,2.19ZM93.99,320.68c-5.91,2.07-12.29,3.75-17.89,6.6-12.1,6.16-26.3,15.43-32.5,27.5-20.8,40.43-17.78,126.86,29.04,148.75,7.84,3.66,23.22,7.6,31.53,9.38,13.58,2.92,27.22,5.08,40.34,6.69,24.19,2.97,35.7,1.46,59.53-1.35,34.14-4.03,69.78-8.26,103.25-17.78,1.3-.37,3.91-3,6.93-4.08,6.86-2.45,11.64-.34,18.46-4.05.59-.32.93-2.09,2.56-2.9,9.3-4.63,18.35-4.3,26.79-7.23.89-.31,8-6.95,8.95-8.05,4.41-5.06,7.07-11.36,11.99-16.01.32-1.37-.06-1.88-1.46-1.47-2.63.78-5.9,3.42-9.52,4.49-7.32,2.15-18.88,3.9-26.75,5.25-55.48,9.54-115.52,13.3-171.69,15.25-53.73,1.86-91.94-15.39-113.27-65.79-6.28-14.84-3.75-43.71,2.01-58.41,1.94-4.96,7.89-9.04,9.27-14.73l22.43-22.06ZM504.55,366.24c7.89-12.83,13.81-27.34,21.61-39.91,1.19-1.92,4.85-3.91,3.34-5.66-1.12,1.27-2.7,1.96-3.98,3.02-13.55,11.22-26.47,29.95-36.38,43.62-7.25,10.01-14.48,19.8-22.64,29.36-1.44,1.69-6.09,4.84-6.29,5.2-.34.58-.77,11.57-.69,13.31.16,3.91,2.28,17.86,8.46,15.01s13.68-29.43,17.83-37.23c4.86-9.14,13.09-17.51,18.76-26.73ZM170.99,326.67c-.75-.79-4.65,2.33-5.4,3.09-6.47,6.5-16.79,24.6-17.51,33.54-.35,4.31,5.85,26.73,8.22,30.08,1.69,2.39,20.73,21.44,23.46,23.26,12.42,8.26,43.12,6.61,57.27,2.57,12.01-3.43,48.69-28.57,55.29-38.77,3.67-5.68,5.43-12.85,11.32-17.62,5.06-4.11,3.44-.52,7.52-7.48.84-1.42,5.18-4.65,1.35-4.65-3.52,3.97-8.75,7.23-13,11-19.53,17.34-33.23,33.72-59.69,42.31-4.48,1.46-26.62,6.3-30.24,5.66-14.95-4.25-22.89-5.89-31.41-19.64-11.99-19.35-13.48-27.58-9.64-49.32l2.47-14.01ZM497.99,332.68c-7.56,2.27-14.6,6.82-20.55,11.94-26.99,23.22-37.42,28.75-70.16,42.84-3.48,1.5-15.82,7.57-15.33,11.66,3.72,3.51,8.53,5.52,13.31,7.43,11.15-5.49,20.9-13.27,31.41-19.7,3.37-2.06,8.32-3.43,11.65-5.35,15.54-8.97,27.82-28.32,40.14-40.89,2.83-2.89,6.69-5.07,9.53-7.93ZM714.66,366c-7.18-6.03-15.42-11.59-23.14-17.36-2.05-1.53-7.48-7.28-9.04-7.96-1.24-.54-1.89.27-1.48,1.48,11.26,16.21,22.44,32.56,32.36,49.65,5.08,8.76,21.82,44.54,26.9,48.17,1.19.85,5.57,3.74,6.75,3.21,12.35-8.03,15.77-14.79,11.16-29.15-.46-1.44-3.75-8.43-4.74-10.25-5.39-9.94-8.91-9.92-15.93-16.11-7.77-6.85-15.1-15.16-22.84-21.67ZM824.49,340.67c-6.05-.45-12.42.33-18.5,0,2.26,2.16,6.33,3.6,8.83,5.63,7.53,6.09,14.43,12.23,21.55,18.98,1.36,1.29,5.77,3.53,7.18,5.31,3.78,4.78,2.84,15.52.94,21.08-.44,1.29-9.06,16.08-9.75,16.76-1.18,1.19-6.77,4.16-8.74,4.25.65,2.02,6.72,1.05,7.98.47.99-.46,12.15-8.45,13.23-9.48,4.58-4.35,13.08-23.43,12.49-29.36-.24-2.44-4.03-14.13-5.31-16.54-2.15-4.03-5.5-6-8.4-8.88-1.11-1.1-2.44-4.41-3.28-4.94-1-.64-9.31-2.04-11.28-2.32-1.44-.2-6.48-.93-6.94-.97ZM596.99,343.67v24c4.74.3,1.33-4.86,1.39-6.51.04-1.12,1.36-2.14,1.31-3.77-.09-2.85-.73-8.38-1.28-11.21-.19-.99.1-2.78-1.42-2.52ZM810.64,356.02c-4.38-3.11-8.6-6.3-13.64-8.35,1.66,7.57,10.2,10.05,11.02,17.48.65,5.9-.99,12.11,1.54,18.04l-7.57,20.47c7.23,1.19,18.53,5.22,24.7-.3,1.39-1.25,9.35-14.18,9.77-16.2,3.16-15.09-14.35-21.56-24.01-28.5-.86-.62-1.15-2.18-1.81-2.65ZM23,364.67c3.38-4.51,6.41-10.57,7.98-16-4.26,3.52-10,10.3-7.98,16ZM328.57,381.25c9.25-11.14,22.73-14.81,36.93-15.57,13.51-.72,19.25,3.18,33.94,1.14.91-.13,7.24,1.56,7.53-1.65.21-2.29-2.8-.56-3.4-.45-7.82,1.47-15.48-.29-22.95-1.18-17.34-2.07-40.45-8.66-56.86-1.6-8.01,3.45-7.64,7.16-11.77,12.27-.7.86-2.18,1.16-2.65,1.81-5.89,8.12-9.22,12.51-4.18,22.99,4.17,8.68,36.04,31.64,45.56,32.45,4.36.37,14.17-1.07,17.27-4.77-10.79-4.41-22.63-8.78-32.52-14.99-3.99-2.5-10.84-13.9-11.42-18.65-.63-5.15,1.5-8.16,4.52-11.8ZM419.99,371.68c-4.44-.4-8.11,2.18-12.16,3.35-1.63.47-4.34,1.49-4.61,1.55-15.25,3.75-17.08-1.61-28.76-1.97-4.95-.15-17.71,1.87-22.68,3.35s-16.33,8.37-15.63,13.94c.21,1.64,3.14,8.68,4.29,9.82,1.39,1.38,16.7,10.43,18.81,11.19,6.82,2.46,21.16,3.77,27.99,1.52.98-.32,1.69-.93,2.3-1.74,1.2-2.5-9-8.25-10.01-10.97-.23-.62.53-8.23.93-9.07.18-.38,5.42-5.24,6.17-5.83,9.05-7.15,20.85-8.07,30.55-12.25.38-.17,2.74-2.16,2.8-2.89ZM588.16,424.53c1.63-4.92,1.65-11,1.29-16.36-.06-.89-1.36-1.77-1.28-2.84.14-1.73,2.73-3.24,2.79-5.16.07-2.21-2.63-3.85-2.97-6.08-.59-3.8.29-12.41.01-16.85-.08-1.2-.38-5.39-1.99-5.57-.26,3.41.35,7.11-.03,10.48-4.8,43.04-8.07,83.45-19.69,125.31-7.82,28.17-15.65,56.73-23.8,85.2-3.89,13.6-10.34,29.48-12.45,43.55-.49,3.29.7,8.04-.21,10.82-.43,1.32-2.28,1.36-2.86,2.36-3.61,6.25-5.4,8.55-.82,14.62,15.4,20.41,17.32,28.87,27.65,51.35,8.64,18.8,20.11,36.66,24.21,57.3l2.99-1.5c-4.83-1.38-.34-6-.36-8-.04-5.27.8-7.1.89-10.99.06-2.71-2.2-6.47-2.09-9.03s2.3-8.41,2.53-11.12c.43-5.17.07-12.38.07-17.85,0-6.9-2.84-14.78,1-21.02l-2.05-.98c5.42-6.22,1.27-11.5.95-17.05-.18-3.16,1.21-8.58,1.13-11.96-.29-11.59-1.68-22.51,1-33.91-4.22-1.34-.33-2.66.02-6.09.31-3.03-.92-7.53-.84-10.76.05-2.01,1.44-4.34,1.52-7.01.06-1.89-1.44-3.84-1.39-4.22.11-.97,2.62-4.27,3.21-7.18,1.7-8.33,1.1-19.73,1.33-27.87.41-14.38-.93-27.91,1.13-41.86l-2.13-1.2c1.72-5.6,2.89-13.13,2.16-18.99-.35-2.8-1.07,1.03-.73-5.59,1.17-22.95.74-46.17.65-69.33,0-1.42.63-2.65,1.04-3.96l-1.88-.69ZM614.32,482.39c-.89-1.94-.96-15.98-1.57-19.98-3.02-19.7-11.58-37.6-13.49-58.86-.38-4.26,1.31-10.14-.27-14.89-1.35.18-1.75,1.36-1.95,2.54-1.15,6.77-.46,20.02-.67,27.79-1.2,45.68.1,91.51-1.35,137.22-1.2,37.68-4.21,75.04-5.07,112.99-.61,26.93-2.15,55.2-1.86,81.85.08,7.46,3.23,15.79-.1,23.6l5.29-6.24c3.06-5.28,11.7-25.41,14.65-28.09,1.87-1.7,4.11.95,3.07-5.66l1.92.97c3.15-4.74,4.67-10.92,7.02-15.51,1.09-2.13,4.16-4.42,4.62-5.45.51-1.13-2.99-2.45-.43-7.37,1.95-3.75,5.72-4.15,8.42-6.57,4.53-4.06,9.01-12.88,12.25-17.75,4.8-7.22,9.41-14.59,14.17-21.84-4.17-4.38-4.17-9.07-6.05-13.91-14.7-37.75-22.49-78.26-29.8-118.2-2.45-13.39-3.73-35.59-8.81-46.64ZM621.34,402.32c-1.32-1.29-1.79-3.62-4.32-4.22l-2,1.05,8.97,39.52c.6.63,5.67-2.93,6.56,1.93.29,1.6-1.27,2.51-1.38,3.72s1.71,2.66,1.88,4.79c.94,11.84-1.27,22.98,4.42,34.57,3.36,4,15.3-1.98,18.2-5.32,2.35-2.7,10.8-19.01,10.96-22.34.07-1.38-1.49-9.17-2.03-10.66-3.83-10.48-13.66-13.68-21.57-20.26-7.57-6.3-12.33-15.56-19.7-22.78ZM469.99,440.67c-4.13.77-10.45-1.11-13.03-4.47-.32-.42-4.36-8.43-4.71-9.29-1.36-3.45-.64-8.26-3.76-11.23-.51.22-5.73,6.72-6.28,7.72-3.14,5.66-6.57,20.64-5.76,26.8.09.67,5.34,11.73,5.79,12.23.93,1.02,7.43,3.15,8.78,2.68,4.77-1.68,9.92-12.66,14.97-15.22l3.99-9.21ZM553.99,423.67c-1.27-1.39-8.42,7.02-9.61,7.83-2.95,2-7.42,2.89-10.02,4.53-1.32.84-16.41,13.99-17.06,14.92-.96,1.38-.59,3.74-1.36,4.94-2.21,3.46-7.83,8.6-8.65,12.54-.59,2.84-1.03,7.22,1.17,9.32.41.39,9.87,3.53,10.85,3.56,2.12.06,11.83-1.29,13.98-1.87,7.03-1.92,8.38-12.57,10.53-18.47.86-2.35,3.53-5.37,3.95-7.05.51-2.04.93-14.21,1.5-15.07l4.77-4.85-.04-10.34ZM419.6,440.28c1.7-2.67,5.24-6.47,2.9-8.61-2.6,4.86-9.9,7.57-13.19,11.31-14.47,16.44-30.84,63.72-29.74,86.13,1.86,37.96,29.62,81.91,68.39,90.09,8.89,1.88,37.49,2.46,45.74-.33,20.67-6.97,34.63-25.65,37.76-46.22l6.52-14.98c-1.33-1.45-8.83,8.4-9.96,9.53-3.88,3.91-8.98,9.33-12.68,12.28-17.02,13.56-38.98,13.9-59.37,9.69-26.71-5.52-49.89-25.31-56.56-51.44-1.57-6.15-4.22-23.8-3.47-29.61.41-3.18,2.65-4.35,3.08-7.96.63-5.36-1.91-4.39-2.06-5.15-.36-1.8,3.68-11.37,4.62-14.06,4.34-12.38,11.05-29.72,18.02-40.67ZM769.98,439.66c-4.27-.3-5,4.36-7.35,6.65-6.45,6.29-19.67,9.25-26.63,2.36,2.47,5.24,2.31,11.15,5.24,16.25,1.25,2.18,3.56,4.52,5.17,6.83,2.51,3.62,1.28,6.62,6.72,6.35,4.32-.22,12.28-2.23,14.32-6.48,3.26-6.79,5.35-16.85,4.59-24.47-.27-2.75-2.09-4.73-2.05-7.48ZM791.32,452.44c-.23-.61-2.13-13.56-4.32-11.77-1.7,3.78.78,6.85,1.02,10.56.32,5.11-1.02,12.25-.82,16.93.93,21.57,3.56,38.64-.68,60.54-6.73,34.81-18.9,47.61-48.67,65.33-13.31,7.92-33.06,8.26-46.73,1-6.64-3.53-21.68-14.13-26.65-19.35-6.05-6.34-15.64-18.65-19.68-26.32-1.46-2.77-.85-7.24-4.79-8.7,3.33,7.25,4.68,15.68,7.51,22.98,9.66,24.9,21.82,43.85,42.06,60.97,3.45,2.92,14.85,9.75,18.91,11.13,6.35,2.16,37.14-3.03,44.49-5.6,5.55-1.94,36.69-19.27,41-23,1.84-1.6,5.28-7.74,6.99-10.05.7-.95,2.79-1.09,3.05-2.14.6-2.45-.36-6.05.4-9.37,1.22-5.29,5.76-12.12,6.45-17.55,4.89-38.78-6.21-79.74-19.55-115.6ZM819.57,458.09l-17.57-15.41c-.37,3.36,1.85,6.05,2.69,8.8,10.9,35.48,22.02,76.49,14.84,114.23-3.12,16.36-9.23,37.45-22.63,48.37-5.43,4.42-13.52,6.98-19.6,10.4-10.01,5.63-19.48,13.05-31.26,15.74-7.95,1.82-34.17,5.4-41.29,3.19-12.59-3.91-19.88-11.99-28.87-20.14-2.76-2.5-7.25-4.57-9.43-6.57-2.5-2.31-13.64-18.6-15.67-22.33l-5.8-10.69c-.08,1.76-.1,3.51.23,5.26,1.19,6.37,13.29,41.97,16.83,45.19,1.14,1.04,3.32,1.07,4.02,2.2,1.48,2.37.3,7.29,3.42,9.34.8-4.18,11.74-.91,13.02,2.04,1.55,3.56-4.3,6.05,1.46,9.46l-2.82,3.84c.02.41,4.21,6.48,4.53,6.73,6.47,5.15,29.73,12.46,37.79,10.91,2.79-.53,5.56-5.49,9.06-3.09,3.71,2.55.86,5.64,9.91,4.04,2.16-.38,8.26-1.97,10.56-2.59,19.27-5.18,43.39-16.09,56.91-29.96,10.97-11.25,35.02-47.46,37.07-62.89.94-7.05,1.38-12.97,3.22-19.78,2.64-9.73,4.87-20.71,3.79-31.23-.47-4.54-2.8-4.09-3.07-5.94-.84-5.88,2.03-5.73,2.11-6.21.95-5.76-2.12-10.5-3.57-14.81-2.01-5.99-.88-10.33-8.47-13.05l5-6.97c-3.6-2.79-6.44-6.44-9.75-9.52-5.76-5.35-10.5-12.55-16.67-18.58ZM445.41,485.09c3.26-2.32,13.69-9.03,5.09-10.43-9.64-1.57-14.93-5.68-19.91-14.09-1.33-2.24-1.36-6.56-4.59-7.89-1.78,5.62-4,10.33-3.51,16.53.26,3.28,8.71,18.26,11.4,19.03,6.75,1.93,7.27-.12,11.51-3.14ZM692.42,457.25c-1.85-2.56-1.36-4.48-6.43-4.08.77,7.42,6.37,13.19,8.8,19.2,5.72,14.15,3.1,38.76-3.08,52.5-2.47,5.49-12.95,19.78-18.67,21.37-.63.18-10.21-.54-11.34-.79-3.44-.75-4.36-4.53-7.7-4.79-.45.48,1.55,5.38,2.14,6.35,4.94,8.04,12.44,14.22,21.17,17.83,4.21,1.74,7.4,3.1,11.61.21.44-.3,7.19-7.03,7.49-7.47,1.25-1.86,1.09-4.43,2.54-6.46,1.11-1.56,3.29-1.91,4.02-3.23,13.88-25.12,6.11-46-2.66-70.05-2.49-6.82-3.76-14.86-7.9-20.59ZM742.29,483.37l-10.29-16.7c-2.15,6.15.87,14.04,3.96,19.53,1.93,3.43,13.16,13.55,16.5,14,1.61.22,10.6-1.54,12.09-2.48,1.26-.79,7.94-10.98,8.42-12.58.68-2.26-1.91-1.57-3.3-1.25-2.73.61-2.44,2.4-3.43,2.72-6.8,2.21-18.74,2.41-23.95-3.24ZM668.57,503.26c3.08-6.06,4.96-14.32,5.46-21.14.04-.5-.32-9.32-.44-9.95-1.4-7.38-4.66,3.45-6.15,5.44-7.93,8.43-13.92,19.71-27.44,18.07-2.34,2.19,9.26,15.07,11.7,15.79,1.94.57,9.54.56,11.3-.29.62-.3,5.02-6.83,5.57-7.91ZM486.98,474.67c-2.33-.61-1.67.56-2.29,1.27-4.29,4.98-9.51,12.66-4.71,18.72l-3.01-.48c1.18,8.03,1.37,14.77,6.58,21.42,7.14,9.13,24.52,12.94,35.38,9.52s20.39-20.44,24.88-30.12c.67-1.45,1.54-2.53,1.17-4.32-2.19-2.16-6.8,6.61-8.48,8.01-11.85,9.91-24.63,16.18-40.3,11.22-6.01-1.9-8.72-8.5-9.25-14.71-.58-6.79.87-13.77.03-20.54ZM713.37,476.23l-1.13.68c1.91,5.05,4.98,10.44,6.47,15.54,7.34,25.06,3,50.37-11.71,71.72-1.81,2.62-18.51,13.99-3.75,11.25,5.83-1.08,6.51-4.28,10.1-7.41,7.06-6.15,12.92-11.83,17.18-20.32,6-11.96,1.22-38.11-3.39-50.64-.7-1.91-4.34-5.82-5.11-7.18-2.74-4.79-4.16-10.18-8.65-13.65ZM688.99,476.67h-5.99c3.8,9.22-5.16,35.72-13.08,40.42-4.56,2.7-14.21,3.34-19.37,2.52-2.97-.47-3.85-2.75-6.55-2.94-4.05,4.4,18.82,14.85,21.48,17.55,6.11.71,12.51-8.78,15.07-13.5,1.24-2.29,7.14-14.94,7.42-16.62,1.01-5.92-2.66-16.93-.83-23.69.37-1.36,2.34-1.91,1.83-3.75ZM415.97,480.67c-2.53-1.81-7.03,11.2-7.48,12.99-4.96,19.53.02,53.37,15.49,67.51,9.95,9.1,24.25,19.3,38.01,19.48-.84-3.15-5.14-2.26-6.73-3.26-1.95-1.23-10.05-13.85-10.95-16.55-2.72-8.11-4.01-25.97-3.3-34.67.59-7.17,3-15.29,3.97-22.94.23-1.84,2.61-3.26,2.01-5.57-4.11-.34-7.31,2.46-11.5,2.07-8.32-.75-15.71-12.49-19.51-19.07ZM500.73,483.94c-.26-.29-2.64-1.39-2.73-1.28l-1.1,13.48c4.98,8.02,18.33,3.62,25.04-.52l-.52-2.01c-4.48.39-7.72-3.44-10.47-4.42-2.6-.92-6.26-.12-8.31-1.44-1.25-.81-.97-2.77-1.91-3.82ZM372.99,490.67c-1.85-.36-2.49.86-3.21,2.28-8.26,16.32-18.69,51.12-20.66,69.34-2.39,22.05-3.94,53.01,6.86,72.91,2.36,4.35,15.88,22.22,19.49,24.51,9.5,6.02,38.22,18.23,49,19.47,7.08.81,15.66-1.15,22.86-1.13,3.54.01,9.03,1.9,12.08,1.61,4.3-.41,15.3-5.1,20.55-6.54,2.86-.79,5.74.05,8.47-1.58,1.73-1.03,5.52-6.18,7.03-7.93,3.77-4.37,15.9-18.65,17.08-23.94.5-2.23-1.17-3.71.56-6.39,1.85-2.87,4.65-1.49,5.4-2.54.44-.63.14-4.83,1.43-6.43.86-1.07,2.89-.56,3.6-1.6.82-1.18,2.46-9.91,2.47-12.05-2.1.52-1.82,4.39-3.29,5.71-2.22,1.99-26.43,14.13-29.69,14.8-6.07,1.25-12.54.36-18.48.44-24.25.34-40.86.56-59.6-16.42-12.39-11.22-21.72-17.65-29.98-33.79-10.1-19.74-17.23-45.96-15.72-68.98.21-3.13,4.48-20.93,3.75-21.76ZM330.37,519.05c7.57-7.4,17.25-13.81,20.62-24.38l-46.58,14.96c-.16,4.34.32,10.34-.46,14.49-.39,2.05-2.25,3.8-2.73,6.28-1.05,5.4-.11,12.27-2.22,17.76l2,1.03c2-1.12,2.99-3.97,4.3-5.21,4.92-4.69,7.6-8.74,12.16-13.31,3.69-3.71,8.76-7.55,12.92-11.61ZM773.58,543.28c3.5-9.41,6.69-24.41,7.08-34.13.14-3.49-.63-6.99-.68-10.48-1.59.5-1.93,2.64-3.44,4.05-7.14,6.69-12.9,8.41-23.06,8.02-4.53-.18-7.24-2.72-11.48-3.06,1.11,10.19,4,18.87,2.87,29.37-1.62,15.03-17.83,35.15-29.32,44.68-1.86,1.54-3.92,1.79-5.3,3.87l-19.24-1.43c3.66,3.38,9.83,5.77,14.74,6.28,1.7.18,3.25-.83,4.77-.72,10.46.74,14.19,2.24,23.74-4.03,17.01-11.17,32.18-23.18,39.33-42.41ZM908.98,535.67c.41-2.55-1.74-5.47-1.74-7.71,0-1.35,1.58-2.21,1.34-3.35-.41-1.9-3.66-4.08-4.8-6.22-1.6-3.01-3.2-12.22-4.29-13.71-2.82-3.83-18.64-3.31-23.48-5.01-1.55,2.2,7.74,9.06,8.48,12.01l24.5,23.99ZM865.34,507.32c-1.03-1.03-2.2-4.91-4.34-3.16,4.06,4.46,1.06,12.52,6.05,15.05l-2.04,3.97.95,1.02c6.76,1.4,12.83,5.14,20.03,4.46-.17-4.29-5.64-5.53-7.91-7.63-4.13-3.83-8.3-9.3-12.74-13.72ZM458.99,506.67c-3.04-.55-1.53.92-2.08,2.36-4.11,10.63-7.92,33.06-3.41,43.63,3.06,7.19,8.44,7.22,13.86,10.14s7.7,5.87,15.2,6.8c11.21,1.4,29.11-3.07,37.18-11.21.8-.81,2.87-5.25,3.26-6.73-1.06-.96-17.88,3.18-20.95,3.54-9.88,1.18-20.69-2.44-28.55-8.55-2.21-1.72-9.63-9.13-10.57-11.43-3.25-7.94-3.74-19.98-3.93-28.57ZM470.97,511.68l-1.99.5c.49,9.69.77,18.07,8.82,24.42,5.08,4,13.94,8.5,20.58,8.03,3.26-.23,6.35-2.79,9.39-3.68,4.02-1.18,9.13-.5,12.22-3.78-11.93.73-26.87-.85-36.47-8.52-1.81-1.45-9.11-7.87-10.27-9.27-1.01-1.22-.61-5.84-2.28-7.7ZM351.99,515.67l-29.02,26.47-2.97,5.52c5.81.82,19.28-.72,23.48-5.01,2.09-2.14.67-4.94,1.44-7.47,1.91-6.25,5.34-13.01,7.07-19.51ZM526.4,686.28c-.7-1.24-.47-2.76-1.38-4.13-1.04-1.57-8.32-11.76-10.02-10.48l-9.01,21.98c.33.43,9.41,3.05,10.4,3,.26-.01,1.44-2.75,4.15-2.9.56-.03,6.08,7.23,8.91.89,2.08-4.66-1.29-5.22-3.06-8.36ZM676.99,693.66c-.23-2.97-3.06-3.05-4.57-5.92-2.71-5.15-1.78-11.85-8.93-14.96l-12.51,20.37c2.74,1.07,8.07-2.72,10.44-2.53,1.83.15,3.26,2.36,5.28,2.83,3.16.74,7.02-.08,10.29.2ZM720.99,686.68c-4.87-.36-9.76-1.06-14.56-1.94-2.89-.52-4.11-2.79-7.43-1.06,3.81,3.92,9.16,8.51,15.03,6.52l6.96-3.53Z"/>
  </g>
</svg>