%FSTAX24Y24*%
%MOIN*%
%IN 6oror.topsilkscreen.ger *%
%ADD10C,0.0050*%
%ADD11C,0.0071*%
%ADD12C,0.0100*%
%ADD13C,0.0200*%
%ADD14C,0.0300*%
D10*X019327Y019916D02*G01X019177Y020066D01*X019727Y020916D02*
X019577Y021066D01*X020977Y020916D02*X020827Y021066D01*
X021327Y019916D02*X021177Y020066D01*X021727Y020666D02*
X021577Y020816D01*X019727Y020566D02*X019627Y020666D01*
X020977Y020416D02*X020877Y020516D01*X019427Y020616D02*
X019377Y020666D01*X019427Y020016D02*X019377Y020066D01*
X019527Y020916D02*X019477Y020966D01*X019527Y020516D02*
X019477Y020566D01*X019577Y020816D02*X019527Y020866D01*
X019977Y020316D02*X019927Y020366D01*X020277Y020416D02*
X020227Y020466D01*X020477Y019916D02*X020427Y019966D01*
X020677Y020616D02*X020627Y020666D01*X020777Y020866D02*
X020727Y020916D01*X020777Y020416D02*X020727Y020466D01*
X020827Y019916D02*X020777Y019966D01*X021427Y020016D02*
X021377Y020066D01*X021527Y020666D02*X021477Y020716D01*
X021977Y019916D02*X021927Y019966D01*X022127Y021016D02*
X022077Y021066D01*X022377Y019916D02*X022327Y019966D01*
X022527Y021016D02*X022477Y021066D01*X019327D02*X019177Y020916D01*
X019427Y020966D02*X019377Y020916D01*X019427Y020566D02*
X019377Y020516D01*X019477Y020666D02*X019427Y020616D01*
X019527Y020066D02*X019477Y020016D01*X019727Y020866D02*
X019677Y020816D01*X019727Y020066D02*X019577Y019916D01*
X019977Y020466D02*X019927Y020416D01*X020277Y020366D02*
X020227Y020316D01*X020477Y021066D02*X020427Y021016D01*
X020627Y019966D02*X020577Y019916D01*X020677Y020916D02*
X020627Y020866D01*X020677Y020466D02*X020627Y020416D01*
X020777Y020666D02*X020727Y020616D01*X020977D02*X020877Y020516D01*
X020977Y019966D02*X020927Y019916D01*X021327Y020816D02*
X021177Y020666D01*X021427Y020716D02*X021377Y020666D01*
X021527Y020066D02*X021477Y020016D01*X021727Y020066D02*
X021577Y019916D01*X021977Y021066D02*X021927Y021016D01*
X022127Y019966D02*X022077Y019916D01*X022377Y021066D02*
X022327Y021016D01*X022527Y019966D02*X022477Y019916D01*
X022527Y021066D02*Y019916D01*X022477Y021066D02*Y019916D01*
X022427Y021066D02*Y019916D01*X022377Y021066D02*Y019916D01*
X022327Y021066D02*Y019916D01*X022127Y021066D02*Y019916D01*
X022077Y021066D02*Y019916D01*X022027Y021066D02*Y019916D01*
X021977Y021066D02*Y019916D01*X021927Y021066D02*Y019916D01*
X020827Y021066D02*Y019916D01*X020777Y021066D02*Y019916D01*
X020627Y021066D02*Y019916D01*X020577Y021066D02*Y019916D01*
X020527Y021066D02*Y019916D01*X020477Y021066D02*Y019916D01*
X020427Y021066D02*Y019916D01*X019377Y021066D02*Y019916D01*
X019327Y021066D02*Y019916D01*X020877Y021016D02*Y019916D01*
X019277Y021016D02*Y019966D01*X019227Y020966D02*Y020016D01*
X021577Y020816D02*Y019916D01*X021527Y020816D02*Y019916D01*
X021377Y020816D02*Y019916D01*X021327Y020816D02*Y019916D01*
X019177Y020916D02*Y020066D01*X021627Y020766D02*Y019966D01*
X021277Y020766D02*Y019966D01*X021227Y020716D02*Y019966D01*
X019577Y020666D02*Y019916D01*X019527Y020666D02*Y019916D01*
X021677Y020716D02*Y020016D01*X019627Y020666D02*Y019966D01*
X021727Y020666D02*Y020066D01*X021177Y020666D02*Y020066D01*
X019677Y020616D02*Y020016D01*X020927Y020466D02*Y019916D01*
X020427Y020616D02*X020977D01*X020427Y020916D02*X020977D01*
X019177Y020566D02*X019727D01*X020977Y020416D02*Y019916D01*
X020427Y020466D02*X020927D01*X020427Y020566D02*X020927D01*
X020427Y020966D02*X020927D01*X020427Y021016D02*X020927D01*
X019727Y020566D02*Y020066D01*X019177Y020616D02*X019677D01*
X021227Y020016D02*X021677D01*X021227Y020716D02*X021677D01*
X020927Y021016D02*Y020566D01*X020427Y020516D02*X020877D01*
X019227Y020016D02*X019677D01*X019227Y020966D02*X019677D01*
X021227Y019966D02*X021627D01*X020427Y021066D02*X020827D01*
X019277Y021016D02*X019677D01*X021277Y020766D02*X021627D01*
X019927Y020316D02*X020277D01*X019927Y020366D02*X020277D01*
X019927Y020416D02*X020277D01*X019927Y020466D02*X020277D01*
X019277Y019966D02*X019627D01*X020977Y020916D02*Y020616D01*
X021327Y019916D02*X021577D01*X021327Y020816D02*X021577D01*
X019577Y021066D02*Y020816D01*X019527Y021066D02*Y020816D01*
X019327Y019916D02*X019577D01*X019327Y021066D02*X019577D01*
X019677Y021016D02*Y020816D01*X019627Y021016D02*Y020816D01*X019527D02*
X019727D01*X019527Y020866D02*X019727D01*X019527Y020916D02*X019727D01*
X019477Y020666D02*X019627D01*X018809Y022474D02*X018659Y022624D01*
X019159Y021474D02*X019009Y021624D01*X019559Y022224D02*
X019409Y022374D01*X018809Y021974D02*X018709Y022074D01*
X021759Y021474D02*X021659Y021574D01*X022159Y022224D02*
X022059Y022324D01*X018309Y021474D02*X018259Y021524D01*
X018509Y022174D02*X018459Y022224D01*X018609Y022424D02*
X018559Y022474D01*X018609Y021974D02*X018559Y022024D01*
X018659Y021474D02*X018609Y021524D01*X019259Y021574D02*
X019209Y021624D01*X019359Y022224D02*X019309Y022274D01*
X019809Y021474D02*X019759Y021524D01*X019959Y022574D02*
X019909Y022624D01*X020209Y021474D02*X020159Y021524D01*
X020359Y022574D02*X020309Y022624D01*X020559Y021474D02*
X020509Y021524D01*X020609Y022274D02*X020559Y022324D01*
X020759Y022224D02*X020709Y022274D01*X020759Y021574D02*
X020709Y021624D01*X020959Y022324D02*X020909Y022374D01*
X020959Y021524D02*X020909Y021574D01*X021159Y021874D02*
X021109Y021924D01*X021459Y021974D02*X021409Y022024D01*
X021659Y022124D02*X021609Y022174D01*X021659Y021624D02*
X021609Y021674D01*X021809Y021874D02*X021759Y021924D01*
X021859Y022274D02*X021809Y022324D01*X021859Y021574D02*
X021809Y021624D01*X021959Y022174D02*X021909Y022224D01*
X022159Y022574D02*X022109Y022624D01*X022409Y021974D02*
X022359Y022024D01*X022409Y021474D02*X022359Y021524D01*
X022509Y022124D02*X022459Y022174D01*X022509Y021624D02*
X022459Y021674D01*X018309Y022624D02*X018259Y022574D01*
X018459Y021524D02*X018409Y021474D01*X018509Y022474D02*
X018459Y022424D01*X018509Y022024D02*X018459Y021974D01*
X018609Y022224D02*X018559Y022174D01*X018809D02*X018709Y022074D01*
X018809Y021524D02*X018759Y021474D01*X019159Y022374D02*
X019009Y022224D01*X019259Y022274D02*X019209Y022224D01*
X019359Y021624D02*X019309Y021574D01*X019559Y021624D02*
X019409Y021474D01*X019809Y022624D02*X019759Y022574D01*
X019959Y021524D02*X019909Y021474D01*X020209Y022624D02*
X020159Y022574D01*X020359Y021524D02*X020309Y021474D01*
X020559Y021674D02*X020509Y021624D01*X020609Y022374D02*
X020559Y022324D01*X020609Y021824D02*X020559Y021774D01*
X020659Y021974D02*X020609Y021924D01*X020709Y022074D02*
X020659Y022024D01*X020759Y022224D02*X020709Y022174D01*
X020759Y021674D02*X020709Y021624D01*X020809Y021774D02*
X020759Y021724D01*X020859Y021924D02*X020809Y021874D01*
X020909Y022074D02*X020859Y022024D01*X020959Y022174D02*
X020909Y022124D01*X020959Y021524D02*X020909Y021474D01*
X021159Y022024D02*X021109Y021974D01*X021459Y021924D02*
X021409Y021874D01*X021659Y022624D02*X021609Y022574D01*
X021659Y021924D02*X021609Y021874D01*X021859Y022524D02*
X021809Y022474D01*X021859Y022224D02*X021759Y022124D01*
X021909Y022324D02*X021859Y022274D01*X021959Y021624D02*
X021909Y021574D01*X022159Y022574D02*X022109Y022524D01*
X022159Y021624D02*X022009Y021474D01*X022409Y022174D02*
X022359Y022124D01*X022409Y021674D02*X022359Y021624D01*
X022509Y022024D02*X022459Y021974D01*X022509Y021524D02*
X022459Y021474D01*X020359Y022624D02*Y021474D01*X020309Y022624D02*
Y021474D01*X020259Y022624D02*Y021474D01*X020209Y022624D02*Y021474D01*
X020159Y022624D02*Y021474D01*X019959Y022624D02*Y021474D01*
X019909Y022624D02*Y021474D01*X019859Y022624D02*Y021474D01*
X019809Y022624D02*Y021474D01*X019759Y022624D02*Y021474D01*
X018659Y022624D02*Y021474D01*X018609Y022624D02*Y021474D01*
X018459Y022624D02*Y021474D01*X018409Y022624D02*Y021474D01*
X018359Y022624D02*Y021474D01*X018309Y022624D02*Y021474D01*
X018259Y022624D02*Y021474D01*X018709Y022574D02*Y021474D01*
X019409Y022374D02*Y021474D01*X019359Y022374D02*Y021474D01*
X019209Y022374D02*Y021474D01*X019159Y022374D02*Y021474D01*
X022009Y022324D02*Y021474D01*X021959Y022324D02*Y021474D01*
X022059Y022324D02*Y021524D01*X019459Y022324D02*Y021524D01*
X019109Y022324D02*Y021524D01*X019059Y022274D02*Y021524D01*
X022109Y022274D02*Y021574D01*X020759Y022374D02*Y021674D01*
X020709Y022174D02*Y021474D01*X019509Y022274D02*Y021574D01*
X022159Y022224D02*Y021624D01*X020809Y022374D02*Y021774D01*
X019559Y022224D02*Y021624D01*X019009Y022224D02*Y021624D01*
X021609Y022224D02*X022159D01*X021609Y022524D02*X022159D01*
X021609Y022574D02*X022159D01*X021609Y022624D02*X022159D01*
X020659Y022024D02*Y021474D01*X018759Y022024D02*Y021474D01*
X018259Y022174D02*X018809D01*X018259Y022474D02*X018809D01*
X021809Y022624D02*Y022124D01*X021759Y022624D02*Y022124D01*
X021709Y022624D02*Y022124D01*X021659Y022624D02*Y022124D01*
X021609Y022274D02*X022109D01*X021609Y022624D02*Y022124D01*
X018809Y021974D02*Y021474D01*X018259Y022024D02*X018759D01*
X018259Y022124D02*X018759D01*X018259Y022524D02*X018759D01*
X018259Y022574D02*X018759D01*X021809Y021924D02*Y021474D01*
X021759Y021924D02*Y021474D01*X021659Y021574D02*X022109D01*
X020859Y022374D02*Y021924D01*X020609D02*Y021474D01*X020509D02*
X020959D01*X020509Y021524D02*X020959D01*X020509Y021574D02*X020959D01*
X019059D02*X019509D01*X019059Y022274D02*X019509D01*X018759Y022574D02*
Y022124D01*X018259Y022074D02*X018709D01*X021709Y021924D02*Y021524D01*
X020559Y022274D02*X020959D01*X020559Y022324D02*X020959D01*
X020559Y022374D02*X020959D01*X019059Y021524D02*X019459D01*
X018259Y022624D02*X018659D01*X021709Y021524D02*X022059D01*
X021659Y021924D02*Y021574D01*X021109Y021874D02*X021459D01*
X021109Y021924D02*X021459D01*X021109Y021974D02*X021459D01*
X021109Y022024D02*X021459D01*X019109Y022324D02*X019459D01*
X020909Y022374D02*Y022074D01*X020559Y021774D02*Y021474D01*
X018809Y022474D02*Y022174D01*X021759Y021474D02*X022009D01*
X021609Y021924D02*Y021674D01*X020709Y022174D02*X020959D01*
X019159Y021474D02*X019409D01*X019159Y022374D02*X019409D01*
X022509Y021674D02*Y021474D01*Y022174D02*Y021974D01*X022459Y021674D02*
Y021474D01*Y022174D02*Y021974D01*X022409Y021674D02*Y021474D01*
Y022174D02*Y021974D01*X022359Y021674D02*Y021474D01*Y022174D02*
Y021974D01*X020959Y022374D02*Y022174D01*X020509Y021624D02*X020709D01*
X021909Y022324D02*X022059D01*D12*X005523Y010477D02*X005061Y010199D01*
X004808Y009741D01*X004816Y009203D01*X005094Y008742D01*
X005552Y008488D01*X00609Y008497D01*X006552Y008775D01*X006819Y008966D01*
X006389Y010465D01*X006061Y010486D01*X005523Y010477D01*
X005366Y009101D02*X005228Y009581D01*X009123Y005885D02*
X009133Y005347D01*X009403Y004898D01*X009874Y004637D01*
X010412Y004647D01*X010861Y004916D01*X011122Y005387D01*
X011112Y005925D01*X01108Y006253D01*X009567Y00663D01*X009385Y006356D01*
X009123Y005885D01*X010237Y005061D02*X009752Y005182D01*
X009123Y005885D02*X009133Y005347D01*X009403Y004898D01*
X009874Y004637D01*X010412Y004647D01*X010861Y004916D01*
X011122Y005387D01*X011112Y005925D01*X01108Y006253D01*X009567Y00663D01*
X009385Y006356D01*X009123Y005885D01*X010237Y005061D02*
X009752Y005182D01*X015017Y006564D02*X015489Y006303D01*
X016012Y006312D01*X016474Y006589D01*X016734Y007061D01*
X016725Y007584D01*X016448Y008046D01*X015977Y008306D01*
X015678Y008442D01*X014594Y00732D01*X014741Y007026D01*X015017Y006564D01*
X016288Y007116D02*X015941Y006757D01*X015017Y006564D02*
X015489Y006303D01*X016012Y006312D01*X016474Y006589D01*
X016734Y007061D01*X016725Y007584D01*X016448Y008046D01*
X015977Y008306D01*X015678Y008442D01*X014594Y00732D01*X014741Y007026D01*
X015017Y006564D01*X016288Y007116D02*X015941Y006757D01*
X017621Y011744D02*X018082Y012022D01*X018336Y01248D01*X018327Y013019D01*
X018049Y01348D01*X017591Y013733D01*X017053Y013725D01*X016592Y013447D01*
X016324Y013256D01*X016754Y011756D01*X017082Y011736D01*
X017621Y011744D01*X017777Y013121D02*X017915Y01264D01*X017621Y011744D02*
X018082Y012022D01*X018336Y01248D01*X018327Y013019D01*X018049Y01348D01*
X017591Y013733D01*X017053Y013725D01*X016592Y013447D01*
X016324Y013256D01*X016754Y011756D01*X017082Y011736D01*
X017621Y011744D01*X017777Y013121D02*X017915Y01264D01*X014057Y016396D02*
X014047Y016934D01*X013778Y017383D01*X013307Y017645D01*
X012769Y017634D01*X01232Y017365D01*X012059Y016894D01*X012069Y016356D01*
X0121Y016028D01*X013614Y015651D01*X013796Y015925D01*X014057Y016396D01*
X012944Y01722D02*X013429Y017099D01*X014057Y016396D02*X014047Y016934D01*
X013778Y017383D01*X013307Y017645D01*X012769Y017634D01*X01232Y017365D01*
X012059Y016894D01*X012069Y016356D01*X0121Y016028D01*X013614Y015651D01*
X013796Y015925D01*X014057Y016396D01*X012944Y01722D02*X013429Y017099D01*
X008561Y015622D02*X00809Y015883D01*X007567Y015874D01*X007105Y015597D01*
X006844Y015126D01*X006853Y014602D01*X00713Y014141D01*X007601Y01388D01*
X007901Y013744D01*X008985Y014866D01*X008838Y01516D01*X008561Y015622D01*
X007291Y01507D02*X007638Y015429D01*X008561Y015622D02*X00809Y015883D01*
X007567Y015874D01*X007105Y015597D01*X006844Y015126D01*
X006853Y014602D01*X00713Y014141D01*X007601Y01388D01*X007901Y013744D01*
X008985Y014866D01*X008838Y01516D01*X008561Y015622D01*X007291Y01507D02*
X007638Y015429D01*X005523Y010477D02*X005061Y010199D01*
X004808Y009741D01*X004816Y009203D01*X005094Y008742D01*
X005552Y008488D01*X00609Y008497D01*X006552Y008775D01*X006819Y008966D01*
X006389Y010465D01*X006061Y010486D01*X005523Y010477D01*
X005366Y009101D02*X005228Y009581D01*X004575Y006617D02*
X004016Y007446D01*X002358Y006327D01*X002917Y005498D01*
X004575Y006617D01*X003988Y007994D02*X003518Y008877D01*
X001753Y007938D01*X002222Y007055D01*X003988Y007994D01*
X010506Y003315D02*X009507Y00335D01*X009437Y001351D01*X010436Y001316D01*
X010506Y003315D01*X009507Y00335D01*X009437Y001351D01*X010436Y001316D01*
X010506Y003315D01*X017935Y006476D02*X017405Y005628D01*
X019101Y004568D01*X019631Y005416D01*X017935Y006476D01*
X017405Y005628D01*X019101Y004568D01*X019631Y005416D01*
X017935Y006476D01*X019155Y014227D02*X019625Y013344D01*
X021391Y014283D01*X020921Y015166D01*X019155Y014227D01*
X019625Y013344D01*X021391Y014283D01*X020921Y015166D01*
X019155Y014227D01*X012675Y018966D02*X013674Y018931D01*X013744Y02093D01*
X012744Y020965D01*X012675Y018966D01*X013674Y018931D01*X013744Y02093D01*
X012744Y020965D01*X012675Y018966D01*X005588Y016072D02*X006203Y01686D01*
X004627Y018092D01*X004012Y017304D01*X005588Y016072D01*X006203Y01686D01*
X004627Y018092D01*X004012Y017304D01*X005588Y016072D01*
X003988Y007994D02*X003518Y008877D01*X001753Y007938D01*
X002222Y007055D01*X003988Y007994D01*X011993Y003135D02*
X010995Y003065D01*X011135Y00107D01*X012132Y00114D01*X011993Y003135D01*
X010995Y003065D01*X011135Y00107D01*X012132Y00114D01*X011993Y003135D01*
X018834Y007674D02*X018396Y006775D01*X020193Y005898D01*
X020632Y006797D01*X018834Y007674D01*X018396Y006775D01*
X020193Y005898D01*X020632Y006797D01*X018834Y007674D01*
X018568Y015605D02*X019127Y014776D01*X020785Y015894D01*
X020226Y016723D01*X018568Y015605D01*X019127Y014776D01*
X020785Y015894D01*X020226Y016723D01*X018568Y015605D01*
X011188Y019146D02*X012185Y019216D01*X012046Y021211D01*
X011048Y021142D01*X011188Y019146D01*X012185Y019216D01*
X012046Y021211D01*X011048Y021142D01*X011188Y019146D01*
X004918Y014851D02*X005491Y015671D01*X003853Y016818D01*
X003279Y015999D01*X004918Y014851D01*X005491Y015671D01*
X003853Y016818D01*X003279Y015999D01*X004918Y014851D01*
X004575Y006617D02*X004016Y007446D01*X002358Y006327D01*
X002917Y005498D01*X004575Y006617D01*X009105Y007331D02*
X009837Y008013D01*X009966Y00816D01*X010065Y00833D01*X010128Y008515D01*
X010154Y008709D01*X010142Y008905D01*X010091Y009094D01*X010005Y00927D01*
X009886Y009426D01*X009739Y009556D01*X009569Y009654D01*
X009384Y009718D01*X009189Y009744D01*X008994Y009731D01*
X008804Y009681D01*X008628Y009595D01*X008473Y009476D01*X00701Y008112D01*
X00688Y007964D01*X006782Y007795D01*X006718Y007609D01*X006692Y007415D01*
X006705Y007219D01*X006755Y00703D01*X006842Y006854D01*X006961Y006698D01*
X007108Y006569D01*X007277Y00647D01*X007463Y006407D01*X007657Y006381D01*
X007853Y006393D01*X008042Y006444D01*X008218Y00653D01*X008374Y006649D01*
X009105Y007331D01*X009861Y00872D02*X009944Y00882D01*X009998Y008939D01*
X01002Y009068D01*X010007Y009198D01*X009962Y00932D01*X009886Y009426D01*
X009785Y009509D01*X009666Y009563D01*X009538Y009585D01*
X009408Y009572D01*X009286Y009527D01*X009179Y009451D01*X009096Y00935D01*
X009042Y009231D01*X009021Y009103D01*X009033Y008973D01*X009079Y00885D01*
X009155Y008744D01*X009255Y008661D01*X009374Y008607D01*
X009503Y008586D01*X009633Y008598D01*X009755Y008644D01*X009861Y00872D01*
X007692Y00738D02*X008058Y007721D01*X00807Y008075D01*X008423Y008062D01*
X008131Y007106D02*X008277Y007584D01*X008111Y007896D01*
X008423Y008062D01*X008648Y007088D02*X008536Y007575D01*
X008236Y007762D01*X008423Y008062D01*X009105Y007331D02*
X008764Y007697D01*X008411Y007709D01*X008423Y008062D01*
X007741Y008794D02*X008082Y008428D01*X008436Y008416D01*
X008423Y008062D01*X007467Y008355D02*X007945Y008208D01*
X008257Y008374D01*X008423Y008062D01*X007449Y007837D02*X007936Y00795D01*
X008123Y00825D01*X008423Y008062D01*X009155Y008744D02*X008789Y008403D01*
X008777Y00805D01*X008423Y008062D01*X008716Y009019D02*X008569Y00854D01*
X008735Y008228D01*X008423Y008062D01*X008198Y009037D02*
X008311Y008549D01*X008611Y008362D01*X008423Y008062D01*X00938Y00777D02*
X008901Y007916D01*X008589Y00775D01*X008423Y008062D01*X009398Y008287D02*
X00891Y008175D01*X008723Y007875D01*X008423Y008062D01*X013639Y007415D02*
X013414Y008389D01*X013352Y008575D01*X013254Y008745D01*
X013125Y008893D01*X01297Y009012D01*X012794Y009099D01*X012605Y009151D01*
X012409Y009164D01*X012215Y009139D01*X012029Y009076D01*
X011859Y008978D01*X011712Y00885D01*X011592Y008694D01*X011505Y008519D01*
X011454Y008329D01*X01144Y008134D01*X011466Y007939D01*X011916Y005991D01*
X011978Y005805D01*X012076Y005635D01*X012205Y005487D01*X01236Y005368D01*
X012536Y00528D01*X012725Y005229D01*X01292Y005216D01*X013115Y005241D01*
X013301Y005304D01*X013471Y005401D01*X013618Y00553D01*X013738Y005686D01*
X013825Y005861D01*X013876Y006051D01*X013889Y006246D01*
X013864Y006441D01*X013639Y007415D01*X012815Y008764D02*
X012769Y008886D01*X012693Y008993D01*X012592Y009076D01*X012474Y00913D01*
X012345Y009151D01*X012215Y009139D01*X012093Y009093D01*
X011987Y009017D01*X011904Y008916D01*X011849Y008798D01*
X011828Y008669D01*X01184Y008539D01*X011886Y008417D01*X011962Y008311D01*
X012063Y008227D01*X012181Y008173D01*X01231Y008152D01*X01244Y008164D01*
X012562Y00821D01*X012669Y008286D01*X012752Y008387D01*X012806Y008505D01*
X012827Y008634D01*X012815Y008764D01*X01289Y006216D02*X012777Y006703D01*
X012478Y00689D01*X012665Y00719D01*X013347Y006459D02*X013006Y006824D01*
X012653Y006837D01*X012665Y00719D01*X013621Y006898D02*X013143Y007044D01*
X012831Y006878D01*X012665Y00719D01*X013639Y007415D02*X013152Y007302D01*
X012965Y007003D01*X012665Y00719D01*X011691Y006965D02*X012178Y007077D01*
X012365Y007377D01*X012665Y00719D01*X011934Y006508D02*X012299Y006849D01*
X012312Y007202D01*X012665Y00719D01*X012373Y006234D02*X012519Y006712D01*
X012353Y007024D01*X012665Y00719D01*X01244Y008164D02*X012552Y007677D01*
X012852Y00749D01*X012665Y00719D01*X011983Y007921D02*X012324Y007556D01*
X012677Y007543D01*X012665Y00719D01*X011709Y007482D02*X012187Y007336D01*
X012499Y007502D01*X012665Y00719D01*X013396Y007872D02*X013031Y007531D01*
X013018Y007178D01*X012665Y00719D01*X012957Y008146D02*X012811Y007668D01*
X012977Y007356D01*X012665Y00719D01*X013639Y007415D02*X013414Y008389D01*
X013352Y008575D01*X013254Y008745D01*X013125Y008893D01*X01297Y009012D01*
X012794Y009099D01*X012605Y009151D01*X012409Y009164D01*
X012215Y009139D01*X012029Y009076D01*X011859Y008978D01*X011712Y00885D01*
X011592Y008694D01*X011505Y008519D01*X011454Y008329D01*X01144Y008134D01*
X011466Y007939D01*X011916Y005991D01*X011978Y005805D01*
X012076Y005635D01*X012205Y005487D01*X01236Y005368D01*X012536Y00528D01*
X012725Y005229D01*X01292Y005216D01*X013115Y005241D01*X013301Y005304D01*
X013471Y005401D01*X013618Y00553D01*X013738Y005686D01*X013825Y005861D01*
X013876Y006051D01*X013889Y006246D01*X013864Y006441D01*
X013639Y007415D01*X012815Y008764D02*X012769Y008886D01*
X012693Y008993D01*X012592Y009076D01*X012474Y00913D01*X012345Y009151D01*
X012215Y009139D01*X012093Y009093D01*X011987Y009017D01*
X011904Y008916D01*X011849Y008798D01*X011828Y008669D01*X01184Y008539D01*
X011886Y008417D01*X011962Y008311D01*X012063Y008227D01*
X012181Y008173D01*X01231Y008152D01*X01244Y008164D01*X012562Y00821D01*
X012669Y008286D01*X012752Y008387D01*X012806Y008505D01*
X012827Y008634D01*X012815Y008764D01*X01289Y006216D02*X012777Y006703D01*
X012478Y00689D01*X012665Y00719D01*X013347Y006459D02*X013006Y006824D01*
X012653Y006837D01*X012665Y00719D01*X013621Y006898D02*X013143Y007044D01*
X012831Y006878D01*X012665Y00719D01*X013639Y007415D02*X013152Y007302D01*
X012965Y007003D01*X012665Y00719D01*X011691Y006965D02*X012178Y007077D01*
X012365Y007377D01*X012665Y00719D01*X011934Y006508D02*X012299Y006849D01*
X012312Y007202D01*X012665Y00719D01*X012373Y006234D02*X012519Y006712D01*
X012353Y007024D01*X012665Y00719D01*X01244Y008164D02*X012552Y007677D01*
X012852Y00749D01*X012665Y00719D01*X011983Y007921D02*X012324Y007556D01*
X012677Y007543D01*X012665Y00719D01*X011709Y007482D02*X012187Y007336D01*
X012499Y007502D01*X012665Y00719D01*X013396Y007872D02*X013031Y007531D01*
X013018Y007178D01*X012665Y00719D01*X012957Y008146D02*X012811Y007668D01*
X012977Y007356D01*X012665Y00719D01*X015951Y01124D02*X014994Y011532D01*
X014802Y011571D01*X014606Y011571D01*X014414Y011533D01*
X014233Y011459D01*X014069Y01135D01*X01393Y011212D01*X013821Y011049D01*
X013746Y010868D01*X013707Y010676D01*X013707Y01048D01*X013744Y010287D01*
X013819Y010106D01*X013928Y009943D01*X014066Y009804D01*
X014229Y009695D01*X01441Y009619D01*X016322Y009035D01*X016514Y008996D01*
X016711Y008995D01*X016903Y009033D01*X017084Y009108D01*
X017247Y009216D01*X017386Y009355D01*X017496Y009518D01*
X017571Y009699D01*X01761Y009891D01*X01761Y010087D01*X017572Y010279D01*
X017498Y01046D01*X017389Y010624D01*X017251Y010762D01*X017088Y010872D01*
X016907Y010947D01*X015951Y01124D01*X01437Y0112D02*X014241Y011222D01*
X014111Y011209D01*X013989Y011163D01*X013883Y011087D01*X0138Y010987D01*
X013746Y010868D01*X013724Y010739D01*X013737Y010609D01*
X013782Y010487D01*X013858Y010381D01*X013959Y010298D01*
X014078Y010244D01*X014206Y010222D01*X014336Y010235D01*X014459Y01028D01*
X014565Y010356D01*X014648Y010457D01*X014702Y010576D01*
X014724Y010704D01*X014711Y010834D01*X014665Y010957D01*X01459Y011063D01*
X014489Y011146D01*X01437Y0112D01*X016615Y009991D02*X016137Y010137D01*
X015824Y009971D01*X015658Y010283D01*X016633Y010508D02*
X016146Y010396D01*X015958Y010096D01*X015658Y010283D01*X01639Y010965D02*
X016024Y010624D01*X016012Y010271D01*X015658Y010283D01*X015951Y01124D02*
X015805Y010761D01*X015971Y010449D01*X015658Y010283D01*
X015366Y009327D02*X015512Y009805D01*X015346Y010117D01*
X015658Y010283D01*X015883Y009309D02*X015771Y009796D01*
X015471Y009983D01*X015658Y010283D01*X01634Y009552D02*X015999Y009918D01*
X015646Y00993D01*X015658Y010283D01*X014702Y010576D02*X01518Y010429D01*
X015492Y010595D01*X015658Y010283D01*X014684Y010058D02*
X015171Y010171D01*X015359Y010471D01*X015658Y010283D01*
X014927Y009601D02*X015293Y009942D01*X015305Y010296D01*
X015658Y010283D01*X015433Y011258D02*X015546Y01077D01*X015846Y010583D01*
X015658Y010283D01*X014976Y011015D02*X015317Y010649D01*
X015671Y010637D01*X015658Y010283D01*X015951Y01124D02*X014994Y011532D01*
X014802Y011571D01*X014606Y011571D01*X014414Y011533D01*
X014233Y011459D01*X014069Y01135D01*X01393Y011212D01*X013821Y011049D01*
X013746Y010868D01*X013707Y010676D01*X013707Y01048D01*X013744Y010287D01*
X013819Y010106D01*X013928Y009943D01*X014066Y009804D01*
X014229Y009695D01*X01441Y009619D01*X016322Y009035D01*X016514Y008996D01*
X016711Y008995D01*X016903Y009033D01*X017084Y009108D01*
X017247Y009216D01*X017386Y009355D01*X017496Y009518D01*
X017571Y009699D01*X01761Y009891D01*X01761Y010087D01*X017572Y010279D01*
X017498Y01046D01*X017389Y010624D01*X017251Y010762D01*X017088Y010872D01*
X016907Y010947D01*X015951Y01124D01*X01437Y0112D02*X014241Y011222D01*
X014111Y011209D01*X013989Y011163D01*X013883Y011087D01*X0138Y010987D01*
X013746Y010868D01*X013724Y010739D01*X013737Y010609D01*
X013782Y010487D01*X013858Y010381D01*X013959Y010298D01*
X014078Y010244D01*X014206Y010222D01*X014336Y010235D01*X014459Y01028D01*
X014565Y010356D01*X014648Y010457D01*X014702Y010576D01*
X014724Y010704D01*X014711Y010834D01*X014665Y010957D01*X01459Y011063D01*
X014489Y011146D01*X01437Y0112D01*X016615Y009991D02*X016137Y010137D01*
X015824Y009971D01*X015658Y010283D01*X016633Y010508D02*
X016146Y010396D01*X015958Y010096D01*X015658Y010283D01*X01639Y010965D02*
X016024Y010624D01*X016012Y010271D01*X015658Y010283D01*X015951Y01124D02*
X015805Y010761D01*X015971Y010449D01*X015658Y010283D01*
X015366Y009327D02*X015512Y009805D01*X015346Y010117D01*
X015658Y010283D01*X015883Y009309D02*X015771Y009796D01*
X015471Y009983D01*X015658Y010283D01*X01634Y009552D02*X015999Y009918D01*
X015646Y00993D01*X015658Y010283D01*X014702Y010576D02*X01518Y010429D01*
X015492Y010595D01*X015658Y010283D01*X014684Y010058D02*
X015171Y010171D01*X015359Y010471D01*X015658Y010283D01*
X014927Y009601D02*X015293Y009942D01*X015305Y010296D01*
X015658Y010283D01*X015433Y011258D02*X015546Y01077D01*X015846Y010583D01*
X015658Y010283D01*X014976Y011015D02*X015317Y010649D01*
X015671Y010637D01*X015658Y010283D01*X014038Y014891D02*
X013307Y014209D01*X013177Y014062D01*X013079Y013892D01*
X013015Y013706D01*X012989Y013512D01*X013002Y013317D01*
X013052Y013127D01*X013138Y012951D01*X013257Y012795D01*
X013405Y012666D01*X013574Y012567D01*X01376Y012504D01*X013954Y012478D01*
X01415Y01249D01*X014339Y012541D01*X014515Y012627D01*X014671Y012746D01*
X016134Y01411D01*X016263Y014257D01*X016361Y014427D01*X016425Y014612D01*
X016451Y014806D01*X016439Y015002D01*X016388Y015191D01*
X016302Y015368D01*X016183Y015523D01*X016036Y015653D01*
X015866Y015751D01*X015681Y015815D01*X015486Y015841D01*
X015291Y015828D01*X015101Y015778D01*X014925Y015692D01*X01477Y015573D01*
X014038Y014891D01*X013282Y013502D02*X013199Y013401D01*
X013145Y013282D01*X013123Y013154D01*X013136Y013024D01*
X013182Y012902D01*X013257Y012795D01*X013358Y012712D01*
X013477Y012658D01*X013606Y012637D01*X013736Y012649D01*
X013858Y012695D01*X013964Y012771D01*X014047Y012871D01*X014101Y01299D01*
X014123Y013119D01*X01411Y013249D01*X014065Y013371D01*X013989Y013477D01*
X013888Y01356D01*X013769Y013614D01*X013641Y013636D01*X013511Y013623D01*
X013388Y013578D01*X013282Y013502D01*X015452Y014841D02*X015086Y0145D01*
X015074Y014147D01*X01472Y014159D01*X015013Y015116D02*X014866Y014637D01*
X015032Y014325D01*X01472Y014159D01*X014495Y015134D02*X014608Y014646D01*
X014908Y014459D01*X01472Y014159D01*X014038Y014891D02*X014379Y014525D01*
X014733Y014513D01*X01472Y014159D01*X015402Y013428D02*X015061Y013794D01*
X014708Y013806D01*X01472Y014159D01*X015676Y013867D02*X015198Y014013D01*
X014886Y013847D01*X01472Y014159D01*X015695Y014384D02*X015207Y014272D01*
X01502Y013972D01*X01472Y014159D01*X013989Y013477D02*X014354Y013818D01*
X014367Y014172D01*X01472Y014159D01*X014428Y013203D02*X014574Y013681D01*
X014408Y013993D01*X01472Y014159D01*X014945Y013185D02*X014833Y013672D01*
X014533Y013859D01*X01472Y014159D01*X013764Y014452D02*X014242Y014305D01*
X014554Y014471D01*X01472Y014159D01*X013746Y013934D02*X014233Y014047D01*
X01442Y014347D01*X01472Y014159D01*X014038Y014891D02*X013307Y014209D01*
X013177Y014062D01*X013079Y013892D01*X013015Y013706D01*
X012989Y013512D01*X013002Y013317D01*X013052Y013127D01*
X013138Y012951D01*X013257Y012795D01*X013405Y012666D01*
X013574Y012567D01*X01376Y012504D01*X013954Y012478D01*X01415Y01249D01*
X014339Y012541D01*X014515Y012627D01*X014671Y012746D01*X016134Y01411D01*
X016263Y014257D01*X016361Y014427D01*X016425Y014612D01*
X016451Y014806D01*X016439Y015002D01*X016388Y015191D01*
X016302Y015368D01*X016183Y015523D01*X016036Y015653D01*
X015866Y015751D01*X015681Y015815D01*X015486Y015841D01*
X015291Y015828D01*X015101Y015778D01*X014925Y015692D01*X01477Y015573D01*
X014038Y014891D01*X013282Y013502D02*X013199Y013401D01*
X013145Y013282D01*X013123Y013154D01*X013136Y013024D01*
X013182Y012902D01*X013257Y012795D01*X013358Y012712D01*
X013477Y012658D01*X013606Y012637D01*X013736Y012649D01*
X013858Y012695D01*X013964Y012771D01*X014047Y012871D01*X014101Y01299D01*
X014123Y013119D01*X01411Y013249D01*X014065Y013371D01*X013989Y013477D01*
X013888Y01356D01*X013769Y013614D01*X013641Y013636D01*X013511Y013623D01*
X013388Y013578D01*X013282Y013502D01*X015452Y014841D02*X015086Y0145D01*
X015074Y014147D01*X01472Y014159D01*X015013Y015116D02*X014866Y014637D01*
X015032Y014325D01*X01472Y014159D01*X014495Y015134D02*X014608Y014646D01*
X014908Y014459D01*X01472Y014159D01*X014038Y014891D02*X014379Y014525D01*
X014733Y014513D01*X01472Y014159D01*X015402Y013428D02*X015061Y013794D01*
X014708Y013806D01*X01472Y014159D01*X015676Y013867D02*X015198Y014013D01*
X014886Y013847D01*X01472Y014159D01*X015695Y014384D02*X015207Y014272D01*
X01502Y013972D01*X01472Y014159D01*X013989Y013477D02*X014354Y013818D01*
X014367Y014172D01*X01472Y014159D01*X014428Y013203D02*X014574Y013681D01*
X014408Y013993D01*X01472Y014159D01*X014945Y013185D02*X014833Y013672D01*
X014533Y013859D01*X01472Y014159D01*X013764Y014452D02*X014242Y014305D01*
X014554Y014471D01*X01472Y014159D01*X013746Y013934D02*X014233Y014047D01*
X01442Y014347D01*X01472Y014159D01*X009541Y014866D02*X009766Y013892D01*
X009829Y013706D01*X009927Y013536D01*X010056Y013389D01*
X010211Y013269D01*X010386Y013182D01*X010576Y013131D01*
X010771Y013117D01*X010966Y013143D01*X011151Y013205D01*
X011321Y013303D01*X011469Y013432D01*X011589Y013587D01*
X011676Y013763D01*X011727Y013952D01*X01174Y014147D01*X011715Y014342D01*
X011265Y016291D01*X011203Y016476D01*X011105Y016646D01*
X010976Y016794D01*X010821Y016914D01*X010645Y017001D01*
X010456Y017052D01*X01026Y017065D01*X010066Y01704D01*X00988Y016977D01*
X00971Y01688D01*X009562Y016751D01*X009443Y016596D01*X009356Y01642D01*
X009305Y016231D01*X009291Y016035D01*X009316Y015841D01*
X009541Y014866D01*X010366Y013517D02*X010412Y013395D01*
X010488Y013289D01*X010588Y013206D01*X010707Y013152D01*X010836Y01313D01*
X010966Y013143D01*X011088Y013188D01*X011194Y013264D01*
X011277Y013365D01*X011331Y013484D01*X011353Y013612D01*X01134Y013742D01*
X011295Y013864D01*X011219Y013971D01*X011118Y014054D01*
X010999Y014108D01*X010871Y014129D01*X010741Y014117D01*
X010618Y014071D01*X010512Y013995D01*X010429Y013895D01*
X010375Y013776D01*X010354Y013647D01*X010366Y013517D01*
X010291Y016066D02*X010403Y015578D01*X010703Y015391D01*
X010516Y015091D01*X009834Y015823D02*X010175Y015457D01*
X010528Y015445D01*X010516Y015091D01*X00956Y015384D02*X010038Y015237D01*
X01035Y015403D01*X010516Y015091D01*X009541Y014866D02*X010029Y014979D01*
X010216Y015279D01*X010516Y015091D01*X01149Y015316D02*X011003Y015204D01*
X010816Y014904D01*X010516Y015091D01*X011247Y015773D02*
X010881Y015432D01*X010869Y015079D01*X010516Y015091D01*
X010808Y016048D02*X010662Y015569D01*X010828Y015257D01*
X010516Y015091D01*X010741Y014117D02*X010628Y014604D01*
X010328Y014791D01*X010516Y015091D01*X011198Y01436D02*X010857Y014726D01*
X010503Y014738D01*X010516Y015091D01*X011472Y014799D02*
X010994Y014945D01*X010682Y014779D01*X010516Y015091D01*
X009784Y014409D02*X01015Y01475D01*X010162Y015104D01*X010516Y015091D01*
X010223Y014135D02*X01037Y014613D01*X010204Y014925D01*X010516Y015091D01*
X009541Y014866D02*X009766Y013892D01*X009829Y013706D01*
X009927Y013536D01*X010056Y013389D01*X010211Y013269D01*
X010386Y013182D01*X010576Y013131D01*X010771Y013117D01*
X010966Y013143D01*X011151Y013205D01*X011321Y013303D01*
X011469Y013432D01*X011589Y013587D01*X011676Y013763D01*
X011727Y013952D01*X01174Y014147D01*X011715Y014342D01*X011265Y016291D01*
X011203Y016476D01*X011105Y016646D01*X010976Y016794D01*
X010821Y016914D01*X010645Y017001D01*X010456Y017052D01*X01026Y017065D01*
X010066Y01704D01*X00988Y016977D01*X00971Y01688D01*X009562Y016751D01*
X009443Y016596D01*X009356Y01642D01*X009305Y016231D01*X009291Y016035D01*
X009316Y015841D01*X009541Y014866D01*X010366Y013517D02*
X010412Y013395D01*X010488Y013289D01*X010588Y013206D01*
X010707Y013152D01*X010836Y01313D01*X010966Y013143D01*X011088Y013188D01*
X011194Y013264D01*X011277Y013365D01*X011331Y013484D01*
X011353Y013612D01*X01134Y013742D01*X011295Y013864D01*X011219Y013971D01*
X011118Y014054D01*X010999Y014108D01*X010871Y014129D01*
X010741Y014117D01*X010618Y014071D01*X010512Y013995D01*
X010429Y013895D01*X010375Y013776D01*X010354Y013647D01*
X010366Y013517D01*X010291Y016066D02*X010403Y015578D01*
X010703Y015391D01*X010516Y015091D01*X009834Y015823D02*
X010175Y015457D01*X010528Y015445D01*X010516Y015091D01*X00956Y015384D02*
X010038Y015237D01*X01035Y015403D01*X010516Y015091D01*X009541Y014866D02*
X010029Y014979D01*X010216Y015279D01*X010516Y015091D01*X01149Y015316D02*
X011003Y015204D01*X010816Y014904D01*X010516Y015091D01*
X011247Y015773D02*X010881Y015432D01*X010869Y015079D01*
X010516Y015091D01*X010808Y016048D02*X010662Y015569D01*
X010828Y015257D01*X010516Y015091D01*X010741Y014117D02*
X010628Y014604D01*X010328Y014791D01*X010516Y015091D01*X011198Y01436D02*
X010857Y014726D01*X010503Y014738D01*X010516Y015091D01*
X011472Y014799D02*X010994Y014945D01*X010682Y014779D01*
X010516Y015091D01*X009784Y014409D02*X01015Y01475D01*X010162Y015104D01*
X010516Y015091D01*X010223Y014135D02*X01037Y014613D01*X010204Y014925D01*
X010516Y015091D01*X007628Y010947D02*X008584Y010654D01*
X008776Y010616D01*X008972Y010615D01*X009165Y010653D01*
X009346Y010728D01*X009509Y010836D01*X009648Y010975D01*
X009757Y011137D01*X009833Y011318D01*X009872Y01151D01*X009872Y011706D01*
X009834Y011899D01*X009759Y01208D01*X009651Y012243D01*X009513Y012382D01*
X00935Y012491D01*X009169Y012567D01*X007256Y013152D01*X007064Y01319D01*
X006868Y013191D01*X006676Y013153D01*X006494Y013078D01*X006331Y01297D01*
X006192Y012831D01*X006083Y012669D01*X006008Y012488D01*
X005969Y012296D01*X005969Y012099D01*X006006Y011907D01*
X006081Y011726D01*X00619Y011563D01*X006328Y011424D01*X006491Y011314D01*
X006672Y011239D01*X007628Y010947D01*X009209Y010986D02*
X009337Y010965D01*X009467Y010977D01*X009589Y011023D01*
X009696Y011099D01*X009779Y011199D01*X009833Y011318D01*
X009854Y011447D01*X009842Y011577D01*X009796Y011699D01*X00972Y011805D01*
X00962Y011888D01*X009501Y011943D01*X009372Y011964D01*X009242Y011952D01*
X00912Y011906D01*X009014Y01183D01*X008931Y011729D01*X008877Y011611D01*
X008855Y011482D01*X008868Y011352D01*X008913Y01123D01*X008989Y011123D01*
X00909Y01104D01*X009209Y010986D01*X006964Y012195D02*X007442Y012049D01*
X007754Y012215D01*X00792Y011903D01*X006946Y011678D02*X007433Y01179D01*
X00762Y01209D01*X00792Y011903D01*X007189Y011221D02*X007555Y011562D01*
X007567Y011915D01*X00792Y011903D01*X007628Y010947D02*X007774Y011425D01*
X007608Y011737D01*X00792Y011903D01*X008213Y012859D02*X008066Y012381D01*
X008232Y012069D01*X00792Y011903D01*X007695Y012877D02*X007808Y01239D01*
X008108Y012203D01*X00792Y011903D01*X007238Y012634D02*X007579Y012269D01*
X007933Y012256D01*X00792Y011903D01*X008877Y011611D02*X008398Y011757D01*
X008086Y011591D01*X00792Y011903D01*X008895Y012128D02*X008407Y012015D01*
X00822Y011716D01*X00792Y011903D01*X008652Y012585D02*X008286Y012244D01*
X008274Y011891D01*X00792Y011903D01*X008145Y010929D02*X008033Y011416D01*
X007733Y011603D01*X00792Y011903D01*X008602Y011172D02*X008261Y011537D01*
X007908Y01155D01*X00792Y011903D01*X007628Y010947D02*X008584Y010654D01*
X008776Y010616D01*X008972Y010615D01*X009165Y010653D01*
X009346Y010728D01*X009509Y010836D01*X009648Y010975D01*
X009757Y011137D01*X009833Y011318D01*X009872Y01151D01*X009872Y011706D01*
X009834Y011899D01*X009759Y01208D01*X009651Y012243D01*X009513Y012382D01*
X00935Y012491D01*X009169Y012567D01*X007256Y013152D01*X007064Y01319D01*
X006868Y013191D01*X006676Y013153D01*X006494Y013078D01*X006331Y01297D01*
X006192Y012831D01*X006083Y012669D01*X006008Y012488D01*
X005969Y012296D01*X005969Y012099D01*X006006Y011907D01*
X006081Y011726D01*X00619Y011563D01*X006328Y011424D01*X006491Y011314D01*
X006672Y011239D01*X007628Y010947D01*X009209Y010986D02*
X009337Y010965D01*X009467Y010977D01*X009589Y011023D01*
X009696Y011099D01*X009779Y011199D01*X009833Y011318D01*
X009854Y011447D01*X009842Y011577D01*X009796Y011699D01*X00972Y011805D01*
X00962Y011888D01*X009501Y011943D01*X009372Y011964D01*X009242Y011952D01*
X00912Y011906D01*X009014Y01183D01*X008931Y011729D01*X008877Y011611D01*
X008855Y011482D01*X008868Y011352D01*X008913Y01123D01*X008989Y011123D01*
X00909Y01104D01*X009209Y010986D01*X006964Y012195D02*X007442Y012049D01*
X007754Y012215D01*X00792Y011903D01*X006946Y011678D02*X007433Y01179D01*
X00762Y01209D01*X00792Y011903D01*X007189Y011221D02*X007555Y011562D01*
X007567Y011915D01*X00792Y011903D01*X007628Y010947D02*X007774Y011425D01*
X007608Y011737D01*X00792Y011903D01*X008213Y012859D02*X008066Y012381D01*
X008232Y012069D01*X00792Y011903D01*X007695Y012877D02*X007808Y01239D01*
X008108Y012203D01*X00792Y011903D01*X007238Y012634D02*X007579Y012269D01*
X007933Y012256D01*X00792Y011903D01*X008877Y011611D02*X008398Y011757D01*
X008086Y011591D01*X00792Y011903D01*X008895Y012128D02*X008407Y012015D01*
X00822Y011716D01*X00792Y011903D01*X008652Y012585D02*X008286Y012244D01*
X008274Y011891D01*X00792Y011903D01*X008145Y010929D02*X008033Y011416D01*
X007733Y011603D01*X00792Y011903D01*X008602Y011172D02*X008261Y011537D01*
X007908Y01155D01*X00792Y011903D01*X009105Y007331D02*X009837Y008013D01*
X009966Y00816D01*X010065Y00833D01*X010128Y008515D01*X010154Y008709D01*
X010142Y008905D01*X010091Y009094D01*X010005Y00927D01*X009886Y009426D01*
X009739Y009556D01*X009569Y009654D01*X009384Y009718D01*
X009189Y009744D01*X008994Y009731D01*X008804Y009681D01*
X008628Y009595D01*X008473Y009476D01*X00701Y008112D01*X00688Y007964D01*
X006782Y007795D01*X006718Y007609D01*X006692Y007415D01*
X006705Y007219D01*X006755Y00703D01*X006842Y006854D01*X006961Y006698D01*
X007108Y006569D01*X007277Y00647D01*X007463Y006407D01*X007657Y006381D01*
X007853Y006393D01*X008042Y006444D01*X008218Y00653D01*X008374Y006649D01*
X009105Y007331D01*X009861Y00872D02*X009944Y00882D01*X009998Y008939D01*
X01002Y009068D01*X010007Y009198D01*X009962Y00932D01*X009886Y009426D01*
X009785Y009509D01*X009666Y009563D01*X009538Y009585D01*
X009408Y009572D01*X009286Y009527D01*X009179Y009451D01*X009096Y00935D01*
X009042Y009231D01*X009021Y009103D01*X009033Y008973D01*X009079Y00885D01*
X009155Y008744D01*X009255Y008661D01*X009374Y008607D01*
X009503Y008586D01*X009633Y008598D01*X009755Y008644D01*X009861Y00872D01*
X007692Y00738D02*X008058Y007721D01*X00807Y008075D01*X008423Y008062D01*
X008131Y007106D02*X008277Y007584D01*X008111Y007896D01*
X008423Y008062D01*X008648Y007088D02*X008536Y007575D01*
X008236Y007762D01*X008423Y008062D01*X009105Y007331D02*
X008764Y007697D01*X008411Y007709D01*X008423Y008062D01*
X007741Y008794D02*X008082Y008428D01*X008436Y008416D01*
X008423Y008062D01*X007467Y008355D02*X007945Y008208D01*
X008257Y008374D01*X008423Y008062D01*X007449Y007837D02*X007936Y00795D01*
X008123Y00825D01*X008423Y008062D01*X009155Y008744D02*X008789Y008403D01*
X008777Y00805D01*X008423Y008062D01*X008716Y009019D02*X008569Y00854D01*
X008735Y008228D01*X008423Y008062D01*X008198Y009037D02*
X008311Y008549D01*X008611Y008362D01*X008423Y008062D01*X00938Y00777D02*
X008901Y007916D01*X008589Y00775D01*X008423Y008062D01*X009398Y008287D02*
X00891Y008175D01*X008723Y007875D01*X008423Y008062D01*X014Y004D02*
X013983Y003871D01*X013933Y00375D01*X013854Y003646D01*X01375Y003567D01*
X013629Y003517D01*X0135Y0035D01*X013371Y003517D01*X01325Y003567D01*
X013146Y003646D01*X013067Y00375D01*X013017Y003871D01*X013Y004D01*
X013017Y004129D01*X013067Y00425D01*X013146Y004354D01*X01325Y004433D01*
X013371Y004483D01*X0135Y0045D01*X013629Y004483D01*X01375Y004433D01*
X013854Y004354D01*X013933Y00425D01*X013983Y004129D01*X014Y004D01*
X0135Y0025D02*X013305Y002519D01*X013117Y002576D01*X012944Y002669D01*
X012793Y002793D01*X012669Y002944D01*X012576Y003117D01*
X012519Y003305D01*X0125Y0035D01*X012519Y003695D01*X012576Y003883D01*
X012669Y004056D01*X012793Y004207D01*X012944Y004331D01*
X013117Y004424D01*X013305Y004481D01*X0135Y0045D01*X013695Y004481D01*
X013883Y004424D01*X014056Y004331D01*X014207Y004207D01*
X014331Y004056D01*X014424Y003883D01*X014481Y003695D01*X0145Y0035D01*
X014481Y003305D01*X014424Y003117D01*X014331Y002944D01*
X014207Y002793D01*X014056Y002669D01*X013883Y002576D01*
X013695Y002519D01*X0135Y0025D01*X014Y004D02*X013983Y003871D01*
X013933Y00375D01*X013854Y003646D01*X01375Y003567D01*X013629Y003517D01*
X0135Y0035D01*X013371Y003517D01*X01325Y003567D01*X013146Y003646D01*
X013067Y00375D01*X013017Y003871D01*X013Y004D01*X013017Y004129D01*
X013067Y00425D01*X013146Y004354D01*X01325Y004433D01*X013371Y004483D01*
X0135Y0045D01*X013629Y004483D01*X01375Y004433D01*X013854Y004354D01*
X013933Y00425D01*X013983Y004129D01*X014Y004D01*X0135Y0025D02*
X013305Y002519D01*X013117Y002576D01*X012944Y002669D01*
X012793Y002793D01*X012669Y002944D01*X012576Y003117D01*
X012519Y003305D01*X0125Y0035D01*X012519Y003695D01*X012576Y003883D01*
X012669Y004056D01*X012793Y004207D01*X012944Y004331D01*
X013117Y004424D01*X013305Y004481D01*X0135Y0045D01*X013695Y004481D01*
X013883Y004424D01*X014056Y004331D01*X014207Y004207D01*
X014331Y004056D01*X014424Y003883D01*X014481Y003695D01*X0145Y0035D01*
X014481Y003305D01*X014424Y003117D01*X014331Y002944D01*
X014207Y002793D01*X014056Y002669D01*X013883Y002576D01*
X013695Y002519D01*X0135Y0025D01*X003396Y010225D02*X002916Y010087D01*
X00264Y011048D01*X003121Y011186D01*X002983Y011667D01*X003944Y011942D01*
X004082Y011462D01*X004563Y0116D01*X004838Y010638D01*X004358Y0105D01*
X004495Y01002D01*X003534Y009744D01*X003396Y010225D01*X008279Y003918D02*
X008158Y003433D01*X007187Y003675D01*X007308Y00416D01*X006823Y004281D01*
X007065Y005251D01*X00755Y00513D01*X007671Y005615D01*X008642Y005373D01*
X008521Y004888D01*X009006Y004767D01*X008764Y003797D01*
X008279Y003918D01*X008158Y003433D01*X007187Y003675D01*X007308Y00416D01*
X006823Y004281D01*X007065Y005251D01*X00755Y00513D01*X007671Y005615D01*
X008642Y005373D01*X008521Y004888D01*X009006Y004767D01*
X008764Y003797D01*X008279Y003918D01*X016299Y004849D02*
X016659Y004501D01*X015964Y003782D01*X015604Y004129D01*X015257Y00377D01*
X014538Y004464D01*X014885Y004824D01*X014525Y005171D01*X01522Y005891D01*
X01558Y005543D01*X015927Y005903D01*X016646Y005208D01*X016299Y004849D01*
X016659Y004501D01*X015964Y003782D01*X015604Y004129D01*X015257Y00377D01*
X014538Y004464D01*X014885Y004824D01*X014525Y005171D01*X01522Y005891D01*
X01558Y005543D01*X015927Y005903D01*X016646Y005208D01*X016299Y004849D01*
X019747Y011997D02*X020228Y012135D01*X020503Y011173D01*
X020023Y011035D01*X020161Y010555D01*X019199Y010279D01*X019061Y01076D01*
X018581Y010622D01*X018305Y011583D01*X018786Y011721D01*
X018648Y012202D01*X019609Y012477D01*X019747Y011997D01*
X020228Y012135D01*X020503Y011173D01*X020023Y011035D01*
X020161Y010555D01*X019199Y010279D01*X019061Y01076D01*X018581Y010622D01*
X018305Y011583D01*X018786Y011721D01*X018648Y012202D01*
X019609Y012477D01*X019747Y011997D01*X014902Y018363D02*
X015023Y018849D01*X015993Y018607D01*X015872Y018121D01*
X016358Y018001D01*X016116Y01703D01*X01563Y017151D01*X01551Y016666D01*
X014539Y016908D01*X01466Y017393D01*X014175Y017514D01*X014417Y018484D01*
X014902Y018363D01*X015023Y018849D01*X015993Y018607D01*
X015872Y018121D01*X016358Y018001D01*X016116Y01703D01*X01563Y017151D01*
X01551Y016666D01*X014539Y016908D01*X01466Y017393D01*X014175Y017514D01*
X014417Y018484D01*X014902Y018363D01*X00728Y017338D02*X00692Y017685D01*
X007615Y018404D01*X007974Y018057D01*X008322Y018417D01*
X009041Y017722D01*X008694Y017362D01*X009053Y017015D01*
X008359Y016296D01*X007999Y016643D01*X007652Y016283D01*
X006932Y016978D01*X00728Y017338D01*X00692Y017685D01*X007615Y018404D01*
X007974Y018057D01*X008322Y018417D01*X009041Y017722D01*
X008694Y017362D01*X009053Y017015D01*X008359Y016296D01*
X007999Y016643D01*X007652Y016283D01*X006932Y016978D01*X00728Y017338D01*
X003396Y010225D02*X002916Y010087D01*X00264Y011048D01*X003121Y011186D01*
X002983Y011667D01*X003944Y011942D01*X004082Y011462D01*X004563Y0116D01*
X004838Y010638D01*X004358Y0105D01*X004495Y01002D01*X003534Y009744D01*
X003396Y010225D01*X001967Y009437D02*X000967Y00942D01*X000971Y00917D01*
X001971Y009187D01*X001936Y011187D01*X000936Y01117D01*X000971Y00917D01*
X001967Y009437D02*X000967Y00942D01*X000971Y00917D01*X001971Y009187D01*
X001936Y011187D01*X000936Y01117D01*X000971Y00917D01*D13*
X00343Y01468D02*X005146Y013739D01*D12*X005021Y013523D01*
X003289Y014523D01*X005021Y013523D02*X004396Y01244D01*D13*
X002668Y01351D01*D12*X001144Y014482D01*X00083Y015323D01*D13*
X005146Y013739D02*X005362Y013614D01*D14*X004612Y012315D01*D13*
X004396Y01244D01*D12*X003387Y014694D02*X00173Y015523D01*
X000834Y015351D01*X004495Y012639D02*X00282Y013668D01*D13*
X00343Y01468D02*X005146Y013739D01*D12*X005021Y013523D01*
X003289Y014523D01*X005021Y013523D02*X004396Y01244D01*D13*
X002668Y01351D01*D12*X001144Y014482D01*X00083Y015323D01*D13*
X005146Y013739D02*X005362Y013614D01*D14*X004612Y012315D01*D13*
X004396Y01244D01*D12*X003387Y014694D02*X00173Y015523D01*
X000834Y015351D01*X004495Y012639D02*X00282Y013668D01*X023Y023D02*X0D01*
Y0D01*X023D01*Y023D01*X0D01*Y0D01*X023D01*Y023D01*D11*
X004089Y006763D02*X00407Y006663D01*X003951Y006584D01*X003852Y006603D01*
X003812Y006662D01*X003832Y006761D01*X003929Y007D01*X003889Y007059D01*
X003653Y006899D01*X003734Y006523D02*X003715Y006424D01*
X003596Y006344D01*X003497Y006363D01*X003457Y006422D01*
X003476Y006522D01*X003574Y00676D01*X003534Y006819D01*X003297Y006659D01*
X003389Y006204D02*X003149Y006559D01*X003209Y006471D02*
X003151Y006173D01*X002972Y00644D02*X003195Y006396D01*X003163Y008405D02*
X003364Y008027D01*X003436Y008348D01*X003184Y008214D01*
X003175Y007926D02*X002923Y007792D01*X002911Y008271D01*
X002511Y007654D02*X002607Y007624D01*X002733Y007691D01*
X002763Y007788D01*X002629Y00804D01*X002532Y00807D01*X002406Y008003D01*
X002376Y007906D01*X002511Y007654D01*X002603Y007784D02*X002536Y00791D01*
X002386Y007507D02*X002185Y007885D01*X002236Y007791D02*
X002147Y007501D01*X001996Y007785D02*X002213Y007718D01*
X009738Y002806D02*X010166Y002791D01*X009924Y003014D01*
X009914Y002728D01*X010159Y002577D02*X010149Y002291D01*X009728Y00252D01*
X010062Y001865D02*X010136Y001934D01*X010141Y002077D01*
X010072Y002151D01*X009787Y002161D01*X009713Y002092D01*
X009708Y001949D01*X009777Y001875D01*X010062Y001865D01*
X009996Y002011D02*X009853Y002015D01*X010128Y001684D02*
X009699Y001699D01*X009806Y001696D02*X010013Y001474D01*
X009692Y001485D02*X009858Y00164D01*X009738Y002806D02*X010166Y002791D01*
X009924Y003014D01*X009914Y002728D01*X010159Y002577D02*
X010149Y002291D01*X009728Y00252D01*X010062Y001865D02*X010136Y001934D01*
X010141Y002077D01*X010072Y002151D01*X009787Y002161D01*
X009713Y002092D01*X009708Y001949D01*X009777Y001875D01*
X010062Y001865D01*X009996Y002011D02*X009853Y002015D01*
X010128Y001684D02*X009699Y001699D01*X009806Y001696D02*
X010013Y001474D01*X009692Y001485D02*X009858Y00164D01*X017992Y005556D02*
X018219Y00592D01*X017905Y005821D01*X018147Y00567D01*X018401Y005806D02*
X018643Y005655D01*X018234Y005405D01*X018968Y005367D02*
X018946Y005465D01*X018825Y005541D01*X018726Y005518D01*
X018575Y005276D01*X018597Y005178D01*X018719Y005102D01*
X018817Y005125D01*X018968Y005367D01*X018809Y005382D02*
X018734Y005261D01*X019158Y005333D02*X018931Y004969D01*X018987Y00506D02*
X019283Y005129D01*X019112Y004856D02*X019061Y005077D01*
X017992Y005556D02*X018219Y00592D01*X017905Y005821D01*X018147Y00567D01*
X018401Y005806D02*X018643Y005655D01*X018234Y005405D01*
X018968Y005367D02*X018946Y005465D01*X018825Y005541D01*
X018726Y005518D01*X018575Y005276D01*X018597Y005178D01*
X018719Y005102D01*X018817Y005125D01*X018968Y005367D01*
X018809Y005382D02*X018734Y005261D01*X019158Y005333D02*
X018931Y004969D01*X018987Y00506D02*X019283Y005129D01*X019112Y004856D02*
X019061Y005077D01*X019981Y013816D02*X019779Y014195D01*
X019708Y013874D01*X01996Y014008D01*X019969Y014295D02*X020221Y01443D01*
X020233Y013951D01*X020633Y014568D02*X020536Y014597D01*X02041Y01453D01*
X020381Y014434D01*X020515Y014181D01*X020611Y014152D01*
X020737Y014219D01*X020767Y014315D01*X020633Y014568D01*X02054Y014438D02*
X020607Y014311D01*X020757Y014715D02*X020958Y014336D01*
X020908Y014431D02*X020996Y014721D01*X021147Y014437D02*X02093Y014503D01*
X019981Y013816D02*X019779Y014195D01*X019708Y013874D01*X01996Y014008D01*
X019969Y014295D02*X020221Y01443D01*X020233Y013951D01*X020633Y014568D02*
X020536Y014597D01*X02041Y01453D01*X020381Y014434D01*X020515Y014181D01*
X020611Y014152D01*X020737Y014219D01*X020767Y014315D01*
X020633Y014568D01*X02054Y014438D02*X020607Y014311D01*X020757Y014715D02*
X020958Y014336D01*X020908Y014431D02*X020996Y014721D01*
X021147Y014437D02*X02093Y014503D01*X013443Y019476D02*X013015Y01949D01*
X013257Y019268D01*X013267Y019553D01*X013022Y019705D02*X013032Y01999D01*
X013453Y019761D01*X013118Y020416D02*X013045Y020347D01*X01304Y020204D01*
X013108Y02013D01*X013394Y02012D01*X013468Y020189D01*X013473Y020332D01*
X013404Y020406D01*X013118Y020416D01*X013185Y020271D02*
X013328Y020266D01*X013053Y020597D02*X013482Y020582D01*
X013374Y020586D02*X013168Y020807D01*X013489Y020796D02*
X013323Y020641D01*X013443Y019476D02*X013015Y01949D01*X013257Y019268D01*
X013267Y019553D01*X013022Y019705D02*X013032Y01999D01*X013453Y019761D01*
X013118Y020416D02*X013045Y020347D01*X01304Y020204D01*X013108Y02013D01*
X013394Y02012D01*X013468Y020189D01*X013473Y020332D01*X013404Y020406D01*
X013118Y020416D01*X013185Y020271D02*X013328Y020266D01*
X013053Y020597D02*X013482Y020582D01*X013374Y020586D02*
X013168Y020807D01*X013489Y020796D02*X013323Y020641D01*
X005627Y016993D02*X005363Y016656D01*X005686Y016721D01*
X005461Y016896D01*X005195Y016787D02*X004969Y016963D01*
X005402Y017169D01*X004676Y017283D02*X004688Y017183D01*
X004801Y017095D01*X004901Y017108D01*X005077Y017333D01*
X005064Y017433D01*X004952Y017521D01*X004852Y017509D01*
X004676Y017283D01*X004832Y017252D02*X00492Y017364D01*X004491Y017337D02*
X004755Y017675D01*X004689Y01759D02*X004388Y017553D01*X004586Y017807D02*
X004614Y017581D01*X005627Y016993D02*X005363Y016656D01*
X005686Y016721D01*X005461Y016896D01*X005195Y016787D02*
X004969Y016963D01*X005402Y017169D01*X004676Y017283D02*
X004688Y017183D01*X004801Y017095D01*X004901Y017108D01*
X005077Y017333D01*X005064Y017433D01*X004952Y017521D01*
X004852Y017509D01*X004676Y017283D01*X004832Y017252D02*X00492Y017364D01*
X004491Y017337D02*X004755Y017675D01*X004689Y01759D02*X004388Y017553D01*
X004586Y017807D02*X004614Y017581D01*X003163Y008405D02*
X003364Y008027D01*X003436Y008348D01*X003184Y008214D01*
X003175Y007926D02*X002923Y007792D01*X002911Y008271D01*
X002511Y007654D02*X002607Y007624D01*X002733Y007691D01*
X002763Y007788D01*X002629Y00804D01*X002532Y00807D01*X002406Y008003D01*
X002376Y007906D01*X002511Y007654D01*X002603Y007784D02*X002536Y00791D01*
X002386Y007507D02*X002185Y007885D01*X002236Y007791D02*
X002147Y007501D01*X001996Y007785D02*X002213Y007718D01*
X011623Y002787D02*X0117Y00272D01*X01171Y002578D01*X011643Y002502D01*
X011572Y002497D01*X011496Y002563D01*X011338Y002767D01*
X011267Y002762D01*X011287Y002477D01*X011653Y002359D02*X01173Y002293D01*
X01174Y00215D01*X011673Y002074D01*X011602Y002069D01*X011526Y002135D01*
X011368Y002339D01*X011297Y002334D01*X011317Y002049D01*
X011757Y001901D02*X011329Y001871D01*X011436Y001879D02*X011665Y00168D01*
X011344Y001657D02*X011493Y001829D01*X011623Y002787D02*X0117Y00272D01*
X01171Y002578D01*X011643Y002502D01*X011572Y002497D01*X011496Y002563D01*
X011338Y002767D01*X011267Y002762D01*X011287Y002477D01*
X011653Y002359D02*X01173Y002293D01*X01174Y00215D01*X011673Y002074D01*
X011602Y002069D01*X011526Y002135D01*X011368Y002339D01*
X011297Y002334D01*X011317Y002049D01*X011757Y001901D02*
X011329Y001871D01*X011436Y001879D02*X011665Y00168D01*X011344Y001657D02*
X011493Y001829D01*X018951Y00718D02*X019046Y007212D01*X019175Y00715D01*
X019208Y007054D01*X019176Y00699D01*X019081Y006957D01*X018826Y006923D01*
X018794Y006859D01*X019051Y006733D01*X019336Y006992D02*
X019432Y007025D01*X01956Y006962D01*X019593Y006866D01*X019562Y006802D01*
X019466Y006769D01*X019211Y006735D01*X01918Y006671D01*X019436Y006545D01*
X019785Y006852D02*X019597Y006467D01*X019644Y006564D02*X01993Y006662D01*
X019789Y006373D02*X019715Y006588D01*X018951Y00718D02*X019046Y007212D01*
X019175Y00715D01*X019208Y007054D01*X019176Y00699D01*X019081Y006957D01*
X018826Y006923D01*X018794Y006859D01*X019051Y006733D01*
X019336Y006992D02*X019432Y007025D01*X01956Y006962D01*X019593Y006866D01*
X019562Y006802D01*X019466Y006769D01*X019211Y006735D01*X01918Y006671D01*
X019436Y006545D01*X019785Y006852D02*X019597Y006467D01*
X019644Y006564D02*X01993Y006662D01*X019789Y006373D02*X019715Y006588D01*
X019054Y015459D02*X019074Y015558D01*X019192Y015638D01*
X019291Y015619D01*X019331Y015559D01*X019312Y01546D01*X019214Y015222D01*
X019254Y015163D01*X019491Y015323D01*X01941Y015699D02*X019429Y015798D01*
X019547Y015878D01*X019646Y015858D01*X019686Y015799D01*X019667Y0157D01*
X019569Y015462D01*X019609Y015402D01*X019846Y015562D01*
X019755Y016017D02*X019994Y015662D01*X019934Y015751D02*
X019992Y016048D01*X020172Y015782D02*X019949Y015825D01*
X019054Y015459D02*X019074Y015558D01*X019192Y015638D01*
X019291Y015619D01*X019331Y015559D01*X019312Y01546D01*X019214Y015222D01*
X019254Y015163D01*X019491Y015323D01*X01941Y015699D02*X019429Y015798D01*
X019547Y015878D01*X019646Y015858D01*X019686Y015799D01*X019667Y0157D01*
X019569Y015462D01*X019609Y015402D01*X019846Y015562D01*
X019755Y016017D02*X019994Y015662D01*X019934Y015751D02*
X019992Y016048D01*X020172Y015782D02*X019949Y015825D01*
X011557Y019495D02*X011481Y019561D01*X011471Y019703D01*X011537Y01978D01*
X011609Y019785D01*X011685Y019718D01*X011842Y019514D01*
X011914Y019519D01*X011894Y019804D01*X011527Y019922D02*
X011451Y019988D01*X011441Y020131D01*X011508Y020207D01*
X011579Y020212D01*X011655Y020146D01*X011812Y019942D01*
X011884Y019947D01*X011864Y020232D01*X011424Y02038D02*X011851Y02041D01*
X011744Y020403D02*X011516Y020601D01*X011836Y020624D02*
X011687Y020452D01*X011557Y019495D02*X011481Y019561D01*
X011471Y019703D01*X011537Y01978D01*X011609Y019785D01*X011685Y019718D01*
X011842Y019514D01*X011914Y019519D01*X011894Y019804D01*
X011527Y019922D02*X011451Y019988D01*X011441Y020131D01*
X011508Y020207D01*X011579Y020212D01*X011655Y020146D01*
X011812Y019942D01*X011884Y019947D01*X011864Y020232D01*X011424Y02038D02*
X011851Y02041D01*X011744Y020403D02*X011516Y020601D01*X011836Y020624D02*
X011687Y020452D01*X00488Y015358D02*X00478Y01534D01*X004663Y015422D01*
X004646Y015521D01*X004687Y01558D01*X004786Y015598D01*X005044Y015592D01*
X005085Y01565D01*X004851Y015814D01*X004529Y015603D02*X004429Y015586D01*
X004312Y015668D01*X004295Y015767D01*X004336Y015826D01*
X004435Y015843D01*X004693Y015837D01*X004734Y015896D01*X0045Y01606D01*
X004107Y015811D02*X004353Y016162D01*X004292Y016074D02*
X003993Y016022D01*X004178Y016285D02*X004217Y016061D01*X00488Y015358D02*
X00478Y01534D01*X004663Y015422D01*X004646Y015521D01*X004687Y01558D01*
X004786Y015598D01*X005044Y015592D01*X005085Y01565D01*X004851Y015814D01*
X004529Y015603D02*X004429Y015586D01*X004312Y015668D01*
X004295Y015767D01*X004336Y015826D01*X004435Y015843D01*
X004693Y015837D01*X004734Y015896D01*X0045Y01606D01*X004107Y015811D02*
X004353Y016162D01*X004292Y016074D02*X003993Y016022D01*
X004178Y016285D02*X004217Y016061D01*X004089Y006763D02*X00407Y006663D01*
X003951Y006584D01*X003852Y006603D01*X003812Y006662D01*
X003832Y006761D01*X003929Y007D01*X003889Y007059D01*X003653Y006899D01*
X003734Y006523D02*X003715Y006424D01*X003596Y006344D01*
X003497Y006363D01*X003457Y006422D01*X003476Y006522D01*X003574Y00676D01*
X003534Y006819D01*X003297Y006659D01*X003389Y006204D02*
X003149Y006559D01*X003209Y006471D02*X003151Y006173D01*X002972Y00644D02*
X003195Y006396D01*
M02*