M48
FMAT,2
INCH,LZ
T1C0.0280
T2C0.0400
%
T1
X006294Y008586
X006018Y009548
X005742Y010509
X011146Y005608
X010176Y00585
X009206Y006092
X011146Y005608
X010176Y00585
X009206Y006092
X016269Y008177
X015575Y007458
X01488Y006738
X016269Y008177
X015575Y007458
X01488Y006738
X01685Y013635
X017125Y012674
X017401Y011713
X01685Y013635
X017125Y012674
X017401Y011713
X012034Y016674
X013005Y016432
X013975Y01619
X012034Y016674
X013005Y016432
X013975Y01619
X007309Y014009
X008004Y014729
X008699Y015448
X007309Y014009
X008004Y014729
X008699Y015448
X006294Y008586
X006018Y009548
X005742Y010509
X002223Y005633
X00471Y007311
X001546Y007262
X004195Y008671
X009919Y000834
X010024Y003832
X009919Y000834
X010024Y003832
X01979Y004727
X017246Y006317
X01979Y004727
X017246Y006317
X021598Y014959
X018949Y013551
X021598Y014959
X018949Y013551
X013262Y021447
X013157Y018449
X013262Y021447
X013157Y018449
X003925Y018006
X00629Y016159
X003925Y018006
X00629Y016159
X001546Y007262
X004195Y008671
X011668Y000606
X011459Y003599
X011668Y000606
X011459Y003599
X020862Y006128
X018166Y007443
X020862Y006128
X018166Y007443
X02092Y016588
X018433Y014911
X02092Y016588
X018433Y014911
X011512Y021675
X011722Y018683
X011512Y021675
X011722Y018683
X003157Y016695
X005614Y014974
X003157Y016695
X005614Y014974
X002223Y005633
X00471Y007311
X007326Y007039
X00952Y009085
X013002Y005728
X012328Y008652
X013002Y005728
X012328Y008652
X017093Y009845
X014224Y010722
X017093Y009845
X014224Y010722
X015817Y015182
X013623Y013136
X015817Y015182
X013623Y013136
X010178Y016553
X010853Y01363
X010178Y016553
X010853Y01363
X006486Y012342
X009355Y011464
X006486Y012342
X009355Y011464
X007326Y007039
X00952Y009085
X0135Y003
X0135Y004
X0135Y003
X0135Y004
X001428Y011678
X00148Y008679
X001428Y011678
X00148Y008679
T2
X003739Y010843
X007914Y004524
X007914Y004524
X015592Y004836
X015592Y004836
X019404Y011378
X019404Y011378
X015266Y017757
X015266Y017757
X007987Y01735
X007987Y01735
X003739Y010843
X004338Y01334
X00174Y01484
X004338Y01334
X00174Y01484
M30
