<?xml version="1.0" encoding="UTF-8"?>
<svg id="Layer_2" data-name="Layer 2" xmlns="http://www.w3.org/2000/svg" viewBox="0 0 302 324">
  <defs>
    <style>
      .cls-1 {
        fill: #fff;
      }
    </style>
  </defs>
  <g id="Layer_1-2" data-name="Layer 1">
    <g>
      <path class="cls-1" d="M302,0v324H0V0h302ZM134.78,19.28C21.85,29.83-34.05,166.66,39.03,254.47c89.67,107.75,263.54,38.62,254.96-100.96-5.06-82.25-77.51-141.87-159.21-134.23Z"/>
      <path d="M134.78,19.28c81.71-7.64,154.16,51.99,159.21,134.23,8.58,139.58-165.29,208.71-254.96,100.96C-34.05,166.66,21.85,29.83,134.78,19.28ZM137.8,45.3c-54.63,4.84-102.25,54.64-105.79,109.21-6.66,102.86,115.19,165.63,194.46,98.46,88.13-74.67,27.03-217.92-88.67-207.67Z"/>
      <path class="cls-1" d="M137.8,45.3c115.7-10.25,176.8,133,88.67,207.67-79.27,67.17-201.12,4.4-194.46-98.46,3.53-54.57,51.16-104.37,105.79-109.21ZM85,186c8.71,71.73,107.46,74.46,132.48,10.98,17-43.12-3.19-100.34-52.24-108.73-40.44-6.92-72.26,13.21-79.73,53.76-1.93,2.31-9.81-.53-8.51,2.47l24.45,24.57,2.84.83,25.69-25.41c1.24-2.97-7.31-.78-8-1.48-.58-26.79,38.33-33.8,53.98-16.48,18.31,20.26,13.95,83.02-20.49,85.46-17.6,1.24-33.84-6.74-34.49-25.98h-36Z"/>
      <path d="M85,186h36c.65,19.23,16.89,27.22,34.49,25.98,34.44-2.44,38.8-65.2,20.49-85.46-15.65-17.32-54.57-10.31-53.98,16.48.69.7,9.24-1.48,8,1.48l-25.69,25.41-2.84-.83-24.45-24.57c-1.3-3,6.58-.16,8.51-2.47,7.47-40.55,39.29-60.68,79.73-53.76,49.05,8.39,69.24,65.61,52.24,108.73-25.03,63.48-123.77,60.74-132.48-10.98Z"/>
    </g>
  </g>
</svg>