%FSTAX24Y24*%
%MOIN*%
%IN 4oror.topsilkscreen.ger *%
%ADD10C,0.0050*%
%ADD11C,0.0071*%
%ADD12C,0.0100*%
%ADD13C,0.0200*%
%ADD14C,0.0300*%
D10*X011355Y000717D02*G01X011205Y000867D01*X015305Y000717D02*
X015155Y000867D01*X011355Y001067D02*X011255Y001167D01*
X011655Y000417D02*X011555Y000517D01*X011905Y000917D02*
X011805Y001017D01*X013305Y000417D02*X013205Y000517D01*
X015305Y001067D02*X015205Y001167D01*X015605Y000417D02*
X015505Y000517D01*X015855Y000917D02*X015755Y001017D01*
X011055Y000417D02*X011005Y000467D01*X011155Y000867D02*
X011105Y000917D01*X011255Y001017D02*X011205Y001067D01*
X011255Y000717D02*X011205Y000767D01*X011305Y000867D02*
X011255Y000917D01*X011305Y000417D02*X011255Y000467D01*
X011655Y000917D02*X011605Y000967D01*X011705D02*X011655Y001017D01*
X011705Y000467D02*X011655Y000517D01*X011805Y000917D02*
X011755Y000967D01*X011805Y000417D02*X011755Y000467D01*X011855D02*
X011805Y000517D01*X012105Y000417D02*X012055Y000467D01*
X012155Y001117D02*X012105Y001167D01*X012355Y000417D02*
X012305Y000467D01*X012405Y001117D02*X012355Y001167D01*
X012555Y000967D02*X012505Y001017D01*X012555Y000417D02*
X012505Y000467D01*X012655D02*X012605Y000517D01*X012705Y000917D02*
X012655Y000967D01*X012805D02*X012755Y001017D01*X012805Y000417D02*
X012755Y000467D01*X012905Y000667D02*X012855Y000717D01*X013105D02*
X013055Y000767D01*X013255Y000817D02*X013205Y000867D01*
X013305Y000617D02*X013255Y000667D01*X013355Y000917D02*
X013305Y000967D01*X013355Y000467D02*X013305Y000517D01*
X013455Y000867D02*X013405Y000917D01*X013455Y000417D02*
X013405Y000467D01*X013505D02*X013455Y000517D01*X013555Y001117D02*
X013505Y001167D01*X013555Y000917D02*X013505Y000967D01*
X013805Y000767D02*X013755Y000817D01*X013805Y000417D02*
X013755Y000467D01*X013855Y000817D02*X013805Y000867D01*
X013855Y000467D02*X013805Y000517D01*X014155Y000567D02*
X014105Y000617D01*X014255Y000667D02*X014205Y000717D01*
X014355Y000917D02*X014305Y000967D01*X014355Y000517D02*
X014305Y000567D01*X014405Y000417D02*X014355Y000467D01*
X014455Y001117D02*X014405Y001167D01*X014505Y000667D02*
X014455Y000717D01*X014655Y000667D02*X014605Y000717D01*X014855D02*
X014805Y000767D01*X015005Y000417D02*X014955Y000467D01*
X015105Y000867D02*X015055Y000917D01*X015205Y001017D02*
X015155Y001067D01*X015205Y000717D02*X015155Y000767D01*
X015255Y000867D02*X015205Y000917D01*X015255Y000417D02*
X015205Y000467D01*X015605Y000917D02*X015555Y000967D01*X015655D02*
X015605Y001017D01*X015655Y000467D02*X015605Y000517D01*
X015755Y000917D02*X015705Y000967D01*X015755Y000417D02*
X015705Y000467D01*X015805D02*X015755Y000517D01*X016055Y000417D02*
X016005Y000467D01*X016105Y001117D02*X016055Y001167D01*
X016305Y000417D02*X016255Y000467D01*X016355Y001117D02*
X016305Y001167D01*X011055D02*X011005Y001117D01*X011105Y000467D02*
X011055Y000417D01*X011155Y001067D02*X011105Y001017D01*
X011155Y000767D02*X011105Y000717D01*X011255Y000917D02*
X011205Y000867D01*X011305Y000767D02*X011255Y000717D01*
X011355Y000917D02*X011205Y000767D01*X011355Y000467D02*
X011305Y000417D01*X011655Y001017D02*X011555Y000917D01*
X011655Y000517D02*X011605Y000467D01*X011705Y000967D02*
X011655Y000917D01*X011705Y000467D02*X011655Y000417D01*
X011805Y001017D02*X011755Y000967D01*X011805Y000517D02*
X011755Y000467D01*X011855Y000967D02*X011805Y000917D01*
X011905Y000517D02*X011805Y000417D01*X012105Y001167D02*
X012055Y001117D01*X012155Y000467D02*X012105Y000417D01*
X012355Y001167D02*X012305Y001117D01*X012405Y000467D02*
X012355Y000417D01*X012555Y001017D02*X012505Y000967D01*
X012555Y000567D02*X012505Y000517D01*X012605Y000667D02*
X012555Y000617D01*X012655Y000817D02*X012605Y000767D01*
X012655Y000567D02*X012605Y000517D01*X012705Y000917D02*
X012655Y000867D01*X012705Y000667D02*X012655Y000617D01*
X012755Y000767D02*X012705Y000717D01*X012805Y000917D02*
X012755Y000867D01*X012805Y000467D02*X012755Y000417D01*
X012905Y000767D02*X012855Y000717D01*X013105D02*X013055Y000667D01*
X013255Y001167D02*X013205Y001117D01*X013255Y000667D02*
X013205Y000617D01*X013305Y000517D02*X013255Y000467D01*
X013355Y001117D02*X013305Y001067D01*X013355Y000917D02*
X013255Y000817D01*X013355Y000467D02*X013305Y000417D01*
X013405Y000967D02*X013355Y000917D01*X013455Y000517D02*
X013405Y000467D01*X013555Y001167D02*X013505Y001117D01*
X013555Y000517D02*X013455Y000417D01*X013805Y000867D02*
X013755Y000817D01*X013805Y000517D02*X013755Y000467D01*
X013855Y000817D02*X013805Y000767D01*X013855Y000467D02*
X013805Y000417D01*X014155Y000767D02*X014105Y000717D01*
X014205Y000917D02*X014155Y000867D01*X014255Y001067D02*
X014205Y001017D01*X014255Y000817D02*X014205Y000767D01*
X014305Y001167D02*X014255Y001117D01*X014305Y000967D02*
X014255Y000917D01*X014355Y000717D02*X014305Y000667D01*
X014455Y000467D02*X014405Y000417D01*X014505Y000567D02*
X014455Y000517D01*X014655Y000767D02*X014605Y000717D01*X014855D02*
X014805Y000667D01*X015005Y001167D02*X014955Y001117D01*
X015055Y000467D02*X015005Y000417D01*X015105Y001067D02*
X015055Y001017D01*X015105Y000767D02*X015055Y000717D01*
X015205Y000917D02*X015155Y000867D01*X015255Y000767D02*
X015205Y000717D01*X015305Y000917D02*X015155Y000767D01*
X015305Y000467D02*X015255Y000417D01*X015605Y001017D02*
X015505Y000917D01*X015605Y000517D02*X015555Y000467D01*
X015655Y000967D02*X015605Y000917D01*X015655Y000467D02*
X015605Y000417D01*X015755Y001017D02*X015705Y000967D01*
X015755Y000517D02*X015705Y000467D01*X015805Y000967D02*
X015755Y000917D01*X015855Y000517D02*X015755Y000417D01*
X016055Y001167D02*X016005Y001117D01*X016105Y000467D02*
X016055Y000417D01*X016305Y001167D02*X016255Y001117D01*
X016355Y000467D02*X016305Y000417D01*X016355Y001167D02*Y000417D01*
X016305Y001167D02*Y000417D01*X016255Y001167D02*Y000417D01*
X016105Y001167D02*Y000417D01*X016055Y001167D02*Y000417D01*
X016005Y001167D02*Y000417D01*X015205Y001167D02*Y000417D01*
X015055Y001167D02*Y000417D01*X015005Y001167D02*Y000417D01*
X014955Y001167D02*Y000417D01*X014455Y001167D02*Y000417D01*
X014405Y001167D02*Y000417D01*X014355Y001167D02*Y000417D01*
X012405Y001167D02*Y000417D01*X012355Y001167D02*Y000417D01*
X012305Y001167D02*Y000417D01*X012155Y001167D02*Y000417D01*
X012105Y001167D02*Y000417D01*X012055Y001167D02*Y000417D01*
X011255Y001167D02*Y000417D01*X011105Y001167D02*Y000417D01*
X011055Y001167D02*Y000417D01*X011005Y001167D02*Y000417D01*
X015755Y001017D02*Y000417D01*X015605Y001017D02*Y000417D01*
X011805Y001017D02*Y000417D01*X011655Y001017D02*Y000417D01*
X013455Y000967D02*Y000417D01*X015805Y000967D02*Y000467D01*
X015555Y000967D02*Y000467D01*X013505Y000967D02*Y000467D01*
X011855Y000967D02*Y000467D01*X011605Y000967D02*Y000467D01*
X014205Y001017D02*Y000567D01*X015855Y000917D02*Y000517D01*
X015505Y000917D02*Y000517D01*X014105Y000567D02*X014505D01*
X014105Y000617D02*X014505D01*X014105Y000667D02*X014505D01*
X013555Y000917D02*Y000517D01*X011905Y000917D02*Y000517D01*
X011555Y000917D02*Y000517D01*X015255Y000767D02*Y000417D01*
X014955Y000867D02*X015305D01*X014955Y001067D02*X015305D01*
X014255Y001167D02*Y000817D01*X013305Y001167D02*Y000817D01*
X013255Y001167D02*Y000817D01*X013205Y000917D02*X013555D01*
X013205Y001117D02*X013555D01*X013205Y001167D02*Y000817D01*Y001167D02*
X013555D01*X012705Y001017D02*Y000667D01*X012605Y000767D02*Y000417D01*
X011305Y000767D02*Y000417D01*X011005Y000867D02*X011355D01*
X011005Y001067D02*X011355D01*X015305Y000717D02*Y000417D01*
X015255Y001167D02*Y000867D01*X014955Y000767D02*X015255D01*
X014955Y001117D02*X015255D01*X014955Y001167D02*X015255D01*
X014155Y000867D02*Y000567D01*X012655Y000867D02*Y000567D01*
X012505Y000417D02*X012805D01*X012505Y000467D02*X012805D01*
X012505Y000967D02*X012805D01*X012505Y001017D02*X012805D01*
X011355Y000717D02*Y000417D01*X011305Y001167D02*Y000867D01*
X011005Y000767D02*X011305D01*X011005Y001117D02*X011305D01*
X011005Y001167D02*X011305D01*X015555Y000467D02*X015805D01*
X015555Y000967D02*X015805D01*X014955Y000817D02*X015205D01*
X014605Y000667D02*X014855D01*X014605Y000717D02*X014855D01*
X014605Y000767D02*X014855D01*X014205Y000967D02*X014455D01*
X014205Y001017D02*X014455D01*X013305Y000667D02*Y000417D01*
X013255Y000467D02*X013505D01*X012855Y000667D02*X013105D01*
X012855Y000717D02*X013105D01*X012855Y000767D02*X013105D01*
X012755Y001017D02*Y000767D01*X011605Y000467D02*X011855D01*
X011605Y000967D02*X011855D01*X011005Y000817D02*X011255D01*
X015305Y001067D02*Y000867D01*X014305Y001167D02*Y000967D01*
X013255Y000667D02*Y000467D01*X012555Y000617D02*Y000417D01*
X011355Y001067D02*Y000867D01*X015605Y000417D02*X015755D01*
X015605Y001017D02*X015755D01*X014105Y000717D02*Y000567D01*
X013305Y000417D02*X013455D01*X013205Y000667D02*Y000517D01*
X011655Y000417D02*X011805D01*X011655Y001017D02*X011805D01*
X013855Y000517D02*Y000417D01*Y000867D02*Y000767D01*X013805Y000517D02*
Y000417D01*Y000867D02*Y000767D01*X013755Y000417D02*X013855D01*
X013755Y000467D02*X013855D01*X013755Y000517D02*Y000417D01*Y000767D02*
X013855D01*X013755Y000817D02*X013855D01*X013755Y000867D02*X013855D01*
X013405Y000967D02*X013505D01*X012805Y001017D02*Y000917D01*
X012505Y000517D02*X012605D01*D12*X00691Y011667D02*X006458Y01196D01*
X005936Y011987D01*X005456Y011743D01*X005163Y011291D01*
X005135Y010769D01*X005379Y010288D01*X005831Y009996D01*
X006121Y009839D01*X00728Y010883D01*X007154Y011187D01*X00691Y011667D01*
X005604Y011204D02*X005976Y011539D01*X004395Y006662D02*X004102Y00621D01*
X004075Y005687D01*X004319Y005207D01*X004771Y004914D01*
X005293Y004887D01*X005773Y005131D01*X006066Y005583D01*
X006223Y005872D01*X005179Y007031D01*X004875Y006906D01*
X004395Y006662D01*X004858Y005356D02*X004523Y005728D01*
X004395Y006662D02*X004102Y00621D01*X004075Y005687D01*X004319Y005207D01*
X004771Y004914D01*X005293Y004887D01*X005773Y005131D01*
X006066Y005583D01*X006223Y005872D01*X005179Y007031D01*
X004875Y006906D01*X004395Y006662D01*X004858Y005356D02*
X004523Y005728D01*X009633Y004281D02*X010085Y003988D01*
X010608Y003961D01*X011088Y004205D01*X011381Y004657D01*
X011408Y005179D01*X011164Y005659D01*X010712Y005952D01*
X010423Y006109D01*X009264Y005065D01*X009389Y004761D01*
X009633Y004281D01*X010939Y004744D02*X010568Y004409D01*
X009633Y004281D02*X010085Y003988D01*X010608Y003961D01*
X011088Y004205D01*X011381Y004657D01*X011408Y005179D01*
X011164Y005659D01*X010712Y005952D01*X010423Y006109D01*
X009264Y005065D01*X009389Y004761D01*X009633Y004281D01*
X010939Y004744D02*X010568Y004409D01*X01253Y009127D02*X012823Y009579D01*
X01285Y010102D01*X012606Y010582D01*X012154Y010875D01*X011632Y010902D01*
X011152Y010658D01*X010859Y010206D01*X010702Y009917D01*
X011746Y008758D01*X01205Y008883D01*X01253Y009127D01*X012068Y010433D02*
X012402Y010062D01*X01253Y009127D02*X012823Y009579D01*X01285Y010102D01*
X012606Y010582D01*X012154Y010875D01*X011632Y010902D01*
X011152Y010658D01*X010859Y010206D01*X010702Y009917D01*
X011746Y008758D01*X01205Y008883D01*X01253Y009127D01*X012068Y010433D02*
X012402Y010062D01*X00691Y011667D02*X006458Y01196D01*X005936Y011987D01*
X005456Y011743D01*X005163Y011291D01*X005135Y010769D01*
X005379Y010288D01*X005831Y009996D01*X006121Y009839D01*X00728Y010883D01*
X007154Y011187D01*X00691Y011667D01*X005604Y011204D02*X005976Y011539D01*
X003025Y010826D02*X003525Y011692D01*X001793Y012692D01*
X001293Y011826D01*X003025Y010826D01*X004006Y011958D02*
X004594Y012767D01*X002976Y013942D01*X002388Y013133D01*
X004006Y011958D01*X004104Y003758D02*X003295Y004345D01*
X002119Y002727D01*X002928Y00214D01*X004104Y003758D01*X003295Y004345D01*
X002119Y002727D01*X002928Y00214D01*X004104Y003758D01*X012538Y00399D02*
X01195Y003181D01*X013568Y002005D01*X014156Y002814D01*X012538Y00399D01*
X01195Y003181D01*X013568Y002005D01*X014156Y002814D01*X012538Y00399D01*
X012821Y012031D02*X01363Y011444D01*X014806Y013062D01*X013997Y013649D01*
X012821Y012031D01*X01363Y011444D01*X014806Y013062D01*X013997Y013649D01*
X012821Y012031D01*X004006Y011958D02*X004594Y012767D01*
X002976Y013942D01*X002388Y013133D01*X004006Y011958D01*
X005236Y002777D02*X00437Y003277D01*X00337Y001545D01*X004236Y001045D01*
X005236Y002777D01*X00437Y003277D01*X00337Y001545D01*X004236Y001045D01*
X005236Y002777D01*X013518Y005122D02*X013018Y004256D01*X01475Y003256D01*
X01525Y004122D01*X013518Y005122D01*X013018Y004256D01*X01475Y003256D01*
X01525Y004122D01*X013518Y005122D01*X011689Y013012D02*X012555Y012512D01*
X013555Y014244D01*X012689Y014744D01*X011689Y013012D01*
X012555Y012512D01*X013555Y014244D01*X012689Y014744D01*
X011689Y013012D01*X003025Y010826D02*X003525Y011692D01*
X001793Y012692D01*X001293Y011826D01*X003025Y010826D01*
X004505Y007584D02*X005439Y007226D01*X005628Y007174D01*
X005824Y007159D01*X006018Y007184D01*X006204Y007246D01*
X006375Y007342D01*X006523Y007471D01*X006643Y007626D01*
X006731Y007801D01*X006783Y00799D01*X006797Y008185D01*X006773Y00838D01*
X006711Y008566D01*X006614Y008736D01*X006486Y008885D01*
X006331Y009005D01*X006156Y009093D01*X004289Y009809D01*X0041Y009861D01*
X003904Y009876D01*X00371Y009851D01*X003523Y009789D01*X003353Y009693D01*
X003205Y009564D01*X003084Y009409D01*X002997Y009234D01*
X002945Y009045D01*X002931Y00885D01*X002955Y008655D01*X003017Y008469D01*
X003114Y008299D01*X003242Y00815D01*X003397Y00803D01*X003572Y007942D01*
X004505Y007584D01*X006085Y007513D02*X006212Y007483D01*
X006342Y007486D01*X006468Y007523D01*X006579Y007591D01*
X006669Y007686D01*X006731Y007801D01*X006761Y007928D01*
X006758Y008058D01*X006721Y008183D01*X006653Y008295D01*
X006558Y008384D01*X006443Y008447D01*X006316Y008477D01*
X006186Y008474D01*X006061Y008437D01*X005949Y008369D01*X00586Y008274D01*
X005797Y008159D01*X005767Y008032D01*X00577Y007902D01*X005807Y007777D01*
X005876Y007665D01*X00597Y007575D01*X006085Y007513D01*X00393Y008876D02*
X004397Y008697D01*X00472Y00884D01*X004864Y008517D01*X003876Y008361D02*
X00437Y008439D01*X004578Y008725D01*X004864Y008517D01*X004087Y007888D02*
X004475Y008203D01*X004512Y008554D01*X004864Y008517D01*
X004505Y007584D02*X004685Y008051D01*X004541Y008374D01*
X004864Y008517D01*X005222Y009451D02*X005043Y008984D01*
X005187Y008661D01*X004864Y008517D01*X004707Y009505D02*
X004786Y009011D01*X005072Y008804D01*X004864Y008517D01*
X004234Y009295D02*X004549Y008906D01*X004901Y008869D01*
X004864Y008517D01*X005797Y008159D02*X005331Y008338D01*
X005008Y008195D01*X004864Y008517D01*X005851Y008674D02*
X005358Y008596D01*X00515Y00831D01*X004864Y008517D01*X005641Y009147D02*
X005252Y008832D01*X005215Y008481D01*X004864Y008517D01*X00502Y00753D02*
X004942Y008024D01*X004656Y008231D01*X004864Y008517D01*X005493Y00774D02*
X005178Y008129D01*X004827Y008166D01*X004864Y008517D01*
X008478Y004257D02*X008836Y005191D01*X008888Y00538D01*X008902Y005575D01*
X008878Y00577D01*X008816Y005956D01*X008719Y006126D01*X008591Y006274D01*
X008436Y006395D01*X008261Y006482D01*X008072Y006534D01*
X007877Y006549D01*X007682Y006524D01*X007496Y006462D01*
X007326Y006366D01*X007177Y006237D01*X007057Y006083D01*
X006969Y005907D01*X006252Y00404D01*X0062Y003851D01*X006186Y003656D01*
X006211Y003461D01*X006272Y003275D01*X006369Y003105D01*
X006498Y002956D01*X006652Y002836D01*X006828Y002748D01*
X007017Y002696D01*X007212Y002682D01*X007407Y002706D01*
X007593Y002768D01*X007763Y002865D01*X007911Y002993D01*
X008032Y003148D01*X00812Y003323D01*X008478Y004257D01*X008549Y005837D02*
X008579Y005963D01*X008576Y006094D01*X008539Y006219D01*X00847Y00633D01*
X008376Y00642D01*X008261Y006482D01*X008134Y006513D01*X008004Y00651D01*
X007879Y006472D01*X007767Y006404D01*X007677Y00631D01*X007615Y006195D01*
X007585Y006068D01*X007588Y005937D01*X007625Y005812D01*
X007693Y005701D01*X007788Y005611D01*X007903Y005549D01*X00803Y005518D01*
X00816Y005522D01*X008285Y005559D01*X008397Y005627D01*X008486Y005722D01*
X008549Y005837D01*X007186Y003682D02*X007365Y004149D01*
X007221Y004472D01*X007544Y004615D01*X007701Y003628D02*
X007623Y004121D01*X007337Y004329D01*X007544Y004615D01*
X008174Y003838D02*X007859Y004227D01*X007507Y004264D01*
X007544Y004615D01*X008478Y004257D02*X008011Y004436D01*
X007688Y004292D01*X007544Y004615D01*X006611Y004974D02*
X007078Y004795D01*X007401Y004938D01*X007544Y004615D01*
X006557Y004459D02*X00705Y004537D01*X007258Y004823D01*X007544Y004615D01*
X006767Y003986D02*X007156Y004301D01*X007193Y004652D01*
X007544Y004615D01*X007903Y005549D02*X007724Y005082D01*
X007867Y004759D01*X007544Y004615D01*X007388Y005603D02*
X007466Y005109D01*X007752Y004901D01*X007544Y004615D01*
X006915Y005392D02*X00723Y005004D01*X007581Y004967D01*X007544Y004615D01*
X008532Y004772D02*X008038Y004694D01*X00783Y004408D01*X007544Y004615D01*
X008321Y005245D02*X007933Y00493D01*X007896Y004578D01*X007544Y004615D01*
X008478Y004257D02*X008836Y005191D01*X008888Y00538D01*X008902Y005575D01*
X008878Y00577D01*X008816Y005956D01*X008719Y006126D01*X008591Y006274D01*
X008436Y006395D01*X008261Y006482D01*X008072Y006534D01*
X007877Y006549D01*X007682Y006524D01*X007496Y006462D01*
X007326Y006366D01*X007177Y006237D01*X007057Y006083D01*
X006969Y005907D01*X006252Y00404D01*X0062Y003851D01*X006186Y003656D01*
X006211Y003461D01*X006272Y003275D01*X006369Y003105D01*
X006498Y002956D01*X006652Y002836D01*X006828Y002748D01*
X007017Y002696D01*X007212Y002682D01*X007407Y002706D01*
X007593Y002768D01*X007763Y002865D01*X007911Y002993D01*
X008032Y003148D01*X00812Y003323D01*X008478Y004257D01*X008549Y005837D02*
X008579Y005963D01*X008576Y006094D01*X008539Y006219D01*X00847Y00633D01*
X008376Y00642D01*X008261Y006482D01*X008134Y006513D01*X008004Y00651D01*
X007879Y006472D01*X007767Y006404D01*X007677Y00631D01*X007615Y006195D01*
X007585Y006068D01*X007588Y005937D01*X007625Y005812D01*
X007693Y005701D01*X007788Y005611D01*X007903Y005549D01*X00803Y005518D01*
X00816Y005522D01*X008285Y005559D01*X008397Y005627D01*X008486Y005722D01*
X008549Y005837D01*X007186Y003682D02*X007365Y004149D01*
X007221Y004472D01*X007544Y004615D01*X007701Y003628D02*
X007623Y004121D01*X007337Y004329D01*X007544Y004615D01*
X008174Y003838D02*X007859Y004227D01*X007507Y004264D01*
X007544Y004615D01*X008478Y004257D02*X008011Y004436D01*
X007688Y004292D01*X007544Y004615D01*X006611Y004974D02*
X007078Y004795D01*X007401Y004938D01*X007544Y004615D01*
X006557Y004459D02*X00705Y004537D01*X007258Y004823D01*X007544Y004615D01*
X006767Y003986D02*X007156Y004301D01*X007193Y004652D01*
X007544Y004615D01*X007903Y005549D02*X007724Y005082D01*
X007867Y004759D01*X007544Y004615D01*X007388Y005603D02*
X007466Y005109D01*X007752Y004901D01*X007544Y004615D01*
X006915Y005392D02*X00723Y005004D01*X007581Y004967D01*X007544Y004615D01*
X008532Y004772D02*X008038Y004694D01*X00783Y004408D01*X007544Y004615D01*
X008321Y005245D02*X007933Y00493D01*X007896Y004578D01*X007544Y004615D01*
X012038Y008364D02*X011105Y008722D01*X010916Y008774D01*X01072Y008788D01*
X010526Y008764D01*X01034Y008702D01*X010169Y008605D01*X010021Y008477D01*
X009901Y008322D01*X009813Y008147D01*X009761Y007958D01*
X009747Y007763D01*X009771Y007568D01*X009833Y007382D01*X00993Y007212D01*
X010058Y007063D01*X010213Y006943D01*X010388Y006855D01*
X012255Y006138D01*X012444Y006086D01*X01264Y006072D01*X012834Y006097D01*
X01302Y006158D01*X013191Y006255D01*X013339Y006384D01*X013459Y006538D01*
X013547Y006714D01*X013599Y006903D01*X013613Y007098D01*
X013589Y007293D01*X013527Y007479D01*X01343Y007649D01*X013302Y007797D01*
X013147Y007918D01*X012972Y008006D01*X012038Y008364D01*
X010459Y008435D02*X010332Y008465D01*X010201Y008462D01*
X010076Y008425D01*X009965Y008356D01*X009875Y008262D01*
X009813Y008147D01*X009782Y00802D01*X009786Y00789D01*X009823Y007765D01*
X009891Y007653D01*X009986Y007563D01*X0101Y007501D01*X010227Y007471D01*
X010358Y007474D01*X010483Y007511D01*X010594Y007579D01*
X010684Y007674D01*X010746Y007789D01*X010777Y007916D01*
X010773Y008046D01*X010736Y008171D01*X010668Y008283D01*
X010573Y008372D01*X010459Y008435D01*X012613Y007072D02*
X012147Y007251D01*X011824Y007107D01*X01168Y00743D01*X012668Y007587D02*
X012174Y007509D01*X011966Y007223D01*X01168Y00743D01*X012457Y00806D02*
X012068Y007745D01*X012031Y007393D01*X01168Y00743D01*X012038Y008364D02*
X011859Y007897D01*X012003Y007574D01*X01168Y00743D01*X011321Y006497D02*
X011501Y006964D01*X011357Y007287D01*X01168Y00743D01*X011836Y006443D02*
X011758Y006937D01*X011472Y007144D01*X01168Y00743D01*X012309Y006653D02*
X011994Y007042D01*X011643Y007079D01*X01168Y00743D01*X010746Y007789D02*
X011213Y00761D01*X011536Y007753D01*X01168Y00743D01*X010692Y007274D02*
X011186Y007352D01*X011394Y007638D01*X01168Y00743D01*X010903Y006801D02*
X011291Y007116D01*X011328Y007467D01*X01168Y00743D01*X011523Y008418D02*
X011602Y007924D01*X011888Y007716D01*X01168Y00743D01*X011051Y008208D02*
X011365Y007819D01*X011717Y007782D01*X01168Y00743D01*X012038Y008364D02*
X011105Y008722D01*X010916Y008774D01*X01072Y008788D01*X010526Y008764D01*
X01034Y008702D01*X010169Y008605D01*X010021Y008477D01*X009901Y008322D01*
X009813Y008147D01*X009761Y007958D01*X009747Y007763D01*
X009771Y007568D01*X009833Y007382D01*X00993Y007212D01*X010058Y007063D01*
X010213Y006943D01*X010388Y006855D01*X012255Y006138D01*
X012444Y006086D01*X01264Y006072D01*X012834Y006097D01*X01302Y006158D01*
X013191Y006255D01*X013339Y006384D01*X013459Y006538D01*
X013547Y006714D01*X013599Y006903D01*X013613Y007098D01*
X013589Y007293D01*X013527Y007479D01*X01343Y007649D01*X013302Y007797D01*
X013147Y007918D01*X012972Y008006D01*X012038Y008364D01*
X010459Y008435D02*X010332Y008465D01*X010201Y008462D01*
X010076Y008425D01*X009965Y008356D01*X009875Y008262D01*
X009813Y008147D01*X009782Y00802D01*X009786Y00789D01*X009823Y007765D01*
X009891Y007653D01*X009986Y007563D01*X0101Y007501D01*X010227Y007471D01*
X010358Y007474D01*X010483Y007511D01*X010594Y007579D01*
X010684Y007674D01*X010746Y007789D01*X010777Y007916D01*
X010773Y008046D01*X010736Y008171D01*X010668Y008283D01*
X010573Y008372D01*X010459Y008435D01*X012613Y007072D02*
X012147Y007251D01*X011824Y007107D01*X01168Y00743D01*X012668Y007587D02*
X012174Y007509D01*X011966Y007223D01*X01168Y00743D01*X012457Y00806D02*
X012068Y007745D01*X012031Y007393D01*X01168Y00743D01*X012038Y008364D02*
X011859Y007897D01*X012003Y007574D01*X01168Y00743D01*X011321Y006497D02*
X011501Y006964D01*X011357Y007287D01*X01168Y00743D01*X011836Y006443D02*
X011758Y006937D01*X011472Y007144D01*X01168Y00743D01*X012309Y006653D02*
X011994Y007042D01*X011643Y007079D01*X01168Y00743D01*X010746Y007789D02*
X011213Y00761D01*X011536Y007753D01*X01168Y00743D01*X010692Y007274D02*
X011186Y007352D01*X011394Y007638D01*X01168Y00743D01*X010903Y006801D02*
X011291Y007116D01*X011328Y007467D01*X01168Y00743D01*X011523Y008418D02*
X011602Y007924D01*X011888Y007716D01*X01168Y00743D01*X011051Y008208D02*
X011365Y007819D01*X011717Y007782D01*X01168Y00743D01*X008447Y011532D02*
X008089Y010599D01*X008037Y01041D01*X008023Y010214D01*X008047Y010019D01*
X008109Y009833D01*X008206Y009663D01*X008334Y009515D01*
X008489Y009394D01*X008664Y009307D01*X008853Y009255D01*X009049Y00924D01*
X009243Y009265D01*X009429Y009327D01*X0096Y009424D01*X009748Y009552D01*
X009868Y009707D01*X009956Y009882D01*X010673Y011749D01*
X010725Y011938D01*X010739Y012133D01*X010715Y012328D01*
X010653Y012514D01*X010556Y012684D01*X010428Y012833D01*
X010273Y012953D01*X010098Y013041D01*X009909Y013093D01*
X009713Y013107D01*X009518Y013083D01*X009332Y013021D01*
X009162Y012924D01*X009014Y012796D01*X008893Y012641D01*
X008806Y012466D01*X008447Y011532D01*X008376Y009953D02*
X008346Y009826D01*X008349Y009695D01*X008386Y00957D01*X008455Y009459D01*
X008549Y009369D01*X008664Y009307D01*X008791Y009276D01*X008921Y00928D01*
X009047Y009317D01*X009158Y009385D01*X009248Y009479D01*X00931Y009594D01*
X009341Y009721D01*X009337Y009852D01*X0093Y009977D01*X009232Y010088D01*
X009137Y010178D01*X009022Y01024D01*X008896Y010271D01*X008765Y010267D01*
X00864Y01023D01*X008529Y010162D01*X008439Y010067D01*X008376Y009953D01*
X009739Y012107D02*X00956Y011641D01*X009704Y011318D01*X009381Y011174D01*
X009224Y012161D02*X009303Y011668D01*X009589Y01146D01*X009381Y011174D01*
X008751Y011951D02*X009066Y011562D01*X009418Y011525D01*
X009381Y011174D01*X008447Y011532D02*X008914Y011353D01*
X009237Y011497D01*X009381Y011174D01*X010314Y010815D02*
X009848Y010995D01*X009525Y010851D01*X009381Y011174D01*X010368Y01133D02*
X009875Y011252D01*X009667Y010966D01*X009381Y011174D01*
X010158Y011803D02*X009769Y011488D01*X009732Y011137D01*
X009381Y011174D01*X009022Y01024D02*X009202Y010707D01*X009058Y01103D01*
X009381Y011174D01*X009537Y010186D02*X009459Y01068D01*X009173Y010888D01*
X009381Y011174D01*X01001Y010397D02*X009695Y010785D01*X009344Y010822D01*
X009381Y011174D01*X008393Y011017D02*X008887Y011096D01*
X009095Y011382D01*X009381Y011174D01*X008604Y010544D02*
X008992Y010859D01*X009029Y011211D01*X009381Y011174D01*
X008447Y011532D02*X008089Y010599D01*X008037Y01041D01*X008023Y010214D01*
X008047Y010019D01*X008109Y009833D01*X008206Y009663D01*
X008334Y009515D01*X008489Y009394D01*X008664Y009307D01*
X008853Y009255D01*X009049Y00924D01*X009243Y009265D01*X009429Y009327D01*
X0096Y009424D01*X009748Y009552D01*X009868Y009707D01*X009956Y009882D01*
X010673Y011749D01*X010725Y011938D01*X010739Y012133D01*
X010715Y012328D01*X010653Y012514D01*X010556Y012684D01*
X010428Y012833D01*X010273Y012953D01*X010098Y013041D01*
X009909Y013093D01*X009713Y013107D01*X009518Y013083D01*
X009332Y013021D01*X009162Y012924D01*X009014Y012796D01*
X008893Y012641D01*X008806Y012466D01*X008447Y011532D01*
X008376Y009953D02*X008346Y009826D01*X008349Y009695D01*X008386Y00957D01*
X008455Y009459D01*X008549Y009369D01*X008664Y009307D01*
X008791Y009276D01*X008921Y00928D01*X009047Y009317D01*X009158Y009385D01*
X009248Y009479D01*X00931Y009594D01*X009341Y009721D01*X009337Y009852D01*
X0093Y009977D01*X009232Y010088D01*X009137Y010178D01*X009022Y01024D01*
X008896Y010271D01*X008765Y010267D01*X00864Y01023D01*X008529Y010162D01*
X008439Y010067D01*X008376Y009953D01*X009739Y012107D02*X00956Y011641D01*
X009704Y011318D01*X009381Y011174D01*X009224Y012161D02*
X009303Y011668D01*X009589Y01146D01*X009381Y011174D01*X008751Y011951D02*
X009066Y011562D01*X009418Y011525D01*X009381Y011174D01*
X008447Y011532D02*X008914Y011353D01*X009237Y011497D01*
X009381Y011174D01*X010314Y010815D02*X009848Y010995D01*
X009525Y010851D01*X009381Y011174D01*X010368Y01133D02*X009875Y011252D01*
X009667Y010966D01*X009381Y011174D01*X010158Y011803D02*
X009769Y011488D01*X009732Y011137D01*X009381Y011174D01*X009022Y01024D02*
X009202Y010707D01*X009058Y01103D01*X009381Y011174D01*X009537Y010186D02*
X009459Y01068D01*X009173Y010888D01*X009381Y011174D01*X01001Y010397D02*
X009695Y010785D01*X009344Y010822D01*X009381Y011174D01*
X008393Y011017D02*X008887Y011096D01*X009095Y011382D01*
X009381Y011174D01*X008604Y010544D02*X008992Y010859D01*
X009029Y011211D01*X009381Y011174D01*X004505Y007584D02*
X005439Y007226D01*X005628Y007174D01*X005824Y007159D01*
X006018Y007184D01*X006204Y007246D01*X006375Y007342D01*
X006523Y007471D01*X006643Y007626D01*X006731Y007801D01*X006783Y00799D01*
X006797Y008185D01*X006773Y00838D01*X006711Y008566D01*X006614Y008736D01*
X006486Y008885D01*X006331Y009005D01*X006156Y009093D01*
X004289Y009809D01*X0041Y009861D01*X003904Y009876D01*X00371Y009851D01*
X003523Y009789D01*X003353Y009693D01*X003205Y009564D01*
X003084Y009409D01*X002997Y009234D01*X002945Y009045D01*X002931Y00885D01*
X002955Y008655D01*X003017Y008469D01*X003114Y008299D01*X003242Y00815D01*
X003397Y00803D01*X003572Y007942D01*X004505Y007584D01*X006085Y007513D02*
X006212Y007483D01*X006342Y007486D01*X006468Y007523D01*
X006579Y007591D01*X006669Y007686D01*X006731Y007801D01*
X006761Y007928D01*X006758Y008058D01*X006721Y008183D01*
X006653Y008295D01*X006558Y008384D01*X006443Y008447D01*
X006316Y008477D01*X006186Y008474D01*X006061Y008437D01*
X005949Y008369D01*X00586Y008274D01*X005797Y008159D01*X005767Y008032D01*
X00577Y007902D01*X005807Y007777D01*X005876Y007665D01*X00597Y007575D01*
X006085Y007513D01*X00393Y008876D02*X004397Y008697D01*X00472Y00884D01*
X004864Y008517D01*X003876Y008361D02*X00437Y008439D01*X004578Y008725D01*
X004864Y008517D01*X004087Y007888D02*X004475Y008203D01*
X004512Y008554D01*X004864Y008517D01*X004505Y007584D02*
X004685Y008051D01*X004541Y008374D01*X004864Y008517D01*
X005222Y009451D02*X005043Y008984D01*X005187Y008661D01*
X004864Y008517D01*X004707Y009505D02*X004786Y009011D01*
X005072Y008804D01*X004864Y008517D01*X004234Y009295D02*
X004549Y008906D01*X004901Y008869D01*X004864Y008517D01*
X005797Y008159D02*X005331Y008338D01*X005008Y008195D01*
X004864Y008517D01*X005851Y008674D02*X005358Y008596D01*X00515Y00831D01*
X004864Y008517D01*X005641Y009147D02*X005252Y008832D01*
X005215Y008481D01*X004864Y008517D01*X00502Y00753D02*X004942Y008024D01*
X004656Y008231D01*X004864Y008517D01*X005493Y00774D02*X005178Y008129D01*
X004827Y008166D01*X004864Y008517D01*D13*X009332Y016198D02*
X011232Y015733D01*D12*X011167Y015492D01*X009236Y016009D01*
X011167Y015492D02*X010844Y014284D01*D13*X008898Y014871D01*D12*
X007175Y015415D01*X006654Y016146D01*D13*X011232Y015733D02*
X011474Y015668D01*D14*X011085Y01422D01*D13*X010844Y014284D01*D12*
X009286Y016201D02*X007471Y016573D01*X00665Y016174D01*X010888Y014503D02*
X009004Y015062D01*D13*X009332Y016198D02*X011232Y015733D01*D12*
X011167Y015492D01*X009236Y016009D01*X011167Y015492D02*
X010844Y014284D01*D13*X008898Y014871D01*D12*X007175Y015415D01*
X006654Y016146D01*D13*X011232Y015733D02*X011474Y015668D01*D14*
X011085Y01422D01*D13*X010844Y014284D01*D12*X009286Y016201D02*
X007471Y016573D01*X00665Y016174D01*X010888Y014503D02*X009004Y015062D01*
X005751Y013467D02*X005417Y013839D01*X00616Y014508D01*X006495Y014136D01*
X006866Y014471D01*X007535Y013728D01*X007164Y013393D01*
X007498Y013022D01*X006755Y012353D01*X006421Y012724D01*X006049Y01239D01*
X00538Y013133D01*X005751Y013467D01*X002595Y005503D02*X002223Y005168D01*
X001554Y005912D01*X001925Y006246D01*X001591Y006618D01*
X002334Y007287D01*X002669Y006915D01*X00304Y00725D01*X003709Y006507D01*
X003338Y006172D01*X003672Y005801D01*X002929Y005131D01*
X002595Y005503D01*X002223Y005168D01*X001554Y005912D01*
X001925Y006246D01*X001591Y006618D01*X002334Y007287D01*
X002669Y006915D01*X00304Y00725D01*X003709Y006507D01*X003338Y006172D01*
X003672Y005801D01*X002929Y005131D01*X002595Y005503D01*
X010151Y002648D02*X010486Y002277D01*X009743Y001608D01*
X009408Y001979D01*X009036Y001645D01*X008367Y002388D01*
X008739Y002722D01*X008404Y003094D01*X009147Y003763D01*
X009482Y003391D01*X009854Y003726D01*X010523Y002983D01*
X010151Y002648D01*X010486Y002277D01*X009743Y001608D01*
X009408Y001979D01*X009036Y001645D01*X008367Y002388D01*
X008739Y002722D01*X008404Y003094D01*X009147Y003763D01*
X009482Y003391D01*X009854Y003726D01*X010523Y002983D01*
X010151Y002648D01*X014331Y010286D02*X014702Y010621D01*
X015371Y009877D01*X015Y009543D01*X015334Y009171D01*X014591Y008502D01*
X014257Y008874D01*X013885Y008539D01*X013216Y009282D01*
X013587Y009617D01*X013253Y009988D01*X013996Y010658D01*
X014331Y010286D01*X014702Y010621D01*X015371Y009877D01*X015Y009543D01*
X015334Y009171D01*X014591Y008502D01*X014257Y008874D01*
X013885Y008539D01*X013216Y009282D01*X013587Y009617D01*
X013253Y009988D01*X013996Y010658D01*X014331Y010286D01*
X005751Y013467D02*X005417Y013839D01*X00616Y014508D01*X006495Y014136D01*
X006866Y014471D01*X007535Y013728D01*X007164Y013393D01*
X007498Y013022D01*X006755Y012353D01*X006421Y012724D01*X006049Y01239D01*
X00538Y013133D01*X005751Y013467D01*X003203Y014917D02*X003046Y015905D01*
X0028Y015866D01*X002956Y014878D01*X004931Y015191D01*X004775Y016179D01*
X0028Y015866D01*X003203Y014917D02*X003046Y015905D01*X0028Y015866D01*
X002956Y014878D01*X004931Y015191D01*X004775Y016179D01*X0028Y015866D01*
X015222Y007915D02*X01534Y007859D01*X015439Y007774D01*X015513Y007666D01*
X015557Y007543D01*X015567Y007413D01*X015543Y007285D01*
X015487Y007167D01*X015402Y007068D01*X015295Y006994D01*X015172Y00695D01*
X015042Y00694D01*X014913Y006964D01*X014795Y00702D01*X014696Y007105D01*
X014622Y007212D01*X014579Y007336D01*X014568Y007466D01*
X014592Y007594D01*X014648Y007712D01*X014733Y007811D01*
X014841Y007885D01*X014964Y007929D01*X015094Y007939D01*
X015222Y007915D01*X016494Y006976D02*X016416Y006796D01*
X016304Y006636D01*X016162Y0065D01*X015997Y006394D01*X015815Y006322D01*
X015622Y006288D01*X015426Y006292D01*X015234Y006334D01*
X015055Y006412D01*X014894Y006525D01*X014758Y006666D01*
X014652Y006831D01*X014581Y007014D01*X014546Y007206D01*X01455Y007402D01*
X014592Y007594D01*X014671Y007774D01*X014783Y007934D01*X014924Y00807D01*
X015089Y008176D01*X015272Y008247D01*X015465Y008282D01*
X015661Y008278D01*X015852Y008236D01*X016032Y008157D01*
X016193Y008045D01*X016329Y007904D01*X016434Y007739D01*
X016506Y007556D01*X01654Y007363D01*X016536Y007167D01*X016494Y006976D01*
X015222Y007915D02*X01534Y007859D01*X015439Y007774D01*X015513Y007666D01*
X015557Y007543D01*X015567Y007413D01*X015543Y007285D01*
X015487Y007167D01*X015402Y007068D01*X015295Y006994D01*X015172Y00695D01*
X015042Y00694D01*X014913Y006964D01*X014795Y00702D01*X014696Y007105D01*
X014622Y007212D01*X014579Y007336D01*X014568Y007466D01*
X014592Y007594D01*X014648Y007712D01*X014733Y007811D01*
X014841Y007885D01*X014964Y007929D01*X015094Y007939D01*
X015222Y007915D01*X016494Y006976D02*X016416Y006796D01*
X016304Y006636D01*X016162Y0065D01*X015997Y006394D01*X015815Y006322D01*
X015622Y006288D01*X015426Y006292D01*X015234Y006334D01*
X015055Y006412D01*X014894Y006525D01*X014758Y006666D01*
X014652Y006831D01*X014581Y007014D01*X014546Y007206D01*X01455Y007402D01*
X014592Y007594D01*X014671Y007774D01*X014783Y007934D01*X014924Y00807D01*
X015089Y008176D01*X015272Y008247D01*X015465Y008282D01*
X015661Y008278D01*X015852Y008236D01*X016032Y008157D01*
X016193Y008045D01*X016329Y007904D01*X016434Y007739D01*
X016506Y007556D01*X01654Y007363D01*X016536Y007167D01*X016494Y006976D01*
X0Y017D02*X017D01*Y0D01*X0D01*Y017D01*X017D01*Y0D01*X0D01*Y017D01*D11*
X002943Y011327D02*X002846Y011301D01*X002722Y011372D01*X002696Y01147D01*
X002732Y011532D01*X002829Y011558D01*X003086Y011574D01*
X003122Y011636D01*X002875Y011779D01*X002572Y011541D02*
X002475Y011515D01*X002351Y011587D01*X002325Y011684D01*
X002361Y011746D01*X002458Y011772D01*X002715Y011789D01*
X002751Y011851D01*X002503Y011993D01*X002134Y011712D02*
X002349Y012083D01*X002295Y01199D02*X002002Y011911D01*X002163Y01219D02*
X002222Y01197D01*X004014Y01288D02*X003762Y012533D01*X004082Y012609D01*
X003851Y012777D01*X003588Y012659D02*X003357Y012827D01*
X003782Y013047D01*X003052Y013136D02*X003068Y013037D01*
X003184Y012953D01*X003284Y012968D01*X003451Y0132D01*X003436Y013299D01*
X00332Y013383D01*X00322Y013368D01*X003052Y013136D01*X00321Y01311D02*
X003294Y013226D01*X002866Y013184D02*X003118Y01353D01*X003055Y013444D02*
X002756Y013396D01*X002944Y013656D02*X00298Y013432D01*X003182Y003765D02*
X003529Y003513D01*X003453Y003834D01*X003285Y003602D01*X003403Y00334D02*
X003235Y003109D01*X003014Y003534D01*X002925Y002804D02*X003025Y00282D01*
X003109Y002935D01*X003093Y003035D01*X002862Y003203D01*
X002762Y003187D01*X002679Y003072D01*X002694Y002972D01*
X002925Y002804D01*X002952Y002962D02*X002836Y003045D01*
X002878Y002617D02*X002532Y002869D01*X002618Y002806D02*
X002666Y002507D01*X002406Y002696D02*X00263Y002732D01*X003182Y003765D02*
X003529Y003513D01*X003453Y003834D01*X003285Y003602D01*X003403Y00334D02*
X003235Y003109D01*X003014Y003534D01*X002925Y002804D02*X003025Y00282D01*
X003109Y002935D01*X003093Y003035D01*X002862Y003203D01*
X002762Y003187D01*X002679Y003072D01*X002694Y002972D01*
X002925Y002804D01*X002952Y002962D02*X002836Y003045D01*
X002878Y002617D02*X002532Y002869D01*X002618Y002806D02*
X002666Y002507D01*X002406Y002696D02*X00263Y002732D01*X01253Y003068D02*
X012782Y003415D01*X012462Y003339D01*X012693Y003171D01*
X012955Y003289D02*X013186Y003121D01*X012761Y0029D01*X013491Y002811D02*
X013475Y002911D01*X01336Y002995D01*X01326Y002979D01*X013092Y002748D01*
X013108Y002649D01*X013223Y002565D01*X013323Y00258D01*X013491Y002811D01*
X013334Y002838D02*X01325Y002722D01*X013678Y002764D02*X013426Y002418D01*
X013489Y002504D02*X013788Y002552D01*X013599Y002292D02*
X013564Y002516D01*X01253Y003068D02*X012782Y003415D01*X012462Y003339D01*
X012693Y003171D01*X012955Y003289D02*X013186Y003121D01*X012761Y0029D01*
X013491Y002811D02*X013475Y002911D01*X01336Y002995D01*X01326Y002979D01*
X013092Y002748D01*X013108Y002649D01*X013223Y002565D01*X013323Y00258D01*
X013491Y002811D01*X013334Y002838D02*X01325Y002722D01*X013678Y002764D02*
X013426Y002418D01*X013489Y002504D02*X013788Y002552D01*
X013599Y002292D02*X013564Y002516D01*X013743Y012024D02*
X013396Y012276D01*X013472Y011956D01*X01364Y012187D01*X013522Y012449D02*
X01369Y01268D01*X013911Y012255D01*X014Y012985D02*X0139Y012969D01*
X013816Y012854D01*X013832Y012754D01*X014063Y012586D01*
X014163Y012602D01*X014247Y012717D01*X014231Y012817D01*X014Y012985D01*
X013973Y012828D02*X014089Y012744D01*X014047Y013172D02*X014394Y01292D01*
X014307Y012983D02*X014259Y013282D01*X01452Y013093D02*X014295Y013057D01*
X013743Y012024D02*X013396Y012276D01*X013472Y011956D01*X01364Y012187D01*
X013522Y012449D02*X01369Y01268D01*X013911Y012255D01*X014Y012985D02*
X0139Y012969D01*X013816Y012854D01*X013832Y012754D01*X014063Y012586D01*
X014163Y012602D01*X014247Y012717D01*X014231Y012817D01*X014Y012985D01*
X013973Y012828D02*X014089Y012744D01*X014047Y013172D02*X014394Y01292D01*
X014307Y012983D02*X014259Y013282D01*X01452Y013093D02*X014295Y013057D01*
X004014Y01288D02*X003762Y012533D01*X004082Y012609D01*X003851Y012777D01*
X003588Y012659D02*X003357Y012827D01*X003782Y013047D01*
X003052Y013136D02*X003068Y013037D01*X003184Y012953D01*
X003284Y012968D01*X003451Y0132D01*X003436Y013299D01*X00332Y013383D01*
X00322Y013368D01*X003052Y013136D01*X00321Y01311D02*X003294Y013226D01*
X002866Y013184D02*X003118Y01353D01*X003055Y013444D02*X002756Y013396D01*
X002944Y013656D02*X00298Y013432D01*X004735Y002695D02*X004761Y002597D01*
X00469Y002474D01*X004592Y002448D01*X00453Y002483D01*X004504Y002581D01*
X004487Y002838D01*X004426Y002874D01*X004283Y002626D01*
X004521Y002324D02*X004547Y002226D01*X004475Y002103D01*
X004378Y002076D01*X004316Y002112D01*X00429Y00221D01*X004273Y002467D01*
X004211Y002502D01*X004068Y002255D01*X00435Y001886D02*X003979Y0021D01*
X004072Y002047D02*X00415Y001754D01*X003872Y001915D02*X004092Y001974D01*
X004735Y002695D02*X004761Y002597D01*X00469Y002474D01*X004592Y002448D01*
X00453Y002483D01*X004504Y002581D01*X004487Y002838D01*X004426Y002874D01*
X004283Y002626D01*X004521Y002324D02*X004547Y002226D01*
X004475Y002103D01*X004378Y002076D01*X004316Y002112D01*X00429Y00221D01*
X004273Y002467D01*X004211Y002502D01*X004068Y002255D01*X00435Y001886D02*
X003979Y0021D01*X004072Y002047D02*X00415Y001754D01*X003872Y001915D02*
X004092Y001974D01*X0136Y004621D02*X013698Y004647D01*X013821Y004576D01*
X013848Y004478D01*X013812Y004416D01*X013714Y00439D01*X013457Y004373D01*
X013422Y004312D01*X013669Y004169D01*X013971Y004407D02*
X014069Y004433D01*X014193Y004361D01*X014219Y004264D01*
X014183Y004202D01*X014086Y004176D01*X013828Y004159D01*
X013793Y004097D01*X01404Y003954D01*X014409Y004236D02*X014195Y003865D01*
X014248Y003958D02*X014541Y004036D01*X01438Y003758D02*X014322Y003978D01*
X0136Y004621D02*X013698Y004647D01*X013821Y004576D01*X013848Y004478D01*
X013812Y004416D01*X013714Y00439D01*X013457Y004373D01*X013422Y004312D01*
X013669Y004169D01*X013971Y004407D02*X014069Y004433D01*
X014193Y004361D01*X014219Y004264D01*X014183Y004202D01*
X014086Y004176D01*X013828Y004159D01*X013793Y004097D01*X01404Y003954D01*
X014409Y004236D02*X014195Y003865D01*X014248Y003958D02*
X014541Y004036D01*X01438Y003758D02*X014322Y003978D01*X01219Y013094D02*
X012164Y013192D01*X012236Y013315D01*X012333Y013342D01*
X012395Y013306D01*X012421Y013208D01*X012438Y012951D01*X0125Y012916D01*
X012642Y013163D01*X012405Y013465D02*X012378Y013563D01*X01245Y013687D01*
X012547Y013713D01*X012609Y013677D01*X012635Y013579D01*
X012652Y013322D01*X012714Y013287D01*X012857Y013534D01*
X012575Y013903D02*X012946Y013689D01*X012853Y013742D02*
X012775Y014035D01*X013053Y013874D02*X012834Y013816D01*X01219Y013094D02*
X012164Y013192D01*X012236Y013315D01*X012333Y013342D01*
X012395Y013306D01*X012421Y013208D01*X012438Y012951D01*X0125Y012916D01*
X012642Y013163D01*X012405Y013465D02*X012378Y013563D01*X01245Y013687D01*
X012547Y013713D01*X012609Y013677D01*X012635Y013579D01*
X012652Y013322D01*X012714Y013287D01*X012857Y013534D01*
X012575Y013903D02*X012946Y013689D01*X012853Y013742D02*
X012775Y014035D01*X013053Y013874D02*X012834Y013816D01*
X002943Y011327D02*X002846Y011301D01*X002722Y011372D01*X002696Y01147D01*
X002732Y011532D01*X002829Y011558D01*X003086Y011574D01*
X003122Y011636D01*X002875Y011779D01*X002572Y011541D02*
X002475Y011515D01*X002351Y011587D01*X002325Y011684D01*
X002361Y011746D01*X002458Y011772D01*X002715Y011789D01*
X002751Y011851D01*X002503Y011993D01*X002134Y011712D02*
X002349Y012083D01*X002295Y01199D02*X002002Y011911D01*X002163Y01219D02*
X002222Y01197D01*
M02*