M48
FMAT,2
INCH,LZ
T1C0.0280
T2C0.0400
%
T1
X005549Y010145
X006292Y010814
X007035Y011483
X005917Y0053
X005248Y006044
X004579Y006787
X005917Y0053
X005248Y006044
X004579Y006787
X010995Y005803
X010252Y005134
X009508Y004465
X010995Y005803
X010252Y005134
X009508Y004465
X011008Y010489
X011677Y009745
X012347Y009002
X011008Y010489
X011677Y009745
X012347Y009002
X005549Y010145
X006292Y010814
X007035Y011483
X00111Y012509
X003708Y011009
X002277Y013832
X004705Y012068
X00223Y002029
X003993Y004456
X00223Y002029
X003993Y004456
X014266Y002116
X011839Y003879
X014266Y002116
X011839Y003879
X014695Y01376
X012932Y011333
X014695Y01376
X012932Y011333
X002277Y013832
X004705Y012068
X003553Y000862
X005053Y00346
X003553Y000862
X005053Y00346
X015433Y003439
X012835Y004939
X015433Y003439
X012835Y004939
X013372Y014927
X011872Y012329
X013372Y014927
X011872Y012329
X00111Y012509
X003708Y011009
X003463Y009055
X006264Y00798
X007007Y003215
X008082Y006016
X007007Y003215
X008082Y006016
X01308Y006893
X010279Y007968
X01308Y006893
X010279Y007968
X009918Y012574
X008843Y009773
X009918Y012574
X008843Y009773
X003463Y009055
X006264Y00798
X005347Y015763
X002384Y015294
X005347Y015763
X002384Y015294
X016019Y00713
X015068Y007439
X016019Y00713
X015068Y007439
T2
X010555Y015138
X007657Y015915
X010555Y015138
X007657Y015915
X006458Y01343
X002632Y006209
X002632Y006209
X009445Y002685
X009445Y002685
X014294Y00958
X014294Y00958
X006458Y01343
M30
