%FSTAX24Y24*%
%MOIN*%
%IN 4oror.bottomsoldermask.ger *%
%ADD10C,0.0800*%
%ADD11C,0.1000*%
%ADD12R,0.1000X0.1000*%
D10*X005549Y010145D03*X006292Y010814D03*X007035Y011483D03*
X005917Y0053D03*X005248Y006044D03*X004579Y006787D03*X005917Y0053D03*
X005248Y006044D03*X004579Y006787D03*X010995Y005803D03*
X010252Y005134D03*X009508Y004465D03*X010995Y005803D03*
X010252Y005134D03*X009508Y004465D03*X011008Y010489D03*
X011677Y009745D03*X012347Y009002D03*X011008Y010489D03*
X011677Y009745D03*X012347Y009002D03*X005549Y010145D03*
X006292Y010814D03*X007035Y011483D03*X00111Y012509D03*X003708Y011009D03*
X002277Y013832D03*X004705Y012068D03*X00223Y002029D03*X003993Y004456D03*
X00223Y002029D03*X003993Y004456D03*X014266Y002116D03*X011839Y003879D03*
X014266Y002116D03*X011839Y003879D03*X014695Y01376D03*X012932Y011333D03*
X014695Y01376D03*X012932Y011333D03*X002277Y013832D03*X004705Y012068D03*
X003553Y000862D03*X005053Y00346D03*X003553Y000862D03*X005053Y00346D03*
X015433Y003439D03*X012835Y004939D03*X015433Y003439D03*
X012835Y004939D03*X013372Y014927D03*X011872Y012329D03*
X013372Y014927D03*X011872Y012329D03*X00111Y012509D03*X003708Y011009D03*
X003463Y009055D03*X006264Y00798D03*X007007Y003215D03*X008082Y006016D03*
X007007Y003215D03*X008082Y006016D03*X01308Y006893D03*X010279Y007968D03*
X01308Y006893D03*X010279Y007968D03*X009918Y012574D03*X008843Y009773D03*
X009918Y012574D03*X008843Y009773D03*X003463Y009055D03*X006264Y00798D03*
D11*X010555Y015138D03*X007657Y015915D03*D10*X005347Y015763D03*
X002384Y015294D03*X005347Y015763D03*X002384Y015294D03*X016019Y00713D03*
X015068Y007439D03*X016019Y00713D03*X015068Y007439D03*D11*
X010555Y015138D03*X007657Y015915D03*D12*X014294Y00958D03*
X006458Y01343D03*D03*X014294Y00958D03*X009445Y002685D03*D03*
X002632Y006209D03*D03*
M02*