M48
FMAT,2
INCH,LZ
T1C0.0280
T2C0.0400
%
T1
X006947Y009432
X007947Y009432
X008947Y009432
X004863Y005548
X004363Y006414
X003863Y00728
X009774Y005389
X009274Y004523
X008774Y003657
X00523Y014159
X006157Y011306
X006983Y014361
X007606Y011426
X002311Y001121
X003811Y00372
X000886Y002638
X002774Y00497
X014089Y003176
X011758Y005064
X013166Y001429
X011159Y003659
X004668Y010017
X00603Y007344
X005495Y003281
X007129Y005797
X01142Y00707
X008425Y007227
X01135Y013238
X008453Y014014
X006422Y00096
X006681Y001926
T2
X009257Y001886
X002051Y007803
X009821Y011265
X01213Y009476
X012907Y012374
M30
