M48
FMAT,2
INCH,LZ
T1C0.0280
T2C0.0400
%
T1
X005518Y010553
X006077Y011382
X006636Y012211
X006967Y00552
X006351Y006308
X005735Y007096
X006967Y00552
X006351Y006308
X005735Y007096
X012301Y005533
X011361Y005191
X010421Y004849
X012301Y005533
X011361Y005191
X010421Y004849
X0143Y010026
X014335Y009027
X01437Y008027
X0143Y010026
X014335Y009027
X01437Y008027
X010238Y01399
X011199Y013714
X01216Y013438
X010238Y01399
X011199Y013714
X01216Y013438
X005518Y010553
X006077Y011382
X006636Y012211
X000639Y011773
X003523Y010946
X001451Y013339
X004233Y012215
X003061Y002514
X004989Y004812
X003061Y002514
X004989Y004812
X013953Y000889
X012363Y003434
X013953Y000889
X012363Y003434
X019227Y010162
X016316Y009437
X019227Y010162
X016316Y009437
X011631Y018718
X011422Y015725
X011631Y018718
X011422Y015725
X001451Y013339
X004233Y012215
X004299Y001257
X005976Y003745
X004299Y001257
X005976Y003745
X015531Y001679
X013684Y004043
X015531Y001679
X013684Y004043
X018573Y011953
X015754Y010927
X018573Y011953
X015754Y010927
X009891Y019007
X009995Y016008
X009891Y019007
X009995Y016008
X000639Y011773
X003523Y010946
X004996Y008768
X007974Y008402
X008314Y004375
X009582Y007094
X008314Y004375
X009582Y007094
X014002Y005977
X011808Y008023
X014002Y005977
X011808Y008023
X014018Y011778
X011394Y010323
X014018Y011778
X011394Y010323
X008848Y013471
X009421Y010526
X008848Y013471
X009421Y010526
X004996Y008768
X007974Y008402
X016233Y007218
X003799Y017184
X002254Y014613
X003799Y017184
X002254Y014613
X016925Y004512
X016004Y004903
X016925Y004512
X016004Y004903
T2
X007524Y016388
X005193Y018276
X007524Y016388
X005193Y018276
X005605Y013961
X003753Y006656
X003753Y006656
X010228Y002828
X010228Y002828
X016233Y007218
X013506Y01496
X013506Y01496
X005605Y013961
M30
