%FSTAX24Y24*%
%MOIN*%
%IN 5oror.bottomlayer.ger *%
%AMRECT*21,1,$1,$2,0.0,0.0,$3*%
%ADD10C,0.0100*%
%ADD11C,0.0200*%
%ADD12C,0.0600*%
%ADD13C,0.0800*%
%ADD14RECT,0.0690X0.0690X272.0000*%
%ADD15R,0.0800X0.0800*%
D12*X005518Y010553D03*X004996Y008768D03*X003523Y010946D03*
X006967Y00552D03*X008314Y004375D03*X005976Y003745D03*X006967Y00552D03*
X008314Y004375D03*X005976Y003745D03*X012301Y005533D03*
X014002Y005977D03*X013684Y004043D03*X012301Y005533D03*
X014002Y005977D03*X013684Y004043D03*X0143Y010026D03*X014018Y011778D03*
X015754Y010927D03*X0143Y010026D03*X014018Y011778D03*X015754Y010927D03*
X005518Y010553D03*X004996Y008768D03*X003523Y010946D03*
X009891Y019007D03*X011631Y018718D03*X018573Y011953D03*
X019227Y010162D03*X016925Y004512D03*X015531Y001679D03*
X013953Y000889D03*X004299Y001257D03*X003061Y002514D03*
X000639Y011773D03*X001451Y013339D03*X002254Y014613D03*
X009995Y016008D03*X008848Y013471D03*X010238Y01399D03*X009891Y019007D03*
X011631Y018718D03*X018573Y011953D03*X019227Y010162D03*
X016925Y004512D03*X015531Y001679D03*X013953Y000889D03*
X004299Y001257D03*X003061Y002514D03*X000639Y011773D03*
X001451Y013339D03*X002254Y014613D03*X009995Y016008D03*
X008848Y013471D03*X010238Y01399D03*X007974Y008402D03*X006351Y006308D03*
D15*X003753Y006656D03*D12*X004989Y004812D03*X009582Y007094D03*
X011361Y005191D03*D15*X010228Y002828D03*D12*X012363Y003434D03*
X009582Y007094D03*X011361Y005191D03*D15*X010228Y002828D03*D12*
X012363Y003434D03*X011808Y008023D03*X014335Y009027D03*D14*
X016233Y007218D03*D12*X016316Y009437D03*X011808Y008023D03*
X014335Y009027D03*D15*X016233Y007218D03*D12*X016316Y009437D03*
X009421Y010526D03*X006077Y011382D03*D15*X005605Y013961D03*D12*
X004233Y012215D03*X009421Y010526D03*X006077Y011382D03*D15*
X005605Y013961D03*D12*X004233Y012215D03*X007974Y008402D03*
X006351Y006308D03*D15*X003753Y006656D03*D12*X004989Y004812D03*D13*
X007524Y016388D03*D12*X006636Y012211D03*X010421Y004849D03*
X005735Y007096D03*X016004Y004903D03*X01437Y008027D03*X01216Y013438D03*
D13*X007524Y016388D03*D12*X006636Y012211D03*X010421Y004849D03*
X005735Y007096D03*X016004Y004903D03*X01437Y008027D03*X01216Y013438D03*
D15*X013506Y01496D03*D12*X011422Y015725D03*X011199Y013714D03*
X011394Y010323D03*D15*X013506Y01496D03*D12*X011422Y015725D03*
X011199Y013714D03*X011394Y010323D03*X003799Y017184D03*D13*
X005193Y018276D03*D12*X003799Y017184D03*D13*X005193Y018276D03*D11*
X005518Y010553D02*G01X004234Y010273D01*X004996Y008768D01*
X004234Y010273D02*X003523Y010946D01*X006967Y00552D02*X006853Y004544D01*
X008314Y004375D01*X006853Y004544D02*X005976Y003745D01*X006967Y00552D02*
X006853Y004544D01*X008314Y004375D01*X006853Y004544D02*
X005976Y003745D01*X012301Y005533D02*X013151Y005206D01*
X014002Y005977D01*X013151Y005206D02*X013684Y004043D01*
X012301Y005533D02*X013151Y005206D01*X014002Y005977D01*
X013151Y005206D02*X013684Y004043D01*X0143Y010026D02*X014877Y010711D01*
X014018Y011778D01*X014877Y010711D02*X015754Y010927D01*X0143Y010026D02*
X014877Y010711D01*X014018Y011778D01*X014877Y010711D02*
X015754Y010927D01*X005518Y010553D02*X004234Y010273D01*
X004996Y008768D01*X004234Y010273D02*X003523Y010946D01*
X009891Y019007D02*X011631Y018718D01*X018573Y011953D01*
X019227Y010162D01*X016925Y004512D01*X015531Y001679D01*
X013953Y000889D01*X004299Y001257D01*X003061Y002514D01*
X000639Y011773D01*X001451Y013339D01*X002254Y014613D01*
X009995Y016008D02*X009562Y014888D01*X008848Y013471D01*
X009562Y014888D02*X010238Y01399D01*X009891Y019007D02*X011631Y018718D01*
X018573Y011953D01*X019227Y010162D01*X016925Y004512D01*
X015531Y001679D01*X013953Y000889D01*X004299Y001257D01*
X003061Y002514D01*X000639Y011773D01*X001451Y013339D01*
X002254Y014613D01*X009995Y016008D02*X009562Y014888D01*
X008848Y013471D01*X009562Y014888D02*X010238Y01399D01*X007974Y008402D02*
X006351Y006308D01*X005332Y005714D01*X003753Y006656D01*
X005332Y005714D02*X004989Y004812D01*X009582Y007094D02*
X011361Y005191D01*X011353Y004277D01*X010228Y002828D01*
X011353Y004277D02*X012363Y003434D01*X009582Y007094D02*
X011361Y005191D01*X011353Y004277D01*X010228Y002828D01*
X011353Y004277D02*X012363Y003434D01*X011808Y008023D02*
X014335Y009027D01*X01563Y008976D01*X016233Y007218D01*X01563Y008976D02*
X016316Y009437D01*X011808Y008023D02*X014335Y009027D01*X01563Y008976D01*
X016233Y007218D01*X01563Y008976D02*X016316Y009437D01*X009421Y010526D02*
X006077Y011382D01*X005214Y011942D01*X005605Y013961D01*
X005214Y011942D02*X004233Y012215D01*X009421Y010526D02*
X006077Y011382D01*X005214Y011942D01*X005605Y013961D01*
X005214Y011942D02*X004233Y012215D01*X007974Y008402D02*
X006351Y006308D01*X005332Y005714D01*X003753Y006656D01*
X005332Y005714D02*X004989Y004812D01*X007524Y016388D02*
X007906Y014854D01*X007811Y012707D01*X006636Y012211D01*
X007811Y012707D02*X010239Y011531D01*X010564Y009582D01*
X009143Y009068D01*X008293Y005935D01*X010421Y004849D01*
X009143Y009068D02*X006585Y009634D01*X005735Y007096D01*
X010564Y009582D02*X010677Y008702D01*X010714Y007483D01*
X011229Y006703D01*X013794Y007556D01*X016004Y004903D01*
X013794Y007556D02*X01437Y008027D01*X010677Y008702D02*X012683Y009797D01*
X01216Y013438D01*X007524Y016388D02*X007906Y014854D01*X007811Y012707D01*
X006636Y012211D01*X007811Y012707D02*X010239Y011531D01*
X010564Y009582D01*X009143Y009068D01*X008293Y005935D01*
X010421Y004849D01*X009143Y009068D02*X006585Y009634D01*
X005735Y007096D01*X010564Y009582D02*X010677Y008702D01*
X010714Y007483D01*X011229Y006703D01*X013794Y007556D01*
X016004Y004903D01*X013794Y007556D02*X01437Y008027D01*X010677Y008702D02*
X012683Y009797D01*X01216Y013438D01*X013506Y01496D02*X011711Y014836D01*
X011422Y015725D01*X011711Y014836D02*X011199Y013714D01*
X011394Y010323D01*X013506Y01496D02*X011711Y014836D01*X011422Y015725D01*
X011711Y014836D02*X011199Y013714D01*X011394Y010323D01*
X003799Y017184D02*X005193Y018276D01*X003799Y017184D01*D10*X02Y02D02*
X0D01*Y0D01*X02D01*Y02D01*X0D01*Y0D01*X02D01*Y02D01*
M02*