M48
; DRILL file {KiCad (5.1.7)-1} date 06/30/21 17:19:42
; FORMAT={-:-/ absolute / inch / decimal}
; #@! TF.CreationDate,2021-06-30T17:19:42-05:00
; #@! TF.GenerationSoftware,Kicad,Pcbnew,(5.1.7)-1
; #@! TF.FileFunction,Plated,1,2,PTH
FMAT,2
INCH
T1C0.0276
T2C0.0315
T3C0.0394
T4C0.1929
%
G90
G05
T1
X5.6902Y-3.7016
X5.8256Y-3.8106
X9.172Y-3.8106
X2.4791Y-3.8106
X9.2362Y-3.7547
X2.5433Y-3.7547
X9.0366Y-3.7016
X5.8898Y-3.7547
X2.2701Y-3.7433
X5.6165Y-3.7433
X8.963Y-3.7433
X2.3437Y-3.7016
T2
X8.954Y-4.0329
X9.2259Y-4.1597
X7.7846Y-5.5142
X7.9693Y-5.7506
X9.8524Y-4.8657
X10.0683Y-4.6644
X3.772Y-4.7626
X3.872Y-4.7626
X3.972Y-4.7626
X4.9463Y-4.0813
X5.0138Y-4.3736
X7.5626Y-4.898
X7.8209Y-4.7549
X10.3197Y-4.6909
X10.5741Y-4.532
X4.944Y-4.9213
X5.2197Y-5.0272
X2.0479Y-3.9576
X2.0804Y-3.8631
X2.113Y-3.7685
X5.5272Y-4.3866
X5.6248Y-4.103
X10.2062Y-5.5335
X10.4606Y-5.6925
X0.9146Y-4.8678
X1.2142Y-4.8835
X4.2421Y-5.1972
X4.4753Y-5.386
X4.8182Y-5.614
X4.9945Y-5.3713
X6.0161Y-3.8886
X6.052Y-3.9819
X6.0878Y-4.0753
X6.5075Y-4.7625
X6.7972Y-4.8402
X8.5656Y-4.8028
X8.6228Y-4.5083
X5.7634Y-5.4339
X6.0091Y-5.6059
X2.2984Y-5.6996
X2.4618Y-5.9512
X8.0465Y-4.9827
X8.3375Y-4.9101
X10.3736Y-4.8295
X10.6409Y-4.6933
X2.3984Y-4.5364
X2.5831Y-4.3
X5.5965Y-5.8563
X5.8392Y-5.68
X4.9487Y-5.7309
X5.0941Y-5.4685
X5.538Y-5.3796
X5.6135Y-5.314
X5.689Y-5.2484
X6.0795Y-4.6815
X6.2204Y-4.4166
X5.6098Y-5.0311
X5.8855Y-5.1369
X2.1283Y-5.2354
X2.3221Y-5.4583
X7.9898Y-4.8417
X8.2717Y-4.7391
X1.9567Y-4.8161
X2.0479Y-4.5353
X6.9343Y-5.0538
X7.228Y-5.0846
X3.9228Y-4.9866
X4.2179Y-4.9969
X7.2595Y-5.4855
X7.389Y-5.2201
X9.9831Y-5.51
X10.05Y-5.4357
X10.1169Y-5.3614
X7.6063Y-5.122
X7.8151Y-5.3308
X4.706Y-4.5926
X4.9709Y-4.7335
X9.7295Y-5.3094
X9.7859Y-5.5993
X2.7771Y-5.6113
X2.824Y-5.315
X5.6417Y-4.4169
X5.7394Y-4.1333
X1.5209Y-4.6175
X1.726Y-4.8299
X3.7774Y-4.2823
X3.8346Y-4.5768
X3.5459Y-4.7105
X3.6799Y-4.9736
X4.1807Y-5.3276
X4.3775Y-5.554
X6.9925Y-4.1091
X7.088Y-4.0852
X4.8254Y-4.4516
X5.0681Y-4.628
X2.6082Y-4.4981
X2.7803Y-4.2524
X2.1657Y-5.7551
X2.3019Y-6.0224
X1.8074Y-5.5825
X1.8839Y-5.2972
X9.1305Y-3.9573
X9.3903Y-4.1073
X1.3896Y-4.1082
X1.5441Y-4.3654
X3.4671Y-4.9801
X3.5141Y-5.0684
X3.561Y-5.1567
X1.5477Y-4.0449
X1.6839Y-4.3122
X6.3827Y-4.75
X6.4218Y-4.4526
X9.517Y-4.5316
X9.5783Y-4.8205
X0.8921Y-5.0354
X1.1921Y-5.0354
X2.4299Y-5.2746
X2.4524Y-5.1772
X2.4749Y-5.0797
X9.6311Y-4.0272
X9.6311Y-4.3272
X7.4524Y-4.5354
X7.549Y-4.5613
X7.6455Y-4.5872
X9.2264Y-4.7728
X9.2983Y-4.7034
X9.3702Y-4.6339
X9.1512Y-4.9521
X9.435Y-5.0335
X3.3169Y-5.5893
X3.4669Y-5.3295
X5.2895Y-5.4981
X5.3953Y-5.2224
X6.8062Y-4.2768
X6.8114Y-4.5768
X9.3374Y-3.8575
X9.4129Y-3.7919
X9.4883Y-3.7263
X7.8543Y-4.9264
X7.8543Y-5.0264
X7.8543Y-5.1264
X5.8571Y-5.3264
X6.1142Y-5.4809
X9.2392Y-5.4685
X9.4516Y-5.2634
X7.4661Y-5.4401
X7.5612Y-5.4092
X7.6563Y-5.3783
X8.639Y-4.1799
X8.7256Y-4.2299
X8.8122Y-4.2799
X10.2931Y-5.4252
X10.565Y-5.552
X5.4697Y-4.8555
X5.5755Y-4.5798
X1.4809Y-5.3658
X1.5552Y-5.4327
X1.6295Y-5.4996
X1.6764Y-4.5102
X1.7709Y-4.4777
X1.8655Y-4.4451
X7.4188Y-4.0422
X7.424Y-4.3421
X3.9531Y-5.3453
X4.0031Y-5.2586
X4.0531Y-5.172
X1.9834Y-5.6142
X2.0785Y-5.5833
X2.1736Y-5.5524
X2.1728Y-4.9583
X2.4617Y-4.8969
X5.047Y-5.1468
X5.1113Y-5.2234
X5.1756Y-5.3
X2.2614Y-4.2528
X2.4248Y-4.0012
X1.3906Y-5.1731
X1.6783Y-5.1067
X1.7252Y-3.8303
X1.7252Y-4.1303
X9.8098Y-4.0528
X9.8098Y-4.3528
X5.6886Y-4.7768
X5.758Y-4.8487
X5.8275Y-4.9206
X9.4928Y-5.7756
X9.498Y-6.0756
X8.9382Y-5.8634
X9.2183Y-5.9709
X9.9189Y-5.098
X10.1981Y-5.1942
X3.1773Y-5.4379
X3.3661Y-5.2047
X9.5Y-3.9185
X9.5Y-4.2185
X5.7657Y-4.6055
X5.9112Y-4.3431
X9.6969Y-4.5114
X9.7943Y-4.5339
X9.8917Y-4.5564
X2.2181Y-4.6051
X2.2888Y-4.6758
X2.3595Y-4.7465
X2.6658Y-5.0381
X2.9657Y-5.0433
X5.3449Y-3.9055
X5.3791Y-3.9995
X5.4133Y-4.0935
X3.9145Y-4.4169
X4.2138Y-4.4378
X10.1787Y-4.8165
X10.208Y-4.9122
X10.2372Y-5.0078
X3.6049Y-4.3068
X3.6976Y-4.5921
X5.1421Y-4.8122
X5.2164Y-4.7453
X5.2908Y-4.6784
X2.1723Y-4.2087
X2.3268Y-3.9516
X9.0723Y-5.1234
X9.0981Y-5.2199
X9.124Y-5.3165
X1.4374Y-5.9432
X1.5642Y-5.6713
X6.5829Y-4.6038
X6.861Y-4.7161
X8.6658Y-5.4456
X8.9307Y-5.3047
X6.9795Y-4.8681
X7.0397Y-4.7882
X7.0999Y-4.7084
X2.639Y-5.1974
X2.939Y-5.1921
X8.8039Y-4.5406
X9.0526Y-4.7083
X8.7287Y-5.6007
X8.9831Y-5.4417
X6.8713Y-5.7942
X7.0303Y-5.5398
X1.3053Y-5.8462
X1.4508Y-5.5839
X5.8693Y-4.7028
X6.0456Y-4.4601
X6.7418Y-5.667
X6.9386Y-5.4406
X7.6571Y-5.572
X7.8161Y-5.8265
X7.5689Y-4.3701
X7.5846Y-4.0705
X3.637Y-5.3837
X3.7846Y-5.128
X1.3791Y-4.9913
X1.4016Y-4.8939
X1.4241Y-4.7965
X7.304Y-4.5863
X7.3705Y-4.874
X2.5782Y-4.0184
X2.6172Y-3.9263
X2.6563Y-3.8343
X2.2976Y-4.4499
X2.4654Y-4.2012
X9.6469Y-6.1024
X9.6521Y-5.8024
X9.4141Y-5.5689
X9.5102Y-5.5965
X9.6064Y-5.624
X8.8689Y-4.4047
X9.1053Y-4.5894
X7.0106Y-5.2102
X7.0665Y-5.2931
X7.1224Y-5.376
T3
X6.5429Y-4.2528
X6.5575Y-3.9571
T4
X7.0701Y-4.437
X1.2449Y-5.3697
X1.8736Y-5.8228
X4.7579Y-5.1323
X10.0252Y-5.7937
X5.574Y-5.6248
X2.5732Y-5.4953
X3.9193Y-5.5504
X5.3154Y-4.4193
X9.2146Y-5.7437
X10.1138Y-4.4236
X10.4291Y-5.1575
X1.2835Y-4.5894
X7.3969Y-5.6732
X2.6303Y-4.7201
X9.3319Y-4.3913
X6.0776Y-4.8693
X6.7307Y-5.1913
X1.9831Y-4.1894
X8.8224Y-4.9524
X8.0661Y-5.2563
X7.876Y-4.4846
X4.1795Y-4.685
X3.2701Y-4.8965
T0
M30
