%TF.GenerationSoftware,KiCad,Pcbnew,(5.1.7)-1*%
%TF.CreationDate,2021-06-30T17:19:36-05:00*%
%TF.ProjectId,ROLZRSTRIP,524f4c5a-5253-4545-9249-502e6b696361,rev?*%
%TF.SameCoordinates,Original*%
%TF.FileFunction,Soldermask,Bot*%
%TF.FilePolarity,Negative*%
%FSLAX46Y46*%
G04 Gerber Fmt 4.6, Leading zero omitted, Abs format (unit mm)*
G04 Created by KiCad (PCBNEW (5.1.7)-1) date 2021-06-30 17:19:36*
%MOMM*%
%LPD*%
G01*
G04 APERTURE LIST*
%ADD10C,3.200000*%
%ADD11C,5.900000*%
%ADD12C,1.600000*%
%ADD13C,3.000000*%
%ADD14C,0.100000*%
%ADD15C,1.500000*%
%ADD16C,2.000000*%
%ADD17O,1.600000X1.600000*%
%ADD18R,1.500000X1.500000*%
G04 APERTURE END LIST*
D10*
%TO.C,REF\u002A\u002A*%
X21900000Y-97580000D03*
%TD*%
%TO.C,REF\u002A\u002A*%
X273780000Y-97580000D03*
%TD*%
D11*
%TO.C,REF\u002A\u002A*%
X254640000Y-147160000D03*
%TD*%
%TO.C,REF\u002A\u002A*%
X256890000Y-112360000D03*
%TD*%
%TO.C,REF\u002A\u002A*%
X237030000Y-111540000D03*
%TD*%
%TO.C,REF\u002A\u002A*%
X264900000Y-131000000D03*
%TD*%
%TO.C,REF\u002A\u002A*%
X234050000Y-145890000D03*
%TD*%
%TO.C,REF\u002A\u002A*%
X224090000Y-125790000D03*
%TD*%
%TO.C,REF\u002A\u002A*%
X179580000Y-112700000D03*
%TD*%
%TO.C,REF\u002A\u002A*%
X200050000Y-113910000D03*
%TD*%
%TO.C,REF\u002A\u002A*%
X187880000Y-144100000D03*
%TD*%
%TO.C,REF\u002A\u002A*%
X170960000Y-131860000D03*
%TD*%
%TO.C,REF\u002A\u002A*%
X204880000Y-133510000D03*
%TD*%
%TO.C,REF\u002A\u002A*%
X141580000Y-142870000D03*
%TD*%
%TO.C,REF\u002A\u002A*%
X120850000Y-130360000D03*
%TD*%
%TO.C,REF\u002A\u002A*%
X135010000Y-112250000D03*
%TD*%
%TO.C,REF\u002A\u002A*%
X154370000Y-123680000D03*
%TD*%
%TO.C,REF\u002A\u002A*%
X99550000Y-140980000D03*
%TD*%
%TO.C,REF\u002A\u002A*%
X66810000Y-119890000D03*
%TD*%
%TO.C,REF\u002A\u002A*%
X106160000Y-119000000D03*
%TD*%
%TO.C,REF\u002A\u002A*%
X32600000Y-116570000D03*
%TD*%
%TO.C,REF\u002A\u002A*%
X50370000Y-106410000D03*
%TD*%
%TO.C,REF\u002A\u002A*%
X83060000Y-124370000D03*
%TD*%
%TO.C,REF\u002A\u002A*%
X47590000Y-147900000D03*
%TD*%
%TO.C,REF\u002A\u002A*%
X31620000Y-136390000D03*
%TD*%
%TO.C,REF\u002A\u002A*%
X65360000Y-139580000D03*
%TD*%
%TO.C,REF\u002A\u002A*%
G36*
G01*
X100226613Y-112244261D02*
X100226613Y-112244261D01*
G75*
G02*
X99372757Y-112986507I-798051J55805D01*
G01*
X99372757Y-112986507D01*
G75*
G02*
X98630511Y-112132651I55805J798051D01*
G01*
X98630511Y-112132651D01*
G75*
G02*
X99484367Y-111390405I798051J-55805D01*
G01*
X99484367Y-111390405D01*
G75*
G02*
X100226613Y-112244261I-55805J-798051D01*
G01*
G37*
D12*
X107030000Y-112720000D03*
%TD*%
%TO.C,REF\u002A\u002A*%
X128730000Y-117550000D03*
G36*
G01*
X123212505Y-113541304D02*
X123212505Y-113541304D01*
G75*
G02*
X122095063Y-113718290I-647214J470228D01*
G01*
X122095063Y-113718290D01*
G75*
G02*
X121918077Y-112600848I470228J647214D01*
G01*
X121918077Y-112600848D01*
G75*
G02*
X123035519Y-112423862I647214J-470228D01*
G01*
X123035519Y-112423862D01*
G75*
G02*
X123212505Y-113541304I-470228J-647214D01*
G01*
G37*
%TD*%
%TO.C,REF\u002A\u002A*%
X88060000Y-135370000D03*
G36*
G01*
X84650000Y-141276294D02*
X84650000Y-141276294D01*
G75*
G02*
X84942820Y-142369114I-400000J-692820D01*
G01*
X84942820Y-142369114D01*
G75*
G02*
X83850000Y-142661934I-692820J400000D01*
G01*
X83850000Y-142661934D01*
G75*
G02*
X83557180Y-141569114I400000J692820D01*
G01*
X83557180Y-141569114D01*
G75*
G02*
X84650000Y-141276294I692820J-400000D01*
G01*
G37*
%TD*%
D13*
%TO.C,REF\u002A\u002A*%
X62200000Y-94180000D03*
%TD*%
D14*
%TO.C,REF\u002A\u002A*%
G36*
X66486573Y-97787330D02*
G01*
X67072670Y-96406573D01*
X68453427Y-96992670D01*
X67867330Y-98373427D01*
X66486573Y-97787330D01*
G37*
D15*
X65485086Y-102066165D03*
X66477543Y-99728082D03*
%TD*%
%TO.C,REF\u002A\u002A*%
G36*
G01*
X172890975Y-109431039D02*
X172890975Y-109431039D01*
G75*
G02*
X172077135Y-108645123I-13962J799878D01*
G01*
X172077135Y-108645123D01*
G75*
G02*
X172863051Y-107831283I799878J13962D01*
G01*
X172863051Y-107831283D01*
G75*
G02*
X173676891Y-108617199I13962J-799878D01*
G01*
X173676891Y-108617199D01*
G75*
G02*
X172890975Y-109431039I-799878J-13962D01*
G01*
G37*
D12*
X173010000Y-116250000D03*
%TD*%
D14*
%TO.C,REF\u002A\u002A*%
G36*
X54264945Y-140548470D02*
G01*
X55691530Y-140084945D01*
X56155055Y-141511530D01*
X54728470Y-141975055D01*
X54264945Y-140548470D01*
G37*
D15*
X50378633Y-142599806D03*
X52794316Y-141814903D03*
%TD*%
D14*
%TO.C,REF\u002A\u002A*%
G36*
X35929491Y-126217936D02*
G01*
X35592064Y-127679491D01*
X34130509Y-127342064D01*
X34467936Y-125880509D01*
X35929491Y-126217936D01*
G37*
D15*
X36172751Y-121830200D03*
X35601376Y-124305100D03*
%TD*%
%TO.C,REF\u002A\u002A*%
G36*
G01*
X122851304Y-141947495D02*
X122851304Y-141947495D01*
G75*
G02*
X123028290Y-143064937I-470228J-647214D01*
G01*
X123028290Y-143064937D01*
G75*
G02*
X121910848Y-143241923I-647214J470228D01*
G01*
X121910848Y-143241923D01*
G75*
G02*
X121733862Y-142124481I470228J647214D01*
G01*
X121733862Y-142124481D01*
G75*
G02*
X122851304Y-141947495I647214J-470228D01*
G01*
G37*
D12*
X126860000Y-136430000D03*
%TD*%
D15*
%TO.C,REF\u002A\u002A*%
X59530000Y-94020000D03*
%TD*%
%TO.C,REF\u002A\u002A*%
G36*
G01*
X81208035Y-137500135D02*
X81208035Y-137500135D01*
G75*
G02*
X81326296Y-138625308I-503456J-621717D01*
G01*
X81326296Y-138625308D01*
G75*
G02*
X80201123Y-138743569I-621717J503456D01*
G01*
X80201123Y-138743569D01*
G75*
G02*
X80082862Y-137618396I503456J621717D01*
G01*
X80082862Y-137618396D01*
G75*
G02*
X81208035Y-137500135I621717J-503456D01*
G01*
G37*
D12*
X85500000Y-132200000D03*
%TD*%
D15*
%TO.C,REF\u002A\u002A*%
X52843057Y-98121617D03*
X52016114Y-100523234D03*
D14*
G36*
X52716685Y-96184963D02*
G01*
X53205037Y-94766685D01*
X54623315Y-95255037D01*
X54134963Y-96673315D01*
X52716685Y-96184963D01*
G37*
%TD*%
D12*
%TO.C,REF\u002A\u002A*%
X54060000Y-132980000D03*
X58980443Y-138640322D03*
%TD*%
%TO.C,REF\u002A\u002A*%
X93470000Y-126330000D03*
X90065071Y-119647451D03*
%TD*%
%TO.C,REF\u002A\u002A*%
X188570000Y-110290000D03*
G36*
G01*
X188450975Y-103471039D02*
X188450975Y-103471039D01*
G75*
G02*
X187637135Y-102685123I-13962J799878D01*
G01*
X187637135Y-102685123D01*
G75*
G02*
X188423051Y-101871283I799878J13962D01*
G01*
X188423051Y-101871283D01*
G75*
G02*
X189236891Y-102657199I13962J-799878D01*
G01*
X189236891Y-102657199D01*
G75*
G02*
X188450975Y-103471039I-799878J-13962D01*
G01*
G37*
%TD*%
D14*
%TO.C,REF\u002A\u002A*%
G36*
X56340000Y-118030660D02*
G01*
X55279340Y-116970000D01*
X56340000Y-115909340D01*
X57400660Y-116970000D01*
X56340000Y-118030660D01*
G37*
D15*
X59932102Y-120562102D03*
X58136051Y-118766051D03*
%TD*%
%TO.C,REF\u002A\u002A*%
G36*
G01*
X192606931Y-104189347D02*
X192606931Y-104189347D01*
G75*
G02*
X191849896Y-103348574I41869J798904D01*
G01*
X191849896Y-103348574D01*
G75*
G02*
X192690669Y-102591539I798904J-41869D01*
G01*
X192690669Y-102591539D01*
G75*
G02*
X193447704Y-103432312I-41869J-798904D01*
G01*
X193447704Y-103432312D01*
G75*
G02*
X192606931Y-104189347I-798904J41869D01*
G01*
G37*
D12*
X192250000Y-111000000D03*
%TD*%
D10*
%TO.C,REF\u002A\u002A*%
X21900000Y-149420000D03*
%TD*%
%TO.C,REF\u002A\u002A*%
X273780000Y-149420000D03*
%TD*%
D13*
%TO.C,REF\u002A\u002A*%
X59860000Y-96690000D03*
%TD*%
D12*
%TO.C,REF\u002A\u002A*%
X178570000Y-140710000D03*
G36*
G01*
X174955950Y-146493688D02*
X174955950Y-146493688D01*
G75*
G02*
X175210453Y-147596061I-423935J-678438D01*
G01*
X175210453Y-147596061D01*
G75*
G02*
X174108080Y-147850564I-678438J423935D01*
G01*
X174108080Y-147850564D01*
G75*
G02*
X173853577Y-146748191I423935J678438D01*
G01*
X173853577Y-146748191D01*
G75*
G02*
X174955950Y-146493688I678438J-423935D01*
G01*
G37*
%TD*%
%TO.C,REF\u002A\u002A*%
X125578147Y-125002240D03*
X132580000Y-127690000D03*
%TD*%
D15*
%TO.C,REF\u002A\u002A*%
X62970000Y-96790000D03*
%TD*%
D12*
%TO.C,REF\u002A\u002A*%
X129390000Y-138900000D03*
G36*
G01*
X126083599Y-144864906D02*
X126083599Y-144864906D01*
G75*
G02*
X126395447Y-145952450I-387848J-699696D01*
G01*
X126395447Y-145952450D01*
G75*
G02*
X125307903Y-146264298I-699696J387848D01*
G01*
X125307903Y-146264298D01*
G75*
G02*
X124996055Y-145176754I387848J699696D01*
G01*
X124996055Y-145176754D01*
G75*
G02*
X126083599Y-144864906I699696J-387848D01*
G01*
G37*
%TD*%
%TO.C,REF\u002A\u002A*%
X202940000Y-122980000D03*
G36*
G01*
X209348704Y-120647423D02*
X209348704Y-120647423D01*
G75*
G02*
X209826842Y-119622053I751754J273616D01*
G01*
X209826842Y-119622053D01*
G75*
G02*
X210852212Y-120100191I273616J-751754D01*
G01*
X210852212Y-120100191D01*
G75*
G02*
X210374074Y-121125561I-751754J-273616D01*
G01*
X210374074Y-121125561D01*
G75*
G02*
X209348704Y-120647423I-273616J751754D01*
G01*
G37*
%TD*%
D15*
%TO.C,REF\u002A\u002A*%
X62290000Y-131500000D03*
X61718625Y-133974900D03*
D14*
G36*
X61961885Y-129587164D02*
G01*
X62299312Y-128125609D01*
X63760867Y-128463036D01*
X63423440Y-129924591D01*
X61961885Y-129587164D01*
G37*
%TD*%
D15*
%TO.C,REF\u002A\u002A*%
X44981617Y-113733057D03*
X47383234Y-112906114D03*
D14*
G36*
X43533315Y-115024963D02*
G01*
X42115037Y-115513315D01*
X41626685Y-114095037D01*
X43044963Y-113606685D01*
X43533315Y-115024963D01*
G37*
%TD*%
%TO.C,REF\u002A\u002A*%
G36*
G01*
X110664323Y-140467119D02*
X110664323Y-140467119D01*
G75*
G02*
X111792938Y-140546040I524847J-603768D01*
G01*
X111792938Y-140546040D01*
G75*
G02*
X111714017Y-141674655I-603768J-524847D01*
G01*
X111714017Y-141674655D01*
G75*
G02*
X110585402Y-141595734I-524847J603768D01*
G01*
X110585402Y-141595734D01*
G75*
G02*
X110664323Y-140467119I603768J524847D01*
G01*
G37*
D12*
X106190000Y-135320000D03*
%TD*%
D15*
%TO.C,REF\u002A\u002A*%
X64600000Y-95370000D03*
%TD*%
%TO.C,REF\u002A\u002A*%
G36*
G01*
X149756401Y-111015094D02*
X149756401Y-111015094D01*
G75*
G02*
X149444553Y-109927550I387848J699696D01*
G01*
X149444553Y-109927550D01*
G75*
G02*
X150532097Y-109615702I699696J-387848D01*
G01*
X150532097Y-109615702D01*
G75*
G02*
X150843945Y-110703246I-387848J-699696D01*
G01*
X150843945Y-110703246D01*
G75*
G02*
X149756401Y-111015094I-699696J387848D01*
G01*
G37*
D12*
X146450000Y-116980000D03*
%TD*%
%TO.C,REF\u002A\u002A*%
G36*
G01*
X198104050Y-147313688D02*
X198104050Y-147313688D01*
G75*
G02*
X199206423Y-147568191I423935J-678438D01*
G01*
X199206423Y-147568191D01*
G75*
G02*
X198951920Y-148670564I-678438J-423935D01*
G01*
X198951920Y-148670564D01*
G75*
G02*
X197849547Y-148416061I-423935J678438D01*
G01*
X197849547Y-148416061D01*
G75*
G02*
X198104050Y-147313688I678438J423935D01*
G01*
G37*
X194490000Y-141530000D03*
%TD*%
%TO.C,REF\u002A\u002A*%
X149080000Y-119450000D03*
G36*
G01*
X153088696Y-113932505D02*
X153088696Y-113932505D01*
G75*
G02*
X152911710Y-112815063I470228J647214D01*
G01*
X152911710Y-112815063D01*
G75*
G02*
X154029152Y-112638077I647214J-470228D01*
G01*
X154029152Y-112638077D01*
G75*
G02*
X154206138Y-113755519I-470228J-647214D01*
G01*
X154206138Y-113755519D01*
G75*
G02*
X153088696Y-113932505I-647214J470228D01*
G01*
G37*
%TD*%
%TO.C,REF\u002A\u002A*%
X239650000Y-127850000D03*
X232440537Y-125782720D03*
%TD*%
D15*
%TO.C,REF\u002A\u002A*%
X39502412Y-137990408D03*
X37614824Y-136290817D03*
D14*
G36*
X41334489Y-138630793D02*
G01*
X42449207Y-139634489D01*
X41445511Y-140749207D01*
X40330793Y-139745511D01*
X41334489Y-138630793D01*
G37*
%TD*%
D15*
%TO.C,REF\u002A\u002A*%
X57660000Y-95080000D03*
%TD*%
%TO.C,REF\u002A\u002A*%
G36*
G01*
X210997416Y-124910093D02*
X210997416Y-124910093D01*
G75*
G02*
X211580115Y-123940318I776237J193538D01*
G01*
X211580115Y-123940318D01*
G75*
G02*
X212549890Y-124523017I193538J-776237D01*
G01*
X212549890Y-124523017D01*
G75*
G02*
X211967191Y-125492792I-776237J-193538D01*
G01*
X211967191Y-125492792D01*
G75*
G02*
X210997416Y-124910093I-193538J776237D01*
G01*
G37*
D12*
X204380000Y-126560000D03*
%TD*%
D16*
%TO.C,REF\u002A\u002A*%
X166190000Y-108020000D03*
%TD*%
%TO.C,REF\u002A\u002A*%
G36*
G01*
X166062386Y-121174854D02*
X166062386Y-121174854D01*
G75*
G02*
X165082590Y-121740540I-772741J207055D01*
G01*
X165082590Y-121740540D01*
G75*
G02*
X164516904Y-120760744I207055J772741D01*
G01*
X164516904Y-120760744D01*
G75*
G02*
X165496700Y-120195058I772741J-207055D01*
G01*
X165496700Y-120195058D01*
G75*
G02*
X166062386Y-121174854I-207055J-772741D01*
G01*
G37*
D12*
X172650000Y-122940000D03*
%TD*%
%TO.C,REF\u002A\u002A*%
X107750000Y-132010000D03*
G36*
G01*
X113050135Y-136301965D02*
X113050135Y-136301965D01*
G75*
G02*
X114175308Y-136183704I621717J-503456D01*
G01*
X114175308Y-136183704D01*
G75*
G02*
X114293569Y-137308877I-503456J-621717D01*
G01*
X114293569Y-137308877D01*
G75*
G02*
X113168396Y-137427138I-621717J503456D01*
G01*
X113168396Y-137427138D01*
G75*
G02*
X113050135Y-136301965I503456J621717D01*
G01*
G37*
%TD*%
%TO.C,REF\u002A\u002A*%
X197730000Y-140060000D03*
G36*
G01*
X201928811Y-145434233D02*
X201928811Y-145434233D01*
G75*
G02*
X203051749Y-145572113I492529J-630409D01*
G01*
X203051749Y-145572113D01*
G75*
G02*
X202913869Y-146695051I-630409J-492529D01*
G01*
X202913869Y-146695051D01*
G75*
G02*
X201790931Y-146557171I-492529J630409D01*
G01*
X201790931Y-146557171D01*
G75*
G02*
X201928811Y-145434233I630409J492529D01*
G01*
G37*
%TD*%
D15*
%TO.C,REF\u002A\u002A*%
X231092600Y-132586548D03*
X230435199Y-130133097D03*
D14*
G36*
X232280330Y-134121441D02*
G01*
X232668559Y-135570330D01*
X231219670Y-135958559D01*
X230831441Y-134509670D01*
X232280330Y-134121441D01*
G37*
%TD*%
D15*
%TO.C,REF\u002A\u002A*%
X178808610Y-121621466D03*
X180337220Y-119592932D03*
D14*
G36*
X178330338Y-123502385D02*
G01*
X177427615Y-124700338D01*
X176229662Y-123797615D01*
X177132385Y-122599662D01*
X178330338Y-123502385D01*
G37*
%TD*%
D12*
%TO.C,REF\u002A\u002A*%
X193200000Y-130100000D03*
X198503301Y-135403301D03*
%TD*%
D14*
%TO.C,REF\u002A\u002A*%
G36*
X255910793Y-136235511D02*
G01*
X256914489Y-135120793D01*
X258029207Y-136124489D01*
X257025511Y-137239207D01*
X255910793Y-136235511D01*
G37*
D15*
X253570817Y-139955176D03*
X255270408Y-138067588D03*
%TD*%
D12*
%TO.C,REF\u002A\u002A*%
X55010000Y-146180000D03*
G36*
G01*
X58106216Y-152256665D02*
X58106216Y-152256665D01*
G75*
G02*
X59182213Y-152606278I363192J-712805D01*
G01*
X59182213Y-152606278D01*
G75*
G02*
X58832600Y-153682275I-712805J-363192D01*
G01*
X58832600Y-153682275D01*
G75*
G02*
X57756603Y-153332662I-363192J712805D01*
G01*
X57756603Y-153332662D01*
G75*
G02*
X58106216Y-152256665I712805J363192D01*
G01*
G37*
%TD*%
%TO.C,REF\u002A\u002A*%
X71730000Y-135000000D03*
G36*
G01*
X70663117Y-141736034D02*
X70663117Y-141736034D01*
G75*
G02*
X71328120Y-142651333I-125148J-790151D01*
G01*
X71328120Y-142651333D01*
G75*
G02*
X70412821Y-143316336I-790151J125148D01*
G01*
X70412821Y-143316336D01*
G75*
G02*
X69747818Y-142401037I125148J790151D01*
G01*
X69747818Y-142401037D01*
G75*
G02*
X70663117Y-141736034I790151J-125148D01*
G01*
G37*
%TD*%
%TO.C,REF\u002A\u002A*%
X174270000Y-119790000D03*
G36*
G01*
X167946606Y-117235183D02*
X167946606Y-117235183D01*
G75*
G02*
X166905174Y-117677245I-741747J299685D01*
G01*
X166905174Y-117677245D01*
G75*
G02*
X166463112Y-116635813I299685J741747D01*
G01*
X166463112Y-116635813D01*
G75*
G02*
X167504544Y-116193751I741747J-299685D01*
G01*
X167504544Y-116193751D01*
G75*
G02*
X167946606Y-117235183I-299685J-741747D01*
G01*
G37*
%TD*%
D17*
%TO.C,REF\u002A\u002A*%
X43820000Y-97290000D03*
D12*
X43820000Y-104910000D03*
%TD*%
%TO.C,REF\u002A\u002A*%
G36*
G01*
X151976617Y-141931791D02*
X151976617Y-141931791D01*
G75*
G02*
X153090800Y-141735330I655322J-458861D01*
G01*
X153090800Y-141735330D01*
G75*
G02*
X153287261Y-142849513I-458861J-655322D01*
G01*
X153287261Y-142849513D01*
G75*
G02*
X152173078Y-143045974I-655322J458861D01*
G01*
X152173078Y-143045974D01*
G75*
G02*
X151976617Y-141931791I458861J655322D01*
G01*
G37*
X146390000Y-138020000D03*
%TD*%
D18*
%TO.C,REF\u002A\u002A*%
X95810000Y-120970000D03*
D15*
X100890000Y-120970000D03*
X98350000Y-120970000D03*
%TD*%
D14*
%TO.C,REF\u002A\u002A*%
G36*
X144471489Y-122390499D02*
G01*
X143429501Y-121311489D01*
X144508511Y-120269501D01*
X145550499Y-121348511D01*
X144471489Y-122390499D01*
G37*
D15*
X148018865Y-124984246D03*
X146254432Y-123157123D03*
%TD*%
%TO.C,REF\u002A\u002A*%
X129827319Y-132674247D03*
X128194639Y-130728494D03*
D14*
G36*
X131552443Y-133563376D02*
G01*
X132516624Y-134712443D01*
X131367557Y-135676624D01*
X130403376Y-134527557D01*
X131552443Y-133563376D01*
G37*
%TD*%
D18*
%TO.C,REF\u002A\u002A*%
X199500000Y-125130000D03*
D15*
X199500000Y-130210000D03*
X199500000Y-127670000D03*
%TD*%
D14*
%TO.C,REF\u002A\u002A*%
G36*
X131669207Y-122285511D02*
G01*
X130554489Y-123289207D01*
X129550793Y-122174489D01*
X130665511Y-121170793D01*
X131669207Y-122285511D01*
G37*
D15*
X134385176Y-118830817D03*
X132497588Y-120530408D03*
%TD*%
D12*
%TO.C,REF\u002A\u002A*%
X198649648Y-120773928D03*
X192090000Y-124410000D03*
%TD*%
%TO.C,REF\u002A\u002A*%
X247130000Y-134860000D03*
X248561067Y-142222204D03*
%TD*%
D15*
%TO.C,REF\u002A\u002A*%
X89257542Y-128737313D03*
X88065084Y-126494626D03*
D14*
G36*
X90760107Y-129965686D02*
G01*
X91464314Y-131290107D01*
X90139893Y-131994314D01*
X89435686Y-130669893D01*
X90760107Y-129965686D01*
G37*
%TD*%
%TO.C,REF\u002A\u002A*%
G36*
G01*
X35707440Y-105034119D02*
X35707440Y-105034119D01*
G75*
G02*
X34609676Y-104760415I-412030J685734D01*
G01*
X34609676Y-104760415D01*
G75*
G02*
X34883380Y-103662651I685734J412030D01*
G01*
X34883380Y-103662651D01*
G75*
G02*
X35981144Y-103936355I412030J-685734D01*
G01*
X35981144Y-103936355D01*
G75*
G02*
X35707440Y-105034119I-685734J-412030D01*
G01*
G37*
D12*
X39220000Y-110880000D03*
%TD*%
D15*
%TO.C,REF\u002A\u002A*%
X192054316Y-137394903D03*
X189638633Y-138179806D03*
D14*
G36*
X193524945Y-136128470D02*
G01*
X194951530Y-135664945D01*
X195415055Y-137091530D01*
X193988470Y-137555055D01*
X193524945Y-136128470D01*
G37*
%TD*%
%TO.C,REF\u002A\u002A*%
G36*
X181112384Y-135508827D02*
G01*
X181951173Y-136752384D01*
X180707616Y-137591173D01*
X179868827Y-136347616D01*
X181112384Y-135508827D01*
G37*
D15*
X178069300Y-132338489D03*
X179489650Y-134444245D03*
%TD*%
%TO.C,REF\u002A\u002A*%
G36*
G01*
X157621796Y-112888297D02*
X157621796Y-112888297D01*
G75*
G02*
X157291015Y-111806362I375577J706358D01*
G01*
X157291015Y-111806362D01*
G75*
G02*
X158372950Y-111475581I706358J-375577D01*
G01*
X158372950Y-111475581D01*
G75*
G02*
X158703731Y-112557516I-375577J-706358D01*
G01*
X158703731Y-112557516D01*
G75*
G02*
X157621796Y-112888297I-706358J375577D01*
G01*
G37*
D12*
X154420000Y-118910000D03*
%TD*%
%TO.C,REF\u002A\u002A*%
G36*
G01*
X96098682Y-109555303D02*
X96098682Y-109555303D01*
G75*
G02*
X95160733Y-108922648I-152647J785302D01*
G01*
X95160733Y-108922648D01*
G75*
G02*
X95793388Y-107984699I785302J152647D01*
G01*
X95793388Y-107984699D01*
G75*
G02*
X96731337Y-108617354I152647J-785302D01*
G01*
X96731337Y-108617354D01*
G75*
G02*
X96098682Y-109555303I-785302J-152647D01*
G01*
G37*
X97400000Y-116250000D03*
%TD*%
D15*
%TO.C,REF\u002A\u002A*%
X191743452Y-115857400D03*
X194196903Y-116514801D03*
D14*
G36*
X189820330Y-116118559D02*
G01*
X188371441Y-115730330D01*
X188759670Y-114281441D01*
X190208559Y-114669670D01*
X189820330Y-116118559D01*
G37*
%TD*%
%TO.C,REF\u002A\u002A*%
G36*
X101925481Y-131644519D02*
G01*
X102675481Y-130345481D01*
X103974519Y-131095481D01*
X103224519Y-132394519D01*
X101925481Y-131644519D01*
G37*
D15*
X100410000Y-135769409D03*
X101680000Y-133569705D03*
%TD*%
D12*
%TO.C,REF\u002A\u002A*%
X92380000Y-136745191D03*
X96130000Y-130250000D03*
%TD*%
%TO.C,REF\u002A\u002A*%
X180035739Y-103765195D03*
D14*
G36*
X177027301Y-105339774D02*
G01*
X176640226Y-103787301D01*
X178192699Y-103400226D01*
X178579774Y-104952699D01*
X177027301Y-105339774D01*
G37*
%TD*%
D15*
%TO.C,REF\u002A\u002A*%
X236177123Y-119465568D03*
X238004246Y-117701135D03*
D14*
G36*
X235410499Y-121248511D02*
G01*
X234331489Y-122290499D01*
X233289501Y-121211489D01*
X234368511Y-120169501D01*
X235410499Y-121248511D01*
G37*
%TD*%
D15*
%TO.C,REF\u002A\u002A*%
X229530000Y-94020000D03*
%TD*%
D13*
%TO.C,REF\u002A\u002A*%
X144860000Y-96690000D03*
%TD*%
D12*
%TO.C,REF\u002A\u002A*%
X49700000Y-122330000D03*
X52017627Y-115197076D03*
%TD*%
D14*
%TO.C,REF\u002A\u002A*%
G36*
X246862064Y-115489491D02*
G01*
X245400509Y-115152064D01*
X245737936Y-113690509D01*
X247199491Y-114027936D01*
X246862064Y-115489491D01*
G37*
D15*
X251249800Y-115732751D03*
X248774900Y-115161376D03*
%TD*%
D12*
%TO.C,REF\u002A\u002A*%
X140390000Y-111420000D03*
G36*
G01*
X142610374Y-104971563D02*
X142610374Y-104971563D01*
G75*
G02*
X142114414Y-103954693I260455J756415D01*
G01*
X142114414Y-103954693D01*
G75*
G02*
X143131284Y-103458733I756415J-260455D01*
G01*
X143131284Y-103458733D01*
G75*
G02*
X143627244Y-104475603I-260455J-756415D01*
G01*
X143627244Y-104475603D01*
G75*
G02*
X142610374Y-104971563I-756415J260455D01*
G01*
G37*
%TD*%
D15*
%TO.C,REF\u002A\u002A*%
X149600000Y-95370000D03*
%TD*%
D12*
%TO.C,REF\u002A\u002A*%
X244630000Y-109910000D03*
D17*
X244630000Y-102290000D03*
%TD*%
D14*
%TO.C,REF\u002A\u002A*%
G36*
X165500817Y-101447086D02*
G01*
X165622914Y-99450817D01*
X167619183Y-99572914D01*
X167497086Y-101569183D01*
X165500817Y-101447086D01*
G37*
%TD*%
D12*
%TO.C,REF\u002A\u002A*%
X75330000Y-128100000D03*
G36*
G01*
X68511039Y-127980975D02*
X68511039Y-127980975D01*
G75*
G02*
X67697199Y-128766891I-799878J13962D01*
G01*
X67697199Y-128766891D01*
G75*
G02*
X66911283Y-127953051I13962J799878D01*
G01*
X66911283Y-127953051D01*
G75*
G02*
X67725123Y-127167135I799878J-13962D01*
G01*
X67725123Y-127167135D01*
G75*
G02*
X68511039Y-127980975I-13962J-799878D01*
G01*
G37*
%TD*%
D17*
%TO.C,REF\u002A\u002A*%
X22660000Y-127900000D03*
D12*
X30280000Y-127900000D03*
%TD*%
D17*
%TO.C,REF\u002A\u002A*%
X241300000Y-99530000D03*
D12*
X241300000Y-107150000D03*
%TD*%
D15*
%TO.C,REF\u002A\u002A*%
X136628731Y-101586819D03*
X137497462Y-103973639D03*
D14*
G36*
X135311746Y-100161285D02*
G01*
X134798715Y-98751746D01*
X136208254Y-98238715D01*
X136721285Y-99648254D01*
X135311746Y-100161285D01*
G37*
%TD*%
%TO.C,REF\u002A\u002A*%
G36*
X238228076Y-98053988D02*
G01*
X237096012Y-99038076D01*
X236111924Y-97906012D01*
X237243988Y-96921924D01*
X238228076Y-98053988D01*
G37*
D15*
X241003925Y-94647220D03*
X239086962Y-96313610D03*
%TD*%
%TO.C,REF\u002A\u002A*%
X241560000Y-142150000D03*
X239118396Y-141449881D03*
D14*
G36*
X243487387Y-141922445D02*
G01*
X244929279Y-142335901D01*
X244515823Y-143777793D01*
X243073931Y-143364337D01*
X243487387Y-141922445D01*
G37*
%TD*%
%TO.C,REF\u002A\u002A*%
G36*
G01*
X57875562Y-107349734D02*
X57875562Y-107349734D01*
G75*
G02*
X58110787Y-108456381I-435711J-670936D01*
G01*
X58110787Y-108456381D01*
G75*
G02*
X57004140Y-108691606I-670936J435711D01*
G01*
X57004140Y-108691606D01*
G75*
G02*
X56768915Y-107584959I435711J670936D01*
G01*
X56768915Y-107584959D01*
G75*
G02*
X57875562Y-107349734I670936J-435711D01*
G01*
G37*
D12*
X61590000Y-101630000D03*
%TD*%
%TO.C,REF\u002A\u002A*%
G36*
G01*
X232606426Y-100916182D02*
X232606426Y-100916182D01*
G75*
G02*
X231513606Y-101209002I-692820J400000D01*
G01*
X231513606Y-101209002D01*
G75*
G02*
X231220786Y-100116182I400000J692820D01*
G01*
X231220786Y-100116182D01*
G75*
G02*
X232313606Y-99823362I692820J-400000D01*
G01*
X232313606Y-99823362D01*
G75*
G02*
X232606426Y-100916182I-400000J-692820D01*
G01*
G37*
X238512720Y-104326182D03*
%TD*%
%TO.C,REF\u002A\u002A*%
G36*
G01*
X217718682Y-121204697D02*
X217718682Y-121204697D01*
G75*
G02*
X218351337Y-122142646I-152647J-785302D01*
G01*
X218351337Y-122142646D01*
G75*
G02*
X217413388Y-122775301I-785302J152647D01*
G01*
X217413388Y-122775301D01*
G75*
G02*
X216780733Y-121837352I152647J785302D01*
G01*
X216780733Y-121837352D01*
G75*
G02*
X217718682Y-121204697I785302J-152647D01*
G01*
G37*
X219020000Y-114510000D03*
%TD*%
%TO.C,REF\u002A\u002A*%
G36*
G01*
X230644233Y-116078811D02*
X230644233Y-116078811D01*
G75*
G02*
X231767171Y-115940931I630409J-492529D01*
G01*
X231767171Y-115940931D01*
G75*
G02*
X231905051Y-117063869I-492529J-630409D01*
G01*
X231905051Y-117063869D01*
G75*
G02*
X230782113Y-117201749I-630409J492529D01*
G01*
X230782113Y-117201749D01*
G75*
G02*
X230644233Y-116078811I492529J630409D01*
G01*
G37*
X225270000Y-111880000D03*
%TD*%
D14*
%TO.C,REF\u002A\u002A*%
G36*
X152378591Y-99738961D02*
G01*
X151841039Y-98338591D01*
X153241409Y-97801039D01*
X153778961Y-99201409D01*
X152378591Y-99738961D01*
G37*
D15*
X154630509Y-103512589D03*
X153720255Y-101141294D03*
%TD*%
D13*
%TO.C,REF\u002A\u002A*%
X232200000Y-94180000D03*
%TD*%
D12*
%TO.C,REF\u002A\u002A*%
X42770000Y-109530000D03*
G36*
G01*
X39673784Y-103453335D02*
X39673784Y-103453335D01*
G75*
G02*
X38597787Y-103103722I-363192J712805D01*
G01*
X38597787Y-103103722D01*
G75*
G02*
X38947400Y-102027725I712805J363192D01*
G01*
X38947400Y-102027725D01*
G75*
G02*
X40023397Y-102377338I363192J-712805D01*
G01*
X40023397Y-102377338D01*
G75*
G02*
X39673784Y-103453335I-712805J-363192D01*
G01*
G37*
%TD*%
D15*
%TO.C,REF\u002A\u002A*%
X234600000Y-95370000D03*
%TD*%
%TO.C,REF\u002A\u002A*%
G36*
G01*
X269566665Y-119573784D02*
X269566665Y-119573784D01*
G75*
G02*
X269916278Y-118497787I712805J363192D01*
G01*
X269916278Y-118497787D01*
G75*
G02*
X270992275Y-118847400I363192J-712805D01*
G01*
X270992275Y-118847400D01*
G75*
G02*
X270642662Y-119923397I-712805J-363192D01*
G01*
X270642662Y-119923397D01*
G75*
G02*
X269566665Y-119573784I-363192J712805D01*
G01*
G37*
D12*
X263490000Y-122670000D03*
%TD*%
%TO.C,REF\u002A\u002A*%
G36*
G01*
X262168981Y-138137744D02*
X262168981Y-138137744D01*
G75*
G02*
X261105840Y-138524695I-725046J338095D01*
G01*
X261105840Y-138524695D01*
G75*
G02*
X260718889Y-137461554I338095J725046D01*
G01*
X260718889Y-137461554D01*
G75*
G02*
X261782030Y-137074603I725046J-338095D01*
G01*
X261782030Y-137074603D01*
G75*
G02*
X262168981Y-138137744I-338095J-725046D01*
G01*
G37*
X268350000Y-141020000D03*
%TD*%
%TO.C,REF\u002A\u002A*%
G36*
G01*
X125815834Y-104444796D02*
X125815834Y-104444796D01*
G75*
G02*
X124856377Y-103845261I-179961J779496D01*
G01*
X124856377Y-103845261D01*
G75*
G02*
X125455912Y-102885804I779496J179961D01*
G01*
X125455912Y-102885804D01*
G75*
G02*
X126415369Y-103485339I179961J-779496D01*
G01*
X126415369Y-103485339D01*
G75*
G02*
X125815834Y-104444796I-779496J-179961D01*
G01*
G37*
X127350000Y-111090000D03*
%TD*%
%TO.C,REF\u002A\u002A*%
G36*
G01*
X145520374Y-105741563D02*
X145520374Y-105741563D01*
G75*
G02*
X145024414Y-104724693I260455J756415D01*
G01*
X145024414Y-104724693D01*
G75*
G02*
X146041284Y-104228733I756415J-260455D01*
G01*
X146041284Y-104228733D01*
G75*
G02*
X146537244Y-105245603I-260455J-756415D01*
G01*
X146537244Y-105245603D01*
G75*
G02*
X145520374Y-105741563I-756415J260455D01*
G01*
G37*
X143300000Y-112190000D03*
%TD*%
%TO.C,REF\u002A\u002A*%
G36*
G01*
X233397019Y-151374070D02*
X233397019Y-151374070D01*
G75*
G02*
X234430577Y-150913900I746864J-286694D01*
G01*
X234430577Y-150913900D01*
G75*
G02*
X234890747Y-151947458I-286694J-746864D01*
G01*
X234890747Y-151947458D01*
G75*
G02*
X233857189Y-152407628I-746864J286694D01*
G01*
X233857189Y-152407628D01*
G75*
G02*
X233397019Y-151374070I286694J746864D01*
G01*
G37*
X227030000Y-148930000D03*
%TD*%
%TO.C,REF\u002A\u002A*%
X262120000Y-119150000D03*
G36*
G01*
X267903688Y-115535950D02*
X267903688Y-115535950D01*
G75*
G02*
X268158191Y-114433577I678438J423935D01*
G01*
X268158191Y-114433577D01*
G75*
G02*
X269260564Y-114688080I423935J-678438D01*
G01*
X269260564Y-114688080D01*
G75*
G02*
X269006061Y-115790453I-678438J-423935D01*
G01*
X269006061Y-115790453D01*
G75*
G02*
X267903688Y-115535950I-423935J678438D01*
G01*
G37*
%TD*%
D15*
%TO.C,REF\u002A\u002A*%
X221629705Y-107440000D03*
X223829409Y-108710000D03*
D14*
G36*
X219704519Y-107194519D02*
G01*
X218405481Y-106444519D01*
X219155481Y-105145481D01*
X220454519Y-105895481D01*
X219704519Y-107194519D01*
G37*
%TD*%
D13*
%TO.C,REF\u002A\u002A*%
X147200000Y-94180000D03*
%TD*%
D17*
%TO.C,REF\u002A\u002A*%
X249170000Y-102940000D03*
D12*
X249170000Y-110560000D03*
%TD*%
%TO.C,REF\u002A\u002A*%
X226840000Y-134740000D03*
G36*
G01*
X220818297Y-137941796D02*
X220818297Y-137941796D01*
G75*
G02*
X220487516Y-139023731I-706358J-375577D01*
G01*
X220487516Y-139023731D01*
G75*
G02*
X219405581Y-138692950I-375577J706358D01*
G01*
X219405581Y-138692950D01*
G75*
G02*
X219736362Y-137611015I706358J375577D01*
G01*
X219736362Y-137611015D01*
G75*
G02*
X220818297Y-137941796I375577J-706358D01*
G01*
G37*
%TD*%
%TO.C,REF\u002A\u002A*%
G36*
G01*
X67831039Y-131999025D02*
X67831039Y-131999025D01*
G75*
G02*
X67045123Y-132812865I-799878J-13962D01*
G01*
X67045123Y-132812865D01*
G75*
G02*
X66231283Y-132026949I-13962J799878D01*
G01*
X66231283Y-132026949D01*
G75*
G02*
X67017199Y-131213109I799878J13962D01*
G01*
X67017199Y-131213109D01*
G75*
G02*
X67831039Y-131999025I13962J-799878D01*
G01*
G37*
X74650000Y-131880000D03*
%TD*%
%TO.C,REF\u002A\u002A*%
X223620000Y-115330000D03*
G36*
G01*
X229274036Y-119143696D02*
X229274036Y-119143696D01*
G75*
G02*
X230384620Y-118927820I663230J-447354D01*
G01*
X230384620Y-118927820D01*
G75*
G02*
X230600496Y-120038404I-447354J-663230D01*
G01*
X230600496Y-120038404D01*
G75*
G02*
X229489912Y-120254280I-663230J447354D01*
G01*
X229489912Y-120254280D01*
G75*
G02*
X229274036Y-119143696I447354J663230D01*
G01*
G37*
%TD*%
%TO.C,REF\u002A\u002A*%
X241250000Y-154320000D03*
G36*
G01*
X241130975Y-147501039D02*
X241130975Y-147501039D01*
G75*
G02*
X240317135Y-146715123I-13962J799878D01*
G01*
X240317135Y-146715123D01*
G75*
G02*
X241103051Y-145901283I799878J13962D01*
G01*
X241103051Y-145901283D01*
G75*
G02*
X241916891Y-146687199I13962J-799878D01*
G01*
X241916891Y-146687199D01*
G75*
G02*
X241130975Y-147501039I-799878J-13962D01*
G01*
G37*
%TD*%
%TO.C,REF\u002A\u002A*%
X65610000Y-109220000D03*
G36*
G01*
X61411189Y-114594233D02*
X61411189Y-114594233D01*
G75*
G02*
X61549069Y-115717171I-492529J-630409D01*
G01*
X61549069Y-115717171D01*
G75*
G02*
X60426131Y-115855051I-630409J492529D01*
G01*
X60426131Y-115855051D01*
G75*
G02*
X60288251Y-114732113I492529J630409D01*
G01*
X60288251Y-114732113D01*
G75*
G02*
X61411189Y-114594233I630409J-492529D01*
G01*
G37*
%TD*%
%TO.C,REF\u002A\u002A*%
G36*
G01*
X163010189Y-113888346D02*
X163010189Y-113888346D01*
G75*
G02*
X162321454Y-112990769I104421J793156D01*
G01*
X162321454Y-112990769D01*
G75*
G02*
X163219031Y-112302034I793156J-104421D01*
G01*
X163219031Y-112302034D01*
G75*
G02*
X163907766Y-113199611I-104421J-793156D01*
G01*
X163907766Y-113199611D01*
G75*
G02*
X163010189Y-113888346I-793156J104421D01*
G01*
G37*
D14*
G36*
X162808735Y-121547577D02*
G01*
X161222423Y-121338735D01*
X161431265Y-119752423D01*
X163017577Y-119961265D01*
X162808735Y-121547577D01*
G37*
%TD*%
D15*
%TO.C,REF\u002A\u002A*%
X232970000Y-96790000D03*
%TD*%
%TO.C,REF\u002A\u002A*%
X142660000Y-95080000D03*
%TD*%
D12*
%TO.C,REF\u002A\u002A*%
X234338539Y-105656353D03*
G36*
G01*
X228157520Y-102774097D02*
X228157520Y-102774097D01*
G75*
G02*
X227094379Y-103161048I-725046J338095D01*
G01*
X227094379Y-103161048D01*
G75*
G02*
X226707428Y-102097907I338095J725046D01*
G01*
X226707428Y-102097907D01*
G75*
G02*
X227770569Y-101710956I725046J-338095D01*
G01*
X227770569Y-101710956D01*
G75*
G02*
X228157520Y-102774097I-338095J-725046D01*
G01*
G37*
%TD*%
D15*
%TO.C,REF\u002A\u002A*%
X147970000Y-96790000D03*
%TD*%
%TO.C,REF\u002A\u002A*%
G36*
G01*
X62094438Y-150489734D02*
X62094438Y-150489734D01*
G75*
G02*
X63201085Y-150724959I435711J-670936D01*
G01*
X63201085Y-150724959D01*
G75*
G02*
X62965860Y-151831606I-670936J-435711D01*
G01*
X62965860Y-151831606D01*
G75*
G02*
X61859213Y-151596381I-435711J670936D01*
G01*
X61859213Y-151596381D01*
G75*
G02*
X62094438Y-150489734I670936J435711D01*
G01*
G37*
D12*
X58380000Y-144770000D03*
%TD*%
%TO.C,REF\u002A\u002A*%
G36*
G01*
X120238297Y-117028204D02*
X120238297Y-117028204D01*
G75*
G02*
X119156362Y-117358985I-706358J375577D01*
G01*
X119156362Y-117358985D01*
G75*
G02*
X118825581Y-116277050I375577J706358D01*
G01*
X118825581Y-116277050D01*
G75*
G02*
X119907516Y-115946269I706358J-375577D01*
G01*
X119907516Y-115946269D01*
G75*
G02*
X120238297Y-117028204I-375577J-706358D01*
G01*
G37*
X126260000Y-120230000D03*
%TD*%
%TO.C,REF\u002A\u002A*%
G36*
G01*
X36847744Y-150231019D02*
X36847744Y-150231019D01*
G75*
G02*
X37234695Y-151294160I-338095J-725046D01*
G01*
X37234695Y-151294160D01*
G75*
G02*
X36171554Y-151681111I-725046J338095D01*
G01*
X36171554Y-151681111D01*
G75*
G02*
X35784603Y-150617970I338095J725046D01*
G01*
X35784603Y-150617970D01*
G75*
G02*
X36847744Y-150231019I725046J-338095D01*
G01*
G37*
X39730000Y-144050000D03*
%TD*%
%TO.C,REF\u002A\u002A*%
X59100000Y-100370000D03*
G36*
G01*
X55587440Y-106215881D02*
X55587440Y-106215881D01*
G75*
G02*
X55861144Y-107313645I-412030J-685734D01*
G01*
X55861144Y-107313645D01*
G75*
G02*
X54763380Y-107587349I-685734J412030D01*
G01*
X54763380Y-107587349D01*
G75*
G02*
X54489676Y-106489585I412030J685734D01*
G01*
X54489676Y-106489585D01*
G75*
G02*
X55587440Y-106215881I685734J-412030D01*
G01*
G37*
%TD*%
%TO.C,REF\u002A\u002A*%
X45908857Y-141794444D03*
X47850000Y-134550000D03*
%TD*%
%TO.C,REF\u002A\u002A*%
X250250000Y-123590000D03*
X255735153Y-118475012D03*
%TD*%
%TO.C,REF\u002A\u002A*%
X148770000Y-135290000D03*
G36*
G01*
X154615881Y-138802560D02*
X154615881Y-138802560D01*
G75*
G02*
X155713645Y-138528856I685734J-412030D01*
G01*
X155713645Y-138528856D01*
G75*
G02*
X155987349Y-139626620I-412030J-685734D01*
G01*
X155987349Y-139626620D01*
G75*
G02*
X154889585Y-139900324I-685734J412030D01*
G01*
X154889585Y-139900324D01*
G75*
G02*
X154615881Y-138802560I412030J685734D01*
G01*
G37*
%TD*%
%TO.C,REF\u002A\u002A*%
X42630000Y-129710000D03*
X35322225Y-131397133D03*
%TD*%
%TO.C,REF\u002A\u002A*%
X234674951Y-138899938D03*
X240070000Y-133690000D03*
%TD*%
%TO.C,REF\u002A\u002A*%
X142150000Y-148750000D03*
G36*
G01*
X147667495Y-144741304D02*
X147667495Y-144741304D01*
G75*
G02*
X147844481Y-143623862I647214J470228D01*
G01*
X147844481Y-143623862D01*
G75*
G02*
X148961923Y-143800848I470228J-647214D01*
G01*
X148961923Y-143800848D01*
G75*
G02*
X148784937Y-144918290I-647214J-470228D01*
G01*
X148784937Y-144918290D01*
G75*
G02*
X147667495Y-144741304I-470228J647214D01*
G01*
G37*
%TD*%
%TO.C,REF\u002A\u002A*%
X38630062Y-117284951D03*
X43840000Y-122680000D03*
%TD*%
%TO.C,REF\u002A\u002A*%
X241730662Y-115103893D03*
X243290000Y-122440000D03*
%TD*%
%TO.C,REF\u002A\u002A*%
X259031389Y-131931761D03*
X251940000Y-129490000D03*
%TD*%
%TO.C,REF\u002A\u002A*%
G36*
G01*
X222386312Y-141834050D02*
X222386312Y-141834050D01*
G75*
G02*
X222131809Y-142936423I-678438J-423935D01*
G01*
X222131809Y-142936423D01*
G75*
G02*
X221029436Y-142681920I-423935J678438D01*
G01*
X221029436Y-142681920D01*
G75*
G02*
X221283939Y-141579547I678438J423935D01*
G01*
X221283939Y-141579547D01*
G75*
G02*
X222386312Y-141834050I423935J-678438D01*
G01*
G37*
X228170000Y-138220000D03*
%TD*%
D15*
%TO.C,REF\u002A\u002A*%
X144530000Y-94020000D03*
%TD*%
D12*
%TO.C,REF\u002A\u002A*%
X138930000Y-123330000D03*
X141617760Y-116328147D03*
%TD*%
%TO.C,REF\u002A\u002A*%
G36*
G01*
X58806304Y-112364036D02*
X58806304Y-112364036D01*
G75*
G02*
X59022180Y-113474620I-447354J-663230D01*
G01*
X59022180Y-113474620D01*
G75*
G02*
X57911596Y-113690496I-663230J447354D01*
G01*
X57911596Y-113690496D01*
G75*
G02*
X57695720Y-112579912I447354J663230D01*
G01*
X57695720Y-112579912D01*
G75*
G02*
X58806304Y-112364036I663230J-447354D01*
G01*
G37*
X62620000Y-106710000D03*
%TD*%
%TO.C,REF\u002A\u002A*%
G36*
G01*
X171765677Y-143337119D02*
X171765677Y-143337119D01*
G75*
G02*
X171844598Y-144465734I-524847J-603768D01*
G01*
X171844598Y-144465734D01*
G75*
G02*
X170715983Y-144544655I-603768J524847D01*
G01*
X170715983Y-144544655D01*
G75*
G02*
X170637062Y-143416040I524847J603768D01*
G01*
X170637062Y-143416040D01*
G75*
G02*
X171765677Y-143337119I603768J-524847D01*
G01*
G37*
X176240000Y-138190000D03*
%TD*%
%TO.C,REF\u002A\u002A*%
X149491853Y-130477760D03*
X142490000Y-127790000D03*
%TD*%
%TO.C,REF\u002A\u002A*%
X36850000Y-141830000D03*
G36*
G01*
X33543599Y-147794906D02*
X33543599Y-147794906D01*
G75*
G02*
X33855447Y-148882450I-387848J-699696D01*
G01*
X33855447Y-148882450D01*
G75*
G02*
X32767903Y-149194298I-699696J387848D01*
G01*
X32767903Y-149194298D01*
G75*
G02*
X32456055Y-148106754I387848J699696D01*
G01*
X32456055Y-148106754D01*
G75*
G02*
X33543599Y-147794906I699696J-387848D01*
G01*
G37*
%TD*%
D15*
%TO.C,REF\u002A\u002A*%
X142583038Y-134976390D03*
X140666075Y-136642780D03*
D14*
G36*
X143441924Y-133236012D02*
G01*
X144573988Y-132251924D01*
X145558076Y-133383988D01*
X144426012Y-134368076D01*
X143441924Y-133236012D01*
G37*
%TD*%
%TO.C,REF\u002A\u002A*%
G36*
X258042050Y-123276507D02*
G01*
X257603493Y-121842050D01*
X259037950Y-121403493D01*
X259476507Y-122837950D01*
X258042050Y-123276507D01*
G37*
D15*
X260025248Y-127198028D03*
X259282624Y-124769014D03*
%TD*%
D12*
%TO.C,REF\u002A\u002A*%
X93920000Y-116640000D03*
G36*
G01*
X91812505Y-110153794D02*
X91812505Y-110153794D01*
G75*
G02*
X90804446Y-109640163I-247214J760845D01*
G01*
X90804446Y-109640163D01*
G75*
G02*
X91318077Y-108632104I760845J247214D01*
G01*
X91318077Y-108632104D01*
G75*
G02*
X92326136Y-109145735I247214J-760845D01*
G01*
X92326136Y-109145735D01*
G75*
G02*
X91812505Y-110153794I-760845J-247214D01*
G01*
G37*
%TD*%
%TO.C,REF\u002A\u002A*%
X30840000Y-124040000D03*
G36*
G01*
X24029347Y-123683069D02*
X24029347Y-123683069D01*
G75*
G02*
X23188574Y-124440104I-798904J41869D01*
G01*
X23188574Y-124440104D01*
G75*
G02*
X22431539Y-123599331I41869J798904D01*
G01*
X22431539Y-123599331D01*
G75*
G02*
X23272312Y-122842296I798904J-41869D01*
G01*
X23272312Y-122842296D01*
G75*
G02*
X24029347Y-123683069I-41869J-798904D01*
G01*
G37*
%TD*%
%TO.C,REF\u002A\u002A*%
X184392216Y-139330955D03*
X187680000Y-132590000D03*
%TD*%
%TO.C,REF\u002A\u002A*%
G36*
G01*
X66708209Y-113596617D02*
X66708209Y-113596617D01*
G75*
G02*
X66904670Y-114710800I-458861J-655322D01*
G01*
X66904670Y-114710800D01*
G75*
G02*
X65790487Y-114907261I-655322J458861D01*
G01*
X65790487Y-114907261D01*
G75*
G02*
X65594026Y-113793078I458861J655322D01*
G01*
X65594026Y-113793078D01*
G75*
G02*
X66708209Y-113596617I655322J-458861D01*
G01*
G37*
X70620000Y-108010000D03*
%TD*%
%TO.C,REF\u002A\u002A*%
X265700000Y-144590000D03*
G36*
G01*
X259916312Y-140975950D02*
X259916312Y-140975950D01*
G75*
G02*
X258813939Y-141230453I-678438J423935D01*
G01*
X258813939Y-141230453D01*
G75*
G02*
X258559436Y-140128080I423935J678438D01*
G01*
X258559436Y-140128080D01*
G75*
G02*
X259661809Y-139873577I678438J-423935D01*
G01*
X259661809Y-139873577D01*
G75*
G02*
X259916312Y-140975950I-423935J-678438D01*
G01*
G37*
%TD*%
%TO.C,REF\u002A\u002A*%
X187210000Y-123800000D03*
X185522867Y-116492225D03*
%TD*%
%TO.C,REF\u002A\u002A*%
X137040000Y-132650000D03*
X134352240Y-139651853D03*
%TD*%
D15*
%TO.C,REF\u002A\u002A*%
X227660000Y-95080000D03*
%TD*%
D12*
%TO.C,REF\u002A\u002A*%
X99640000Y-126660000D03*
X107135431Y-126921746D03*
%TD*%
%TO.C,REF\u002A\u002A*%
X62526107Y-124380662D03*
X55190000Y-125940000D03*
%TD*%
%TO.C,REF\u002A\u002A*%
G36*
G01*
X245149025Y-148181039D02*
X245149025Y-148181039D01*
G75*
G02*
X244363109Y-147367199I13962J799878D01*
G01*
X244363109Y-147367199D01*
G75*
G02*
X245176949Y-146581283I799878J-13962D01*
G01*
X245176949Y-146581283D01*
G75*
G02*
X245962865Y-147395123I-13962J-799878D01*
G01*
X245962865Y-147395123D01*
G75*
G02*
X245149025Y-148181039I-799878J13962D01*
G01*
G37*
X245030000Y-155000000D03*
%TD*%
%TO.C,REF\u002A\u002A*%
X176131086Y-128366037D03*
X183590000Y-129150000D03*
%TD*%
D13*
%TO.C,REF\u002A\u002A*%
X229860000Y-96690000D03*
%TD*%
M02*
