%FSTAX24Y24*%
%MOIN*%
%IN ultra.toplayer.ger *%
%ADD10C,0.0600*%
%ADD11C,0.0800*%
D10*X01981Y007286D03*X02081D03*X02181D03*X02281D03*X02381D03*X02481D03*
X02581D03*Y010286D03*X02481D03*X02381D03*X02281D03*X02181D03*X02081D03*
X01981D03*X012697Y015014D03*X014743Y01282D03*X017307Y015226D03*
X018669Y012553D03*X017903Y010238D03*Y007238D03*X014663Y004006D03*
X015883Y001266D03*X014663Y004006D03*X015883Y001266D03*X03954Y004736D03*
X041936Y006541D03*X03954Y004736D03*X041936Y006541D03*X024234Y001852D03*
X023508Y004763D03*X024234Y001852D03*X023508Y004763D03*
X019916Y011752D03*X022916D03*X019916D03*X022916D03*X017903Y010238D03*
Y007238D03*X03205Y010977D03*X029087Y011447D03*X03205Y010977D03*
X029087Y011447D03*X031698Y014042D03*X034347Y012633D03*
X031698Y014042D03*X034347Y012633D03*X017307Y015226D03*
X018669Y012553D03*X016421Y007238D03*Y010238D03*X030538Y012785D03*
X033279Y011565D03*X030538Y012785D03*X033279Y011565D03*
X016421Y007238D03*Y010238D03*X012697Y015014D03*X014743Y01282D03*
X019396Y01516D03*X019911Y014302D03*X030238Y014857D03*X030768Y015705D03*
X033523Y007502D03*X032617Y007079D03*X033523Y007502D03*
X032617Y007079D03*X030238Y014857D03*X030768Y015705D03*X019396Y01516D03*
X019911Y014302D03*X016263Y006038D03*X014863Y005501D03*
X013501Y012139D03*X012046Y011776D03*X029059Y005449D03*
X027567Y005292D03*X029059Y005449D03*X027567Y005292D03*
X013501Y012139D03*X012046Y011776D03*X016263Y006038D03*
X014863Y005501D03*X029273Y01266D03*X027838Y012221D03*X029273Y01266D03*
X027838Y012221D03*X009995Y015269D03*X012259Y013301D03*
X026738Y003985D03*X029727Y004247D03*X026738Y003985D03*
X029727Y004247D03*X009995Y015269D03*X012259Y013301D03*
X017797Y016549D03*X020793Y016706D03*X017797Y016549D03*
X020793Y016706D03*D11*X016639Y012687D03*X015094Y015258D03*
X016639Y012687D03*X015094Y015258D03*D10*X01981Y007286D03*X02081D03*
X02181D03*X02281D03*X02381D03*X02481D03*X02581D03*Y010286D03*X02481D03*
X02381D03*X02281D03*X02181D03*X02081D03*X01981D03*X01181Y007286D03*
X01281D03*X01381D03*X01481D03*Y010286D03*X01381D03*X01281D03*X01181D03*
X020612Y005368D03*X017623Y005106D03*X020612Y005368D03*
X017623Y005106D03*X024519Y011939D03*X024936Y01491D03*X024519Y011939D03*
X024936Y01491D03*X02769Y007169D03*X02869D03*X02969D03*X03069D03*
Y010169D03*X02969D03*X02869D03*X02769D03*Y007169D03*X02869D03*
X02969D03*X03069D03*Y010169D03*X02969D03*X02869D03*X02769D03*
X01181Y007286D03*X01281D03*X01381D03*X01481D03*Y010286D03*X01381D03*
X01281D03*X01181D03*X002369Y007451D03*X002195Y008436D03*
X002022Y00942D03*X043252Y012245D03*X043235Y011246D03*X043218Y010246D03*
X043252Y012245D03*X043235Y011246D03*X043218Y010246D03*
X002369Y007451D03*X002195Y008436D03*X002022Y00942D03*X001127Y014665D03*
X001214Y013669D03*X001301Y012672D03*X043932Y00452D03*X043673Y005486D03*
X043414Y006452D03*X043932Y00452D03*X043673Y005486D03*X043414Y006452D03*
X001127Y014665D03*X001214Y013669D03*X001301Y012672D03*X005277Y01333D03*
X006223Y013005D03*X007169Y012679D03*X005705Y009032D03*
X006676Y009274D03*X007646Y009516D03*X039986Y011367D03*
X039516Y010484D03*X039047Y009601D03*X039986Y011367D03*
X039516Y010484D03*X039047Y009601D03*X005705Y009032D03*
X006676Y009274D03*X007646Y009516D03*X039994Y006792D03*
X039024Y007034D03*X038053Y007276D03*X039994Y006792D03*
X039024Y007034D03*X038053Y007276D03*X005277Y01333D03*X006223Y013005D03*
X007169Y012679D03*X005319Y005682D03*X008119Y006757D03*
X007452Y011398D03*X010126Y010036D03*X037579Y00844D03*X03471Y009317D03*
X037579Y00844D03*X03471Y009317D03*X007452Y011398D03*X010126Y010036D03*
X007666Y007768D03*X010577Y008493D03*X037953Y009802D03*
X035084Y010679D03*X037953Y009802D03*X035084Y010679D03*
X007666Y007768D03*X010577Y008493D03*X002638Y010966D03*X005636Y01107D03*
X042695Y007947D03*X03974Y008468D03*X042695Y007947D03*X03974Y008468D03*
X002638Y010966D03*X005636Y01107D03*X03838Y011805D03*X035527Y012732D03*
X03838Y011805D03*X035527Y012732D03*X005319Y005682D03*X008119Y006757D03*
X009364Y012142D03*X00824Y014923D03*X009536Y006935D03*X008268Y004217D03*
X037958Y015631D03*X040795Y014654D03*X037958Y015631D03*
X040795Y014654D03*X009536Y006935D03*X008268Y004217D03*
X036291Y006765D03*X037414Y003984D03*X036291Y006765D03*
X037414Y003984D03*X009364Y012142D03*X00824Y014923D03*X004303Y009442D03*
X004615Y007975D03*X003846Y014236D03*X003741Y012739D03*X04455Y007973D03*
X044862Y00944D03*X04455Y007973D03*X044862Y00944D03*X003846Y014236D03*
X003741Y012739D03*X041622Y010574D03*Y012074D03*Y010574D03*Y012074D03*
X004303Y009442D03*X004615Y007975D03*D11*X034423Y015349D03*D03*
X035389Y01509D03*D03*X036355Y014832D03*D03*X031Y005D03*D03*
X011031Y016586D03*D03*X010503Y005925D03*D03*X010144Y004992D03*D03*
X009786Y004058D03*D03*X0126Y005515D03*D03*X027697Y01461D03*D03*
M02*