M48
FMAT,2
INCH,LZ
T1C0.0280
T2C0.0400
%
T1
X01981Y007286
X02081Y007286
X02181Y007286
X02281Y007286
X02381Y007286
X02481Y007286
X02581Y007286
X02581Y010286
X02481Y010286
X02381Y010286
X02281Y010286
X02181Y010286
X02081Y010286
X01981Y010286
X012697Y015014
X014743Y01282
X017307Y015226
X018669Y012553
X017903Y010238
X017903Y007238
X014663Y004006
X015883Y001266
X014663Y004006
X015883Y001266
X03954Y004736
X041936Y006541
X03954Y004736
X041936Y006541
X024234Y001852
X023508Y004763
X024234Y001852
X023508Y004763
X019916Y011752
X022916Y011752
X019916Y011752
X022916Y011752
X017903Y010238
X017903Y007238
X03205Y010977
X029087Y011447
X03205Y010977
X029087Y011447
X031698Y014042
X034347Y012633
X031698Y014042
X034347Y012633
X017307Y015226
X018669Y012553
X016421Y007238
X016421Y010238
X030538Y012785
X033279Y011565
X030538Y012785
X033279Y011565
X016421Y007238
X016421Y010238
X012697Y015014
X014743Y01282
X019396Y01516
X019911Y014302
X030238Y014857
X030768Y015705
X033523Y007502
X032617Y007079
X033523Y007502
X032617Y007079
X030238Y014857
X030768Y015705
X019396Y01516
X019911Y014302
X016263Y006038
X014863Y005501
X013501Y012139
X012046Y011776
X029059Y005449
X027567Y005292
X029059Y005449
X027567Y005292
X013501Y012139
X012046Y011776
X016263Y006038
X014863Y005501
X029273Y01266
X027838Y012221
X029273Y01266
X027838Y012221
X009995Y015269
X012259Y013301
X026738Y003985
X029727Y004247
X026738Y003985
X029727Y004247
X009995Y015269
X012259Y013301
X017797Y016549
X020793Y016706
X017797Y016549
X020793Y016706
X01981Y007286
X02081Y007286
X02181Y007286
X02281Y007286
X02381Y007286
X02481Y007286
X02581Y007286
X02581Y010286
X02481Y010286
X02381Y010286
X02281Y010286
X02181Y010286
X02081Y010286
X01981Y010286
X01181Y007286
X01281Y007286
X01381Y007286
X01481Y007286
X01481Y010286
X01381Y010286
X01281Y010286
X01181Y010286
X020612Y005368
X017623Y005106
X020612Y005368
X017623Y005106
X024519Y011939
X024936Y01491
X024519Y011939
X024936Y01491
X02769Y007169
X02869Y007169
X02969Y007169
X03069Y007169
X03069Y010169
X02969Y010169
X02869Y010169
X02769Y010169
X02769Y007169
X02869Y007169
X02969Y007169
X03069Y007169
X03069Y010169
X02969Y010169
X02869Y010169
X02769Y010169
X01181Y007286
X01281Y007286
X01381Y007286
X01481Y007286
X01481Y010286
X01381Y010286
X01281Y010286
X01181Y010286
X002369Y007451
X002195Y008436
X002022Y00942
X043252Y012245
X043235Y011246
X043218Y010246
X043252Y012245
X043235Y011246
X043218Y010246
X002369Y007451
X002195Y008436
X002022Y00942
X001127Y014665
X001214Y013669
X001301Y012672
X043932Y00452
X043673Y005486
X043414Y006452
X043932Y00452
X043673Y005486
X043414Y006452
X001127Y014665
X001214Y013669
X001301Y012672
X005277Y01333
X006223Y013005
X007169Y012679
X005705Y009032
X006676Y009274
X007646Y009516
X039986Y011367
X039516Y010484
X039047Y009601
X039986Y011367
X039516Y010484
X039047Y009601
X005705Y009032
X006676Y009274
X007646Y009516
X039994Y006792
X039024Y007034
X038053Y007276
X039994Y006792
X039024Y007034
X038053Y007276
X005277Y01333
X006223Y013005
X007169Y012679
X005319Y005682
X008119Y006757
X007452Y011398
X010126Y010036
X037579Y00844
X03471Y009317
X037579Y00844
X03471Y009317
X007452Y011398
X010126Y010036
X007666Y007768
X010577Y008493
X037953Y009802
X035084Y010679
X037953Y009802
X035084Y010679
X007666Y007768
X010577Y008493
X002638Y010966
X005636Y01107
X042695Y007947
X03974Y008468
X042695Y007947
X03974Y008468
X002638Y010966
X005636Y01107
X03838Y011805
X035527Y012732
X03838Y011805
X035527Y012732
X005319Y005682
X008119Y006757
X009364Y012142
X00824Y014923
X009536Y006935
X008268Y004217
X037958Y015631
X040795Y014654
X037958Y015631
X040795Y014654
X009536Y006935
X008268Y004217
X036291Y006765
X037414Y003984
X036291Y006765
X037414Y003984
X009364Y012142
X00824Y014923
X004303Y009442
X004615Y007975
X003846Y014236
X003741Y012739
X04455Y007973
X044862Y00944
X04455Y007973
X044862Y00944
X003846Y014236
X003741Y012739
X041622Y010574
X041622Y012074
X041622Y010574
X041622Y012074
X004303Y009442
X004615Y007975
T2
X0126Y005515
X0126Y005515
X027697Y01461
X027697Y01461
X016639Y012687
X015094Y015258
X016639Y012687
X015094Y015258
X031Y005
X031Y005
X011031Y016586
X011031Y016586
X034423Y015349
X036355Y014832
X035389Y01509
X034423Y015349
X036355Y014832
X035389Y01509
X009786Y004058
X010503Y005925
X010144Y004992
X009786Y004058
X010503Y005925
X010144Y004992
M30
