%FSTAX24Y24*%
%MOIN*%
%IN ultra.bottomlayer.ger *%
%ADD10C,0.0100*%
%ADD11C,0.0200*%
%ADD12C,0.0600*%
%ADD13C,0.0800*%
D12*X02181Y007286D03*X020612Y005368D03*X02081Y007286D03*X02281D03*
X01381Y010286D03*X013501Y012139D03*X02381Y010286D03*X02481D03*
X024519Y011939D03*X02281Y010286D03*X02869Y007169D03*X029059Y005449D03*
X02181Y010286D03*X040795Y014654D03*X041622Y012074D03*X043252Y012245D03*
X01981Y010286D03*X019916Y011752D03*X020793Y016706D03*X012697Y015014D03*
X009364Y012142D03*X01181Y010286D03*X010126Y010036D03*X010577Y008493D03*
X009536Y006935D03*D13*X010503Y005925D03*D12*X024234Y001852D03*
X037414Y003984D03*X043932Y00452D03*X04455Y007973D03*X023508Y004763D03*
X02481Y007286D03*X024234Y001852D03*X037414Y003984D03*X043932Y00452D03*
X04455Y007973D03*X023508Y004763D03*X02481Y007286D03*X03205Y010977D03*
X033279Y011565D03*X031698Y014042D03*X030238Y014857D03*X02969Y007169D03*
X03205Y010977D03*X033279Y011565D03*X031698Y014042D03*X030238Y014857D03*
X02969Y007169D03*X016421Y007238D03*X016263Y006038D03*X01381Y007286D03*
X016421Y010238D03*X014743Y01282D03*X017307Y015226D03*X019396Y01516D03*
X01481Y010286D03*X030538Y012785D03*X029273Y01266D03*X03069Y010169D03*
X030538Y012785D03*X029273Y01266D03*X03069Y010169D03*X016421Y007238D03*
X016263Y006038D03*X01381Y007286D03*X016421Y010238D03*X014743Y01282D03*
X017307Y015226D03*X019396Y01516D03*X01481Y010286D03*X014863Y005501D03*
D13*X0126Y005515D03*D12*X014863Y005501D03*D13*X0126Y005515D03*D12*
X027838Y012221D03*D13*X027697Y01461D03*D12*X027838Y012221D03*D13*
X027697Y01461D03*D12*X009995Y015269D03*D13*X011031Y016586D03*D12*
X012259Y013301D03*X012046Y011776D03*X01281Y010286D03*X029727Y004247D03*
D13*X031Y005D03*D12*X029727Y004247D03*D13*X031Y005D03*D12*
X009995Y015269D03*D13*X011031Y016586D03*D12*X012259Y013301D03*
X012046Y011776D03*X01281Y010286D03*X017797Y016549D03*D13*
X015094Y015258D03*D12*X017797Y016549D03*D13*X015094Y015258D03*
X016639Y012687D03*D12*X017903Y010238D03*X018669Y012553D03*
X019911Y014302D03*D13*X016639Y012687D03*D12*X017903Y010238D03*
X018669Y012553D03*X019911Y014302D03*X02181Y007286D03*X020612Y005368D03*
X02081Y007286D03*X02281D03*X01381Y010286D03*X013501Y012139D03*
X02381Y010286D03*X02481D03*X024519Y011939D03*X02281Y010286D03*
X02869Y007169D03*X029059Y005449D03*X02181Y010286D03*X040795Y014654D03*
X041622Y012074D03*X043252Y012245D03*X01981Y010286D03*X019916Y011752D03*
X020793Y016706D03*X012697Y015014D03*X009364Y012142D03*X01181Y010286D03*
X010126Y010036D03*X010577Y008493D03*X009536Y006935D03*D13*
X010503Y005925D03*D12*X01281Y007286D03*X01981D03*X01181D03*D13*
X035389Y01509D03*D12*X035527Y012732D03*D13*X035389Y01509D03*D12*
X035527Y012732D03*X024936Y01491D03*X030768Y015705D03*X034347Y012633D03*
X032617Y007079D03*X03069Y007169D03*X02581Y007286D03*X015883Y001266D03*
X002022Y00942D03*X002638Y010966D03*X001301Y012672D03*X03954Y004736D03*
D13*X034423Y015349D03*D12*X024936Y01491D03*X030768Y015705D03*
X034347Y012633D03*X032617Y007079D03*X03069Y007169D03*X02581Y007286D03*
X015883Y001266D03*X002022Y00942D03*X002638Y010966D03*X001301Y012672D03*
X03954Y004736D03*D13*X034423Y015349D03*D12*X02769Y007169D03*
X027567Y005292D03*X026738Y003985D03*X02969Y010169D03*X02869D03*
X02581Y010286D03*X02769Y007169D03*X027567Y005292D03*X026738Y003985D03*
X02969Y010169D03*X02869D03*X02581Y010286D03*X01281Y007286D03*X01981D03*
X01181D03*X002369Y007451D03*X008268Y004217D03*X02381Y007286D03*
X004615Y007975D03*X002369Y007451D03*X008268Y004217D03*X02381Y007286D03*
X004615Y007975D03*X001127Y014665D03*X003846Y014236D03*X00824Y014923D03*
X02081Y010286D03*X001214Y013669D03*X005277Y01333D03*X004303Y009442D03*
X043673Y005486D03*X039994Y006792D03*X041622Y010574D03*
X043414Y006452D03*X041936Y006541D03*X042695Y007947D03*
X043218Y010246D03*X043673Y005486D03*X039994Y006792D03*
X041622Y010574D03*X043414Y006452D03*X041936Y006541D03*
X042695Y007947D03*X043218Y010246D03*X001127Y014665D03*
X003846Y014236D03*X00824Y014923D03*X02081Y010286D03*X001214Y013669D03*
X005277Y01333D03*X004303Y009442D03*X007169Y012679D03*X007452Y011398D03*
X005705Y009032D03*X003741Y012739D03*X002195Y008436D03*
X007646Y009516D03*X007666Y007768D03*X005705Y009032D03*
X003741Y012739D03*X002195Y008436D03*X007646Y009516D03*
X007666Y007768D03*X039024Y007034D03*X03974Y008468D03*X039516Y010484D03*
X03838Y011805D03*X039024Y007034D03*X03974Y008468D03*X039516Y010484D03*
X03838Y011805D03*X007169Y012679D03*X007452Y011398D03*X005319Y005682D03*
X006676Y009274D03*X005636Y01107D03*X006223Y013005D03*X037579Y00844D03*
X038053Y007276D03*X037579Y00844D03*X038053Y007276D03*X037953Y009802D03*
X039047Y009601D03*X037953Y009802D03*X039047Y009601D03*
X005319Y005682D03*X006676Y009274D03*X005636Y01107D03*X006223Y013005D03*
X036291Y006765D03*X033523Y007502D03*X03471Y009317D03*X035084Y010679D03*
X037958Y015631D03*X02769Y010169D03*X029087Y011447D03*X022916Y011752D03*
D13*X036355Y014832D03*D12*X036291Y006765D03*X033523Y007502D03*
X03471Y009317D03*X035084Y010679D03*X037958Y015631D03*X02769Y010169D03*
X029087Y011447D03*X022916Y011752D03*D13*X036355Y014832D03*
X009786Y004058D03*D12*X014663Y004006D03*X017623Y005106D03*
X017903Y007238D03*X01481Y007286D03*D13*X010144Y004992D03*D12*
X008119Y006757D03*D13*X009786Y004058D03*D12*X014663Y004006D03*
X017623Y005106D03*X017903Y007238D03*X01481Y007286D03*D13*
X010144Y004992D03*D12*X008119Y006757D03*X044862Y00944D03*
X043235Y011246D03*X039986Y011367D03*X044862Y00944D03*X043235Y011246D03*
X039986Y011367D03*D11*X02181Y007286D02*G01X021113Y00657D01*
X020612Y005368D01*X021113Y00657D02*X02081Y007286D01*X02281D02*
X022756Y008093D01*X020486Y009321D01*X013808Y009482D01*X01381Y010286D01*
X013769Y011031D01*X013501Y012139D01*X02381Y010286D02*X024343Y011138D01*
X02481Y010286D01*X024343Y011138D02*X024519Y011939D01*X02281Y010286D02*
X022786Y009367D01*X028471Y008039D01*X02869Y007169D01*X029059Y005449D01*
X02181Y010286D02*X021909Y011201D01*X022275Y013087D01*X022756Y015705D01*
X024584Y017955D01*X038084Y017284D01*X040795Y014654D01*
X041868Y013688D01*X041622Y012074D01*X043252Y012245D01*X01981Y010286D02*
X019939Y011443D01*X019916Y011752D01*X020859Y014209D01*
X020793Y016706D01*X018269Y018309D01*X014423Y017307D01*
X012697Y015014D01*X010657Y013261D01*X01023Y011487D01*X009364Y012142D01*
X01023Y011487D02*X010587Y010995D01*X01181Y010286D01*X010587Y010995D02*
X010126Y010036D01*X010577Y008493D01*X009536Y006935D01*
X010503Y005925D01*X024234Y001852D02*X034722Y002106D01*
X037414Y003984D01*X041757Y003584D01*X043932Y00452D01*X044848Y005376D01*
X04455Y007973D01*X023508Y004763D02*X024447Y005938D01*X02481Y007286D01*
X024234Y001852D02*X034722Y002106D01*X037414Y003984D01*
X041757Y003584D01*X043932Y00452D01*X044848Y005376D01*X04455Y007973D01*
X023508Y004763D02*X024447Y005938D01*X02481Y007286D01*X03205Y010977D02*
X032264Y009455D01*X033279Y011565D01*X031698Y014042D01*
X030238Y014857D01*X032264Y009455D02*X029839Y008109D01*X02969Y007169D01*
X03205Y010977D02*X032264Y009455D01*X033279Y011565D01*X031698Y014042D01*
X030238Y014857D01*X032264Y009455D02*X029839Y008109D01*X02969Y007169D01*
X016421Y007238D02*X016263Y006038D01*X01383Y006631D01*X01381Y007286D01*
X016421Y010238D02*X01509Y011111D01*X014743Y01282D01*X017307Y015226D01*
X019396Y01516D01*X01509Y011111D02*X01481Y010286D01*X030538Y012785D02*
X030314Y012179D01*X029273Y01266D01*X030314Y012179D02*X03069Y010169D01*
X030538Y012785D02*X030314Y012179D01*X029273Y01266D01*X030314Y012179D02*
X03069Y010169D01*X016421Y007238D02*X016263Y006038D01*X01383Y006631D01*
X01381Y007286D01*X016421Y010238D02*X01509Y011111D01*X014743Y01282D01*
X017307Y015226D01*X019396Y01516D01*X01509Y011111D02*X01481Y010286D01*
X014863Y005501D02*X0126Y005515D01*X014863Y005501D01*X027838Y012221D02*
X027697Y01461D01*X027838Y012221D01*X009995Y015269D02*X011031Y016586D01*
X012259Y013301D02*X01259Y011432D01*X012046Y011776D01*X01259Y011432D02*
X01281Y010286D01*X029727Y004247D02*X031Y005D01*X029727Y004247D01*
X009995Y015269D02*X011031Y016586D01*X012259Y013301D02*X01259Y011432D01*
X012046Y011776D01*X01259Y011432D02*X01281Y010286D01*X017797Y016549D02*
X015094Y015258D01*X017797Y016549D01*X016639Y012687D02*
X017828Y011859D01*X017903Y010238D01*X017828Y011859D02*
X018669Y012553D01*X019911Y014302D01*X016639Y012687D02*
X017828Y011859D01*X017903Y010238D01*X017828Y011859D02*
X018669Y012553D01*X019911Y014302D01*X02181Y007286D02*X021113Y00657D01*
X020612Y005368D01*X021113Y00657D02*X02081Y007286D01*X02281D02*
X022756Y008093D01*X020486Y009321D01*X013808Y009482D01*X01381Y010286D01*
X013769Y011031D01*X013501Y012139D01*X02381Y010286D02*X024343Y011138D01*
X02481Y010286D01*X024343Y011138D02*X024519Y011939D01*X02281Y010286D02*
X022786Y009367D01*X028471Y008039D01*X02869Y007169D01*X029059Y005449D01*
X02181Y010286D02*X021909Y011201D01*X022275Y013087D01*X022756Y015705D01*
X024584Y017955D01*X038084Y017284D01*X040795Y014654D01*
X041868Y013688D01*X041622Y012074D01*X043252Y012245D01*X01981Y010286D02*
X019939Y011443D01*X019916Y011752D01*X020859Y014209D01*
X020793Y016706D01*X018269Y018309D01*X014423Y017307D01*
X012697Y015014D01*X010657Y013261D01*X01023Y011487D01*X009364Y012142D01*
X01023Y011487D02*X010587Y010995D01*X01181Y010286D01*X010587Y010995D02*
X010126Y010036D01*X010577Y008493D01*X009536Y006935D01*
X010503Y005925D01*X01281Y007286D02*X012366Y008039D01*X014439Y008776D01*
X01831Y008786D01*X01981Y007286D01*X012366Y008039D02*X01181Y007286D01*
X035389Y01509D02*X034921Y013952D01*X035527Y012732D01*X035389Y01509D02*
X034921Y013952D01*X035527Y012732D01*X024936Y01491D02*X025881Y016426D01*
X029847Y016105D01*X030768Y015705D01*X033602Y01409D01*X034347Y012633D01*
X03414Y011425D01*X032617Y007079D01*X03069Y007169D01*X032617Y007079D02*
X035Y005D01*X034185Y003271D01*X026523Y002912D01*X025269Y003898D01*
X02581Y007286D01*X025269Y003898D02*X020713Y002244D01*X015883Y001266D01*
X009138Y001208D01*X002684Y002804D01*X001475Y006341D01*
X000751Y008583D01*X002022Y00942D01*X002638Y010966D01*X001301Y012672D01*
X035Y005D02*X03954Y004736D01*X033602Y01409D02*X034423Y015349D01*
X024936Y01491D02*X025881Y016426D01*X029847Y016105D01*X030768Y015705D01*
X033602Y01409D01*X034347Y012633D01*X03414Y011425D01*X032617Y007079D01*
X03069Y007169D01*X032617Y007079D02*X035Y005D01*X034185Y003271D01*
X026523Y002912D01*X025269Y003898D01*X02581Y007286D01*X025269Y003898D02*
X020713Y002244D01*X015883Y001266D01*X009138Y001208D01*
X002684Y002804D01*X001475Y006341D01*X000751Y008583D01*X002022Y00942D01*
X002638Y010966D01*X001301Y012672D01*X035Y005D02*X03954Y004736D01*
X033602Y01409D02*X034423Y015349D01*X02769Y007169D02*X02743Y006517D01*
X027567Y005292D01*X02743Y006517D02*X026738Y003985D01*X02969Y010169D02*
X029059Y009348D01*X02869Y010169D01*X029059Y009348D02*X025827Y009482D01*
X02581Y010286D01*X02769Y007169D02*X02743Y006517D01*X027567Y005292D01*
X02743Y006517D02*X026738Y003985D01*X02969Y010169D02*X029059Y009348D01*
X02869Y010169D01*X029059Y009348D02*X025827Y009482D01*X02581Y010286D01*
X01281Y007286D02*X012366Y008039D01*X014439Y008776D01*X01831Y008786D01*
X01981Y007286D01*X012366Y008039D02*X01181Y007286D01*X002369Y007451D02*
X003583Y007447D01*X003985Y004026D01*X007729Y00314D01*X008268Y004217D01*
X007729Y00314D02*X0129Y002404D01*X020352Y003445D01*X023638Y006357D01*
X02381Y007286D01*X003583Y007447D02*X004615Y007975D01*X002369Y007451D02*
X003583Y007447D01*X003985Y004026D01*X007729Y00314D01*X008268Y004217D01*
X007729Y00314D02*X0129Y002404D01*X020352Y003445D01*X023638Y006357D01*
X02381Y007286D01*X003583Y007447D02*X004615Y007975D01*X001127Y014665D02*
X003846Y014236D01*X00824Y014923D01*X010027Y018844D01*X012267Y019029D01*
X018149Y01935D01*X022013Y018025D01*X021928Y015918D01*X021447Y013034D01*
X020878Y011111D01*X02081Y010286D01*X001214Y013669D02*X005277Y01333D01*
X004303Y009442D01*X043673Y005486D02*X041264Y005511D01*
X039994Y006792D01*X041622Y010574D01*X043414Y006452D02*
X042608Y007124D01*X041936Y006541D01*X042608Y007124D02*
X042695Y007947D01*X043218Y010246D01*X043673Y005486D02*
X041264Y005511D01*X039994Y006792D01*X041622Y010574D01*
X043414Y006452D02*X042608Y007124D01*X041936Y006541D01*
X042608Y007124D02*X042695Y007947D01*X043218Y010246D01*
X001127Y014665D02*X003846Y014236D01*X00824Y014923D01*X010027Y018844D01*
X012267Y019029D01*X018149Y01935D01*X022013Y018025D01*X021928Y015918D01*
X021447Y013034D01*X020878Y011111D01*X02081Y010286D01*X001214Y013669D02*
X005277Y01333D01*X004303Y009442D01*X007169Y012679D02*X007452Y011398D01*
X005705Y009032D02*X00331Y008733D01*X003741Y012739D01*X00331Y008733D02*
X002195Y008436D01*X007646Y009516D02*X007666Y007768D01*
X005705Y009032D02*X00331Y008733D01*X003741Y012739D01*X00331Y008733D02*
X002195Y008436D01*X007646Y009516D02*X007666Y007768D01*
X039024Y007034D02*X03974Y008468D01*X040009Y009498D01*X039516Y010484D01*
X03838Y011805D01*X039024Y007034D02*X03974Y008468D01*X040009Y009498D01*
X039516Y010484D01*X03838Y011805D01*X007169Y012679D02*X007452Y011398D01*
X005319Y005682D02*X006407Y007213D01*X006676Y009274D01*X005636Y01107D01*
X006223Y013005D01*X037579Y00844D02*X038053Y007276D01*X037579Y00844D01*
X037953Y009802D02*X039047Y009601D01*X037953Y009802D01*
X005319Y005682D02*X006407Y007213D01*X006676Y009274D01*X005636Y01107D01*
X006223Y013005D01*X036291Y006765D02*X034895Y007973D01*
X033523Y007502D01*X034895Y007973D02*X03471Y009317D01*X035084Y010679D01*
X03647Y011694D01*X037252Y014117D01*X037958Y015631D01*X036232Y016559D01*
X025255Y017204D01*X024038Y015064D01*X024318Y01298D01*X025801Y01278D01*
X02769Y010932D01*Y010169D01*Y010932D02*X029087Y011447D01*
X024318Y01298D02*X022916Y011752D01*X037252Y014117D02*X036355Y014832D01*
X036291Y006765D02*X034895Y007973D01*X033523Y007502D01*
X034895Y007973D02*X03471Y009317D01*X035084Y010679D01*X03647Y011694D01*
X037252Y014117D01*X037958Y015631D01*X036232Y016559D01*
X025255Y017204D01*X024038Y015064D01*X024318Y01298D01*X025801Y01278D01*
X02769Y010932D01*Y010169D01*Y010932D02*X029087Y011447D01*
X024318Y01298D02*X022916Y011752D01*X037252Y014117D02*X036355Y014832D01*
X009786Y004058D02*X014663Y004006D01*X017623Y005106D01*
X017903Y007238D01*X017548Y008119D01*X01493D01*X01481Y007286D01*
X010144Y004992D02*X008454Y005862D01*X008119Y006757D01*
X009786Y004058D02*X014663Y004006D01*X017623Y005106D01*
X017903Y007238D01*X017548Y008119D01*X01493D01*X01481Y007286D01*
X010144Y004992D02*X008454Y005862D01*X008119Y006757D01*X044862Y00944D02*
X04483Y010897D01*X043235Y011246D01*X039986Y011367D01*X044862Y00944D02*
X04483Y010897D01*X043235Y011246D01*X039986Y011367D01*D10*X0Y02D02*
X046D01*Y0D01*X0D01*Y02D01*X046D01*Y0D01*X0D01*Y02D01*
M02*