M48
FMAT,2
INCH,LZ
T1C0.0280
T2C0.0400
%
T1
X013069Y020083
X013812Y019414
X014555Y018745
X009727Y025317
X009321Y024404
X008914Y02349
X013672Y030113
X012678Y030217
X011683Y030322
X019452Y027843
X019244Y028821
X019036Y029799
X019079Y021644
X019945Y022144
X020811Y022644
X026925Y0077
X024327Y0092
X002714Y007099
X005258Y005509
X01202Y003645
X015019Y003697
X014471Y007091
X017471Y007091
X011874Y005107
X014874Y005107
X007741Y002762
X010704Y002293
X012273Y002366
X015273Y002366
X00639Y003971
X00789Y006569
X021607Y005984
X023607Y005984
X01691Y009576
X01591Y009576
X012722Y017822
X011979Y018491
X011236Y01916
X007469Y024948
X007876Y025861
X008283Y026775
X012623Y032146
X013618Y032042
X014612Y031937
X021062Y029469
X02127Y028491
X021478Y027512
X021123Y020616
X020257Y020116
X019391Y019616
X012097Y016156
X013036Y015814
X013976Y015472
X006159Y024642
X006124Y023643
X006089Y022644
X011928Y033298
X010967Y033022
X010005Y032746
X021942Y030486
X021383Y031315
X020824Y032144
X022363Y020093
X022978Y020881
X023594Y021669
X012279Y020798
X014085Y023194
X010163Y026289
X013Y025312
X014731Y029998
X014679Y026999
X019671Y0268
X016802Y025923
X018155Y021114
X016435Y023572
X00819Y015542
X010554Y017389
X003901Y028554
X006388Y026877
X01495Y036654
X014123Y03377
X026068Y028648
X02307Y028544
X02189Y015601
X020864Y01842
X006939Y016836
X009303Y018683
X004745Y030144
X007232Y028466
X016723Y036343
X015896Y033459
X02632Y026867
X023322Y026762
X020273Y014811
X019247Y01763
X008343Y013294
X006259Y015452
X00181Y027714
X003218Y030363
X013505Y038383
X01646Y037863
X027267Y030557
X027684Y027587
X024076Y015051
X02138Y013736
X012466Y014392
X01174Y011481
X004711Y02425
X001719Y024041
X011107Y034553
X009983Y037335
X022883Y031654
X025181Y033583
X023764Y019559
X026309Y01797
X008032Y021386
X005383Y019977
X009409Y03051
X007251Y032594
X01874Y031962
X020055Y034658
X022762Y023828
X025732Y023411
X016284Y017256
X016805Y014302
X015182Y016843
X015703Y013888
X01337Y011148
X013735Y014125
X001845Y022256
X00479Y022829
X008326Y036663
X00978Y034039
X02403Y034952
X021984Y032758
X027255Y019488
X024536Y020755
X008662Y020043
X006013Y018635
X008327Y029496
X006169Y03158
X017296Y032665
X018611Y035362
X023041Y025285
X026012Y024867
X017756Y01744
X018277Y014486
X010302Y003559
X010302Y004559
X010302Y005559
X016782Y002183
X017782Y002183
X018782Y002183
X019782Y002183
X019782Y005183
X018782Y005183
X017782Y005183
X016782Y005183
T2
X002261Y004486
X025851Y00467
X026494Y005436
X010356Y014568
X003644Y026193
X012625Y036169
X024888Y03071
X023486Y01736
X009589Y021069
X011953Y022916
X009589Y028931
X012076Y027253
X017066Y031361
X016239Y028477
X021688Y025
X01869Y024896
X017067Y018639
X016041Y021458
X005034Y017045
X004355Y03202
X018386Y037294
X027738Y025578
X019486Y013064
X022002Y00268
X023002Y00268
M30
