%FSTAX24Y24*%
%MOIN*%
%IN 01lilsid.bottomlayer.ger *%
%ADD10C,0.0200*%
%ADD11C,0.0600*%
%ADD12C,0.0800*%
%ADD13R,0.0800X0.0800*%
D11*X020811Y022644D03*X022762Y023828D03*D12*X01869Y024896D03*D11*
X016802Y025923D03*X014679Y026999D03*X016435Y023572D03*D12*
X016041Y021458D03*D11*X014555Y018745D03*X015182Y016843D03*
X016284Y017256D03*X014085Y023194D03*D12*X011953Y022916D03*D11*
X008914Y02349D03*X008032Y021386D03*D12*X016239Y028477D03*D11*
X019036Y029799D03*X01874Y031962D03*X013Y025312D03*D12*
X012076Y027253D03*D11*X011683Y030322D03*X009409Y03051D03*D12*
X026494Y005436D03*D11*X026925Y0077D03*X002714Y007099D03*D12*
X002261Y004486D03*D11*X005258Y005509D03*X010302Y004559D03*
X011874Y005107D03*X01202Y003645D03*X010302Y003559D03*X00639Y003971D03*
X007741Y002762D03*X00789Y006569D03*X010302Y005559D03*X014471Y007091D03*
X023607Y005984D03*D12*X023002Y00268D03*D11*X012722Y017822D03*
X013812Y019414D03*X007469Y024948D03*X009321Y024404D03*
X008283Y026775D03*X007232Y028466D03*X008327Y029496D03*D12*
X009589Y028931D03*D11*X011928Y033298D03*X012623Y032146D03*
X012678Y030217D03*X021062Y029469D03*X019244Y028821D03*
X021123Y020616D03*X019945Y022144D03*X013036Y015814D03*
X012466Y014392D03*D12*X010356Y014568D03*D11*X008343Y013294D03*
X013976Y015472D03*X013735Y014125D03*X006124Y023643D03*X004711Y02425D03*
D12*X003644Y026193D03*D11*X00181Y027714D03*X006089Y022644D03*
X00479Y022829D03*X010967Y033022D03*X011107Y034553D03*D12*
X012625Y036169D03*D11*X013505Y038383D03*X010005Y032746D03*
X00978Y034039D03*X021383Y031315D03*X022883Y031654D03*D12*
X024888Y03071D03*D11*X027267Y030557D03*X020824Y032144D03*
X021984Y032758D03*X022978Y020881D03*X023764Y019559D03*D12*
X023486Y01736D03*D11*X024076Y015051D03*X023594Y021669D03*
X024536Y020755D03*X012279Y020798D03*X013069Y020083D03*
X011979Y018491D03*X010554Y017389D03*X010163Y026289D03*
X009727Y025317D03*X007876Y025861D03*X006388Y026877D03*
X014731Y029998D03*X013672Y030113D03*X013618Y032042D03*X014123Y03377D03*
X019671Y0268D03*X019452Y027843D03*X02127Y028491D03*X02307Y028544D03*
X018155Y021114D03*X019079Y021644D03*X020257Y020116D03*X020864Y01842D03*
X005383Y019977D03*D13*X005034Y017045D03*D11*X006013Y018635D03*
X006259Y015452D03*X007251Y032594D03*D13*X004355Y03202D03*D11*
X006169Y03158D03*X003218Y030363D03*X020055Y034658D03*D13*
X018386Y037294D03*D11*X018611Y035362D03*X01646Y037863D03*
X025732Y023411D03*D13*X027738Y025578D03*D11*X026012Y024867D03*
X027684Y027587D03*X016805Y014302D03*D13*X019486Y013064D03*D11*
X018277Y014486D03*X02138Y013736D03*X015703Y013888D03*X01591Y009576D03*
X014874Y005107D03*X015273Y002366D03*X015019Y003697D03*
X019782Y002183D03*D13*X025851Y00467D03*X022002Y00268D03*D11*
X017782Y002183D03*D12*X009589Y021069D03*D11*X008662Y020043D03*
X009303Y018683D03*X011236Y01916D03*X006159Y024642D03*D12*
X017066Y031361D03*D11*X017296Y032665D03*X015896Y033459D03*
X014612Y031937D03*X021942Y030486D03*D12*X021688Y025D03*D11*
X023041Y025285D03*X022363Y020093D03*X023322Y026762D03*
X021478Y027512D03*D12*X017067Y018639D03*D11*X017756Y01744D03*
X012097Y016156D03*X019247Y01763D03*X019391Y019616D03*X016782Y002183D03*
X018782D03*X012273Y002366D03*X010704Y002293D03*X019782Y005183D03*
X021607Y005984D03*X018782Y005183D03*X024327Y0092D03*X026309Y01797D03*
X027255Y019488D03*X02632Y026867D03*X026068Y028648D03*X025181Y033583D03*
X02403Y034952D03*X016723Y036343D03*X01495Y036654D03*X009983Y037335D03*
X008326Y036663D03*X004745Y030144D03*X003901Y028554D03*
X001719Y024041D03*X001845Y022256D03*X006939Y016836D03*X00819Y015542D03*
X01174Y011481D03*X01337Y011148D03*X02189Y015601D03*X020273Y014811D03*
X017471Y007091D03*X01691Y009576D03*X017782Y005183D03*X016782D03*D10*
X020811Y022644D02*G01X020843Y024256D01*X022762Y023828D01*
X020843Y024256D02*X01869Y024896D01*X016802Y025923D01*X014547Y025598D01*
X014679Y026999D01*X014501Y025492D01*X016435Y023572D01*
X016041Y021458D01*X016086Y019535D01*X014555Y018745D01*
X015182Y016843D01*X016086Y019535D02*X016284Y017256D01*
X014501Y025492D02*X014085Y023194D01*X011953Y022916D01*
X009405Y022113D01*X008914Y02349D01*X009405Y022113D02*X008032Y021386D01*
X014679Y026999D02*X016239Y028477D01*X01772Y03032D01*X019036Y029799D01*
X01772Y03032D02*X01874Y031962D01*X014547Y025598D02*X013Y025312D01*
X012076Y027253D01*X010639Y029376D01*X011683Y030322D01*
X010639Y029376D02*X009409Y03051D01*X026494Y005436D02*X026925Y0077D01*
X002714Y007099D02*X002261Y004486D01*X005258Y005509D02*
X010302Y004559D01*X011874Y005107D01*X01202Y003645D02*X010302Y003559D01*
X00639Y003971D02*X007741Y002762D01*X00789Y006569D02*X011654Y006618D01*
X011426Y006567D01*X011209Y006482D01*X011008Y006364D01*
X010828Y006217D01*X010672Y006043D01*X010302Y005559D01*
X011654Y006618D02*X011887Y006632D01*X012119Y006611D01*
X012345Y006553D01*X013202Y006263D01*X013206Y006262D01*
X013392Y006231D01*X013579Y006236D01*X013763Y006275D01*
X013936Y006348D01*X014093Y006452D01*X014227Y006584D01*
X014334Y006739D01*X01441Y00691D01*X014471Y007091D01*X023607Y005984D02*
X023002Y00268D01*X012722Y017822D02*X013812Y019414D01*X007469Y024948D02*
X009321Y024404D01*X008283Y026775D02*X007232Y028466D01*
X007219Y029657D01*X007234Y029843D01*X007284Y030023D01*
X007305Y030064D01*X007338Y030125D01*X00734Y030128D01*X007433Y030263D01*
X00754Y030386D01*X00766Y030497D01*X007673Y030508D01*X008763Y031331D01*
X008316Y030567D01*X008238Y030402D01*X008192Y030227D01*
X008179Y030046D01*X008198Y029866D01*X008249Y029692D01*
X008327Y029496D01*X009589Y028931D01*X008763Y031331D02*X00892Y031443D01*
X009095Y031523D01*X009282Y031568D01*X009475Y031576D01*X01063Y031513D01*
X010824Y031521D01*X011014Y031567D01*X01119Y031649D01*X011348Y031763D01*
X01148Y031906D01*X011582Y032072D01*X011651Y032254D01*X011928Y033298D01*
X012623Y032146D02*X012678Y030217D01*X021062Y029469D02*
X019244Y028821D01*X021123Y020616D02*X019945Y022144D01*
X013036Y015814D02*X012466Y014392D01*X010356Y014568D01*
X008343Y013294D01*X013976Y015472D02*X013735Y014125D01*
X006124Y023643D02*X004711Y02425D01*X003644Y026193D01*X00181Y027714D01*
X006089Y022644D02*X00479Y022829D01*X010967Y033022D02*X011107Y034553D01*
X012625Y036169D01*X013505Y038383D01*X010005Y032746D02*X00978Y034039D01*
X021383Y031315D02*X022883Y031654D01*X024888Y03071D01*X027267Y030557D01*
X020824Y032144D02*X021984Y032758D01*X022978Y020881D02*
X023764Y019559D01*X023486Y01736D01*X024076Y015051D01*X023594Y021669D02*
X024536Y020755D01*X012279Y020798D02*X013069Y020083D01*
X011979Y018491D01*X010554Y017389D01*X010163Y026289D02*
X009727Y025317D01*X007876Y025861D01*X006388Y026877D01*
X014731Y029998D02*X013672Y030113D01*X013618Y032042D01*X014123Y03377D01*
X019671Y0268D02*X019452Y027843D01*X02127Y028491D01*X02307Y028544D01*
X018155Y021114D02*X019079Y021644D01*X020257Y020116D01*X020864Y01842D01*
X005383Y019977D02*X00494Y019456D01*X004804Y01927D01*X004698Y019064D01*
X004626Y018845D01*X004588Y018617D01*X004585Y018386D01*
X004617Y018158D01*X004685Y017937D01*X005034Y017045D01*
X006013Y018635D01*X005034Y017045D02*X006259Y015452D01*
X007251Y032594D02*X006595Y032876D01*X006391Y032947D01*
X006179Y032988D01*X005964Y032998D01*X005749Y032977D01*X00554Y032925D01*
X00534Y032844D01*X005154Y032736D01*X004985Y032601D01*X004355Y03202D01*
X006169Y03158D01*X004355Y03202D02*X003218Y030363D01*X020055Y034658D02*
X020031Y035454D01*X020004Y035694D01*X01994Y035925D01*X019839Y036144D01*
X019705Y036344D01*X019541Y036519D01*X01935Y036666D01*X018386Y037294D01*
X018611Y035362D01*X018386Y037294D02*X01646Y037863D01*X025732Y023411D02*
X026519Y02358D01*X026727Y023641D01*X026924Y023731D01*X027105Y023848D01*
X027268Y02399D01*X027409Y024154D01*X027525Y024337D01*X027613Y024534D01*
X027672Y024742D01*X027701Y024957D01*X027738Y025578D01*
X026012Y024867D01*X027738Y025578D02*X027684Y027587D01*
X016805Y014302D02*X017169Y013672D01*X017296Y013486D01*
X017449Y013321D01*X017626Y013181D01*X017821Y013069D01*
X018031Y012988D01*X018251Y012938D01*X018475Y012923D01*X0187Y012941D01*
X019486Y013064D01*X018277Y014486D01*X019486Y013064D02*X02138Y013736D01*
X015703Y013888D02*X01591Y009576D01*X016109Y007181D01*X01611Y00709D01*
X016105Y006954D01*X016059Y006445D01*X016023Y006225D01*
X015954Y006014D01*X015855Y005815D01*X015727Y005632D01*
X015574Y005471D01*X015399Y005334D01*X015205Y005224D01*
X014997Y005144D01*X014874Y005107D01*X015273Y002366D01*
X014874Y005107D02*X015019Y003697D01*X017941Y003682D01*X018782D01*
X018977Y003662D01*X019165Y003606D01*X019337Y003513D01*
X019489Y003389D01*X019613Y003237D01*X019706Y003064D01*
X019763Y002877D01*X019782Y002682D01*Y002183D01*X019794Y001946D01*
X019843Y001714D01*X019929Y001492D01*X020048Y001287D01*
X020198Y001103D01*X020375Y000945D01*X020575Y000817D01*
X020792Y000723D01*X021022Y000663D01*X021259Y000641D01*X021999Y00063D01*
X024665Y000906D01*X024892Y000947D01*X02511Y001023D01*X025314Y001131D01*
X025499Y001269D01*X02566Y001434D01*X025794Y001621D01*X025898Y001827D01*
X025969Y002047D01*X026006Y002275D01*X026007Y002505D01*X025851Y00467D01*
X021999Y00063D02*X022002Y00268D01*X017941Y003682D02*X017782Y002183D01*
X009589Y021069D02*X008662Y020043D01*X008556Y02005D01*X008316Y020086D01*
X008086Y02016D01*X00787Y020269D01*X007675Y020412D01*X007505Y020585D01*
X006939Y021263D01*X00698Y021052D01*X007051Y020849D01*X007564Y019663D01*
X007664Y019473D01*X00779Y019298D01*X007939Y019143D01*X008109Y019011D01*
X008296Y018905D01*X008497Y018827D01*X008706Y018778D01*
X009303Y018683D01*X011236Y01916D01*X006939Y021263D02*X006928Y021478D01*
X006948Y021692D01*X007152Y022916D01*X007172Y02313D01*X007161Y023344D01*
X00712Y023554D01*X00705Y023757D01*X006951Y023947D01*X006826Y024122D01*
X006677Y024276D01*X006508Y024408D01*X006159Y024642D01*
X017066Y031361D02*X017296Y032665D01*X017487Y03279D01*X017658Y032886D01*
X017841Y03296D01*X018031Y033008D01*X018227Y033032D01*X018424Y033029D01*
X019267Y032963D01*X019057Y033073D01*X017674Y033664D01*
X017464Y033736D01*X017247Y033776D01*X017025Y033783D01*
X016805Y033758D01*X016591Y033701D01*X015896Y033459D01*
X014612Y031937D01*X019267Y032963D02*X019457Y032821D01*
X019622Y032651D01*X019759Y032457D01*X019863Y032244D01*
X020186Y031423D01*X020288Y031214D01*X02042Y031024D01*X02058Y030857D01*
X020763Y030716D01*X020966Y030605D01*X021184Y030526D01*
X021412Y030482D01*X021643Y030474D01*X021942Y030486D01*X021688Y025D02*
X023041Y025285D01*X023088Y025255D01*X023258Y02513D01*X023409Y024981D01*
X023538Y024813D01*X023642Y024628D01*X023718Y024431D01*
X023877Y023915D01*X023827Y023726D01*X023753Y023546D01*
X023656Y023377D01*X023538Y023222D01*X022504Y022031D01*
X022374Y021857D01*X02227Y021666D01*X022195Y021461D01*X022151Y021249D01*
X022137Y021032D01*X022155Y020815D01*X022204Y020603D01*
X022363Y020093D01*X023877Y023915D02*X023902Y024108D01*
X023964Y025052D01*X023963Y025255D01*X023935Y025456D01*X02388Y025651D01*
X02382Y025791D01*X023776Y025883D01*X023322Y026762D01*X021478Y027512D01*
X017067Y018639D02*X017756Y01744D01*X017759Y017231D01*X017743Y017035D01*
X017688Y016846D01*X017597Y016671D01*X017474Y016517D01*X017323Y01639D01*
X01715Y016296D01*X015634Y015652D01*X015426Y015681D01*X015225Y015739D01*
X015033Y015824D01*X014856Y015935D01*X014217Y016399D01*
X014021Y016519D01*X01381Y016608D01*X013587Y016664D01*X013358Y016685D01*
X013129Y016671D01*X012905Y016622D01*X01269Y016539D01*X012491Y016425D01*
X012097Y016156D01*X015634Y015652D02*X015843Y015652D01*
X016051Y015682D01*X017996Y016098D01*X018224Y016166D01*
X018439Y016269D01*X018634Y016405D01*X018805Y01657D01*X018948Y01676D01*
X01906Y01697D01*X019136Y017195D01*X019247Y01763D01*X019391Y019616D01*
X018782Y002183D02*X01875Y001962D01*X018686Y001748D01*X01859Y001546D01*
X018466Y001361D01*X018316Y001196D01*X018142Y001055D01*X01795Y000941D01*
X017743Y000857D01*X017526Y000805D01*X017303Y000786D01*
X013879Y000745D01*X01366Y000758D01*X013446Y000803D01*X01324Y000879D01*
X013048Y000984D01*X012873Y001116D01*X012719Y001272D01*X01259Y001449D01*
X012487Y001643D01*X012414Y001849D01*X012273Y002366D01*
X010704Y002293D01*X019782Y005183D02*X021607Y005984D01*
X018782Y005183D02*X018753Y006268D01*X018942Y006307D01*
X019119Y006382D01*X024327Y0092D01*X025531Y015148D01*X026309Y01797D01*
X027255Y019488D01*X025054Y021948D01*X024938Y022107D01*
X024855Y022286D01*X024809Y022477D01*X024802Y022674D01*
X024991Y025833D01*X025019Y026016D01*X02508Y026191D01*X025173Y026351D01*
X025294Y026492D01*X025439Y026608D01*X025602Y026695D01*
X025779Y026751D01*X02632Y026867D01*X026068Y028648D01*X027737Y029063D01*
X027923Y029129D01*X028007Y02918D01*X028165Y029297D01*X028237Y029362D01*
X028354Y02952D01*X028438Y029698D01*X028486Y029889D01*X028495Y030085D01*
X028477Y030433D01*X028447Y030691D01*X028384Y030943D01*
X028288Y031185D01*X028162Y031412D01*X028008Y031621D01*
X027827Y031809D01*X027624Y031971D01*X025181Y033583D01*X02403Y034952D01*
X020895Y033423D01*X020734Y033361D01*X020564Y033327D01*
X020392Y033324D01*X020222Y033349D01*X020058Y033404D01*
X017237Y034628D01*X017077Y034716D01*X016936Y034831D01*X016818Y03497D01*
X016727Y035128D01*X016666Y035301D01*X016638Y035481D01*
X016642Y035663D01*X016723Y036343D01*X01495Y036654D01*X015072Y03837D01*
X015066Y038566D01*X015044Y038662D01*X014982Y038848D01*
X014942Y038937D01*X014828Y039097D01*X014685Y039232D01*
X014518Y039336D01*X014334Y039406D01*X013998Y039496D01*
X013743Y039547D01*X013483Y039565D01*X013224Y039549D01*
X012969Y039499D01*X012722Y039417D01*X012489Y039304D01*
X012272Y039161D01*X009983Y037335D01*X008326Y036663D01*X008627Y03313D01*
X008627Y032956D01*X008596Y032785D01*X008537Y032621D01*X00845Y032471D01*
X008338Y032338D01*X006169Y030169D01*X006022Y030048D01*
X005855Y029957D01*X005673Y029899D01*X005484Y029877D01*
X005294Y029891D01*X00511Y029941D01*X004938Y030025D01*X004745Y030144D01*
X003901Y028554D01*X002307Y029199D01*X002118Y029255D01*
X002021Y029264D01*X001824Y029262D01*X001727Y029251D01*
X001539Y029192D01*X001367Y029098D01*X001216Y028972D01*
X001094Y028818D01*X000903Y028526D01*X000776Y0283D01*X000679Y028059D01*
X000614Y027807D01*X000583Y027549D01*X000585Y027289D01*X00062Y027032D01*
X000689Y026781D01*X001719Y024041D01*X001845Y022256D01*X005122Y02149D01*
X005281Y021438D01*X00543Y021361D01*X005563Y02126D01*X005678Y021138D01*
X00577Y020999D01*X007302Y018218D01*X007376Y018048D01*X007417Y017868D01*
X007425Y017684D01*X007398Y017501D01*X007338Y017326D01*
X007248Y017165D01*X007129Y017024D01*X006939Y016836D01*X00819Y015542D01*
X007084Y014226D01*X006973Y014064D01*X006934Y013974D01*
X006875Y013786D01*X006855Y01369D01*X006853Y013494D01*X00689Y013301D01*
X006963Y013118D01*X007071Y012954D01*X00729Y012683D01*X007466Y012492D01*
X007666Y012325D01*X007885Y012186D01*X008121Y012076D01*
X008368Y011998D01*X008624Y011952D01*X008884Y01194D01*X01174Y011481D01*
X01337Y011148D01*X025531Y015148D02*X025439Y014904D01*X025317Y014675D01*
X025166Y014464D01*X024988Y014273D01*X024788Y014108D01*X024568Y01397D01*
X024332Y013861D01*X024006Y013737D01*X023817Y013685D01*
X023621Y013671D01*X023426Y013696D01*X023239Y013759D01*
X023154Y013807D01*X022994Y013922D01*X022921Y013986D01*
X022801Y014142D01*X02189Y015601D01*X020273Y014811D01*X018753Y006268D02*
X018561Y006265D01*X018371Y006299D01*X01822Y006342D01*X018069Y006398D01*
X01793Y006477D01*X017805Y006577D01*X017698Y006696D01*X017611Y00683D01*
X017471Y007091D01*X01691Y009576D01*
M02*