%TF.GenerationSoftware,KiCad,Pcbnew,(5.1.6)-1*%
%TF.CreationDate,2020-08-27T20:00:14-05:00*%
%TF.ProjectId,Rollz LED Driver,526f6c6c-7a20-44c4-9544-204472697665,rev?*%
%TF.SameCoordinates,Original*%
%TF.FileFunction,Legend,Bot*%
%TF.FilePolarity,Positive*%
%FSLAX46Y46*%
G04 Gerber Fmt 4.6, Leading zero omitted, Abs format (unit mm)*
G04 Created by KiCad (PCBNEW (5.1.6)-1) date 2020-08-27 20:00:14*
%MOMM*%
%LPD*%
G01*
G04 APERTURE LIST*
%ADD10C,0.250000*%
G04 APERTURE END LIST*
D10*
X131547619Y-118622380D02*
X130547619Y-118289047D01*
X131547619Y-117955714D01*
X130595238Y-117241428D02*
X130547619Y-117336666D01*
X130547619Y-117527142D01*
X130595238Y-117622380D01*
X130690476Y-117670000D01*
X131071428Y-117670000D01*
X131166666Y-117622380D01*
X131214285Y-117527142D01*
X131214285Y-117336666D01*
X131166666Y-117241428D01*
X131071428Y-117193809D01*
X130976190Y-117193809D01*
X130880952Y-117670000D01*
X130547619Y-116765238D02*
X131214285Y-116765238D01*
X131023809Y-116765238D02*
X131119047Y-116717619D01*
X131166666Y-116670000D01*
X131214285Y-116574761D01*
X131214285Y-116479523D01*
X130642857Y-116146190D02*
X130595238Y-116098571D01*
X130547619Y-116146190D01*
X130595238Y-116193809D01*
X130642857Y-116146190D01*
X130547619Y-116146190D01*
X130547619Y-114384285D02*
X130547619Y-114955714D01*
X130547619Y-114670000D02*
X131547619Y-114670000D01*
X131404761Y-114765238D01*
X131309523Y-114860476D01*
X131261904Y-114955714D01*
X130547619Y-113146190D02*
X130547619Y-112955714D01*
X130595238Y-112860476D01*
X130642857Y-112812857D01*
X130785714Y-112717619D01*
X130976190Y-112670000D01*
X131357142Y-112670000D01*
X131452380Y-112717619D01*
X131500000Y-112765238D01*
X131547619Y-112860476D01*
X131547619Y-113050952D01*
X131500000Y-113146190D01*
X131452380Y-113193809D01*
X131357142Y-113241428D01*
X131119047Y-113241428D01*
X131023809Y-113193809D01*
X130976190Y-113146190D01*
X130928571Y-113050952D01*
X130928571Y-112860476D01*
X130976190Y-112765238D01*
X131023809Y-112717619D01*
X131119047Y-112670000D01*
X131595238Y-111527142D02*
X130309523Y-112384285D01*
X131452380Y-111241428D02*
X131500000Y-111193809D01*
X131547619Y-111098571D01*
X131547619Y-110860476D01*
X131500000Y-110765238D01*
X131452380Y-110717619D01*
X131357142Y-110670000D01*
X131261904Y-110670000D01*
X131119047Y-110717619D01*
X130547619Y-111289047D01*
X130547619Y-110670000D01*
X131547619Y-110050952D02*
X131547619Y-109955714D01*
X131500000Y-109860476D01*
X131452380Y-109812857D01*
X131357142Y-109765238D01*
X131166666Y-109717619D01*
X130928571Y-109717619D01*
X130738095Y-109765238D01*
X130642857Y-109812857D01*
X130595238Y-109860476D01*
X130547619Y-109955714D01*
X130547619Y-110050952D01*
X130595238Y-110146190D01*
X130642857Y-110193809D01*
X130738095Y-110241428D01*
X130928571Y-110289047D01*
X131166666Y-110289047D01*
X131357142Y-110241428D01*
X131452380Y-110193809D01*
X131500000Y-110146190D01*
X131547619Y-110050952D01*
X131452380Y-109336666D02*
X131500000Y-109289047D01*
X131547619Y-109193809D01*
X131547619Y-108955714D01*
X131500000Y-108860476D01*
X131452380Y-108812857D01*
X131357142Y-108765238D01*
X131261904Y-108765238D01*
X131119047Y-108812857D01*
X130547619Y-109384285D01*
X130547619Y-108765238D01*
X131547619Y-108146190D02*
X131547619Y-108050952D01*
X131500000Y-107955714D01*
X131452380Y-107908095D01*
X131357142Y-107860476D01*
X131166666Y-107812857D01*
X130928571Y-107812857D01*
X130738095Y-107860476D01*
X130642857Y-107908095D01*
X130595238Y-107955714D01*
X130547619Y-108050952D01*
X130547619Y-108146190D01*
X130595238Y-108241428D01*
X130642857Y-108289047D01*
X130738095Y-108336666D01*
X130928571Y-108384285D01*
X131166666Y-108384285D01*
X131357142Y-108336666D01*
X131452380Y-108289047D01*
X131500000Y-108241428D01*
X131547619Y-108146190D01*
M02*
