%TF.GenerationSoftware,KiCad,Pcbnew,(5.1.6)-1*%
%TF.CreationDate,2020-08-27T20:00:14-05:00*%
%TF.ProjectId,Rollz LED Driver,526f6c6c-7a20-44c4-9544-204472697665,rev?*%
%TF.SameCoordinates,Original*%
%TF.FileFunction,Copper,L1,Top*%
%TF.FilePolarity,Positive*%
%FSLAX46Y46*%
G04 Gerber Fmt 4.6, Leading zero omitted, Abs format (unit mm)*
G04 Created by KiCad (PCBNEW (5.1.6)-1) date 2020-08-27 20:00:14*
%MOMM*%
%LPD*%
G01*
G04 APERTURE LIST*
%TA.AperFunction,ComponentPad*%
%ADD10C,1.600000*%
%TD*%
%TA.AperFunction,ComponentPad*%
%ADD11O,1.600000X1.600000*%
%TD*%
%TA.AperFunction,ComponentPad*%
%ADD12R,1.500000X1.500000*%
%TD*%
%TA.AperFunction,ComponentPad*%
%ADD13C,1.500000*%
%TD*%
%TA.AperFunction,ComponentPad*%
%ADD14O,1.700000X1.700000*%
%TD*%
%TA.AperFunction,ComponentPad*%
%ADD15R,1.700000X1.700000*%
%TD*%
%TA.AperFunction,ComponentPad*%
%ADD16C,1.800000*%
%TD*%
%TA.AperFunction,ComponentPad*%
%ADD17R,1.800000X1.800000*%
%TD*%
%TA.AperFunction,Conductor*%
%ADD18C,0.635000*%
%TD*%
G04 APERTURE END LIST*
D10*
%TO.P,.,2*%
%TO.N,GND*%
X135480000Y-110020000D03*
%TO.P,.,1*%
%TO.N,PWR*%
X135480000Y-115020000D03*
%TD*%
D11*
%TO.P,.,2*%
%TO.N,GND*%
X137960000Y-109300000D03*
D10*
%TO.P,.,1*%
%TO.N,T2*%
X145580000Y-109300000D03*
%TD*%
%TO.P,.,1*%
%TO.N,T2*%
X145600000Y-112590000D03*
D11*
%TO.P,.,2*%
%TO.N,IN*%
X137980000Y-112590000D03*
%TD*%
%TO.P,.,2*%
%TO.N,L1*%
X143060000Y-116210000D03*
D10*
%TO.P,.,1*%
%TO.N,T3*%
X150680000Y-116210000D03*
%TD*%
D12*
%TO.P,.,1*%
%TO.N,GND*%
X148520000Y-108820000D03*
D13*
%TO.P,.,3*%
%TO.N,T3*%
X148520000Y-113900000D03*
%TO.P,.,2*%
%TO.N,T2*%
X148520000Y-111360000D03*
%TD*%
D14*
%TO.P,.,3*%
%TO.N,PWR*%
X132760000Y-115180000D03*
%TO.P,.,2*%
%TO.N,IN*%
X132760000Y-112640000D03*
D15*
%TO.P,.,1*%
%TO.N,GND*%
X132760000Y-110100000D03*
%TD*%
D16*
%TO.P,.,2*%
%TO.N,PWR*%
X137990000Y-116380000D03*
D17*
%TO.P,.,1*%
%TO.N,L1*%
X140530000Y-116380000D03*
%TD*%
D18*
%TO.N,PWR*%
X137338198Y-115728198D02*
X137990000Y-116380000D01*
X137338198Y-115728198D02*
X137298741Y-115690043D01*
X137298741Y-115690043D02*
X137258024Y-115653235D01*
X137258024Y-115653235D02*
X137216095Y-115617816D01*
X137216095Y-115617816D02*
X137173000Y-115583824D01*
X137173000Y-115583824D02*
X137128788Y-115551299D01*
X137128788Y-115551299D02*
X137083508Y-115520276D01*
X137083508Y-115520276D02*
X137037213Y-115490792D01*
X137037213Y-115490792D02*
X136989953Y-115462878D01*
X136989953Y-115462878D02*
X136941783Y-115436568D01*
X136941783Y-115436568D02*
X136892756Y-115411889D01*
X136892756Y-115411889D02*
X136842929Y-115388871D01*
X136842929Y-115388871D02*
X136792356Y-115367539D01*
X136792356Y-115367539D02*
X136741096Y-115347917D01*
X136741096Y-115347917D02*
X136689206Y-115330028D01*
X136689206Y-115330028D02*
X136636745Y-115313891D01*
X136636745Y-115313891D02*
X136583771Y-115299526D01*
X136583771Y-115299526D02*
X135480000Y-115020000D01*
X132760000Y-115180000D02*
X135480000Y-115020000D01*
%TO.N,IN*%
X137930000Y-112640000D02*
X137980000Y-112590000D01*
X132760000Y-112640000D02*
X137930000Y-112640000D01*
%TO.N,T2*%
X145580000Y-109300000D02*
X145580000Y-112570000D01*
X146971143Y-112492061D02*
X145600000Y-112590000D01*
X146971143Y-112492061D02*
X147024741Y-112487027D01*
X147024741Y-112487027D02*
X147078063Y-112479608D01*
X147078063Y-112479608D02*
X147130999Y-112469818D01*
X147130999Y-112469818D02*
X147183447Y-112457675D01*
X147183447Y-112457675D02*
X147235300Y-112443204D01*
X147235300Y-112443204D02*
X147286456Y-112426434D01*
X147286456Y-112426434D02*
X147336813Y-112407399D01*
X147336813Y-112407399D02*
X147386271Y-112386135D01*
X147386271Y-112386135D02*
X147434731Y-112362687D01*
X147434731Y-112362687D02*
X147482096Y-112337099D01*
X147482096Y-112337099D02*
X147528272Y-112309424D01*
X147528272Y-112309424D02*
X147573168Y-112279716D01*
X147573168Y-112279716D02*
X147616694Y-112248035D01*
X147616694Y-112248035D02*
X147658762Y-112214443D01*
X147658762Y-112214443D02*
X147699290Y-112179008D01*
X147699290Y-112179008D02*
X147738198Y-112141801D01*
X147738198Y-112141801D02*
X148520000Y-111360000D01*
%TO.N,T3*%
X150406894Y-115146024D02*
X150680000Y-116210000D01*
X150406894Y-115146024D02*
X150383024Y-115064013D01*
X150383024Y-115064013D02*
X150353963Y-114983696D01*
X150353963Y-114983696D02*
X150319830Y-114905399D01*
X150319830Y-114905399D02*
X150280765Y-114829443D01*
X150280765Y-114829443D02*
X150236926Y-114756138D01*
X150236926Y-114756138D02*
X150188493Y-114685784D01*
X150188493Y-114685784D02*
X150135663Y-114618669D01*
X150135663Y-114618669D02*
X150078654Y-114555066D01*
X150078654Y-114555066D02*
X150017697Y-114495235D01*
X150017697Y-114495235D02*
X149953042Y-114439421D01*
X149953042Y-114439421D02*
X149884953Y-114387853D01*
X149884953Y-114387853D02*
X149813708Y-114340740D01*
X149813708Y-114340740D02*
X149739598Y-114298276D01*
X149739598Y-114298276D02*
X149662927Y-114260634D01*
X149662927Y-114260634D02*
X149584007Y-114227967D01*
X149584007Y-114227967D02*
X149503162Y-114200410D01*
X149503162Y-114200410D02*
X148520000Y-113900000D01*
%TO.N,L1*%
X140700000Y-116210000D02*
X140530000Y-116380000D01*
X143060000Y-116210000D02*
X140700000Y-116210000D01*
%TD*%
M02*
