%TF.GenerationSoftware,KiCad,Pcbnew,(5.1.6)-1*%
%TF.CreationDate,2020-08-27T20:00:14-05:00*%
%TF.ProjectId,Rollz LED Driver,526f6c6c-7a20-44c4-9544-204472697665,rev?*%
%TF.SameCoordinates,Original*%
%TF.FileFunction,Legend,Top*%
%TF.FilePolarity,Positive*%
%FSLAX46Y46*%
G04 Gerber Fmt 4.6, Leading zero omitted, Abs format (unit mm)*
G04 Created by KiCad (PCBNEW (5.1.6)-1) date 2020-08-27 20:00:14*
%MOMM*%
%LPD*%
G01*
G04 APERTURE LIST*
%ADD10C,0.250000*%
%ADD11C,0.187500*%
%ADD12C,0.010000*%
%ADD13C,0.350000*%
%ADD14C,0.120000*%
%ADD15C,0.150000*%
G04 APERTURE END LIST*
D10*
X144367142Y-118642380D02*
X143890952Y-118642380D01*
X143890952Y-117642380D01*
X144700476Y-118118571D02*
X145033809Y-118118571D01*
X145176666Y-118642380D02*
X144700476Y-118642380D01*
X144700476Y-117642380D01*
X145176666Y-117642380D01*
X145605238Y-118642380D02*
X145605238Y-117642380D01*
X145843333Y-117642380D01*
X145986190Y-117690000D01*
X146081428Y-117785238D01*
X146129047Y-117880476D01*
X146176666Y-118070952D01*
X146176666Y-118213809D01*
X146129047Y-118404285D01*
X146081428Y-118499523D01*
X145986190Y-118594761D01*
X145843333Y-118642380D01*
X145605238Y-118642380D01*
X142284761Y-118547142D02*
X142237142Y-118594761D01*
X142094285Y-118642380D01*
X141999047Y-118642380D01*
X141856190Y-118594761D01*
X141760952Y-118499523D01*
X141713333Y-118404285D01*
X141665714Y-118213809D01*
X141665714Y-118070952D01*
X141713333Y-117880476D01*
X141760952Y-117785238D01*
X141856190Y-117690000D01*
X141999047Y-117642380D01*
X142094285Y-117642380D01*
X142237142Y-117690000D01*
X142284761Y-117737619D01*
X143189523Y-118642380D02*
X142713333Y-118642380D01*
X142713333Y-117642380D01*
X146839047Y-118632380D02*
X146839047Y-117632380D01*
X147077142Y-117632380D01*
X147220000Y-117680000D01*
X147315238Y-117775238D01*
X147362857Y-117870476D01*
X147410476Y-118060952D01*
X147410476Y-118203809D01*
X147362857Y-118394285D01*
X147315238Y-118489523D01*
X147220000Y-118584761D01*
X147077142Y-118632380D01*
X146839047Y-118632380D01*
X148410476Y-118632380D02*
X148077142Y-118156190D01*
X147839047Y-118632380D02*
X147839047Y-117632380D01*
X148220000Y-117632380D01*
X148315238Y-117680000D01*
X148362857Y-117727619D01*
X148410476Y-117822857D01*
X148410476Y-117965714D01*
X148362857Y-118060952D01*
X148315238Y-118108571D01*
X148220000Y-118156190D01*
X147839047Y-118156190D01*
X148839047Y-118632380D02*
X148839047Y-117632380D01*
X149172380Y-117632380D02*
X149505714Y-118632380D01*
X149839047Y-117632380D01*
X150172380Y-118108571D02*
X150505714Y-118108571D01*
X150648571Y-118632380D02*
X150172380Y-118632380D01*
X150172380Y-117632380D01*
X150648571Y-117632380D01*
X151648571Y-118632380D02*
X151315238Y-118156190D01*
X151077142Y-118632380D02*
X151077142Y-117632380D01*
X151458095Y-117632380D01*
X151553333Y-117680000D01*
X151600952Y-117727619D01*
X151648571Y-117822857D01*
X151648571Y-117965714D01*
X151600952Y-118060952D01*
X151553333Y-118108571D01*
X151458095Y-118156190D01*
X151077142Y-118156190D01*
D11*
X130510714Y-114170000D02*
X131260714Y-114170000D01*
X131260714Y-114455714D01*
X131225000Y-114527142D01*
X131189285Y-114562857D01*
X131117857Y-114598571D01*
X131010714Y-114598571D01*
X130939285Y-114562857D01*
X130903571Y-114527142D01*
X130867857Y-114455714D01*
X130867857Y-114170000D01*
X131260714Y-114848571D02*
X130510714Y-115027142D01*
X131046428Y-115170000D01*
X130510714Y-115312857D01*
X131260714Y-115491428D01*
X130510714Y-116205714D02*
X130867857Y-115955714D01*
X130510714Y-115777142D02*
X131260714Y-115777142D01*
X131260714Y-116062857D01*
X131225000Y-116134285D01*
X131189285Y-116170000D01*
X131117857Y-116205714D01*
X131010714Y-116205714D01*
X130939285Y-116170000D01*
X130903571Y-116134285D01*
X130867857Y-116062857D01*
X130867857Y-115777142D01*
X131225000Y-109538571D02*
X131260714Y-109467142D01*
X131260714Y-109360000D01*
X131225000Y-109252857D01*
X131153571Y-109181428D01*
X131082142Y-109145714D01*
X130939285Y-109110000D01*
X130832142Y-109110000D01*
X130689285Y-109145714D01*
X130617857Y-109181428D01*
X130546428Y-109252857D01*
X130510714Y-109360000D01*
X130510714Y-109431428D01*
X130546428Y-109538571D01*
X130582142Y-109574285D01*
X130832142Y-109574285D01*
X130832142Y-109431428D01*
X130510714Y-109895714D02*
X131260714Y-109895714D01*
X130510714Y-110324285D01*
X131260714Y-110324285D01*
X130510714Y-110681428D02*
X131260714Y-110681428D01*
X131260714Y-110860000D01*
X131225000Y-110967142D01*
X131153571Y-111038571D01*
X131082142Y-111074285D01*
X130939285Y-111110000D01*
X130832142Y-111110000D01*
X130689285Y-111074285D01*
X130617857Y-111038571D01*
X130546428Y-110967142D01*
X130510714Y-110860000D01*
X130510714Y-110681428D01*
X130510714Y-112277142D02*
X131260714Y-112277142D01*
X130510714Y-112634285D02*
X131260714Y-112634285D01*
X130510714Y-113062857D01*
X131260714Y-113062857D01*
D12*
%TO.C,*%
G36*
X135750692Y-108853298D02*
G01*
X135999741Y-108917329D01*
X136233625Y-109024587D01*
X136447185Y-109173241D01*
X136635257Y-109361459D01*
X136792680Y-109587411D01*
X136792939Y-109587861D01*
X136821738Y-109643902D01*
X136847362Y-109708049D01*
X136869987Y-109783347D01*
X136889790Y-109872844D01*
X136906946Y-109979585D01*
X136921631Y-110106618D01*
X136934022Y-110256988D01*
X136944294Y-110433743D01*
X136952624Y-110639927D01*
X136959188Y-110878588D01*
X136964162Y-111152772D01*
X136967721Y-111465525D01*
X136970043Y-111819895D01*
X136971303Y-112218926D01*
X136971678Y-112665666D01*
X136971677Y-112679789D01*
X136971412Y-113079767D01*
X136970645Y-113431538D01*
X136969337Y-113737741D01*
X136967450Y-114001019D01*
X136964944Y-114224013D01*
X136961779Y-114409363D01*
X136957918Y-114559711D01*
X136953321Y-114677697D01*
X136947948Y-114765963D01*
X136941761Y-114827150D01*
X136939685Y-114840951D01*
X136903636Y-115002867D01*
X136849562Y-115147175D01*
X136771118Y-115285118D01*
X136661957Y-115427938D01*
X136522546Y-115579892D01*
X136364422Y-115735704D01*
X136227874Y-115854790D01*
X136105898Y-115942484D01*
X135991492Y-116004120D01*
X135936586Y-116026241D01*
X135831786Y-116051758D01*
X135693192Y-116068469D01*
X135537183Y-116075852D01*
X135380134Y-116073385D01*
X135238425Y-116060544D01*
X135179900Y-116050382D01*
X134969218Y-115994884D01*
X134793682Y-115922818D01*
X134638573Y-115827576D01*
X134576378Y-115779401D01*
X134480169Y-115694548D01*
X134394689Y-115604834D01*
X134319332Y-115506957D01*
X134253497Y-115397609D01*
X134196579Y-115273487D01*
X134147975Y-115131286D01*
X134107083Y-114967700D01*
X134073299Y-114779425D01*
X134046019Y-114563155D01*
X134024640Y-114315587D01*
X134008560Y-114033414D01*
X133997174Y-113713332D01*
X133989880Y-113352037D01*
X133989299Y-113290000D01*
X134258106Y-113290000D01*
X134271112Y-113868428D01*
X134276004Y-114063156D01*
X134281447Y-114216440D01*
X134288327Y-114337688D01*
X134297536Y-114436304D01*
X134309963Y-114521696D01*
X134326496Y-114603269D01*
X134348026Y-114690430D01*
X134349300Y-114695294D01*
X134428419Y-114950170D01*
X134522222Y-115161097D01*
X134634803Y-115333862D01*
X134770259Y-115474252D01*
X134932684Y-115588054D01*
X135010531Y-115629611D01*
X135199317Y-115712689D01*
X135363795Y-115760956D01*
X135515175Y-115775988D01*
X135664673Y-115759360D01*
X135758585Y-115734700D01*
X135902813Y-115677201D01*
X136042131Y-115593521D01*
X136186487Y-115476834D01*
X136313496Y-115353889D01*
X136469727Y-115166736D01*
X136578395Y-114972743D01*
X136642785Y-114765606D01*
X136653796Y-114701111D01*
X136661030Y-114624272D01*
X136667496Y-114506424D01*
X136672876Y-114357403D01*
X136676853Y-114187050D01*
X136679108Y-114005202D01*
X136679496Y-113906566D01*
X136680000Y-113290000D01*
X134258106Y-113290000D01*
X133989299Y-113290000D01*
X133986074Y-112946222D01*
X133985132Y-112540383D01*
X133986178Y-112120810D01*
X133988099Y-111891601D01*
X134315435Y-111891601D01*
X134315435Y-112984894D01*
X136680000Y-112984894D01*
X136680000Y-111891601D01*
X134315435Y-111891601D01*
X133988099Y-111891601D01*
X133989303Y-111748034D01*
X133994741Y-111418034D01*
X134000770Y-111198091D01*
X134264585Y-111198091D01*
X134264585Y-111586496D01*
X136686102Y-111586496D01*
X136673499Y-110944504D01*
X136668848Y-110735325D01*
X136663644Y-110569083D01*
X136657271Y-110437863D01*
X136649112Y-110333752D01*
X136638552Y-110248834D01*
X136624973Y-110175197D01*
X136608272Y-110106824D01*
X136533921Y-109877940D01*
X136443209Y-109688904D01*
X136331325Y-109530043D01*
X136308098Y-109503386D01*
X136158058Y-109372889D01*
X135976073Y-109273962D01*
X135771502Y-109208512D01*
X135553699Y-109178443D01*
X135332024Y-109185661D01*
X135115832Y-109232071D01*
X135063807Y-109249995D01*
X134927995Y-109321168D01*
X134789534Y-109429574D01*
X134660133Y-109563666D01*
X134551503Y-109711894D01*
X134499297Y-109806716D01*
X134410941Y-110027932D01*
X134344162Y-110276829D01*
X134298100Y-110558495D01*
X134271897Y-110878016D01*
X134264585Y-111198091D01*
X134000770Y-111198091D01*
X134002725Y-111126789D01*
X134013486Y-110870278D01*
X134027257Y-110644482D01*
X134044271Y-110445379D01*
X134064761Y-110268949D01*
X134088958Y-110111171D01*
X134117095Y-109968025D01*
X134139304Y-109874200D01*
X134220778Y-109624594D01*
X134330425Y-109415003D01*
X134472558Y-109240536D01*
X134651490Y-109096303D01*
X134871536Y-108977413D01*
X134964176Y-108938891D01*
X135227748Y-108862248D01*
X135491640Y-108834328D01*
X135750692Y-108853298D01*
G37*
X135750692Y-108853298D02*
X135999741Y-108917329D01*
X136233625Y-109024587D01*
X136447185Y-109173241D01*
X136635257Y-109361459D01*
X136792680Y-109587411D01*
X136792939Y-109587861D01*
X136821738Y-109643902D01*
X136847362Y-109708049D01*
X136869987Y-109783347D01*
X136889790Y-109872844D01*
X136906946Y-109979585D01*
X136921631Y-110106618D01*
X136934022Y-110256988D01*
X136944294Y-110433743D01*
X136952624Y-110639927D01*
X136959188Y-110878588D01*
X136964162Y-111152772D01*
X136967721Y-111465525D01*
X136970043Y-111819895D01*
X136971303Y-112218926D01*
X136971678Y-112665666D01*
X136971677Y-112679789D01*
X136971412Y-113079767D01*
X136970645Y-113431538D01*
X136969337Y-113737741D01*
X136967450Y-114001019D01*
X136964944Y-114224013D01*
X136961779Y-114409363D01*
X136957918Y-114559711D01*
X136953321Y-114677697D01*
X136947948Y-114765963D01*
X136941761Y-114827150D01*
X136939685Y-114840951D01*
X136903636Y-115002867D01*
X136849562Y-115147175D01*
X136771118Y-115285118D01*
X136661957Y-115427938D01*
X136522546Y-115579892D01*
X136364422Y-115735704D01*
X136227874Y-115854790D01*
X136105898Y-115942484D01*
X135991492Y-116004120D01*
X135936586Y-116026241D01*
X135831786Y-116051758D01*
X135693192Y-116068469D01*
X135537183Y-116075852D01*
X135380134Y-116073385D01*
X135238425Y-116060544D01*
X135179900Y-116050382D01*
X134969218Y-115994884D01*
X134793682Y-115922818D01*
X134638573Y-115827576D01*
X134576378Y-115779401D01*
X134480169Y-115694548D01*
X134394689Y-115604834D01*
X134319332Y-115506957D01*
X134253497Y-115397609D01*
X134196579Y-115273487D01*
X134147975Y-115131286D01*
X134107083Y-114967700D01*
X134073299Y-114779425D01*
X134046019Y-114563155D01*
X134024640Y-114315587D01*
X134008560Y-114033414D01*
X133997174Y-113713332D01*
X133989880Y-113352037D01*
X133989299Y-113290000D01*
X134258106Y-113290000D01*
X134271112Y-113868428D01*
X134276004Y-114063156D01*
X134281447Y-114216440D01*
X134288327Y-114337688D01*
X134297536Y-114436304D01*
X134309963Y-114521696D01*
X134326496Y-114603269D01*
X134348026Y-114690430D01*
X134349300Y-114695294D01*
X134428419Y-114950170D01*
X134522222Y-115161097D01*
X134634803Y-115333862D01*
X134770259Y-115474252D01*
X134932684Y-115588054D01*
X135010531Y-115629611D01*
X135199317Y-115712689D01*
X135363795Y-115760956D01*
X135515175Y-115775988D01*
X135664673Y-115759360D01*
X135758585Y-115734700D01*
X135902813Y-115677201D01*
X136042131Y-115593521D01*
X136186487Y-115476834D01*
X136313496Y-115353889D01*
X136469727Y-115166736D01*
X136578395Y-114972743D01*
X136642785Y-114765606D01*
X136653796Y-114701111D01*
X136661030Y-114624272D01*
X136667496Y-114506424D01*
X136672876Y-114357403D01*
X136676853Y-114187050D01*
X136679108Y-114005202D01*
X136679496Y-113906566D01*
X136680000Y-113290000D01*
X134258106Y-113290000D01*
X133989299Y-113290000D01*
X133986074Y-112946222D01*
X133985132Y-112540383D01*
X133986178Y-112120810D01*
X133988099Y-111891601D01*
X134315435Y-111891601D01*
X134315435Y-112984894D01*
X136680000Y-112984894D01*
X136680000Y-111891601D01*
X134315435Y-111891601D01*
X133988099Y-111891601D01*
X133989303Y-111748034D01*
X133994741Y-111418034D01*
X134000770Y-111198091D01*
X134264585Y-111198091D01*
X134264585Y-111586496D01*
X136686102Y-111586496D01*
X136673499Y-110944504D01*
X136668848Y-110735325D01*
X136663644Y-110569083D01*
X136657271Y-110437863D01*
X136649112Y-110333752D01*
X136638552Y-110248834D01*
X136624973Y-110175197D01*
X136608272Y-110106824D01*
X136533921Y-109877940D01*
X136443209Y-109688904D01*
X136331325Y-109530043D01*
X136308098Y-109503386D01*
X136158058Y-109372889D01*
X135976073Y-109273962D01*
X135771502Y-109208512D01*
X135553699Y-109178443D01*
X135332024Y-109185661D01*
X135115832Y-109232071D01*
X135063807Y-109249995D01*
X134927995Y-109321168D01*
X134789534Y-109429574D01*
X134660133Y-109563666D01*
X134551503Y-109711894D01*
X134499297Y-109806716D01*
X134410941Y-110027932D01*
X134344162Y-110276829D01*
X134298100Y-110558495D01*
X134271897Y-110878016D01*
X134264585Y-111198091D01*
X134000770Y-111198091D01*
X134002725Y-111126789D01*
X134013486Y-110870278D01*
X134027257Y-110644482D01*
X134044271Y-110445379D01*
X134064761Y-110268949D01*
X134088958Y-110111171D01*
X134117095Y-109968025D01*
X134139304Y-109874200D01*
X134220778Y-109624594D01*
X134330425Y-109415003D01*
X134472558Y-109240536D01*
X134651490Y-109096303D01*
X134871536Y-108977413D01*
X134964176Y-108938891D01*
X135227748Y-108862248D01*
X135491640Y-108834328D01*
X135750692Y-108853298D01*
D13*
X134298100Y-110790000D02*
X136798100Y-110790000D01*
X134281447Y-114216440D02*
X136781447Y-114216440D01*
D12*
%TO.C,G\u002A\u002A\u002A*%
G36*
X132206194Y-117329101D02*
G01*
X132227907Y-117358571D01*
X132205562Y-117411441D01*
X132201205Y-117417812D01*
X132156444Y-117464957D01*
X132120351Y-117462308D01*
X132089076Y-117409515D01*
X132088325Y-117407556D01*
X132068305Y-117349756D01*
X132074088Y-117325398D01*
X132113947Y-117320028D01*
X132138455Y-117319960D01*
X132206194Y-117329101D01*
G37*
X132206194Y-117329101D02*
X132227907Y-117358571D01*
X132205562Y-117411441D01*
X132201205Y-117417812D01*
X132156444Y-117464957D01*
X132120351Y-117462308D01*
X132089076Y-117409515D01*
X132088325Y-117407556D01*
X132068305Y-117349756D01*
X132074088Y-117325398D01*
X132113947Y-117320028D01*
X132138455Y-117319960D01*
X132206194Y-117329101D01*
G36*
X131984462Y-117320159D02*
G01*
X131984063Y-117374319D01*
X131982371Y-117390773D01*
X131971813Y-117442301D01*
X131947414Y-117453950D01*
X131916817Y-117445050D01*
X131870551Y-117408964D01*
X131861861Y-117361655D01*
X131890902Y-117321683D01*
X131915704Y-117311194D01*
X131964787Y-117302831D01*
X131984462Y-117320159D01*
G37*
X131984462Y-117320159D02*
X131984063Y-117374319D01*
X131982371Y-117390773D01*
X131971813Y-117442301D01*
X131947414Y-117453950D01*
X131916817Y-117445050D01*
X131870551Y-117408964D01*
X131861861Y-117361655D01*
X131890902Y-117321683D01*
X131915704Y-117311194D01*
X131964787Y-117302831D01*
X131984462Y-117320159D01*
G36*
X131569677Y-117464526D02*
G01*
X131624428Y-117509667D01*
X131692578Y-117573851D01*
X131706406Y-117587711D01*
X131775413Y-117659092D01*
X131812932Y-117704727D01*
X131824032Y-117734435D01*
X131813784Y-117758036D01*
X131801314Y-117771543D01*
X131773799Y-117793828D01*
X131746930Y-117793306D01*
X131708013Y-117765122D01*
X131656218Y-117716018D01*
X131597598Y-117660344D01*
X131561666Y-117635972D01*
X131534681Y-117638505D01*
X131502902Y-117663548D01*
X131500098Y-117666071D01*
X131477247Y-117689486D01*
X131462588Y-117717167D01*
X131455099Y-117758972D01*
X131453757Y-117824757D01*
X131457540Y-117924377D01*
X131462957Y-118024236D01*
X131469672Y-118155674D01*
X131471797Y-118244957D01*
X131468675Y-118300782D01*
X131459646Y-118331846D01*
X131444052Y-118346846D01*
X131438331Y-118349386D01*
X131396547Y-118361542D01*
X131370677Y-118352567D01*
X131355217Y-118313671D01*
X131344666Y-118236064D01*
X131340694Y-118193403D01*
X131331507Y-118084456D01*
X131320856Y-117949854D01*
X131310726Y-117814830D01*
X131308607Y-117785371D01*
X131291815Y-117549478D01*
X131354907Y-117549478D01*
X131420069Y-117531033D01*
X131464157Y-117498474D01*
X131508488Y-117460278D01*
X131539111Y-117447470D01*
X131569677Y-117464526D01*
G37*
X131569677Y-117464526D02*
X131624428Y-117509667D01*
X131692578Y-117573851D01*
X131706406Y-117587711D01*
X131775413Y-117659092D01*
X131812932Y-117704727D01*
X131824032Y-117734435D01*
X131813784Y-117758036D01*
X131801314Y-117771543D01*
X131773799Y-117793828D01*
X131746930Y-117793306D01*
X131708013Y-117765122D01*
X131656218Y-117716018D01*
X131597598Y-117660344D01*
X131561666Y-117635972D01*
X131534681Y-117638505D01*
X131502902Y-117663548D01*
X131500098Y-117666071D01*
X131477247Y-117689486D01*
X131462588Y-117717167D01*
X131455099Y-117758972D01*
X131453757Y-117824757D01*
X131457540Y-117924377D01*
X131462957Y-118024236D01*
X131469672Y-118155674D01*
X131471797Y-118244957D01*
X131468675Y-118300782D01*
X131459646Y-118331846D01*
X131444052Y-118346846D01*
X131438331Y-118349386D01*
X131396547Y-118361542D01*
X131370677Y-118352567D01*
X131355217Y-118313671D01*
X131344666Y-118236064D01*
X131340694Y-118193403D01*
X131331507Y-118084456D01*
X131320856Y-117949854D01*
X131310726Y-117814830D01*
X131308607Y-117785371D01*
X131291815Y-117549478D01*
X131354907Y-117549478D01*
X131420069Y-117531033D01*
X131464157Y-117498474D01*
X131508488Y-117460278D01*
X131539111Y-117447470D01*
X131569677Y-117464526D01*
G36*
X131082826Y-117511991D02*
G01*
X131178975Y-117565731D01*
X131234861Y-117605327D01*
X131256635Y-117637778D01*
X131250448Y-117670084D01*
X131238359Y-117688964D01*
X131216046Y-117713554D01*
X131189708Y-117717726D01*
X131145536Y-117699252D01*
X131083448Y-117663956D01*
X130962205Y-117592903D01*
X130656374Y-117898734D01*
X130843372Y-118054207D01*
X130930413Y-118125755D01*
X130987817Y-118168713D01*
X131024926Y-118187386D01*
X131051084Y-118186077D01*
X131075632Y-118169090D01*
X131081500Y-118163894D01*
X131142793Y-118114654D01*
X131184037Y-118100819D01*
X131218830Y-118119460D01*
X131230763Y-118131741D01*
X131250437Y-118159167D01*
X131247403Y-118184550D01*
X131215414Y-118218498D01*
X131148511Y-118271401D01*
X131081999Y-118320821D01*
X131033364Y-118354522D01*
X131015093Y-118364512D01*
X130993074Y-118348532D01*
X130939861Y-118305526D01*
X130862972Y-118241681D01*
X130769919Y-118163184D01*
X130750101Y-118146331D01*
X130654723Y-118064208D01*
X130574550Y-117993456D01*
X130517059Y-117940802D01*
X130489731Y-117912975D01*
X130488572Y-117911067D01*
X130503151Y-117887283D01*
X130547654Y-117835312D01*
X130615428Y-117762512D01*
X130699817Y-117676243D01*
X130711478Y-117664604D01*
X130940893Y-117436252D01*
X131082826Y-117511991D01*
G37*
X131082826Y-117511991D02*
X131178975Y-117565731D01*
X131234861Y-117605327D01*
X131256635Y-117637778D01*
X131250448Y-117670084D01*
X131238359Y-117688964D01*
X131216046Y-117713554D01*
X131189708Y-117717726D01*
X131145536Y-117699252D01*
X131083448Y-117663956D01*
X130962205Y-117592903D01*
X130656374Y-117898734D01*
X130843372Y-118054207D01*
X130930413Y-118125755D01*
X130987817Y-118168713D01*
X131024926Y-118187386D01*
X131051084Y-118186077D01*
X131075632Y-118169090D01*
X131081500Y-118163894D01*
X131142793Y-118114654D01*
X131184037Y-118100819D01*
X131218830Y-118119460D01*
X131230763Y-118131741D01*
X131250437Y-118159167D01*
X131247403Y-118184550D01*
X131215414Y-118218498D01*
X131148511Y-118271401D01*
X131081999Y-118320821D01*
X131033364Y-118354522D01*
X131015093Y-118364512D01*
X130993074Y-118348532D01*
X130939861Y-118305526D01*
X130862972Y-118241681D01*
X130769919Y-118163184D01*
X130750101Y-118146331D01*
X130654723Y-118064208D01*
X130574550Y-117993456D01*
X130517059Y-117940802D01*
X130489731Y-117912975D01*
X130488572Y-117911067D01*
X130503151Y-117887283D01*
X130547654Y-117835312D01*
X130615428Y-117762512D01*
X130699817Y-117676243D01*
X130711478Y-117664604D01*
X130940893Y-117436252D01*
X131082826Y-117511991D01*
G36*
X132969997Y-117578875D02*
G01*
X133059044Y-117633565D01*
X133108869Y-117673511D01*
X133125885Y-117706753D01*
X133116502Y-117741327D01*
X133109287Y-117753494D01*
X133089047Y-117772249D01*
X133056463Y-117769746D01*
X132999108Y-117743399D01*
X132961208Y-117722685D01*
X132837553Y-117653624D01*
X132687432Y-117805327D01*
X132611684Y-117887342D01*
X132568290Y-117946739D01*
X132560618Y-117978834D01*
X132561779Y-117980208D01*
X132592038Y-118006991D01*
X132649852Y-118056778D01*
X132723763Y-118119716D01*
X132738504Y-118132198D01*
X132890762Y-118261011D01*
X132976076Y-118195939D01*
X133030938Y-118156486D01*
X133062128Y-118146503D01*
X133085810Y-118163606D01*
X133097238Y-118178074D01*
X133113928Y-118208374D01*
X133107214Y-118237933D01*
X133070983Y-118278847D01*
X133025429Y-118320152D01*
X132962073Y-118372152D01*
X132912090Y-118406323D01*
X132892269Y-118414347D01*
X132864398Y-118398378D01*
X132805988Y-118355118D01*
X132724987Y-118290749D01*
X132629342Y-118211452D01*
X132606359Y-118191966D01*
X132345951Y-117970261D01*
X132822105Y-117492459D01*
X132969997Y-117578875D01*
G37*
X132969997Y-117578875D02*
X133059044Y-117633565D01*
X133108869Y-117673511D01*
X133125885Y-117706753D01*
X133116502Y-117741327D01*
X133109287Y-117753494D01*
X133089047Y-117772249D01*
X133056463Y-117769746D01*
X132999108Y-117743399D01*
X132961208Y-117722685D01*
X132837553Y-117653624D01*
X132687432Y-117805327D01*
X132611684Y-117887342D01*
X132568290Y-117946739D01*
X132560618Y-117978834D01*
X132561779Y-117980208D01*
X132592038Y-118006991D01*
X132649852Y-118056778D01*
X132723763Y-118119716D01*
X132738504Y-118132198D01*
X132890762Y-118261011D01*
X132976076Y-118195939D01*
X133030938Y-118156486D01*
X133062128Y-118146503D01*
X133085810Y-118163606D01*
X133097238Y-118178074D01*
X133113928Y-118208374D01*
X133107214Y-118237933D01*
X133070983Y-118278847D01*
X133025429Y-118320152D01*
X132962073Y-118372152D01*
X132912090Y-118406323D01*
X132892269Y-118414347D01*
X132864398Y-118398378D01*
X132805988Y-118355118D01*
X132724987Y-118290749D01*
X132629342Y-118211452D01*
X132606359Y-118191966D01*
X132345951Y-117970261D01*
X132822105Y-117492459D01*
X132969997Y-117578875D01*
G36*
X132323671Y-117868253D02*
G01*
X132329441Y-117999851D01*
X132332874Y-118114327D01*
X132333783Y-118201462D01*
X132331978Y-118251040D01*
X132330847Y-118257158D01*
X132302039Y-118283614D01*
X132257883Y-118287199D01*
X132222905Y-118269280D01*
X132216466Y-118250783D01*
X132207580Y-118215158D01*
X132185628Y-118221856D01*
X132157663Y-118266333D01*
X132145304Y-118296610D01*
X132113760Y-118369584D01*
X132080117Y-118428256D01*
X132079658Y-118428888D01*
X132052056Y-118462259D01*
X132037932Y-118453618D01*
X132029148Y-118427689D01*
X132016890Y-118381763D01*
X131996830Y-118299849D01*
X131971310Y-118192193D01*
X131942672Y-118069042D01*
X131913258Y-117940644D01*
X131885407Y-117817246D01*
X131861464Y-117709095D01*
X131843768Y-117626438D01*
X131834661Y-117579522D01*
X131833936Y-117573395D01*
X131855704Y-117555194D01*
X131895598Y-117549478D01*
X131924559Y-117553123D01*
X131946383Y-117570092D01*
X131965358Y-117609435D01*
X131985771Y-117680201D01*
X132011912Y-117791440D01*
X132013422Y-117798122D01*
X132038526Y-117905757D01*
X132060784Y-117994869D01*
X132077146Y-118053567D01*
X132083071Y-118069607D01*
X132102041Y-118064659D01*
X132132982Y-118024479D01*
X132143789Y-118005852D01*
X132169762Y-117943372D01*
X132183146Y-117866616D01*
X132186152Y-117760079D01*
X132185229Y-117715241D01*
X132182987Y-117614086D01*
X132185303Y-117553508D01*
X132195103Y-117523106D01*
X132215308Y-117512478D01*
X132242579Y-117511225D01*
X132305723Y-117511225D01*
X132323671Y-117868253D01*
G37*
X132323671Y-117868253D02*
X132329441Y-117999851D01*
X132332874Y-118114327D01*
X132333783Y-118201462D01*
X132331978Y-118251040D01*
X132330847Y-118257158D01*
X132302039Y-118283614D01*
X132257883Y-118287199D01*
X132222905Y-118269280D01*
X132216466Y-118250783D01*
X132207580Y-118215158D01*
X132185628Y-118221856D01*
X132157663Y-118266333D01*
X132145304Y-118296610D01*
X132113760Y-118369584D01*
X132080117Y-118428256D01*
X132079658Y-118428888D01*
X132052056Y-118462259D01*
X132037932Y-118453618D01*
X132029148Y-118427689D01*
X132016890Y-118381763D01*
X131996830Y-118299849D01*
X131971310Y-118192193D01*
X131942672Y-118069042D01*
X131913258Y-117940644D01*
X131885407Y-117817246D01*
X131861464Y-117709095D01*
X131843768Y-117626438D01*
X131834661Y-117579522D01*
X131833936Y-117573395D01*
X131855704Y-117555194D01*
X131895598Y-117549478D01*
X131924559Y-117553123D01*
X131946383Y-117570092D01*
X131965358Y-117609435D01*
X131985771Y-117680201D01*
X132011912Y-117791440D01*
X132013422Y-117798122D01*
X132038526Y-117905757D01*
X132060784Y-117994869D01*
X132077146Y-118053567D01*
X132083071Y-118069607D01*
X132102041Y-118064659D01*
X132132982Y-118024479D01*
X132143789Y-118005852D01*
X132169762Y-117943372D01*
X132183146Y-117866616D01*
X132186152Y-117760079D01*
X132185229Y-117715241D01*
X132182987Y-117614086D01*
X132185303Y-117553508D01*
X132195103Y-117523106D01*
X132215308Y-117512478D01*
X132242579Y-117511225D01*
X132305723Y-117511225D01*
X132323671Y-117868253D01*
G36*
X133246726Y-117145165D02*
G01*
X133327755Y-117156151D01*
X133435834Y-117172528D01*
X133560994Y-117192608D01*
X133693266Y-117214702D01*
X133822682Y-117237121D01*
X133939274Y-117258178D01*
X134033074Y-117276183D01*
X134094114Y-117289448D01*
X134112523Y-117295375D01*
X134125578Y-117332367D01*
X134113039Y-117376232D01*
X134084713Y-117404749D01*
X134064056Y-117405187D01*
X134036273Y-117399484D01*
X134031979Y-117415210D01*
X134053469Y-117456993D01*
X134103038Y-117529464D01*
X134171772Y-117622380D01*
X134316435Y-117814582D01*
X134540159Y-117573646D01*
X134632239Y-117475314D01*
X134696698Y-117409881D01*
X134740162Y-117372451D01*
X134769258Y-117358126D01*
X134790613Y-117362011D01*
X134807632Y-117375978D01*
X134823544Y-117395927D01*
X134826089Y-117418717D01*
X134810879Y-117451465D01*
X134773528Y-117501287D01*
X134709648Y-117575301D01*
X134630509Y-117663329D01*
X134547742Y-117756189D01*
X134479154Y-117835796D01*
X134431200Y-117894459D01*
X134410339Y-117924488D01*
X134409945Y-117926086D01*
X134424400Y-117952557D01*
X134463672Y-118011479D01*
X134521993Y-118094488D01*
X134593593Y-118193223D01*
X134603689Y-118206930D01*
X134684770Y-118318846D01*
X134737714Y-118397906D01*
X134766283Y-118451053D01*
X134774238Y-118485230D01*
X134766023Y-118506579D01*
X134730953Y-118538118D01*
X134715648Y-118544056D01*
X134693838Y-118524771D01*
X134648528Y-118472212D01*
X134586260Y-118394323D01*
X134513577Y-118299046D01*
X134510864Y-118295411D01*
X134438616Y-118198689D01*
X134377902Y-118117617D01*
X134334970Y-118060527D01*
X134316068Y-118035746D01*
X134315933Y-118035583D01*
X134295881Y-118048439D01*
X134248555Y-118091803D01*
X134181252Y-118158685D01*
X134109432Y-118233418D01*
X134023418Y-118323623D01*
X133964331Y-118381380D01*
X133924667Y-118411865D01*
X133896922Y-118420257D01*
X133873589Y-118411732D01*
X133862531Y-118403758D01*
X133837681Y-118380979D01*
X133833710Y-118357776D01*
X133855050Y-118323095D01*
X133906133Y-118265886D01*
X133926508Y-118244177D01*
X134006377Y-118159028D01*
X134089883Y-118069563D01*
X134136314Y-118019574D01*
X134232326Y-117915876D01*
X134064553Y-117693450D01*
X133976600Y-117570445D01*
X133925126Y-117482990D01*
X133910096Y-117431024D01*
X133911083Y-117425959D01*
X133911914Y-117405141D01*
X133893945Y-117388541D01*
X133849182Y-117373435D01*
X133769626Y-117357102D01*
X133651096Y-117337422D01*
X133536456Y-117319697D01*
X133439338Y-117305507D01*
X133371515Y-117296523D01*
X133346414Y-117294203D01*
X133330500Y-117311262D01*
X133324513Y-117366032D01*
X133327893Y-117464429D01*
X133328895Y-117479347D01*
X133338156Y-117606558D01*
X133347981Y-117691471D01*
X133363024Y-117742629D01*
X133387933Y-117768574D01*
X133427362Y-117777850D01*
X133485962Y-117778999D01*
X133492052Y-117778996D01*
X133567547Y-117781081D01*
X133605142Y-117791710D01*
X133617904Y-117817439D01*
X133619076Y-117842751D01*
X133614942Y-117880589D01*
X133593844Y-117899465D01*
X133542739Y-117905902D01*
X133491566Y-117906506D01*
X133418817Y-117910068D01*
X133372650Y-117919175D01*
X133364056Y-117926301D01*
X133367043Y-117959202D01*
X133374996Y-118029512D01*
X133386402Y-118124049D01*
X133390696Y-118158552D01*
X133402827Y-118263853D01*
X133406374Y-118330464D01*
X133400425Y-118370116D01*
X133384068Y-118394542D01*
X133371569Y-118404810D01*
X133327933Y-118423994D01*
X133306073Y-118419326D01*
X133296022Y-118388674D01*
X133282747Y-118321165D01*
X133268248Y-118230679D01*
X133254527Y-118131095D01*
X133243583Y-118036291D01*
X133237418Y-117960147D01*
X133236740Y-117938383D01*
X133215274Y-117912506D01*
X133185542Y-117906506D01*
X133148056Y-117894328D01*
X133135004Y-117849184D01*
X133134538Y-117830800D01*
X133140373Y-117778806D01*
X133162480Y-117767134D01*
X133176481Y-117771189D01*
X133193569Y-117773697D01*
X133204351Y-117760446D01*
X133209415Y-117723802D01*
X133209346Y-117656128D01*
X133204729Y-117549789D01*
X133200027Y-117464365D01*
X133194664Y-117342884D01*
X133193187Y-117242246D01*
X133195518Y-117172016D01*
X133201576Y-117141760D01*
X133202713Y-117141260D01*
X133246726Y-117145165D01*
G37*
X133246726Y-117145165D02*
X133327755Y-117156151D01*
X133435834Y-117172528D01*
X133560994Y-117192608D01*
X133693266Y-117214702D01*
X133822682Y-117237121D01*
X133939274Y-117258178D01*
X134033074Y-117276183D01*
X134094114Y-117289448D01*
X134112523Y-117295375D01*
X134125578Y-117332367D01*
X134113039Y-117376232D01*
X134084713Y-117404749D01*
X134064056Y-117405187D01*
X134036273Y-117399484D01*
X134031979Y-117415210D01*
X134053469Y-117456993D01*
X134103038Y-117529464D01*
X134171772Y-117622380D01*
X134316435Y-117814582D01*
X134540159Y-117573646D01*
X134632239Y-117475314D01*
X134696698Y-117409881D01*
X134740162Y-117372451D01*
X134769258Y-117358126D01*
X134790613Y-117362011D01*
X134807632Y-117375978D01*
X134823544Y-117395927D01*
X134826089Y-117418717D01*
X134810879Y-117451465D01*
X134773528Y-117501287D01*
X134709648Y-117575301D01*
X134630509Y-117663329D01*
X134547742Y-117756189D01*
X134479154Y-117835796D01*
X134431200Y-117894459D01*
X134410339Y-117924488D01*
X134409945Y-117926086D01*
X134424400Y-117952557D01*
X134463672Y-118011479D01*
X134521993Y-118094488D01*
X134593593Y-118193223D01*
X134603689Y-118206930D01*
X134684770Y-118318846D01*
X134737714Y-118397906D01*
X134766283Y-118451053D01*
X134774238Y-118485230D01*
X134766023Y-118506579D01*
X134730953Y-118538118D01*
X134715648Y-118544056D01*
X134693838Y-118524771D01*
X134648528Y-118472212D01*
X134586260Y-118394323D01*
X134513577Y-118299046D01*
X134510864Y-118295411D01*
X134438616Y-118198689D01*
X134377902Y-118117617D01*
X134334970Y-118060527D01*
X134316068Y-118035746D01*
X134315933Y-118035583D01*
X134295881Y-118048439D01*
X134248555Y-118091803D01*
X134181252Y-118158685D01*
X134109432Y-118233418D01*
X134023418Y-118323623D01*
X133964331Y-118381380D01*
X133924667Y-118411865D01*
X133896922Y-118420257D01*
X133873589Y-118411732D01*
X133862531Y-118403758D01*
X133837681Y-118380979D01*
X133833710Y-118357776D01*
X133855050Y-118323095D01*
X133906133Y-118265886D01*
X133926508Y-118244177D01*
X134006377Y-118159028D01*
X134089883Y-118069563D01*
X134136314Y-118019574D01*
X134232326Y-117915876D01*
X134064553Y-117693450D01*
X133976600Y-117570445D01*
X133925126Y-117482990D01*
X133910096Y-117431024D01*
X133911083Y-117425959D01*
X133911914Y-117405141D01*
X133893945Y-117388541D01*
X133849182Y-117373435D01*
X133769626Y-117357102D01*
X133651096Y-117337422D01*
X133536456Y-117319697D01*
X133439338Y-117305507D01*
X133371515Y-117296523D01*
X133346414Y-117294203D01*
X133330500Y-117311262D01*
X133324513Y-117366032D01*
X133327893Y-117464429D01*
X133328895Y-117479347D01*
X133338156Y-117606558D01*
X133347981Y-117691471D01*
X133363024Y-117742629D01*
X133387933Y-117768574D01*
X133427362Y-117777850D01*
X133485962Y-117778999D01*
X133492052Y-117778996D01*
X133567547Y-117781081D01*
X133605142Y-117791710D01*
X133617904Y-117817439D01*
X133619076Y-117842751D01*
X133614942Y-117880589D01*
X133593844Y-117899465D01*
X133542739Y-117905902D01*
X133491566Y-117906506D01*
X133418817Y-117910068D01*
X133372650Y-117919175D01*
X133364056Y-117926301D01*
X133367043Y-117959202D01*
X133374996Y-118029512D01*
X133386402Y-118124049D01*
X133390696Y-118158552D01*
X133402827Y-118263853D01*
X133406374Y-118330464D01*
X133400425Y-118370116D01*
X133384068Y-118394542D01*
X133371569Y-118404810D01*
X133327933Y-118423994D01*
X133306073Y-118419326D01*
X133296022Y-118388674D01*
X133282747Y-118321165D01*
X133268248Y-118230679D01*
X133254527Y-118131095D01*
X133243583Y-118036291D01*
X133237418Y-117960147D01*
X133236740Y-117938383D01*
X133215274Y-117912506D01*
X133185542Y-117906506D01*
X133148056Y-117894328D01*
X133135004Y-117849184D01*
X133134538Y-117830800D01*
X133140373Y-117778806D01*
X133162480Y-117767134D01*
X133176481Y-117771189D01*
X133193569Y-117773697D01*
X133204351Y-117760446D01*
X133209415Y-117723802D01*
X133209346Y-117656128D01*
X133204729Y-117549789D01*
X133200027Y-117464365D01*
X133194664Y-117342884D01*
X133193187Y-117242246D01*
X133195518Y-117172016D01*
X133201576Y-117141760D01*
X133202713Y-117141260D01*
X133246726Y-117145165D01*
%TO.C,*%
G36*
X141815941Y-116809905D02*
G01*
X141753034Y-117149424D01*
X141650215Y-117469484D01*
X141603693Y-117577675D01*
X141438351Y-117875690D01*
X141231960Y-118146547D01*
X140989037Y-118386004D01*
X140714098Y-118589822D01*
X140411661Y-118753756D01*
X140301634Y-118800341D01*
X140000660Y-118893744D01*
X139676596Y-118948717D01*
X139339120Y-118965917D01*
X138997908Y-118946000D01*
X138662638Y-118889623D01*
X138342986Y-118797443D01*
X138048629Y-118670118D01*
X138000188Y-118644133D01*
X137750017Y-118480205D01*
X137517047Y-118278163D01*
X137307068Y-118045897D01*
X137125871Y-117791294D01*
X136979247Y-117522245D01*
X136872985Y-117246638D01*
X136823323Y-117040740D01*
X136801227Y-116871164D01*
X136787358Y-116672279D01*
X136782399Y-116465218D01*
X136787034Y-116271116D01*
X136795049Y-116166323D01*
X136838939Y-115853116D01*
X136903394Y-115578737D01*
X136992525Y-115333735D01*
X137110440Y-115108664D01*
X137261249Y-114894073D01*
X137434677Y-114695570D01*
X137628785Y-114506375D01*
X137820273Y-114353395D01*
X138024559Y-114225137D01*
X138159134Y-114155536D01*
X138322207Y-114080483D01*
X138467608Y-114023890D01*
X138607405Y-113983330D01*
X138753668Y-113956380D01*
X138918466Y-113940612D01*
X139113869Y-113933603D01*
X139128210Y-113933510D01*
X139128210Y-114142784D01*
X138924194Y-114153065D01*
X138776463Y-114167833D01*
X138644531Y-114200189D01*
X138526828Y-114244655D01*
X138257092Y-114381391D01*
X137991863Y-114559650D01*
X137741105Y-114770452D01*
X137514786Y-115004815D01*
X137322869Y-115253760D01*
X137219088Y-115423152D01*
X137131285Y-115597516D01*
X137055329Y-115775499D01*
X136996362Y-115943469D01*
X136959520Y-116087792D01*
X136952919Y-116129280D01*
X136944848Y-116275878D01*
X136951396Y-116454741D01*
X136971355Y-116649652D01*
X137003514Y-116844390D01*
X137007837Y-116865550D01*
X137092203Y-117152595D01*
X137221911Y-117435377D01*
X137391384Y-117706649D01*
X137595048Y-117959165D01*
X137827326Y-118185677D01*
X138082644Y-118378939D01*
X138248391Y-118477984D01*
X138397779Y-118550058D01*
X138568308Y-118618800D01*
X138744138Y-118678859D01*
X138909429Y-118724883D01*
X139048340Y-118751523D01*
X139063220Y-118753240D01*
X139137177Y-118759210D01*
X139191282Y-118754651D01*
X139242161Y-118733842D01*
X139306436Y-118691064D01*
X139360271Y-118651023D01*
X139438255Y-118588292D01*
X139537984Y-118502068D01*
X139651450Y-118399923D01*
X139770647Y-118289429D01*
X139887569Y-118178158D01*
X139994209Y-118073681D01*
X140082560Y-117983571D01*
X140144617Y-117915399D01*
X140163912Y-117891026D01*
X140195437Y-117838149D01*
X140204586Y-117804073D01*
X140202993Y-117800997D01*
X140174001Y-117795328D01*
X140102403Y-117788512D01*
X139996564Y-117781138D01*
X139864853Y-117773793D01*
X139727508Y-117767547D01*
X139579189Y-117760660D01*
X139448878Y-117753042D01*
X139344983Y-117745312D01*
X139275911Y-117738088D01*
X139250341Y-117732415D01*
X139244054Y-117701962D01*
X139237178Y-117626309D01*
X139229933Y-117511254D01*
X139222536Y-117362597D01*
X139215205Y-117186135D01*
X139208159Y-116987666D01*
X139201615Y-116772988D01*
X139195791Y-116547900D01*
X139190906Y-116318200D01*
X139187177Y-116089686D01*
X139186451Y-116033410D01*
X139185175Y-115778582D01*
X139190131Y-115570333D01*
X139204286Y-115404345D01*
X139230607Y-115276298D01*
X139272060Y-115181872D01*
X139331613Y-115116749D01*
X139412232Y-115076608D01*
X139516885Y-115057130D01*
X139648537Y-115053997D01*
X139810157Y-115062887D01*
X139850862Y-115066095D01*
X139967074Y-115074843D01*
X140062968Y-115080690D01*
X140128152Y-115083096D01*
X140152117Y-115081759D01*
X140140419Y-115059440D01*
X140097091Y-115008738D01*
X140028253Y-114935572D01*
X139940025Y-114845858D01*
X139838525Y-114745514D01*
X139729873Y-114640457D01*
X139620188Y-114536606D01*
X139515589Y-114439876D01*
X139422195Y-114356187D01*
X139346126Y-114291455D01*
X139293974Y-114251908D01*
X139128210Y-114142784D01*
X139128210Y-113933510D01*
X139268472Y-113932599D01*
X139441851Y-113933398D01*
X139575608Y-113936078D01*
X139681119Y-113941705D01*
X139727465Y-113946747D01*
X139727465Y-114134085D01*
X139705421Y-114134346D01*
X139710662Y-114163160D01*
X139747370Y-114220654D01*
X139809777Y-114300651D01*
X139892116Y-114396974D01*
X139988619Y-114503448D01*
X140093517Y-114613896D01*
X140201043Y-114722141D01*
X140305428Y-114822007D01*
X140400906Y-114907317D01*
X140481707Y-114971895D01*
X140498943Y-114984080D01*
X140584158Y-115053486D01*
X140619563Y-115112963D01*
X140604881Y-115164756D01*
X140539832Y-115211112D01*
X140467066Y-115240544D01*
X140415309Y-115252210D01*
X140324217Y-115266932D01*
X140205267Y-115283365D01*
X140069939Y-115300163D01*
X139929711Y-115315981D01*
X139796060Y-115329472D01*
X139680466Y-115339291D01*
X139594406Y-115344093D01*
X139581768Y-115344333D01*
X139535197Y-115356779D01*
X139500562Y-115397723D01*
X139474689Y-115474061D01*
X139454403Y-115592691D01*
X139449656Y-115631269D01*
X139443574Y-115709980D01*
X139438231Y-115829799D01*
X139433686Y-115982173D01*
X139430000Y-116158550D01*
X139427232Y-116350378D01*
X139425443Y-116549106D01*
X139424693Y-116746180D01*
X139425041Y-116933050D01*
X139426547Y-117101163D01*
X139429273Y-117241968D01*
X139433277Y-117346911D01*
X139437261Y-117397830D01*
X139452594Y-117525401D01*
X139954442Y-117525340D01*
X140130678Y-117525823D01*
X140263429Y-117527718D01*
X140360209Y-117531620D01*
X140428531Y-117538122D01*
X140475909Y-117547819D01*
X140509855Y-117561305D01*
X140525433Y-117570494D01*
X140573777Y-117615135D01*
X140594560Y-117660158D01*
X140594576Y-117661134D01*
X140575572Y-117726013D01*
X140518284Y-117820763D01*
X140422298Y-117945940D01*
X140287199Y-118102101D01*
X140178796Y-118219864D01*
X140045618Y-118363449D01*
X139945376Y-118475567D01*
X139874631Y-118560502D01*
X139829941Y-118622539D01*
X139807866Y-118665961D01*
X139804014Y-118686517D01*
X139824423Y-118708155D01*
X139880887Y-118705811D01*
X139966264Y-118682620D01*
X140073408Y-118641714D01*
X140195176Y-118586228D01*
X140324424Y-118519296D01*
X140454009Y-118444050D01*
X140576785Y-118363624D01*
X140632555Y-118323079D01*
X140768107Y-118213337D01*
X140910424Y-118085644D01*
X141049063Y-117950436D01*
X141173578Y-117818153D01*
X141273524Y-117699231D01*
X141317084Y-117639039D01*
X141424484Y-117439994D01*
X141505553Y-117205502D01*
X141560848Y-116933038D01*
X141590922Y-116620076D01*
X141597270Y-116364936D01*
X141590766Y-116118060D01*
X141568956Y-115908792D01*
X141527987Y-115725040D01*
X141464008Y-115554710D01*
X141373166Y-115385709D01*
X141251607Y-115205944D01*
X141210379Y-115150494D01*
X141095863Y-115009916D01*
X140960983Y-114861789D01*
X140816870Y-114717055D01*
X140674652Y-114586659D01*
X140545460Y-114481542D01*
X140490592Y-114442782D01*
X140428461Y-114407816D01*
X140337604Y-114364264D01*
X140227634Y-114315902D01*
X140108161Y-114266505D01*
X139988797Y-114219850D01*
X139879152Y-114179711D01*
X139788838Y-114149864D01*
X139727465Y-114134085D01*
X139727465Y-113946747D01*
X139769759Y-113951350D01*
X139852904Y-113966079D01*
X139941929Y-113986963D01*
X139995279Y-114000863D01*
X140337221Y-114115715D01*
X140651068Y-114270000D01*
X140933993Y-114461272D01*
X141183172Y-114687085D01*
X141395779Y-114944992D01*
X141568988Y-115232549D01*
X141663215Y-115444788D01*
X141762573Y-115768368D01*
X141820972Y-116110000D01*
X141838674Y-116460304D01*
X141815941Y-116809905D01*
G37*
X141815941Y-116809905D02*
X141753034Y-117149424D01*
X141650215Y-117469484D01*
X141603693Y-117577675D01*
X141438351Y-117875690D01*
X141231960Y-118146547D01*
X140989037Y-118386004D01*
X140714098Y-118589822D01*
X140411661Y-118753756D01*
X140301634Y-118800341D01*
X140000660Y-118893744D01*
X139676596Y-118948717D01*
X139339120Y-118965917D01*
X138997908Y-118946000D01*
X138662638Y-118889623D01*
X138342986Y-118797443D01*
X138048629Y-118670118D01*
X138000188Y-118644133D01*
X137750017Y-118480205D01*
X137517047Y-118278163D01*
X137307068Y-118045897D01*
X137125871Y-117791294D01*
X136979247Y-117522245D01*
X136872985Y-117246638D01*
X136823323Y-117040740D01*
X136801227Y-116871164D01*
X136787358Y-116672279D01*
X136782399Y-116465218D01*
X136787034Y-116271116D01*
X136795049Y-116166323D01*
X136838939Y-115853116D01*
X136903394Y-115578737D01*
X136992525Y-115333735D01*
X137110440Y-115108664D01*
X137261249Y-114894073D01*
X137434677Y-114695570D01*
X137628785Y-114506375D01*
X137820273Y-114353395D01*
X138024559Y-114225137D01*
X138159134Y-114155536D01*
X138322207Y-114080483D01*
X138467608Y-114023890D01*
X138607405Y-113983330D01*
X138753668Y-113956380D01*
X138918466Y-113940612D01*
X139113869Y-113933603D01*
X139128210Y-113933510D01*
X139128210Y-114142784D01*
X138924194Y-114153065D01*
X138776463Y-114167833D01*
X138644531Y-114200189D01*
X138526828Y-114244655D01*
X138257092Y-114381391D01*
X137991863Y-114559650D01*
X137741105Y-114770452D01*
X137514786Y-115004815D01*
X137322869Y-115253760D01*
X137219088Y-115423152D01*
X137131285Y-115597516D01*
X137055329Y-115775499D01*
X136996362Y-115943469D01*
X136959520Y-116087792D01*
X136952919Y-116129280D01*
X136944848Y-116275878D01*
X136951396Y-116454741D01*
X136971355Y-116649652D01*
X137003514Y-116844390D01*
X137007837Y-116865550D01*
X137092203Y-117152595D01*
X137221911Y-117435377D01*
X137391384Y-117706649D01*
X137595048Y-117959165D01*
X137827326Y-118185677D01*
X138082644Y-118378939D01*
X138248391Y-118477984D01*
X138397779Y-118550058D01*
X138568308Y-118618800D01*
X138744138Y-118678859D01*
X138909429Y-118724883D01*
X139048340Y-118751523D01*
X139063220Y-118753240D01*
X139137177Y-118759210D01*
X139191282Y-118754651D01*
X139242161Y-118733842D01*
X139306436Y-118691064D01*
X139360271Y-118651023D01*
X139438255Y-118588292D01*
X139537984Y-118502068D01*
X139651450Y-118399923D01*
X139770647Y-118289429D01*
X139887569Y-118178158D01*
X139994209Y-118073681D01*
X140082560Y-117983571D01*
X140144617Y-117915399D01*
X140163912Y-117891026D01*
X140195437Y-117838149D01*
X140204586Y-117804073D01*
X140202993Y-117800997D01*
X140174001Y-117795328D01*
X140102403Y-117788512D01*
X139996564Y-117781138D01*
X139864853Y-117773793D01*
X139727508Y-117767547D01*
X139579189Y-117760660D01*
X139448878Y-117753042D01*
X139344983Y-117745312D01*
X139275911Y-117738088D01*
X139250341Y-117732415D01*
X139244054Y-117701962D01*
X139237178Y-117626309D01*
X139229933Y-117511254D01*
X139222536Y-117362597D01*
X139215205Y-117186135D01*
X139208159Y-116987666D01*
X139201615Y-116772988D01*
X139195791Y-116547900D01*
X139190906Y-116318200D01*
X139187177Y-116089686D01*
X139186451Y-116033410D01*
X139185175Y-115778582D01*
X139190131Y-115570333D01*
X139204286Y-115404345D01*
X139230607Y-115276298D01*
X139272060Y-115181872D01*
X139331613Y-115116749D01*
X139412232Y-115076608D01*
X139516885Y-115057130D01*
X139648537Y-115053997D01*
X139810157Y-115062887D01*
X139850862Y-115066095D01*
X139967074Y-115074843D01*
X140062968Y-115080690D01*
X140128152Y-115083096D01*
X140152117Y-115081759D01*
X140140419Y-115059440D01*
X140097091Y-115008738D01*
X140028253Y-114935572D01*
X139940025Y-114845858D01*
X139838525Y-114745514D01*
X139729873Y-114640457D01*
X139620188Y-114536606D01*
X139515589Y-114439876D01*
X139422195Y-114356187D01*
X139346126Y-114291455D01*
X139293974Y-114251908D01*
X139128210Y-114142784D01*
X139128210Y-113933510D01*
X139268472Y-113932599D01*
X139441851Y-113933398D01*
X139575608Y-113936078D01*
X139681119Y-113941705D01*
X139727465Y-113946747D01*
X139727465Y-114134085D01*
X139705421Y-114134346D01*
X139710662Y-114163160D01*
X139747370Y-114220654D01*
X139809777Y-114300651D01*
X139892116Y-114396974D01*
X139988619Y-114503448D01*
X140093517Y-114613896D01*
X140201043Y-114722141D01*
X140305428Y-114822007D01*
X140400906Y-114907317D01*
X140481707Y-114971895D01*
X140498943Y-114984080D01*
X140584158Y-115053486D01*
X140619563Y-115112963D01*
X140604881Y-115164756D01*
X140539832Y-115211112D01*
X140467066Y-115240544D01*
X140415309Y-115252210D01*
X140324217Y-115266932D01*
X140205267Y-115283365D01*
X140069939Y-115300163D01*
X139929711Y-115315981D01*
X139796060Y-115329472D01*
X139680466Y-115339291D01*
X139594406Y-115344093D01*
X139581768Y-115344333D01*
X139535197Y-115356779D01*
X139500562Y-115397723D01*
X139474689Y-115474061D01*
X139454403Y-115592691D01*
X139449656Y-115631269D01*
X139443574Y-115709980D01*
X139438231Y-115829799D01*
X139433686Y-115982173D01*
X139430000Y-116158550D01*
X139427232Y-116350378D01*
X139425443Y-116549106D01*
X139424693Y-116746180D01*
X139425041Y-116933050D01*
X139426547Y-117101163D01*
X139429273Y-117241968D01*
X139433277Y-117346911D01*
X139437261Y-117397830D01*
X139452594Y-117525401D01*
X139954442Y-117525340D01*
X140130678Y-117525823D01*
X140263429Y-117527718D01*
X140360209Y-117531620D01*
X140428531Y-117538122D01*
X140475909Y-117547819D01*
X140509855Y-117561305D01*
X140525433Y-117570494D01*
X140573777Y-117615135D01*
X140594560Y-117660158D01*
X140594576Y-117661134D01*
X140575572Y-117726013D01*
X140518284Y-117820763D01*
X140422298Y-117945940D01*
X140287199Y-118102101D01*
X140178796Y-118219864D01*
X140045618Y-118363449D01*
X139945376Y-118475567D01*
X139874631Y-118560502D01*
X139829941Y-118622539D01*
X139807866Y-118665961D01*
X139804014Y-118686517D01*
X139824423Y-118708155D01*
X139880887Y-118705811D01*
X139966264Y-118682620D01*
X140073408Y-118641714D01*
X140195176Y-118586228D01*
X140324424Y-118519296D01*
X140454009Y-118444050D01*
X140576785Y-118363624D01*
X140632555Y-118323079D01*
X140768107Y-118213337D01*
X140910424Y-118085644D01*
X141049063Y-117950436D01*
X141173578Y-117818153D01*
X141273524Y-117699231D01*
X141317084Y-117639039D01*
X141424484Y-117439994D01*
X141505553Y-117205502D01*
X141560848Y-116933038D01*
X141590922Y-116620076D01*
X141597270Y-116364936D01*
X141590766Y-116118060D01*
X141568956Y-115908792D01*
X141527987Y-115725040D01*
X141464008Y-115554710D01*
X141373166Y-115385709D01*
X141251607Y-115205944D01*
X141210379Y-115150494D01*
X141095863Y-115009916D01*
X140960983Y-114861789D01*
X140816870Y-114717055D01*
X140674652Y-114586659D01*
X140545460Y-114481542D01*
X140490592Y-114442782D01*
X140428461Y-114407816D01*
X140337604Y-114364264D01*
X140227634Y-114315902D01*
X140108161Y-114266505D01*
X139988797Y-114219850D01*
X139879152Y-114179711D01*
X139788838Y-114149864D01*
X139727465Y-114134085D01*
X139727465Y-113946747D01*
X139769759Y-113951350D01*
X139852904Y-113966079D01*
X139941929Y-113986963D01*
X139995279Y-114000863D01*
X140337221Y-114115715D01*
X140651068Y-114270000D01*
X140933993Y-114461272D01*
X141183172Y-114687085D01*
X141395779Y-114944992D01*
X141568988Y-115232549D01*
X141663215Y-115444788D01*
X141762573Y-115768368D01*
X141820972Y-116110000D01*
X141838674Y-116460304D01*
X141815941Y-116809905D01*
G36*
X140619824Y-108808918D02*
G01*
X140636501Y-108834524D01*
X140649800Y-108865868D01*
X140660874Y-108910475D01*
X140670871Y-108975869D01*
X140680943Y-109069575D01*
X140692240Y-109199120D01*
X140705904Y-109371907D01*
X140718355Y-109512135D01*
X140732918Y-109643651D01*
X140747942Y-109753279D01*
X140761775Y-109827840D01*
X140764278Y-109837474D01*
X140781141Y-109910098D01*
X140778282Y-109952957D01*
X140757850Y-109980945D01*
X140679593Y-110022379D01*
X140577826Y-110030970D01*
X140513399Y-110019359D01*
X140463415Y-109999102D01*
X140426595Y-109966010D01*
X140401359Y-109913304D01*
X140386127Y-109834207D01*
X140379320Y-109721938D01*
X140379357Y-109569719D01*
X140382030Y-109455633D01*
X140388300Y-109287307D01*
X140396905Y-109160080D01*
X140409000Y-109064058D01*
X140425740Y-108989349D01*
X140442153Y-108941062D01*
X140491307Y-108840202D01*
X140540285Y-108786329D01*
X140587250Y-108780808D01*
X140619824Y-108808918D01*
G37*
X140619824Y-108808918D02*
X140636501Y-108834524D01*
X140649800Y-108865868D01*
X140660874Y-108910475D01*
X140670871Y-108975869D01*
X140680943Y-109069575D01*
X140692240Y-109199120D01*
X140705904Y-109371907D01*
X140718355Y-109512135D01*
X140732918Y-109643651D01*
X140747942Y-109753279D01*
X140761775Y-109827840D01*
X140764278Y-109837474D01*
X140781141Y-109910098D01*
X140778282Y-109952957D01*
X140757850Y-109980945D01*
X140679593Y-110022379D01*
X140577826Y-110030970D01*
X140513399Y-110019359D01*
X140463415Y-109999102D01*
X140426595Y-109966010D01*
X140401359Y-109913304D01*
X140386127Y-109834207D01*
X140379320Y-109721938D01*
X140379357Y-109569719D01*
X140382030Y-109455633D01*
X140388300Y-109287307D01*
X140396905Y-109160080D01*
X140409000Y-109064058D01*
X140425740Y-108989349D01*
X140442153Y-108941062D01*
X140491307Y-108840202D01*
X140540285Y-108786329D01*
X140587250Y-108780808D01*
X140619824Y-108808918D01*
G36*
X144609719Y-110659759D02*
G01*
X139279800Y-110659759D01*
X139279799Y-108135059D01*
X139560321Y-108135060D01*
X139560320Y-110404739D01*
X144354699Y-110404738D01*
X144354699Y-108837562D01*
X144152630Y-109038446D01*
X144065228Y-109128811D01*
X143987699Y-109215277D01*
X143929924Y-109286469D01*
X143905615Y-109322791D01*
X143887612Y-109356535D01*
X143877888Y-109384838D01*
X143879975Y-109415080D01*
X143897412Y-109454636D01*
X143933732Y-109510885D01*
X143992475Y-109591203D01*
X144077175Y-109702967D01*
X144106054Y-109740942D01*
X144178905Y-109842726D01*
X144217066Y-109912263D01*
X144221800Y-109953485D01*
X144194372Y-109970321D01*
X144180077Y-109971205D01*
X144142467Y-109955003D01*
X144077254Y-109911520D01*
X143993976Y-109848430D01*
X143902165Y-109773415D01*
X143811359Y-109694152D01*
X143731090Y-109618321D01*
X143693577Y-109579432D01*
X143647141Y-109534736D01*
X143613711Y-109512666D01*
X143610694Y-109512169D01*
X143600856Y-109535639D01*
X143593473Y-109597948D01*
X143589821Y-109686947D01*
X143589639Y-109713359D01*
X143581176Y-109850990D01*
X143556845Y-109950116D01*
X143518224Y-110007202D01*
X143466895Y-110018713D01*
X143454685Y-110015025D01*
X143415663Y-109978715D01*
X143385999Y-109901810D01*
X143365275Y-109781865D01*
X143353075Y-109616439D01*
X143348978Y-109403090D01*
X143348977Y-109397410D01*
X143352884Y-109182891D01*
X143364887Y-109016352D01*
X143385403Y-108895354D01*
X143414850Y-108817453D01*
X143453646Y-108780207D01*
X143454686Y-108779795D01*
X143503202Y-108784777D01*
X143546969Y-108829154D01*
X143578417Y-108901396D01*
X143589987Y-108985827D01*
X143597169Y-109100541D01*
X143616924Y-109175458D01*
X143647877Y-109205737D01*
X143652565Y-109206146D01*
X143692912Y-109189923D01*
X143760174Y-109146580D01*
X143844263Y-109084098D01*
X143935091Y-109010456D01*
X144022572Y-108933638D01*
X144096618Y-108861625D01*
X144119748Y-108836485D01*
X144230070Y-108690671D01*
X144300313Y-108543198D01*
X144338538Y-108375562D01*
X144344849Y-108319845D01*
X144362023Y-108135061D01*
X139560321Y-108135060D01*
X139279799Y-108135059D01*
X139279799Y-107880040D01*
X144609719Y-107880040D01*
X144609719Y-110659759D01*
G37*
X144609719Y-110659759D02*
X139279800Y-110659759D01*
X139279799Y-108135059D01*
X139560321Y-108135060D01*
X139560320Y-110404739D01*
X144354699Y-110404738D01*
X144354699Y-108837562D01*
X144152630Y-109038446D01*
X144065228Y-109128811D01*
X143987699Y-109215277D01*
X143929924Y-109286469D01*
X143905615Y-109322791D01*
X143887612Y-109356535D01*
X143877888Y-109384838D01*
X143879975Y-109415080D01*
X143897412Y-109454636D01*
X143933732Y-109510885D01*
X143992475Y-109591203D01*
X144077175Y-109702967D01*
X144106054Y-109740942D01*
X144178905Y-109842726D01*
X144217066Y-109912263D01*
X144221800Y-109953485D01*
X144194372Y-109970321D01*
X144180077Y-109971205D01*
X144142467Y-109955003D01*
X144077254Y-109911520D01*
X143993976Y-109848430D01*
X143902165Y-109773415D01*
X143811359Y-109694152D01*
X143731090Y-109618321D01*
X143693577Y-109579432D01*
X143647141Y-109534736D01*
X143613711Y-109512666D01*
X143610694Y-109512169D01*
X143600856Y-109535639D01*
X143593473Y-109597948D01*
X143589821Y-109686947D01*
X143589639Y-109713359D01*
X143581176Y-109850990D01*
X143556845Y-109950116D01*
X143518224Y-110007202D01*
X143466895Y-110018713D01*
X143454685Y-110015025D01*
X143415663Y-109978715D01*
X143385999Y-109901810D01*
X143365275Y-109781865D01*
X143353075Y-109616439D01*
X143348978Y-109403090D01*
X143348977Y-109397410D01*
X143352884Y-109182891D01*
X143364887Y-109016352D01*
X143385403Y-108895354D01*
X143414850Y-108817453D01*
X143453646Y-108780207D01*
X143454686Y-108779795D01*
X143503202Y-108784777D01*
X143546969Y-108829154D01*
X143578417Y-108901396D01*
X143589987Y-108985827D01*
X143597169Y-109100541D01*
X143616924Y-109175458D01*
X143647877Y-109205737D01*
X143652565Y-109206146D01*
X143692912Y-109189923D01*
X143760174Y-109146580D01*
X143844263Y-109084098D01*
X143935091Y-109010456D01*
X144022572Y-108933638D01*
X144096618Y-108861625D01*
X144119748Y-108836485D01*
X144230070Y-108690671D01*
X144300313Y-108543198D01*
X144338538Y-108375562D01*
X144344849Y-108319845D01*
X144362023Y-108135061D01*
X139560321Y-108135060D01*
X139279799Y-108135059D01*
X139279799Y-107880040D01*
X144609719Y-107880040D01*
X144609719Y-110659759D01*
G36*
X141759791Y-109179340D02*
G01*
X141772546Y-109193199D01*
X141820537Y-109278767D01*
X141823358Y-109375855D01*
X141788423Y-109477319D01*
X141736361Y-109559581D01*
X141681785Y-109596457D01*
X141628764Y-109585669D01*
X141615004Y-109574050D01*
X141589193Y-109520354D01*
X141576443Y-109436243D01*
X141577351Y-109340764D01*
X141592517Y-109252959D01*
X141603936Y-109221498D01*
X141648880Y-109157055D01*
X141701263Y-109142930D01*
X141759791Y-109179340D01*
G37*
X141759791Y-109179340D02*
X141772546Y-109193199D01*
X141820537Y-109278767D01*
X141823358Y-109375855D01*
X141788423Y-109477319D01*
X141736361Y-109559581D01*
X141681785Y-109596457D01*
X141628764Y-109585669D01*
X141615004Y-109574050D01*
X141589193Y-109520354D01*
X141576443Y-109436243D01*
X141577351Y-109340764D01*
X141592517Y-109252959D01*
X141603936Y-109221498D01*
X141648880Y-109157055D01*
X141701263Y-109142930D01*
X141759791Y-109179340D01*
G36*
X142758242Y-109152230D02*
G01*
X142795698Y-109208858D01*
X142820043Y-109282813D01*
X142824579Y-109328036D01*
X142818992Y-109402201D01*
X142804722Y-109485671D01*
X142785504Y-109563212D01*
X142765073Y-109619590D01*
X142748169Y-109639679D01*
X142717335Y-109622108D01*
X142704228Y-109607802D01*
X142668194Y-109543066D01*
X142632593Y-109451759D01*
X142605519Y-109357735D01*
X142595060Y-109286087D01*
X142612327Y-109217932D01*
X142654505Y-109159872D01*
X142707166Y-109130459D01*
X142716757Y-109129638D01*
X142758242Y-109152230D01*
G37*
X142758242Y-109152230D02*
X142795698Y-109208858D01*
X142820043Y-109282813D01*
X142824579Y-109328036D01*
X142818992Y-109402201D01*
X142804722Y-109485671D01*
X142785504Y-109563212D01*
X142765073Y-109619590D01*
X142748169Y-109639679D01*
X142717335Y-109622108D01*
X142704228Y-109607802D01*
X142668194Y-109543066D01*
X142632593Y-109451759D01*
X142605519Y-109357735D01*
X142595060Y-109286087D01*
X142612327Y-109217932D01*
X142654505Y-109159872D01*
X142707166Y-109130459D01*
X142716757Y-109129638D01*
X142758242Y-109152230D01*
G36*
X142832147Y-108827436D02*
G01*
X142964432Y-108840769D01*
X143056079Y-108870743D01*
X143116806Y-108925939D01*
X143156338Y-109014931D01*
X143182821Y-109136839D01*
X143200741Y-109322577D01*
X143193461Y-109502940D01*
X143162861Y-109666629D01*
X143110822Y-109802341D01*
X143059499Y-109878241D01*
X142975024Y-109942881D01*
X142861103Y-109990141D01*
X142734587Y-110016705D01*
X142612327Y-110019262D01*
X142511174Y-109994497D01*
X142499208Y-109988413D01*
X142446223Y-109954411D01*
X142407703Y-109914610D01*
X142381424Y-109860754D01*
X142365161Y-109784584D01*
X142356689Y-109677844D01*
X142355122Y-109599315D01*
X142483795Y-109599315D01*
X142489774Y-109665096D01*
X142504200Y-109704764D01*
X142529484Y-109730698D01*
X142529803Y-109730932D01*
X142600269Y-109759196D01*
X142692812Y-109767854D01*
X142786195Y-109757731D01*
X142859180Y-109729648D01*
X142874160Y-109717607D01*
X142912489Y-109662555D01*
X142937169Y-109583421D01*
X142949385Y-109472598D01*
X142950324Y-109322477D01*
X142947653Y-109246155D01*
X142938523Y-109111323D01*
X142922350Y-109019636D01*
X142895100Y-108963321D01*
X142852738Y-108934608D01*
X142791231Y-108925726D01*
X142781241Y-108925622D01*
X142680001Y-108948965D01*
X142598946Y-109018083D01*
X142538790Y-109131610D01*
X142500243Y-109288181D01*
X142484023Y-109486429D01*
X142483851Y-109495040D01*
X142483795Y-109599315D01*
X142355122Y-109599315D01*
X142353784Y-109532276D01*
X142353707Y-109448414D01*
X142357282Y-109250300D01*
X142369731Y-109097544D01*
X142395240Y-108984709D01*
X142437996Y-108906365D01*
X142502181Y-108857075D01*
X142591985Y-108831411D01*
X142711591Y-108823938D01*
X142832147Y-108827436D01*
G37*
X142832147Y-108827436D02*
X142964432Y-108840769D01*
X143056079Y-108870743D01*
X143116806Y-108925939D01*
X143156338Y-109014931D01*
X143182821Y-109136839D01*
X143200741Y-109322577D01*
X143193461Y-109502940D01*
X143162861Y-109666629D01*
X143110822Y-109802341D01*
X143059499Y-109878241D01*
X142975024Y-109942881D01*
X142861103Y-109990141D01*
X142734587Y-110016705D01*
X142612327Y-110019262D01*
X142511174Y-109994497D01*
X142499208Y-109988413D01*
X142446223Y-109954411D01*
X142407703Y-109914610D01*
X142381424Y-109860754D01*
X142365161Y-109784584D01*
X142356689Y-109677844D01*
X142355122Y-109599315D01*
X142483795Y-109599315D01*
X142489774Y-109665096D01*
X142504200Y-109704764D01*
X142529484Y-109730698D01*
X142529803Y-109730932D01*
X142600269Y-109759196D01*
X142692812Y-109767854D01*
X142786195Y-109757731D01*
X142859180Y-109729648D01*
X142874160Y-109717607D01*
X142912489Y-109662555D01*
X142937169Y-109583421D01*
X142949385Y-109472598D01*
X142950324Y-109322477D01*
X142947653Y-109246155D01*
X142938523Y-109111323D01*
X142922350Y-109019636D01*
X142895100Y-108963321D01*
X142852738Y-108934608D01*
X142791231Y-108925726D01*
X142781241Y-108925622D01*
X142680001Y-108948965D01*
X142598946Y-109018083D01*
X142538790Y-109131610D01*
X142500243Y-109288181D01*
X142484023Y-109486429D01*
X142483851Y-109495040D01*
X142483795Y-109599315D01*
X142355122Y-109599315D01*
X142353784Y-109532276D01*
X142353707Y-109448414D01*
X142357282Y-109250300D01*
X142369731Y-109097544D01*
X142395240Y-108984709D01*
X142437996Y-108906365D01*
X142502181Y-108857075D01*
X142591985Y-108831411D01*
X142711591Y-108823938D01*
X142832147Y-108827436D01*
G36*
X141815578Y-108828301D02*
G01*
X141894288Y-108850268D01*
X141948110Y-108894495D01*
X141981744Y-108966875D01*
X141999887Y-109073303D01*
X142007239Y-109219671D01*
X142008515Y-109384211D01*
X142006170Y-109574910D01*
X141997309Y-109721059D01*
X141979186Y-109828971D01*
X141949054Y-109904961D01*
X141904171Y-109955342D01*
X141841791Y-109986428D01*
X141759167Y-110004534D01*
X141737562Y-110007458D01*
X141645087Y-110008677D01*
X141554698Y-109994839D01*
X141549478Y-109993357D01*
X141422382Y-109936671D01*
X141326827Y-109849361D01*
X141260896Y-109727836D01*
X141222669Y-109568509D01*
X141210228Y-109367795D01*
X141210239Y-109359157D01*
X141210564Y-109349350D01*
X141452243Y-109349350D01*
X141457329Y-109473119D01*
X141468468Y-109582442D01*
X141485267Y-109662415D01*
X141494264Y-109684308D01*
X141544940Y-109729324D01*
X141619542Y-109744567D01*
X141700685Y-109730179D01*
X141770986Y-109686303D01*
X141775160Y-109682015D01*
X141835296Y-109586103D01*
X141870851Y-109462343D01*
X141881951Y-109325294D01*
X141868714Y-109189503D01*
X141831270Y-109069524D01*
X141769738Y-108979910D01*
X141769193Y-108979395D01*
X141705624Y-108938170D01*
X141625809Y-108929230D01*
X141609766Y-108930285D01*
X141545022Y-108940510D01*
X141508569Y-108967383D01*
X141482076Y-109026132D01*
X141477245Y-109040381D01*
X141461807Y-109118078D01*
X141453604Y-109226035D01*
X141452243Y-109349350D01*
X141210564Y-109349350D01*
X141216145Y-109181112D01*
X141235253Y-109047150D01*
X141271624Y-108951175D01*
X141329327Y-108887090D01*
X141412426Y-108848798D01*
X141524986Y-108830202D01*
X141564698Y-108827573D01*
X141707280Y-108822701D01*
X141815578Y-108828301D01*
G37*
X141815578Y-108828301D02*
X141894288Y-108850268D01*
X141948110Y-108894495D01*
X141981744Y-108966875D01*
X141999887Y-109073303D01*
X142007239Y-109219671D01*
X142008515Y-109384211D01*
X142006170Y-109574910D01*
X141997309Y-109721059D01*
X141979186Y-109828971D01*
X141949054Y-109904961D01*
X141904171Y-109955342D01*
X141841791Y-109986428D01*
X141759167Y-110004534D01*
X141737562Y-110007458D01*
X141645087Y-110008677D01*
X141554698Y-109994839D01*
X141549478Y-109993357D01*
X141422382Y-109936671D01*
X141326827Y-109849361D01*
X141260896Y-109727836D01*
X141222669Y-109568509D01*
X141210228Y-109367795D01*
X141210239Y-109359157D01*
X141210564Y-109349350D01*
X141452243Y-109349350D01*
X141457329Y-109473119D01*
X141468468Y-109582442D01*
X141485267Y-109662415D01*
X141494264Y-109684308D01*
X141544940Y-109729324D01*
X141619542Y-109744567D01*
X141700685Y-109730179D01*
X141770986Y-109686303D01*
X141775160Y-109682015D01*
X141835296Y-109586103D01*
X141870851Y-109462343D01*
X141881951Y-109325294D01*
X141868714Y-109189503D01*
X141831270Y-109069524D01*
X141769738Y-108979910D01*
X141769193Y-108979395D01*
X141705624Y-108938170D01*
X141625809Y-108929230D01*
X141609766Y-108930285D01*
X141545022Y-108940510D01*
X141508569Y-108967383D01*
X141482076Y-109026132D01*
X141477245Y-109040381D01*
X141461807Y-109118078D01*
X141453604Y-109226035D01*
X141452243Y-109349350D01*
X141210564Y-109349350D01*
X141216145Y-109181112D01*
X141235253Y-109047150D01*
X141271624Y-108951175D01*
X141329327Y-108887090D01*
X141412426Y-108848798D01*
X141524986Y-108830202D01*
X141564698Y-108827573D01*
X141707280Y-108822701D01*
X141815578Y-108828301D01*
G36*
X145620817Y-117024075D02*
G01*
X145598493Y-116973904D01*
X145593454Y-116958789D01*
X145564693Y-116880787D01*
X145524772Y-116787748D01*
X145506802Y-116749638D01*
X145450538Y-116661835D01*
X145378066Y-116607661D01*
X145277092Y-116580226D01*
X145192602Y-116573544D01*
X145107849Y-116561466D01*
X145057600Y-116530308D01*
X145042260Y-116477039D01*
X145062225Y-116398626D01*
X145117896Y-116292037D01*
X145209675Y-116154235D01*
X145256407Y-116089936D01*
X145371848Y-115940674D01*
X145467186Y-115832948D01*
X145546087Y-115763167D01*
X145612206Y-115727741D01*
X145629947Y-115723301D01*
X145683428Y-115717902D01*
X145712586Y-115736196D01*
X145736789Y-115785329D01*
X145752423Y-115843005D01*
X145766919Y-115931307D01*
X145776106Y-116019321D01*
X145796728Y-116153819D01*
X145836256Y-116247079D01*
X145848675Y-116263961D01*
X145888613Y-116324354D01*
X145903269Y-116386384D01*
X145893660Y-116465622D01*
X145867709Y-116556459D01*
X145840827Y-116629414D01*
X145802388Y-116720832D01*
X145758055Y-116818771D01*
X145713497Y-116911275D01*
X145674373Y-116986397D01*
X145646345Y-117032188D01*
X145638396Y-117040291D01*
X145620817Y-117024075D01*
G37*
X145620817Y-117024075D02*
X145598493Y-116973904D01*
X145593454Y-116958789D01*
X145564693Y-116880787D01*
X145524772Y-116787748D01*
X145506802Y-116749638D01*
X145450538Y-116661835D01*
X145378066Y-116607661D01*
X145277092Y-116580226D01*
X145192602Y-116573544D01*
X145107849Y-116561466D01*
X145057600Y-116530308D01*
X145042260Y-116477039D01*
X145062225Y-116398626D01*
X145117896Y-116292037D01*
X145209675Y-116154235D01*
X145256407Y-116089936D01*
X145371848Y-115940674D01*
X145467186Y-115832948D01*
X145546087Y-115763167D01*
X145612206Y-115727741D01*
X145629947Y-115723301D01*
X145683428Y-115717902D01*
X145712586Y-115736196D01*
X145736789Y-115785329D01*
X145752423Y-115843005D01*
X145766919Y-115931307D01*
X145776106Y-116019321D01*
X145796728Y-116153819D01*
X145836256Y-116247079D01*
X145848675Y-116263961D01*
X145888613Y-116324354D01*
X145903269Y-116386384D01*
X145893660Y-116465622D01*
X145867709Y-116556459D01*
X145840827Y-116629414D01*
X145802388Y-116720832D01*
X145758055Y-116818771D01*
X145713497Y-116911275D01*
X145674373Y-116986397D01*
X145646345Y-117032188D01*
X145638396Y-117040291D01*
X145620817Y-117024075D01*
G36*
X147460249Y-116868138D02*
G01*
X147459418Y-116824493D01*
X147476643Y-116751456D01*
X147513197Y-116644254D01*
X147570352Y-116498111D01*
X147602203Y-116420602D01*
X147667490Y-116262248D01*
X147712296Y-116144083D01*
X147735308Y-116059021D01*
X147735214Y-115999980D01*
X147710696Y-115959880D01*
X147660439Y-115931645D01*
X147583132Y-115908186D01*
X147503453Y-115888709D01*
X147396952Y-115862004D01*
X147330830Y-115841512D01*
X147295559Y-115822958D01*
X147281606Y-115802058D01*
X147279571Y-115788114D01*
X147300472Y-115742483D01*
X147362745Y-115708075D01*
X147457768Y-115686009D01*
X147576922Y-115677412D01*
X147711579Y-115683410D01*
X147853123Y-115705124D01*
X147876461Y-115710277D01*
X147961668Y-115731745D01*
X148009320Y-115751250D01*
X148031952Y-115776387D01*
X148041313Y-115810198D01*
X148037697Y-115874701D01*
X148012619Y-115968805D01*
X147970076Y-116084871D01*
X147914063Y-116215264D01*
X147848570Y-116352350D01*
X147777598Y-116488490D01*
X147705137Y-116616050D01*
X147635184Y-116727393D01*
X147571732Y-116814885D01*
X147518779Y-116870892D01*
X147480319Y-116887775D01*
X147477863Y-116887165D01*
X147460249Y-116868138D01*
G37*
X147460249Y-116868138D02*
X147459418Y-116824493D01*
X147476643Y-116751456D01*
X147513197Y-116644254D01*
X147570352Y-116498111D01*
X147602203Y-116420602D01*
X147667490Y-116262248D01*
X147712296Y-116144083D01*
X147735308Y-116059021D01*
X147735214Y-115999980D01*
X147710696Y-115959880D01*
X147660439Y-115931645D01*
X147583132Y-115908186D01*
X147503453Y-115888709D01*
X147396952Y-115862004D01*
X147330830Y-115841512D01*
X147295559Y-115822958D01*
X147281606Y-115802058D01*
X147279571Y-115788114D01*
X147300472Y-115742483D01*
X147362745Y-115708075D01*
X147457768Y-115686009D01*
X147576922Y-115677412D01*
X147711579Y-115683410D01*
X147853123Y-115705124D01*
X147876461Y-115710277D01*
X147961668Y-115731745D01*
X148009320Y-115751250D01*
X148031952Y-115776387D01*
X148041313Y-115810198D01*
X148037697Y-115874701D01*
X148012619Y-115968805D01*
X147970076Y-116084871D01*
X147914063Y-116215264D01*
X147848570Y-116352350D01*
X147777598Y-116488490D01*
X147705137Y-116616050D01*
X147635184Y-116727393D01*
X147571732Y-116814885D01*
X147518779Y-116870892D01*
X147480319Y-116887775D01*
X147477863Y-116887165D01*
X147460249Y-116868138D01*
G36*
X146385391Y-116991217D02*
G01*
X146367129Y-116924975D01*
X146370335Y-116844970D01*
X146393275Y-116766568D01*
X146434215Y-116705127D01*
X146465861Y-116683166D01*
X146541911Y-116667592D01*
X146596370Y-116698086D01*
X146621814Y-116749058D01*
X146628239Y-116832957D01*
X146603762Y-116915066D01*
X146556864Y-116983242D01*
X146496020Y-117025338D01*
X146429709Y-117029210D01*
X146426856Y-117028332D01*
X146385391Y-116991217D01*
G37*
X146385391Y-116991217D02*
X146367129Y-116924975D01*
X146370335Y-116844970D01*
X146393275Y-116766568D01*
X146434215Y-116705127D01*
X146465861Y-116683166D01*
X146541911Y-116667592D01*
X146596370Y-116698086D01*
X146621814Y-116749058D01*
X146628239Y-116832957D01*
X146603762Y-116915066D01*
X146556864Y-116983242D01*
X146496020Y-117025338D01*
X146429709Y-117029210D01*
X146426856Y-117028332D01*
X146385391Y-116991217D01*
G36*
X144192130Y-117587483D02*
G01*
X144189848Y-117581984D01*
X144184769Y-117536142D01*
X144180214Y-117445598D01*
X144176192Y-117316642D01*
X144172731Y-117155569D01*
X144169844Y-116968677D01*
X144167555Y-116762263D01*
X144165884Y-116542623D01*
X144164850Y-116316047D01*
X144164473Y-116088836D01*
X144164773Y-115867284D01*
X144165767Y-115657685D01*
X144167480Y-115466339D01*
X144169928Y-115299538D01*
X144173132Y-115163578D01*
X144177111Y-115064755D01*
X144181751Y-115010212D01*
X144192565Y-114957296D01*
X144212880Y-114928419D01*
X144256536Y-114914158D01*
X144336022Y-114905222D01*
X144471255Y-114895032D01*
X144645010Y-114885627D01*
X144852809Y-114877022D01*
X145090179Y-114869244D01*
X145352642Y-114862309D01*
X145635728Y-114856235D01*
X145934959Y-114851049D01*
X146245860Y-114846766D01*
X146563959Y-114843409D01*
X146884778Y-114840996D01*
X147203844Y-114839547D01*
X147516680Y-114839085D01*
X147818814Y-114839628D01*
X148105769Y-114841201D01*
X148373072Y-114843815D01*
X148616246Y-114847501D01*
X148830818Y-114852269D01*
X149012312Y-114858149D01*
X149156253Y-114865155D01*
X149258168Y-114873307D01*
X149313580Y-114882629D01*
X149313670Y-114882659D01*
X149338717Y-114908098D01*
X149371109Y-114960720D01*
X149373912Y-114966134D01*
X149404616Y-115054663D01*
X149431379Y-115188783D01*
X149453975Y-115363223D01*
X149472176Y-115572698D01*
X149485750Y-115811939D01*
X149494471Y-116075668D01*
X149498107Y-116358609D01*
X149496433Y-116655486D01*
X149494828Y-116723443D01*
X149186906Y-116623392D01*
X149197933Y-116547407D01*
X149203535Y-116446133D01*
X149204030Y-116331185D01*
X149199747Y-116214190D01*
X149191000Y-116106764D01*
X149178112Y-116020528D01*
X149161406Y-115967102D01*
X149150578Y-115955872D01*
X149115080Y-115962164D01*
X149077754Y-115979616D01*
X149007931Y-116033639D01*
X148933185Y-116112183D01*
X148868998Y-116197053D01*
X148831085Y-116269372D01*
X148826473Y-116360925D01*
X148852354Y-116429043D01*
X148906999Y-116509050D01*
X148976184Y-116580647D01*
X149049225Y-116635989D01*
X149115438Y-116667227D01*
X149164143Y-116666511D01*
X149170130Y-116662466D01*
X149186906Y-116623392D01*
X149494828Y-116723443D01*
X149489217Y-116961020D01*
X149477369Y-117242825D01*
X149201312Y-117153129D01*
X149201421Y-117141885D01*
X149179458Y-117088403D01*
X149124270Y-117015832D01*
X149045464Y-116932773D01*
X148952639Y-116847832D01*
X148855403Y-116769613D01*
X148763363Y-116706723D01*
X148686119Y-116667762D01*
X148665267Y-116661570D01*
X148618659Y-116654960D01*
X148587422Y-116667651D01*
X148558727Y-116709688D01*
X148531091Y-116766663D01*
X148471983Y-116885975D01*
X148425154Y-116959492D01*
X148386591Y-116989748D01*
X148352288Y-116979282D01*
X148318233Y-116930627D01*
X148307161Y-116908316D01*
X148276452Y-116808138D01*
X148257075Y-116670923D01*
X148248767Y-116509306D01*
X148251256Y-116335918D01*
X148264286Y-116163393D01*
X148287582Y-116004366D01*
X148320877Y-115871462D01*
X148329537Y-115846943D01*
X148369434Y-115755480D01*
X148403331Y-115711341D01*
X148432741Y-115715347D01*
X148459169Y-115768319D01*
X148484132Y-115871077D01*
X148495895Y-115937488D01*
X148513298Y-116036195D01*
X148529134Y-116112840D01*
X148540880Y-116155711D01*
X148543991Y-116160827D01*
X148566030Y-116145518D01*
X148608414Y-116102188D01*
X148634969Y-116071947D01*
X148697440Y-116011756D01*
X148786014Y-115942511D01*
X148881717Y-115879016D01*
X148883429Y-115877994D01*
X149043034Y-115768400D01*
X149155791Y-115655010D01*
X149225765Y-115531008D01*
X149257017Y-115389585D01*
X149256370Y-115252925D01*
X149246917Y-115186382D01*
X149225617Y-115155513D01*
X149181111Y-115144985D01*
X149176003Y-115144544D01*
X149136876Y-115143320D01*
X149051921Y-115142015D01*
X148926310Y-115140673D01*
X148765216Y-115139332D01*
X148573813Y-115138028D01*
X148357275Y-115136800D01*
X148120777Y-115135686D01*
X147869490Y-115134724D01*
X147818281Y-115134557D01*
X147585531Y-115134048D01*
X147332454Y-115133927D01*
X147064264Y-115134166D01*
X146786178Y-115134728D01*
X146503410Y-115135591D01*
X146221182Y-115136720D01*
X145944705Y-115138085D01*
X145679199Y-115139659D01*
X145429881Y-115141411D01*
X145201964Y-115143308D01*
X145000668Y-115145324D01*
X144831209Y-115147425D01*
X144698802Y-115149584D01*
X144608665Y-115151770D01*
X144574369Y-115153243D01*
X144544798Y-115161705D01*
X144522292Y-115187378D01*
X144505166Y-115237179D01*
X144491740Y-115318015D01*
X144480330Y-115436791D01*
X144470528Y-115579734D01*
X144457614Y-115840743D01*
X144450251Y-116109898D01*
X144448328Y-116376971D01*
X144451736Y-116631734D01*
X144460362Y-116863956D01*
X144474097Y-117063414D01*
X144487881Y-117186763D01*
X144500645Y-117264432D01*
X144517939Y-117305373D01*
X144550249Y-117323517D01*
X144596665Y-117331332D01*
X144656859Y-117335988D01*
X144762984Y-117340692D01*
X144909962Y-117345359D01*
X145092722Y-117349904D01*
X145306183Y-117354234D01*
X145545280Y-117358268D01*
X145804931Y-117361912D01*
X146080062Y-117365084D01*
X146365599Y-117367693D01*
X146656472Y-117369653D01*
X146877213Y-117370651D01*
X147293894Y-117371000D01*
X147662022Y-117368775D01*
X147984004Y-117363745D01*
X148262239Y-117355670D01*
X148499126Y-117344313D01*
X148697066Y-117329444D01*
X148858464Y-117310819D01*
X148985715Y-117288203D01*
X149081226Y-117261365D01*
X149147394Y-117230063D01*
X149186624Y-117194064D01*
X149201312Y-117153129D01*
X149477369Y-117242825D01*
X149476230Y-117269940D01*
X149474933Y-117294722D01*
X149466811Y-117435240D01*
X149456948Y-117532885D01*
X149440828Y-117595712D01*
X149413914Y-117631784D01*
X149371684Y-117649153D01*
X149309609Y-117655873D01*
X149270981Y-117657703D01*
X149133715Y-117662197D01*
X148951031Y-117665789D01*
X148728505Y-117668514D01*
X148471715Y-117670398D01*
X148186238Y-117671477D01*
X147877649Y-117671783D01*
X147551527Y-117671347D01*
X147213447Y-117670199D01*
X146868987Y-117668370D01*
X146523724Y-117665896D01*
X146183234Y-117662804D01*
X145853097Y-117659126D01*
X145538884Y-117654897D01*
X145246180Y-117650147D01*
X144980554Y-117644907D01*
X144747587Y-117639208D01*
X144552857Y-117633082D01*
X144488370Y-117630581D01*
X144356037Y-117623610D01*
X144267415Y-117614893D01*
X144215210Y-117603246D01*
X144192130Y-117587483D01*
G37*
X144192130Y-117587483D02*
X144189848Y-117581984D01*
X144184769Y-117536142D01*
X144180214Y-117445598D01*
X144176192Y-117316642D01*
X144172731Y-117155569D01*
X144169844Y-116968677D01*
X144167555Y-116762263D01*
X144165884Y-116542623D01*
X144164850Y-116316047D01*
X144164473Y-116088836D01*
X144164773Y-115867284D01*
X144165767Y-115657685D01*
X144167480Y-115466339D01*
X144169928Y-115299538D01*
X144173132Y-115163578D01*
X144177111Y-115064755D01*
X144181751Y-115010212D01*
X144192565Y-114957296D01*
X144212880Y-114928419D01*
X144256536Y-114914158D01*
X144336022Y-114905222D01*
X144471255Y-114895032D01*
X144645010Y-114885627D01*
X144852809Y-114877022D01*
X145090179Y-114869244D01*
X145352642Y-114862309D01*
X145635728Y-114856235D01*
X145934959Y-114851049D01*
X146245860Y-114846766D01*
X146563959Y-114843409D01*
X146884778Y-114840996D01*
X147203844Y-114839547D01*
X147516680Y-114839085D01*
X147818814Y-114839628D01*
X148105769Y-114841201D01*
X148373072Y-114843815D01*
X148616246Y-114847501D01*
X148830818Y-114852269D01*
X149012312Y-114858149D01*
X149156253Y-114865155D01*
X149258168Y-114873307D01*
X149313580Y-114882629D01*
X149313670Y-114882659D01*
X149338717Y-114908098D01*
X149371109Y-114960720D01*
X149373912Y-114966134D01*
X149404616Y-115054663D01*
X149431379Y-115188783D01*
X149453975Y-115363223D01*
X149472176Y-115572698D01*
X149485750Y-115811939D01*
X149494471Y-116075668D01*
X149498107Y-116358609D01*
X149496433Y-116655486D01*
X149494828Y-116723443D01*
X149186906Y-116623392D01*
X149197933Y-116547407D01*
X149203535Y-116446133D01*
X149204030Y-116331185D01*
X149199747Y-116214190D01*
X149191000Y-116106764D01*
X149178112Y-116020528D01*
X149161406Y-115967102D01*
X149150578Y-115955872D01*
X149115080Y-115962164D01*
X149077754Y-115979616D01*
X149007931Y-116033639D01*
X148933185Y-116112183D01*
X148868998Y-116197053D01*
X148831085Y-116269372D01*
X148826473Y-116360925D01*
X148852354Y-116429043D01*
X148906999Y-116509050D01*
X148976184Y-116580647D01*
X149049225Y-116635989D01*
X149115438Y-116667227D01*
X149164143Y-116666511D01*
X149170130Y-116662466D01*
X149186906Y-116623392D01*
X149494828Y-116723443D01*
X149489217Y-116961020D01*
X149477369Y-117242825D01*
X149201312Y-117153129D01*
X149201421Y-117141885D01*
X149179458Y-117088403D01*
X149124270Y-117015832D01*
X149045464Y-116932773D01*
X148952639Y-116847832D01*
X148855403Y-116769613D01*
X148763363Y-116706723D01*
X148686119Y-116667762D01*
X148665267Y-116661570D01*
X148618659Y-116654960D01*
X148587422Y-116667651D01*
X148558727Y-116709688D01*
X148531091Y-116766663D01*
X148471983Y-116885975D01*
X148425154Y-116959492D01*
X148386591Y-116989748D01*
X148352288Y-116979282D01*
X148318233Y-116930627D01*
X148307161Y-116908316D01*
X148276452Y-116808138D01*
X148257075Y-116670923D01*
X148248767Y-116509306D01*
X148251256Y-116335918D01*
X148264286Y-116163393D01*
X148287582Y-116004366D01*
X148320877Y-115871462D01*
X148329537Y-115846943D01*
X148369434Y-115755480D01*
X148403331Y-115711341D01*
X148432741Y-115715347D01*
X148459169Y-115768319D01*
X148484132Y-115871077D01*
X148495895Y-115937488D01*
X148513298Y-116036195D01*
X148529134Y-116112840D01*
X148540880Y-116155711D01*
X148543991Y-116160827D01*
X148566030Y-116145518D01*
X148608414Y-116102188D01*
X148634969Y-116071947D01*
X148697440Y-116011756D01*
X148786014Y-115942511D01*
X148881717Y-115879016D01*
X148883429Y-115877994D01*
X149043034Y-115768400D01*
X149155791Y-115655010D01*
X149225765Y-115531008D01*
X149257017Y-115389585D01*
X149256370Y-115252925D01*
X149246917Y-115186382D01*
X149225617Y-115155513D01*
X149181111Y-115144985D01*
X149176003Y-115144544D01*
X149136876Y-115143320D01*
X149051921Y-115142015D01*
X148926310Y-115140673D01*
X148765216Y-115139332D01*
X148573813Y-115138028D01*
X148357275Y-115136800D01*
X148120777Y-115135686D01*
X147869490Y-115134724D01*
X147818281Y-115134557D01*
X147585531Y-115134048D01*
X147332454Y-115133927D01*
X147064264Y-115134166D01*
X146786178Y-115134728D01*
X146503410Y-115135591D01*
X146221182Y-115136720D01*
X145944705Y-115138085D01*
X145679199Y-115139659D01*
X145429881Y-115141411D01*
X145201964Y-115143308D01*
X145000668Y-115145324D01*
X144831209Y-115147425D01*
X144698802Y-115149584D01*
X144608665Y-115151770D01*
X144574369Y-115153243D01*
X144544798Y-115161705D01*
X144522292Y-115187378D01*
X144505166Y-115237179D01*
X144491740Y-115318015D01*
X144480330Y-115436791D01*
X144470528Y-115579734D01*
X144457614Y-115840743D01*
X144450251Y-116109898D01*
X144448328Y-116376971D01*
X144451736Y-116631734D01*
X144460362Y-116863956D01*
X144474097Y-117063414D01*
X144487881Y-117186763D01*
X144500645Y-117264432D01*
X144517939Y-117305373D01*
X144550249Y-117323517D01*
X144596665Y-117331332D01*
X144656859Y-117335988D01*
X144762984Y-117340692D01*
X144909962Y-117345359D01*
X145092722Y-117349904D01*
X145306183Y-117354234D01*
X145545280Y-117358268D01*
X145804931Y-117361912D01*
X146080062Y-117365084D01*
X146365599Y-117367693D01*
X146656472Y-117369653D01*
X146877213Y-117370651D01*
X147293894Y-117371000D01*
X147662022Y-117368775D01*
X147984004Y-117363745D01*
X148262239Y-117355670D01*
X148499126Y-117344313D01*
X148697066Y-117329444D01*
X148858464Y-117310819D01*
X148985715Y-117288203D01*
X149081226Y-117261365D01*
X149147394Y-117230063D01*
X149186624Y-117194064D01*
X149201312Y-117153129D01*
X149477369Y-117242825D01*
X149476230Y-117269940D01*
X149474933Y-117294722D01*
X149466811Y-117435240D01*
X149456948Y-117532885D01*
X149440828Y-117595712D01*
X149413914Y-117631784D01*
X149371684Y-117649153D01*
X149309609Y-117655873D01*
X149270981Y-117657703D01*
X149133715Y-117662197D01*
X148951031Y-117665789D01*
X148728505Y-117668514D01*
X148471715Y-117670398D01*
X148186238Y-117671477D01*
X147877649Y-117671783D01*
X147551527Y-117671347D01*
X147213447Y-117670199D01*
X146868987Y-117668370D01*
X146523724Y-117665896D01*
X146183234Y-117662804D01*
X145853097Y-117659126D01*
X145538884Y-117654897D01*
X145246180Y-117650147D01*
X144980554Y-117644907D01*
X144747587Y-117639208D01*
X144552857Y-117633082D01*
X144488370Y-117630581D01*
X144356037Y-117623610D01*
X144267415Y-117614893D01*
X144215210Y-117603246D01*
X144192130Y-117587483D01*
G36*
X150298887Y-110606649D02*
G01*
X150327024Y-110689975D01*
X150352858Y-110812633D01*
X150375579Y-110963851D01*
X150394380Y-111132873D01*
X150408449Y-111308929D01*
X150416980Y-111481257D01*
X150419160Y-111639088D01*
X150414182Y-111771660D01*
X150401234Y-111868210D01*
X150395345Y-111889536D01*
X150368082Y-111947721D01*
X150329207Y-111971946D01*
X150307823Y-111975736D01*
X150250677Y-111966804D01*
X150208243Y-111921101D01*
X150177735Y-111833849D01*
X150158511Y-111718561D01*
X150150195Y-111627412D01*
X150142840Y-111504620D01*
X150136644Y-111360168D01*
X150131794Y-111204024D01*
X150128492Y-111046170D01*
X150126931Y-110896580D01*
X150127306Y-110765231D01*
X150129811Y-110662099D01*
X150134641Y-110597160D01*
X150136419Y-110587248D01*
X150165553Y-110530134D01*
X150209391Y-110516910D01*
X150258632Y-110546468D01*
X150298887Y-110606649D01*
G37*
X150298887Y-110606649D02*
X150327024Y-110689975D01*
X150352858Y-110812633D01*
X150375579Y-110963851D01*
X150394380Y-111132873D01*
X150408449Y-111308929D01*
X150416980Y-111481257D01*
X150419160Y-111639088D01*
X150414182Y-111771660D01*
X150401234Y-111868210D01*
X150395345Y-111889536D01*
X150368082Y-111947721D01*
X150329207Y-111971946D01*
X150307823Y-111975736D01*
X150250677Y-111966804D01*
X150208243Y-111921101D01*
X150177735Y-111833849D01*
X150158511Y-111718561D01*
X150150195Y-111627412D01*
X150142840Y-111504620D01*
X150136644Y-111360168D01*
X150131794Y-111204024D01*
X150128492Y-111046170D01*
X150126931Y-110896580D01*
X150127306Y-110765231D01*
X150129811Y-110662099D01*
X150134641Y-110597160D01*
X150136419Y-110587248D01*
X150165553Y-110530134D01*
X150209391Y-110516910D01*
X150258632Y-110546468D01*
X150298887Y-110606649D01*
G36*
X151067162Y-109714124D02*
G01*
X151252762Y-110009966D01*
X151392632Y-110301187D01*
X151490133Y-110596958D01*
X151548644Y-110906439D01*
X151564057Y-111065237D01*
X151567230Y-111448372D01*
X151523151Y-111816941D01*
X151433019Y-112168184D01*
X151298010Y-112499339D01*
X151119316Y-112807641D01*
X150898122Y-113090324D01*
X150635614Y-113344627D01*
X150557603Y-113408228D01*
X150331004Y-113563960D01*
X150074118Y-113702378D01*
X149800554Y-113818042D01*
X149523915Y-113905499D01*
X149257816Y-113959299D01*
X149153097Y-113970505D01*
X148958586Y-113973622D01*
X148728667Y-113956129D01*
X148461169Y-113917661D01*
X148153935Y-113857860D01*
X147804794Y-113776368D01*
X147485572Y-113693063D01*
X147304787Y-113643230D01*
X147166565Y-113601366D01*
X147064127Y-113562526D01*
X146990700Y-113521766D01*
X146939501Y-113474144D01*
X146903754Y-113414714D01*
X146876678Y-113338530D01*
X146851498Y-113240647D01*
X146848566Y-113228398D01*
X146830685Y-113136990D01*
X146810942Y-113008713D01*
X146791230Y-112857567D01*
X146773450Y-112697545D01*
X146765736Y-112617052D01*
X146756378Y-112501216D01*
X146745710Y-112348815D01*
X146734010Y-112165477D01*
X146721553Y-111956827D01*
X146708611Y-111728497D01*
X146695460Y-111486115D01*
X146682377Y-111235303D01*
X146669634Y-110981696D01*
X146657506Y-110730916D01*
X146646266Y-110488597D01*
X146636192Y-110260361D01*
X146627557Y-110051842D01*
X146620637Y-109868660D01*
X146615702Y-109716452D01*
X146613031Y-109600838D01*
X146612897Y-109527452D01*
X146613990Y-109507254D01*
X146635300Y-109427319D01*
X146682221Y-109353275D01*
X146759214Y-109281971D01*
X146870738Y-109210254D01*
X146940848Y-109175192D01*
X147135073Y-109452577D01*
X147073756Y-109496841D01*
X147034735Y-109548420D01*
X147011254Y-109619073D01*
X146996548Y-109720568D01*
X146987759Y-109817430D01*
X146977847Y-109972211D01*
X146970833Y-110159193D01*
X146966554Y-110373074D01*
X146964838Y-110608552D01*
X146965521Y-110860319D01*
X146968437Y-111123069D01*
X146973417Y-111391501D01*
X146980293Y-111660314D01*
X146988901Y-111924200D01*
X146999072Y-112177854D01*
X147010639Y-112415975D01*
X147023434Y-112633254D01*
X147037292Y-112824393D01*
X147052047Y-112984085D01*
X147067527Y-113107023D01*
X147083569Y-113187907D01*
X147094825Y-113216352D01*
X147124598Y-113233230D01*
X147192719Y-113260425D01*
X147288578Y-113293963D01*
X147384670Y-113324721D01*
X147815647Y-113444788D01*
X148215221Y-113529613D01*
X148588302Y-113579776D01*
X148939795Y-113595847D01*
X149274611Y-113578403D01*
X149406804Y-113561908D01*
X149743261Y-113489204D01*
X150051627Y-113374482D01*
X150330201Y-113219368D01*
X150577277Y-113025492D01*
X150791152Y-112794481D01*
X150970122Y-112527961D01*
X151112486Y-112227564D01*
X151216535Y-111894916D01*
X151234700Y-111814818D01*
X151287981Y-111471100D01*
X151297132Y-111144170D01*
X151261713Y-110824490D01*
X151181274Y-110502511D01*
X151172273Y-110474505D01*
X151139076Y-110378360D01*
X151105265Y-110296540D01*
X151064180Y-110216698D01*
X151009159Y-110126491D01*
X150933548Y-110013569D01*
X150888393Y-109948262D01*
X150794429Y-109815640D01*
X150718277Y-109715324D01*
X150650614Y-109636435D01*
X150582121Y-109568093D01*
X150505000Y-109500692D01*
X150213455Y-109289926D01*
X149894598Y-109120693D01*
X149554394Y-108995852D01*
X149348935Y-108944767D01*
X149231863Y-108923264D01*
X149131749Y-108913019D01*
X149031018Y-108914008D01*
X148912095Y-108926204D01*
X148792555Y-108943931D01*
X148551515Y-108988193D01*
X148296731Y-109045565D01*
X148039241Y-109112805D01*
X147790078Y-109186671D01*
X147560285Y-109263929D01*
X147360892Y-109341337D01*
X147225451Y-109403863D01*
X147135073Y-109452577D01*
X146940848Y-109175192D01*
X147021260Y-109134978D01*
X147215238Y-109052991D01*
X147309289Y-109016352D01*
X147623944Y-108899744D01*
X147899453Y-108805824D01*
X148141534Y-108733004D01*
X148355898Y-108679699D01*
X148548265Y-108644327D01*
X148717964Y-108625739D01*
X149100868Y-108620940D01*
X149462354Y-108662157D01*
X149804065Y-108749916D01*
X150127651Y-108884743D01*
X150434750Y-109067160D01*
X150670806Y-109248679D01*
X150750333Y-109319331D01*
X150819665Y-109389140D01*
X150887962Y-109468870D01*
X150964390Y-109569281D01*
X151058115Y-109701139D01*
X151067162Y-109714124D01*
G37*
X151067162Y-109714124D02*
X151252762Y-110009966D01*
X151392632Y-110301187D01*
X151490133Y-110596958D01*
X151548644Y-110906439D01*
X151564057Y-111065237D01*
X151567230Y-111448372D01*
X151523151Y-111816941D01*
X151433019Y-112168184D01*
X151298010Y-112499339D01*
X151119316Y-112807641D01*
X150898122Y-113090324D01*
X150635614Y-113344627D01*
X150557603Y-113408228D01*
X150331004Y-113563960D01*
X150074118Y-113702378D01*
X149800554Y-113818042D01*
X149523915Y-113905499D01*
X149257816Y-113959299D01*
X149153097Y-113970505D01*
X148958586Y-113973622D01*
X148728667Y-113956129D01*
X148461169Y-113917661D01*
X148153935Y-113857860D01*
X147804794Y-113776368D01*
X147485572Y-113693063D01*
X147304787Y-113643230D01*
X147166565Y-113601366D01*
X147064127Y-113562526D01*
X146990700Y-113521766D01*
X146939501Y-113474144D01*
X146903754Y-113414714D01*
X146876678Y-113338530D01*
X146851498Y-113240647D01*
X146848566Y-113228398D01*
X146830685Y-113136990D01*
X146810942Y-113008713D01*
X146791230Y-112857567D01*
X146773450Y-112697545D01*
X146765736Y-112617052D01*
X146756378Y-112501216D01*
X146745710Y-112348815D01*
X146734010Y-112165477D01*
X146721553Y-111956827D01*
X146708611Y-111728497D01*
X146695460Y-111486115D01*
X146682377Y-111235303D01*
X146669634Y-110981696D01*
X146657506Y-110730916D01*
X146646266Y-110488597D01*
X146636192Y-110260361D01*
X146627557Y-110051842D01*
X146620637Y-109868660D01*
X146615702Y-109716452D01*
X146613031Y-109600838D01*
X146612897Y-109527452D01*
X146613990Y-109507254D01*
X146635300Y-109427319D01*
X146682221Y-109353275D01*
X146759214Y-109281971D01*
X146870738Y-109210254D01*
X146940848Y-109175192D01*
X147135073Y-109452577D01*
X147073756Y-109496841D01*
X147034735Y-109548420D01*
X147011254Y-109619073D01*
X146996548Y-109720568D01*
X146987759Y-109817430D01*
X146977847Y-109972211D01*
X146970833Y-110159193D01*
X146966554Y-110373074D01*
X146964838Y-110608552D01*
X146965521Y-110860319D01*
X146968437Y-111123069D01*
X146973417Y-111391501D01*
X146980293Y-111660314D01*
X146988901Y-111924200D01*
X146999072Y-112177854D01*
X147010639Y-112415975D01*
X147023434Y-112633254D01*
X147037292Y-112824393D01*
X147052047Y-112984085D01*
X147067527Y-113107023D01*
X147083569Y-113187907D01*
X147094825Y-113216352D01*
X147124598Y-113233230D01*
X147192719Y-113260425D01*
X147288578Y-113293963D01*
X147384670Y-113324721D01*
X147815647Y-113444788D01*
X148215221Y-113529613D01*
X148588302Y-113579776D01*
X148939795Y-113595847D01*
X149274611Y-113578403D01*
X149406804Y-113561908D01*
X149743261Y-113489204D01*
X150051627Y-113374482D01*
X150330201Y-113219368D01*
X150577277Y-113025492D01*
X150791152Y-112794481D01*
X150970122Y-112527961D01*
X151112486Y-112227564D01*
X151216535Y-111894916D01*
X151234700Y-111814818D01*
X151287981Y-111471100D01*
X151297132Y-111144170D01*
X151261713Y-110824490D01*
X151181274Y-110502511D01*
X151172273Y-110474505D01*
X151139076Y-110378360D01*
X151105265Y-110296540D01*
X151064180Y-110216698D01*
X151009159Y-110126491D01*
X150933548Y-110013569D01*
X150888393Y-109948262D01*
X150794429Y-109815640D01*
X150718277Y-109715324D01*
X150650614Y-109636435D01*
X150582121Y-109568093D01*
X150505000Y-109500692D01*
X150213455Y-109289926D01*
X149894598Y-109120693D01*
X149554394Y-108995852D01*
X149348935Y-108944767D01*
X149231863Y-108923264D01*
X149131749Y-108913019D01*
X149031018Y-108914008D01*
X148912095Y-108926204D01*
X148792555Y-108943931D01*
X148551515Y-108988193D01*
X148296731Y-109045565D01*
X148039241Y-109112805D01*
X147790078Y-109186671D01*
X147560285Y-109263929D01*
X147360892Y-109341337D01*
X147225451Y-109403863D01*
X147135073Y-109452577D01*
X146940848Y-109175192D01*
X147021260Y-109134978D01*
X147215238Y-109052991D01*
X147309289Y-109016352D01*
X147623944Y-108899744D01*
X147899453Y-108805824D01*
X148141534Y-108733004D01*
X148355898Y-108679699D01*
X148548265Y-108644327D01*
X148717964Y-108625739D01*
X149100868Y-108620940D01*
X149462354Y-108662157D01*
X149804065Y-108749916D01*
X150127651Y-108884743D01*
X150434750Y-109067160D01*
X150670806Y-109248679D01*
X150750333Y-109319331D01*
X150819665Y-109389140D01*
X150887962Y-109468870D01*
X150964390Y-109569281D01*
X151058115Y-109701139D01*
X151067162Y-109714124D01*
G36*
X142758241Y-112402229D02*
G01*
X142795698Y-112458859D01*
X142820043Y-112532813D01*
X142824579Y-112578036D01*
X142818992Y-112652201D01*
X142804722Y-112735671D01*
X142785504Y-112813212D01*
X142765073Y-112869590D01*
X142748168Y-112889680D01*
X142717335Y-112872108D01*
X142704228Y-112857800D01*
X142668194Y-112793067D01*
X142632593Y-112701759D01*
X142605519Y-112607735D01*
X142595060Y-112536087D01*
X142612327Y-112467932D01*
X142654504Y-112409872D01*
X142707165Y-112380460D01*
X142716757Y-112379638D01*
X142758241Y-112402229D01*
G37*
X142758241Y-112402229D02*
X142795698Y-112458859D01*
X142820043Y-112532813D01*
X142824579Y-112578036D01*
X142818992Y-112652201D01*
X142804722Y-112735671D01*
X142785504Y-112813212D01*
X142765073Y-112869590D01*
X142748168Y-112889680D01*
X142717335Y-112872108D01*
X142704228Y-112857800D01*
X142668194Y-112793067D01*
X142632593Y-112701759D01*
X142605519Y-112607735D01*
X142595060Y-112536087D01*
X142612327Y-112467932D01*
X142654504Y-112409872D01*
X142707165Y-112380460D01*
X142716757Y-112379638D01*
X142758241Y-112402229D01*
G36*
X141815578Y-112078301D02*
G01*
X141894288Y-112100268D01*
X141948110Y-112144495D01*
X141981744Y-112216877D01*
X141999887Y-112323303D01*
X142007239Y-112469671D01*
X142008514Y-112634212D01*
X142006170Y-112824910D01*
X141997309Y-112971060D01*
X141979185Y-113078972D01*
X141949054Y-113154961D01*
X141904171Y-113205342D01*
X141841789Y-113236429D01*
X141759167Y-113254534D01*
X141737562Y-113257459D01*
X141645087Y-113258676D01*
X141554698Y-113244839D01*
X141549478Y-113243357D01*
X141422381Y-113186672D01*
X141326827Y-113099361D01*
X141260896Y-112977837D01*
X141222669Y-112818509D01*
X141210228Y-112617795D01*
X141210239Y-112609157D01*
X141210564Y-112599350D01*
X141452243Y-112599350D01*
X141457329Y-112723119D01*
X141468468Y-112832442D01*
X141485267Y-112912415D01*
X141494263Y-112934307D01*
X141544940Y-112979324D01*
X141619542Y-112994567D01*
X141700685Y-112980179D01*
X141770986Y-112936304D01*
X141775160Y-112932015D01*
X141835296Y-112836103D01*
X141870852Y-112712345D01*
X141881951Y-112575294D01*
X141868715Y-112439503D01*
X141831270Y-112319524D01*
X141769738Y-112229911D01*
X141769193Y-112229395D01*
X141705624Y-112188171D01*
X141625810Y-112179229D01*
X141609765Y-112180286D01*
X141545022Y-112190510D01*
X141508569Y-112217382D01*
X141482077Y-112276131D01*
X141477245Y-112290381D01*
X141461807Y-112368079D01*
X141453604Y-112476035D01*
X141452243Y-112599350D01*
X141210564Y-112599350D01*
X141216145Y-112431112D01*
X141235252Y-112297151D01*
X141271624Y-112201176D01*
X141329327Y-112137090D01*
X141412426Y-112098799D01*
X141524986Y-112080202D01*
X141564698Y-112077573D01*
X141707281Y-112072701D01*
X141815578Y-112078301D01*
G37*
X141815578Y-112078301D02*
X141894288Y-112100268D01*
X141948110Y-112144495D01*
X141981744Y-112216877D01*
X141999887Y-112323303D01*
X142007239Y-112469671D01*
X142008514Y-112634212D01*
X142006170Y-112824910D01*
X141997309Y-112971060D01*
X141979185Y-113078972D01*
X141949054Y-113154961D01*
X141904171Y-113205342D01*
X141841789Y-113236429D01*
X141759167Y-113254534D01*
X141737562Y-113257459D01*
X141645087Y-113258676D01*
X141554698Y-113244839D01*
X141549478Y-113243357D01*
X141422381Y-113186672D01*
X141326827Y-113099361D01*
X141260896Y-112977837D01*
X141222669Y-112818509D01*
X141210228Y-112617795D01*
X141210239Y-112609157D01*
X141210564Y-112599350D01*
X141452243Y-112599350D01*
X141457329Y-112723119D01*
X141468468Y-112832442D01*
X141485267Y-112912415D01*
X141494263Y-112934307D01*
X141544940Y-112979324D01*
X141619542Y-112994567D01*
X141700685Y-112980179D01*
X141770986Y-112936304D01*
X141775160Y-112932015D01*
X141835296Y-112836103D01*
X141870852Y-112712345D01*
X141881951Y-112575294D01*
X141868715Y-112439503D01*
X141831270Y-112319524D01*
X141769738Y-112229911D01*
X141769193Y-112229395D01*
X141705624Y-112188171D01*
X141625810Y-112179229D01*
X141609765Y-112180286D01*
X141545022Y-112190510D01*
X141508569Y-112217382D01*
X141482077Y-112276131D01*
X141477245Y-112290381D01*
X141461807Y-112368079D01*
X141453604Y-112476035D01*
X141452243Y-112599350D01*
X141210564Y-112599350D01*
X141216145Y-112431112D01*
X141235252Y-112297151D01*
X141271624Y-112201176D01*
X141329327Y-112137090D01*
X141412426Y-112098799D01*
X141524986Y-112080202D01*
X141564698Y-112077573D01*
X141707281Y-112072701D01*
X141815578Y-112078301D01*
G36*
X140619824Y-112058918D02*
G01*
X140636501Y-112084524D01*
X140649800Y-112115869D01*
X140660874Y-112160475D01*
X140670871Y-112225870D01*
X140680943Y-112319577D01*
X140692239Y-112449121D01*
X140705904Y-112621908D01*
X140718355Y-112762135D01*
X140732918Y-112893651D01*
X140747942Y-113003279D01*
X140761775Y-113077840D01*
X140764278Y-113087474D01*
X140781141Y-113160098D01*
X140778282Y-113202958D01*
X140757850Y-113230946D01*
X140679593Y-113272379D01*
X140577826Y-113280970D01*
X140513399Y-113269359D01*
X140463415Y-113249103D01*
X140426594Y-113216010D01*
X140401359Y-113163305D01*
X140386127Y-113084207D01*
X140379320Y-112971938D01*
X140379357Y-112819719D01*
X140382030Y-112705633D01*
X140388300Y-112537306D01*
X140396905Y-112410079D01*
X140409000Y-112314058D01*
X140425740Y-112239349D01*
X140442153Y-112191062D01*
X140491307Y-112090203D01*
X140540285Y-112036329D01*
X140587250Y-112030808D01*
X140619824Y-112058918D01*
G37*
X140619824Y-112058918D02*
X140636501Y-112084524D01*
X140649800Y-112115869D01*
X140660874Y-112160475D01*
X140670871Y-112225870D01*
X140680943Y-112319577D01*
X140692239Y-112449121D01*
X140705904Y-112621908D01*
X140718355Y-112762135D01*
X140732918Y-112893651D01*
X140747942Y-113003279D01*
X140761775Y-113077840D01*
X140764278Y-113087474D01*
X140781141Y-113160098D01*
X140778282Y-113202958D01*
X140757850Y-113230946D01*
X140679593Y-113272379D01*
X140577826Y-113280970D01*
X140513399Y-113269359D01*
X140463415Y-113249103D01*
X140426594Y-113216010D01*
X140401359Y-113163305D01*
X140386127Y-113084207D01*
X140379320Y-112971938D01*
X140379357Y-112819719D01*
X140382030Y-112705633D01*
X140388300Y-112537306D01*
X140396905Y-112410079D01*
X140409000Y-112314058D01*
X140425740Y-112239349D01*
X140442153Y-112191062D01*
X140491307Y-112090203D01*
X140540285Y-112036329D01*
X140587250Y-112030808D01*
X140619824Y-112058918D01*
G36*
X142832147Y-112077436D02*
G01*
X142964432Y-112090769D01*
X143056078Y-112120744D01*
X143116806Y-112175938D01*
X143156338Y-112264931D01*
X143182821Y-112386840D01*
X143200741Y-112572577D01*
X143193461Y-112752940D01*
X143162861Y-112916629D01*
X143110822Y-113052341D01*
X143059498Y-113128241D01*
X142975024Y-113192882D01*
X142861103Y-113240141D01*
X142734587Y-113266706D01*
X142612326Y-113269262D01*
X142511173Y-113244496D01*
X142499208Y-113238413D01*
X142446223Y-113204411D01*
X142407703Y-113164611D01*
X142381424Y-113110754D01*
X142365161Y-113034584D01*
X142356689Y-112927844D01*
X142355122Y-112849315D01*
X142483795Y-112849315D01*
X142489773Y-112915097D01*
X142504201Y-112954764D01*
X142529484Y-112980698D01*
X142529803Y-112980933D01*
X142600269Y-113009197D01*
X142692812Y-113017854D01*
X142786195Y-113007731D01*
X142859180Y-112979648D01*
X142874160Y-112967608D01*
X142912489Y-112912556D01*
X142937169Y-112833421D01*
X142949384Y-112722598D01*
X142950324Y-112572478D01*
X142947653Y-112496155D01*
X142938523Y-112361322D01*
X142922350Y-112269637D01*
X142895100Y-112213321D01*
X142852738Y-112184609D01*
X142791231Y-112175726D01*
X142781241Y-112175622D01*
X142680001Y-112198966D01*
X142598946Y-112268083D01*
X142538789Y-112381611D01*
X142500243Y-112538181D01*
X142484023Y-112736429D01*
X142483851Y-112745040D01*
X142483795Y-112849315D01*
X142355122Y-112849315D01*
X142353784Y-112782276D01*
X142353707Y-112698415D01*
X142357282Y-112500301D01*
X142369731Y-112347544D01*
X142395240Y-112234709D01*
X142437996Y-112156364D01*
X142502181Y-112107075D01*
X142591985Y-112081411D01*
X142711591Y-112073938D01*
X142832147Y-112077436D01*
G37*
X142832147Y-112077436D02*
X142964432Y-112090769D01*
X143056078Y-112120744D01*
X143116806Y-112175938D01*
X143156338Y-112264931D01*
X143182821Y-112386840D01*
X143200741Y-112572577D01*
X143193461Y-112752940D01*
X143162861Y-112916629D01*
X143110822Y-113052341D01*
X143059498Y-113128241D01*
X142975024Y-113192882D01*
X142861103Y-113240141D01*
X142734587Y-113266706D01*
X142612326Y-113269262D01*
X142511173Y-113244496D01*
X142499208Y-113238413D01*
X142446223Y-113204411D01*
X142407703Y-113164611D01*
X142381424Y-113110754D01*
X142365161Y-113034584D01*
X142356689Y-112927844D01*
X142355122Y-112849315D01*
X142483795Y-112849315D01*
X142489773Y-112915097D01*
X142504201Y-112954764D01*
X142529484Y-112980698D01*
X142529803Y-112980933D01*
X142600269Y-113009197D01*
X142692812Y-113017854D01*
X142786195Y-113007731D01*
X142859180Y-112979648D01*
X142874160Y-112967608D01*
X142912489Y-112912556D01*
X142937169Y-112833421D01*
X142949384Y-112722598D01*
X142950324Y-112572478D01*
X142947653Y-112496155D01*
X142938523Y-112361322D01*
X142922350Y-112269637D01*
X142895100Y-112213321D01*
X142852738Y-112184609D01*
X142791231Y-112175726D01*
X142781241Y-112175622D01*
X142680001Y-112198966D01*
X142598946Y-112268083D01*
X142538789Y-112381611D01*
X142500243Y-112538181D01*
X142484023Y-112736429D01*
X142483851Y-112745040D01*
X142483795Y-112849315D01*
X142355122Y-112849315D01*
X142353784Y-112782276D01*
X142353707Y-112698415D01*
X142357282Y-112500301D01*
X142369731Y-112347544D01*
X142395240Y-112234709D01*
X142437996Y-112156364D01*
X142502181Y-112107075D01*
X142591985Y-112081411D01*
X142711591Y-112073938D01*
X142832147Y-112077436D01*
G36*
X144609718Y-113909759D02*
G01*
X139279799Y-113909759D01*
X139279799Y-111385060D01*
X139560320Y-111385061D01*
X139560321Y-113654740D01*
X144354699Y-113654739D01*
X144354699Y-112087562D01*
X144152630Y-112288445D01*
X144065228Y-112378811D01*
X143987699Y-112465276D01*
X143929924Y-112536470D01*
X143905614Y-112572793D01*
X143887612Y-112606535D01*
X143877888Y-112634838D01*
X143879975Y-112665080D01*
X143897411Y-112704636D01*
X143933733Y-112760885D01*
X143992475Y-112841203D01*
X144077175Y-112952967D01*
X144106054Y-112990943D01*
X144178905Y-113092727D01*
X144217066Y-113162264D01*
X144221800Y-113203486D01*
X144194372Y-113220321D01*
X144180077Y-113221206D01*
X144142466Y-113205004D01*
X144077254Y-113161521D01*
X143993976Y-113098431D01*
X143902166Y-113023418D01*
X143811359Y-112944153D01*
X143731090Y-112868320D01*
X143693577Y-112829433D01*
X143647141Y-112784737D01*
X143613710Y-112762666D01*
X143610695Y-112762169D01*
X143600856Y-112785639D01*
X143593473Y-112847948D01*
X143589821Y-112936947D01*
X143589639Y-112963359D01*
X143581177Y-113100992D01*
X143556845Y-113200116D01*
X143518224Y-113257203D01*
X143466895Y-113268713D01*
X143454686Y-113265024D01*
X143415663Y-113228715D01*
X143385999Y-113151810D01*
X143365275Y-113031866D01*
X143353074Y-112866440D01*
X143348978Y-112653091D01*
X143348976Y-112647410D01*
X143352884Y-112432891D01*
X143364887Y-112266354D01*
X143385403Y-112145354D01*
X143414850Y-112067453D01*
X143453646Y-112030207D01*
X143454686Y-112029796D01*
X143503200Y-112034777D01*
X143546969Y-112079154D01*
X143578417Y-112151396D01*
X143589987Y-112235827D01*
X143597169Y-112350543D01*
X143616924Y-112425457D01*
X143647877Y-112455738D01*
X143652565Y-112456147D01*
X143692912Y-112439923D01*
X143760174Y-112396582D01*
X143844262Y-112334097D01*
X143935092Y-112260458D01*
X144022572Y-112183638D01*
X144096618Y-112111625D01*
X144119748Y-112086485D01*
X144230069Y-111940670D01*
X144300313Y-111793198D01*
X144338538Y-111625562D01*
X144344849Y-111569845D01*
X144362024Y-111385060D01*
X139560320Y-111385061D01*
X139279799Y-111385060D01*
X139279799Y-111130040D01*
X144609719Y-111130040D01*
X144609718Y-113909759D01*
G37*
X144609718Y-113909759D02*
X139279799Y-113909759D01*
X139279799Y-111385060D01*
X139560320Y-111385061D01*
X139560321Y-113654740D01*
X144354699Y-113654739D01*
X144354699Y-112087562D01*
X144152630Y-112288445D01*
X144065228Y-112378811D01*
X143987699Y-112465276D01*
X143929924Y-112536470D01*
X143905614Y-112572793D01*
X143887612Y-112606535D01*
X143877888Y-112634838D01*
X143879975Y-112665080D01*
X143897411Y-112704636D01*
X143933733Y-112760885D01*
X143992475Y-112841203D01*
X144077175Y-112952967D01*
X144106054Y-112990943D01*
X144178905Y-113092727D01*
X144217066Y-113162264D01*
X144221800Y-113203486D01*
X144194372Y-113220321D01*
X144180077Y-113221206D01*
X144142466Y-113205004D01*
X144077254Y-113161521D01*
X143993976Y-113098431D01*
X143902166Y-113023418D01*
X143811359Y-112944153D01*
X143731090Y-112868320D01*
X143693577Y-112829433D01*
X143647141Y-112784737D01*
X143613710Y-112762666D01*
X143610695Y-112762169D01*
X143600856Y-112785639D01*
X143593473Y-112847948D01*
X143589821Y-112936947D01*
X143589639Y-112963359D01*
X143581177Y-113100992D01*
X143556845Y-113200116D01*
X143518224Y-113257203D01*
X143466895Y-113268713D01*
X143454686Y-113265024D01*
X143415663Y-113228715D01*
X143385999Y-113151810D01*
X143365275Y-113031866D01*
X143353074Y-112866440D01*
X143348978Y-112653091D01*
X143348976Y-112647410D01*
X143352884Y-112432891D01*
X143364887Y-112266354D01*
X143385403Y-112145354D01*
X143414850Y-112067453D01*
X143453646Y-112030207D01*
X143454686Y-112029796D01*
X143503200Y-112034777D01*
X143546969Y-112079154D01*
X143578417Y-112151396D01*
X143589987Y-112235827D01*
X143597169Y-112350543D01*
X143616924Y-112425457D01*
X143647877Y-112455738D01*
X143652565Y-112456147D01*
X143692912Y-112439923D01*
X143760174Y-112396582D01*
X143844262Y-112334097D01*
X143935092Y-112260458D01*
X144022572Y-112183638D01*
X144096618Y-112111625D01*
X144119748Y-112086485D01*
X144230069Y-111940670D01*
X144300313Y-111793198D01*
X144338538Y-111625562D01*
X144344849Y-111569845D01*
X144362024Y-111385060D01*
X139560320Y-111385061D01*
X139279799Y-111385060D01*
X139279799Y-111130040D01*
X144609719Y-111130040D01*
X144609718Y-113909759D01*
G36*
X141759791Y-112429341D02*
G01*
X141772546Y-112443199D01*
X141820537Y-112528768D01*
X141823358Y-112625857D01*
X141788423Y-112727319D01*
X141736361Y-112809584D01*
X141681785Y-112846457D01*
X141628764Y-112835669D01*
X141615003Y-112824052D01*
X141589193Y-112770355D01*
X141576444Y-112686243D01*
X141577351Y-112590764D01*
X141592517Y-112502960D01*
X141603936Y-112471498D01*
X141648880Y-112407055D01*
X141701263Y-112392930D01*
X141759791Y-112429341D01*
G37*
X141759791Y-112429341D02*
X141772546Y-112443199D01*
X141820537Y-112528768D01*
X141823358Y-112625857D01*
X141788423Y-112727319D01*
X141736361Y-112809584D01*
X141681785Y-112846457D01*
X141628764Y-112835669D01*
X141615003Y-112824052D01*
X141589193Y-112770355D01*
X141576444Y-112686243D01*
X141577351Y-112590764D01*
X141592517Y-112502960D01*
X141603936Y-112471498D01*
X141648880Y-112407055D01*
X141701263Y-112392930D01*
X141759791Y-112429341D01*
D14*
%TO.C,.*%
X131430000Y-108770000D02*
X132760000Y-108770000D01*
X131430000Y-110100000D02*
X131430000Y-108770000D01*
X131430000Y-111370000D02*
X134090000Y-111370000D01*
X134090000Y-111370000D02*
X134090000Y-116510000D01*
X131430000Y-111370000D02*
X131430000Y-116510000D01*
X131430000Y-116510000D02*
X134090000Y-116510000D01*
%TO.C,*%
D15*
%TD*%
M02*
