<?xml version="1.0" encoding="UTF-8"?>
<svg id="Layer_2" data-name="Layer 2" xmlns="http://www.w3.org/2000/svg" viewBox="0 0 583.76 582">
  <g id="Layer_1-2" data-name="Layer 1">
    <path d="M142,0c6.14,8.13,18.14,9.03,27.49,11l1.03-2-9.51-9h42c1.56,1.59,4.09,1.83,6.19,2.32,4.48,1.05,18.84,4.86,22.27,4.63,2.79-.18,8.35-3.33,7.55-6.95h24c.69,11.82,16.34,36.26,5.92,46.42-10.89,10.61-18.37-5.03-25.21-8.63-3.91-2.06-21.35-5.74-25.71-5.38-8.56.69-18.83,8.3-28.16,9.93-23.62,4.14-48.81-17-70.16-25.52-8.8-3.51-32.07-11.1-23.24,7.24,4.16,8.65,28.18,20.35,37.51,22.49,16.91,3.89,24.32,1.26,38.07,14.93,13.02,12.94,13.7,17.03,31.3,26.7,12.11,6.65,52.05,25.37,64.21,24.88,13.74-.56,9.25-8.23,11.99-18.03s11.5-22.33,15.65-32.35c2.95-7.12,6.64-11.99,3.56-19.91-3.78-9.71-11.9-25.46-16.88-35.12-1.4-2.71-3.22-5.11-4.86-7.64h25c1.97,9.73,9.16,22.74,20.51,22.47,9.31-.22,14.89-7.23,21.58-11.88,4.66-3.24,11.64-5.12,13.91-10.59h39c-.2,4.15.27,8.39.04,12.54-1.62,29.58.2,70.65,28.64,88.28,16.4,10.17,43.34,7.74,46.24-14.41,1.05-8.03-1.91-32.57,10.6-33.47,13.33-.96,13.74,16.76,11.49,26.05,7.67.9,16.31-18.03,15.05-23.33-2.28-2.07-5.63-1.3-8.43-2.78-8.58-4.53-3.86-19.5,2.43-24.32,12.01-9.2,37.8-9.23,11.95-28.55h68c3.33,14.55-4.65,25.57-16.47,33.03-11.05,6.97-29.64,10.03-34.59,23.41-2.16,5.84-1.37,12.14-3,18-4.88,17.51-30.86,19.63-37.98,38.02-4.89,12.64-5.81,24.15-13.54,36.46-7.17,11.4-18.32,17.1-25.59,29.41-7.28,12.33-8,16.32-19.31,26.69-21.5,19.72-38.66,25.62-64.51,36.49-15.98,6.72-10.61,10.48-19.51,21.49-5.77,7.15-17.64,16.03-27.02,16.98-25.42,2.56-35.63-5.98-54.47,17.53-10.4,12.98-8.99,21.02-14.26,34.74-7.14,18.59-21.78,20.92-36.07,30.93-15.97,11.2-20.05,29.15-29.9,45.1-18.14,29.38-61.15,64.41-90.88,82.12-20.26,12.08-56.36,25.47-67.43,46.57-3.64,6.93-4.16,13.92-7,21-3.93,9.8-11.63,19.75-21.48,24.02v-70c13.11-18.22,9.4-37.3,32.33-48.17,29.62-14.04,57.36-10.74,86.59-31.41,17.6-12.45,52.57-46.81,60.58-66.42,3.18-7.78,5.34-23.59-6.95-23.02-18.05.84-40.22,31.2-55.64,41.44-35,23.25-77.51,15.91-116.91,12.59v-38c23.14,15.63,54.58,17.32,81.21,10.71,30.14-7.49,9.91-13.6,1.36-25.77-4.7-6.68-6.25-15.29-5.44-23.31.74-7.38,7.31-14.85.21-19.45-11.06-7.17-45.01-3.57-58.82-2.16-6.15.63-12.41,2.03-18.51,2.99v-26c5.65-3.25,9-12.08,0-13v-25c25.96-4.42,49.53-4.3,66.22-27.28,10.51-14.46,14.09-24.03,12.82-42.27-1.55-22.41-13.81-17.48-30.31-11.22-20.61,7.82-34.48,25.82-48.73,41.77v-40c3.14-.67,18.13-21.16,17-21.99-6.11-.56-11.78.89-17,3.99V0h142ZM362.68,27.16c-1.54.15-6.72,3.52-8.41,4.62-15.66,10.18-28.99,30.83-37.8,47.2-3.7,6.88-12.54,23.19-11.43,30.46,2.16,14.12,26.77-2.02,32.87-6.01,20.93-13.71,31.37-33.77,30.98-59.03-.05-3.34-1.63-17.68-6.22-17.24ZM88.35,74.65c3.66,3.95,14.47,11.55,16.43,2.63,2.68-12.23-16.12-18.16-24.77-22.27-.13,6.91,3.7,14.63,8.35,19.64ZM137.76,71.21c-9.34,1.37-18.16,14.27-17.85,23.29.15,4.25,4.56,13.13,8.81,14.27,7.76,2.06,16.03.04,21.81-5.74,11.24-11.24,4.9-34.42-12.78-31.82ZM41.24,133.74c2.36,2.76,16.16-2.25,20.39-2.62,11.49-1.01,15.22,1.72,25.12,3.62,4.24.81,20.47,1.74,22.81-1.71,1.22-1.8-.76-7.28-1.68-9.42-4.27-9.95-26.89-30.26-35.87-38.13-3.35-2.93-13.92-12.61-17.54-12.57-6.42.08-13.12,19.8-24.45,21.68-7.47,1.24-11.74-6.52-15.13-6.14-5.85.66-8.08,13.29-6.7,17.84,1.79,5.92,14.53,2.87,19.25,3.74s9.86,8.51,11.32,12.68c.96,2.72,1.5,9.88,2.47,11.02ZM181.78,104.23c-14.81,1.5-21.45,18.88-11.63,30.12,2.46,2.82,6.38,3.92,8.75,6.25,6.01,5.91,5.53,15.34-3.63,17.17-4.94.99-18.59-.07-22.28,1.72-6.03,2.94,3.92,19.88,6.2,23.81,17.58,30.25,59.04,55.07,92.39,63.61,21.85,5.6,55.56,8.37,73.89-6.95,11.44-9.55,3.08-14.41,4.62-25.39,2.08-14.86,20.64-11.96,31.29-13.71,37.29-6.11,74.83-17.07,61.57-64.32-8.26-29.41-44.68-27.29-66.97-16.08-26.35,13.26-36.72,26.76-70.52,24.56-35.35-2.3-76.47-43.57-103.68-40.81ZM133.73,133.2c-2.3.51-3.96,2.16-4.51,4.46l3.79,6.9,11.5-3.53.36-3.33c-2.28-3.42-7.05-5.41-11.14-4.5ZM115.5,157.02c-17.44,14.42-18.2,48.57-14.05,69.03.91,4.47,6.57,23.46,13.04,17.93,5.2-7.83,15.38-17,18.03-25.96,5.76-19.45-5.77-45.3-17.02-61ZM150.74,237.24c-14.5,2.68-13.89,21.37-17.26,31.74-1.79,5.51-8.09,19.04-11.48,23.52-5.1,6.73-32.64,28.88-18.91,37.91,13.64,8.96,38.5-8.11,52.37-12.44,23.44-7.31,38.6,4.52,57.76-.24,24.88-6.19,13.16-34.53,1.75-48.2-12.65-15.14-43.78-36.08-64.24-32.29ZM96.87,276.87c.27-10.01-14.01-33.81-23.62-35.66-5.94-1.14-13.63,3.92-18.39,7.16s-18.39,13.94-12.88,20.15c1.09,1.23,10.74,4.93,12.75,5.24,5.17.81,10.57-.22,15.74.26,4.32.4,24.46,5.85,26.39,2.85Z"/>
  </g>
</svg>