%FSTAX24Y24*%
%MOIN*%
%IN avdog.toplayer.ger *%
%ADD10C,0.0600*%
%ADD11C,0.0800*%
D10*X010696Y008444D03*X011544Y007914D03*X012392Y007384D03*
X01324Y006854D03*X01483Y009399D03*X013982Y009928D03*X013134Y010458D03*
X012286Y010988D03*X011012Y006141D03*X012336Y005436D03*
X011012Y006141D03*X012336Y005436D03*X008105Y013397D03*
X008871Y012755D03*X009637Y012112D03*X008105Y013397D03*
X008871Y012755D03*X009637Y012112D03*X018641Y009419D03*
X015901Y008199D03*X011201Y011679D03*X00863Y010134D03*X011201Y011679D03*
X00863Y010134D03*X018641Y009419D03*X015901Y008199D03*X031334Y010216D03*
X033791Y008495D03*X031334Y010216D03*X033791Y008495D03*
X009069Y015589D03*X009738Y014845D03*X010407Y014102D03*
X012316Y016424D03*X012985Y015681D03*X013654Y014938D03*
X012316Y016424D03*X012985Y015681D03*X013654Y014938D03*
X004894Y011689D03*X005884Y011829D03*X006875Y011968D03*
X004894Y011689D03*X005884Y011829D03*X006875Y011968D03*X00407Y016552D03*
X004869Y015951D03*X005667Y015349D03*X00407Y016552D03*X004869Y015951D03*
X005667Y015349D03*X009069Y015589D03*X009738Y014845D03*
X010407Y014102D03*X033544Y003644D03*D11*X002229Y010605D03*
X001708Y01356D03*D10*X004317Y007905D03*X005907Y005361D03*
X005105Y008984D03*X006695Y00644D03*X005105Y008984D03*X006695Y00644D03*
X003487Y006613D03*X003174Y003629D03*X003487Y006613D03*
X003174Y003629D03*X004317Y007905D03*X005907Y005361D03*
X012957Y018803D03*X014964Y016573D03*X012957Y018803D03*
X014964Y016573D03*X005616Y003125D03*X020099Y013402D03*X02106Y013678D03*
X026269Y015127D03*X025329Y014785D03*X026269Y015127D03*
X025329Y014785D03*X020099Y013402D03*X02106Y013678D03*X010696Y008444D03*
X011544Y007914D03*X012392Y007384D03*X01324Y006854D03*X01483Y009399D03*
X013982Y009928D03*X013134Y010458D03*X012286Y010988D03*
X026718Y013421D03*X025757Y013146D03*X024796Y01287D03*X023834Y012594D03*
X022873Y012319D03*X021912Y012043D03*X020951Y011768D03*
X021778Y008884D03*X022739Y009159D03*X0237Y009435D03*X024661Y009711D03*
X025623Y009986D03*X026584Y010262D03*X027545Y010538D03*
X026718Y013421D03*X025757Y013146D03*X024796Y01287D03*X023834Y012594D03*
X022873Y012319D03*X021912Y012043D03*X020951Y011768D03*
X021778Y008884D03*X022739Y009159D03*X0237Y009435D03*X024661Y009711D03*
X025623Y009986D03*X026584Y010262D03*X027545Y010538D03*
X016513Y013484D03*X017733Y010743D03*X02286Y007683D03*X022965Y004685D03*
X016333Y00701D03*X019217Y007837D03*X016333Y00701D03*X019217Y007837D03*
X01078Y003955D03*X008551Y005962D03*X01078Y003955D03*X008551Y005962D03*
X009946Y007007D03*X007093Y007934D03*X009349Y008664D03*
X006495Y009591D03*X007605Y016257D03*X005884Y0138D03*X007605Y016257D03*
X005884Y0138D03*X009349Y008664D03*X006495Y009591D03*X009946Y007007D03*
X007093Y007934D03*X02286Y007683D03*X022965Y004685D03*X016513Y013484D03*
X017733Y010743D03*X019183Y005901D03*X019458Y004939D03*
X015705Y005263D03*X01598Y004301D03*X015705Y005263D03*X01598Y004301D03*
X019183Y005901D03*X019458Y004939D03*X027974Y006537D03*
X027665Y005586D03*X027356Y004635D03*X027974Y006537D03*
X027665Y005586D03*X027356Y004635D03*X02337Y015263D03*X023266Y018261D03*
X031125Y007527D03*X028125D03*X024114Y006612D03*X026122Y008841D03*
X024114Y006612D03*X026122Y008841D03*X020027Y009304D03*
X021151Y006522D03*X020027Y009304D03*X021151Y006522D03*
X032579Y004892D03*X029601Y005257D03*X032579Y004892D03*
X029601Y005257D03*X031125Y007527D03*X028125D03*X027339Y008872D03*
X030339D03*X028904Y010899D03*X028078Y013783D03*X022199Y014869D03*
X02079Y017517D03*X022199Y014869D03*X02079Y017517D03*X028904Y010899D03*
X028078Y013783D03*X027339Y008872D03*X030339D03*X031795Y015127D03*
X028884Y015853D03*X031795Y015127D03*X028884Y015853D03*X01578Y011037D03*
X014656Y013818D03*X014314Y01147D03*X011887Y013233D03*X014314Y01147D03*
X011887Y013233D03*X018479Y013814D03*X017164Y01651D03*X018479Y013814D03*
X017164Y01651D03*X01578Y011037D03*X014656Y013818D03*X02337Y015263D03*
X023266Y018261D03*X030934Y011871D03*X030527Y012784D03*X03012Y013698D03*
D11*X005616Y003125D03*X002229Y010605D03*X001708Y01356D03*
X033544Y003644D03*X030934Y011871D03*X030527Y012784D03*X03012Y013698D03*
M02*