%FSTAX24Y24*%
%MOIN*%
%IN avdog.bottomlayer.ger *%
%ADD10C,0.0100*%
%ADD11C,0.0200*%
%ADD12C,0.0600*%
%ADD13C,0.0800*%
D12*X01324Y006854D03*X012336Y005436D03*X01598Y004301D03*
X019458Y004939D03*X022965Y004685D03*X024661Y009711D03*
X027356Y004635D03*X005907Y005361D03*D13*X002229Y010605D03*D12*
X006695Y00644D03*X013982Y009928D03*X00863Y010134D03*X009637Y012112D03*
X015901Y008199D03*X011012Y006141D03*X011544Y007914D03*
X009946Y007007D03*X011012Y006141D03*X011544Y007914D03*
X009946Y007007D03*X009069Y015589D03*X006875Y011968D03*
X005667Y015349D03*X012316Y016424D03*X009738Y014845D03*
X008105Y013397D03*X012985Y015681D03*X012316Y016424D03*
X009738Y014845D03*X008105Y013397D03*X012985Y015681D03*
X004894Y011689D03*X005105Y008984D03*X004894Y011689D03*
X005105Y008984D03*X00407Y016552D03*X004317Y007905D03*X003487Y006613D03*
X004869Y015951D03*X017164Y01651D03*X007605Y016257D03*X00407Y016552D03*
X004317Y007905D03*X003487Y006613D03*X004869Y015951D03*X017164Y01651D03*
X007605Y016257D03*X009069Y015589D03*X006875Y011968D03*
X005667Y015349D03*D13*X001708Y01356D03*D12*X012957Y018803D03*D13*
X033544Y003644D03*D12*X032579Y004892D03*X033544Y003644D03*
X032579Y004892D03*D13*X001708Y01356D03*D12*X012957Y018803D03*
X003174Y003629D03*D13*X005616Y003125D03*D12*X003174Y003629D03*
X005616Y003125D03*X014964Y016573D03*X013654Y014938D03*
X010407Y014102D03*X016513Y013484D03*X015705Y005263D03*X02337Y015263D03*
X023834Y012594D03*X012286Y010988D03*X011201Y011679D03*
X014964Y016573D03*X013654Y014938D03*X010407Y014102D03*
X016513Y013484D03*X015705Y005263D03*X02337Y015263D03*X023834Y012594D03*
X012286Y010988D03*X011201Y011679D03*X020099Y013402D03*
X020951Y011768D03*X020027Y009304D03*X025329Y014785D03*
X025757Y013146D03*X028078Y013783D03*X025329Y014785D03*
X025757Y013146D03*X028078Y013783D03*X020099Y013402D03*
X020951Y011768D03*X020027Y009304D03*X01324Y006854D03*X012336Y005436D03*
X01598Y004301D03*X019458Y004939D03*X022965Y004685D03*X024661Y009711D03*
X027356Y004635D03*X005907Y005361D03*D13*X002229Y010605D03*D12*
X006695Y00644D03*X013982Y009928D03*X00863Y010134D03*X009637Y012112D03*
X015901Y008199D03*X021912Y012043D03*X022199Y014869D03*X02106Y013678D03*
X027545Y010538D03*X028904Y010899D03*X030339Y008872D03*
X021912Y012043D03*X022199Y014869D03*X02106Y013678D03*X027545Y010538D03*
X028904Y010899D03*X030339Y008872D03*X017733Y010743D03*
X019183Y005901D03*X02286Y007683D03*X0237Y009435D03*X01078Y003955D03*
X012392Y007384D03*X016333Y00701D03*X01078Y003955D03*X012392Y007384D03*
X016333Y00701D03*X009349Y008664D03*X010696Y008444D03*X007093Y007934D03*
X008551Y005962D03*X005884Y0138D03*Y011829D03*X006495Y009591D03*
X005884Y0138D03*Y011829D03*X006495Y009591D03*X009349Y008664D03*
X010696Y008444D03*X007093Y007934D03*X008551Y005962D03*
X017733Y010743D03*X019183Y005901D03*X02286Y007683D03*X0237Y009435D03*
X027665Y005586D03*X029601Y005257D03*X027665Y005586D03*
X029601Y005257D03*X023266Y018261D03*X033791Y008495D03*
X027974Y006537D03*X031125Y007527D03*X031334Y010216D03*
X028125Y007527D03*X027339Y008872D03*X026122Y008841D03*
X026584Y010262D03*X021151Y006522D03*X024114Y006612D03*
X021151Y006522D03*X024114Y006612D03*X031125Y007527D03*
X031334Y010216D03*X028125Y007527D03*X027339Y008872D03*
X026122Y008841D03*X026584Y010262D03*X031795Y015127D03*
X030934Y011871D03*X028884Y015853D03*X026269Y015127D03*
X026718Y013421D03*X02079Y017517D03*X014656Y013818D03*X031795Y015127D03*
D13*X030934Y011871D03*D12*X028884Y015853D03*X026269Y015127D03*
X026718Y013421D03*X02079Y017517D03*X014656Y013818D03*X01578Y011037D03*
X01483Y009399D03*X014314Y01147D03*X013134Y010458D03*X011887Y013233D03*
X008871Y012755D03*X014314Y01147D03*X013134Y010458D03*X011887Y013233D03*
X008871Y012755D03*X01578Y011037D03*X01483Y009399D03*X023266Y018261D03*
X033791Y008495D03*X027974Y006537D03*D13*X03012Y013698D03*D12*
X024796Y01287D03*X022739Y009159D03*X021778Y008884D03*X019217Y007837D03*
X018641Y009419D03*X018479Y013814D03*X022873Y012319D03*
X030527Y012784D03*X025623Y009986D03*X03012Y013698D03*X024796Y01287D03*
X022739Y009159D03*X021778Y008884D03*X019217Y007837D03*
X018641Y009419D03*X018479Y013814D03*X022873Y012319D03*D13*
X030527Y012784D03*D12*X025623Y009986D03*D11*X01324Y006854D02*
G01X012336Y005436D01*X01598Y004301D01*X019458Y004939D01*
X022965Y004685D01*X025529Y005664D01*X024661Y009711D01*
X025529Y005664D02*X027356Y004635D01*X012336Y005436D02*X01156Y0023D01*
X008844Y003054D01*X007919Y005004D01*X005907Y005361D01*
X002215Y005522D01*X002229Y010605D01*X007919Y005004D02*X006695Y00644D01*
X013982Y009928D02*X013502Y009224D01*X010126Y011082D01*X00863Y010134D01*
X010126Y011082D02*X009637Y012112D01*X013502Y009224D02*X014956Y00824D01*
X015901Y008199D01*X011012Y006141D02*X011035Y007035D01*
X011544Y007914D01*X011035Y007035D02*X009946Y007007D01*
X011012Y006141D02*X011035Y007035D01*X011544Y007914D01*
X011035Y007035D02*X009946Y007007D01*X009069Y015589D02*
X007229Y014547D01*X006875Y011968D01*X007229Y014547D02*
X005667Y015349D01*X012316Y016424D02*X01151Y015583D01*X009738Y014845D01*
X008105Y013397D01*X01151Y015583D02*X012985Y015681D01*X012316Y016424D02*
X01151Y015583D01*X009738Y014845D01*X008105Y013397D01*X01151Y015583D02*
X012985Y015681D01*X004894Y011689D02*X005105Y008984D01*
X004894Y011689D01*X00407Y016552D02*X003555Y012934D01*X004317Y007905D01*
X003487Y006613D01*X004869Y015951D02*X007677Y017086D01*
X015065Y018065D01*X017164Y01651D01*X007677Y017086D02*X007605Y016257D01*
X00407Y016552D02*X003555Y012934D01*X004317Y007905D01*X003487Y006613D01*
X004869Y015951D02*X007677Y017086D01*X015065Y018065D01*X017164Y01651D01*
X007677Y017086D02*X007605Y016257D01*X009069Y015589D02*
X007229Y014547D01*X006875Y011968D01*X007229Y014547D02*
X005667Y015349D01*X001708Y01356D02*X00224Y017355D01*X012957Y018803D01*
X033544Y003644D02*X032579Y004892D01*X033544Y003644D01*X001708Y01356D02*
X00224Y017355D01*X012957Y018803D01*X003174Y003629D02*X005616Y003125D01*
X003174Y003629D01*X014964Y016573D02*X013654Y014938D01*X012734Y01443D01*
X010407Y014102D01*X012734Y01443D02*X013546Y012591D01*X016513Y013484D01*
X016906Y01136D01*X016591Y009766D01*X017504Y006034D01*X015705Y005263D01*
X016513Y013484D02*X019655Y015521D01*X022042Y016124D01*X02337Y015263D01*
X023834Y012594D01*X013546Y012591D02*X012286Y010988D01*
X011201Y011679D01*X014964Y016573D02*X013654Y014938D01*X012734Y01443D01*
X010407Y014102D01*X012734Y01443D02*X013546Y012591D01*X016513Y013484D01*
X016906Y01136D01*X016591Y009766D01*X017504Y006034D01*X015705Y005263D01*
X016513Y013484D02*X019655Y015521D01*X022042Y016124D01*X02337Y015263D01*
X023834Y012594D01*X013546Y012591D02*X012286Y010988D01*
X011201Y011679D01*X020099Y013402D02*X020951Y011768D01*
X020027Y009304D01*X025329Y014785D02*X025757Y013146D01*X025973Y01244D01*
X028249Y013169D01*X028078Y013783D01*X025329Y014785D02*
X025757Y013146D01*X025973Y01244D01*X028249Y013169D01*X028078Y013783D01*
X020099Y013402D02*X020951Y011768D01*X020027Y009304D01*X01324Y006854D02*
X012336Y005436D01*X01598Y004301D01*X019458Y004939D01*X022965Y004685D01*
X025529Y005664D01*X024661Y009711D01*X025529Y005664D02*
X027356Y004635D01*X012336Y005436D02*X01156Y0023D01*X008844Y003054D01*
X007919Y005004D01*X005907Y005361D01*X002215Y005522D01*
X002229Y010605D01*X007919Y005004D02*X006695Y00644D01*X013982Y009928D02*
X013502Y009224D01*X010126Y011082D01*X00863Y010134D01*X010126Y011082D02*
X009637Y012112D01*X013502Y009224D02*X014956Y00824D01*X015901Y008199D01*
X021912Y012043D02*X022012Y013452D01*X022199Y014869D01*
X022012Y013452D02*X02106Y013678D01*X027545Y010538D02*X027939Y010013D01*
X029093Y009815D01*X028904Y010899D01*X029093Y009815D02*
X030339Y008872D01*X021912Y012043D02*X022012Y013452D01*
X022199Y014869D01*X022012Y013452D02*X02106Y013678D01*X027545Y010538D02*
X027939Y010013D01*X029093Y009815D01*X028904Y010899D01*
X029093Y009815D02*X030339Y008872D01*X017733Y010743D02*
X017643Y009783D01*X018161Y007127D01*X01896Y006747D01*X019183Y005901D01*
X01896Y006747D02*X021423Y0077D01*X02286Y007683D01*X02367Y008463D01*
X0237Y009435D01*X01078Y003955D02*X012392Y007384D01*X012805Y00801D01*
X014868Y006857D01*X016333Y00701D01*X01078Y003955D02*X012392Y007384D01*
X012805Y00801D01*X014868Y006857D01*X016333Y00701D01*X009349Y008664D02*
X009194Y007645D01*X010696Y008444D01*X009194Y007645D02*
X008427Y007059D01*X007093Y007934D01*X008427Y007059D02*
X008551Y005962D01*X005884Y0138D02*Y011829D01*X006495Y009591D01*
X005884Y0138D02*Y011829D01*X006495Y009591D01*X009349Y008664D02*
X009194Y007645D01*X010696Y008444D01*X009194Y007645D02*
X008427Y007059D01*X007093Y007934D01*X008427Y007059D02*
X008551Y005962D01*X017733Y010743D02*X017643Y009783D01*
X018161Y007127D01*X01896Y006747D01*X019183Y005901D01*X01896Y006747D02*
X021423Y0077D01*X02286Y007683D01*X02367Y008463D01*X0237Y009435D01*
X027665Y005586D02*X029601Y005257D01*X027665Y005586D01*
X023266Y018261D02*X032927Y019113D01*X033742Y01241D01*X033791Y008495D01*
X032337Y006438D01*X027974Y006537D01*X031125Y007527D02*
X031334Y010216D01*X028125Y007527D02*X027339Y008872D01*X0267Y009657D01*
X026122Y008841D01*X0267Y009657D02*X026584Y010262D01*X021151Y006522D02*
X021788Y006664D01*X024114Y006612D01*X021151Y006522D02*
X021788Y006664D01*X024114Y006612D01*X031125Y007527D02*
X031334Y010216D01*X028125Y007527D02*X027339Y008872D01*X0267Y009657D01*
X026122Y008841D01*X0267Y009657D02*X026584Y010262D01*X031795Y015127D02*
X03193Y012591D01*X030934Y011871D01*X028884Y015853D02*X025952Y016305D01*
X026269Y015127D01*X026718Y013421D01*X025952Y016305D02*X02079Y017517D01*
X014656Y013818D01*X031795Y015127D02*X03193Y012591D01*X030934Y011871D01*
X028884Y015853D02*X025952Y016305D01*X026269Y015127D01*
X026718Y013421D01*X025952Y016305D02*X02079Y017517D01*X014656Y013818D01*
X01578Y011037D02*X015398Y010102D01*X01483Y009399D01*X014314Y01147D02*
X013134Y010458D01*X011887Y013233D02*X008871Y012755D01*X014314Y01147D02*
X013134Y010458D01*X011887Y013233D02*X008871Y012755D01*X01578Y011037D02*
X015398Y010102D01*X01483Y009399D01*X023266Y018261D02*X032927Y019113D01*
X033742Y01241D01*X033791Y008495D01*X032337Y006438D01*X027974Y006537D01*
X03012Y013698D02*X029392Y012993D01*X028583Y012501D01*X025639Y011652D01*
X025052Y012057D01*X024796Y01287D01*X025052Y012057D02*X023035Y011533D01*
X022552Y009809D01*X022739Y009159D01*X021778Y008884D01*
X019217Y007837D01*X018641Y009419D01*X018812Y010809D01*
X018479Y013814D01*X023035Y011533D02*X022873Y012319D01*
X030527Y012784D02*X030111Y01231D01*X02987Y012127D01*X029038Y011925D01*
X025443Y010787D01*X025623Y009986D01*X03012Y013698D02*X029392Y012993D01*
X028583Y012501D01*X025639Y011652D01*X025052Y012057D01*X024796Y01287D01*
X025052Y012057D02*X023035Y011533D01*X022552Y009809D01*
X022739Y009159D01*X021778Y008884D01*X019217Y007837D01*
X018641Y009419D01*X018812Y010809D01*X018479Y013814D01*
X023035Y011533D02*X022873Y012319D01*X030527Y012784D02*X030111Y01231D01*
X02987Y012127D01*X029038Y011925D01*X025443Y010787D01*X025623Y009986D01*
D10*X0Y02D02*Y0D01*X035D01*Y02D01*X0D01*Y0D01*X035D01*Y02D01*X0D01*
M02*