M48
FMAT,2
INCH,LZ
T1C0.0280
T2C0.0400
%
T1
X010696Y008444
X011544Y007914
X012392Y007384
X01324Y006854
X01483Y009399
X013982Y009928
X013134Y010458
X012286Y010988
X011012Y006141
X012336Y005436
X011012Y006141
X012336Y005436
X008105Y013397
X008871Y012755
X009637Y012112
X008105Y013397
X008871Y012755
X009637Y012112
X018641Y009419
X015901Y008199
X011201Y011679
X00863Y010134
X011201Y011679
X00863Y010134
X018641Y009419
X015901Y008199
X031334Y010216
X033791Y008495
X031334Y010216
X033791Y008495
X009069Y015589
X009738Y014845
X010407Y014102
X012316Y016424
X012985Y015681
X013654Y014938
X012316Y016424
X012985Y015681
X013654Y014938
X004894Y011689
X005884Y011829
X006875Y011968
X004894Y011689
X005884Y011829
X006875Y011968
X00407Y016552
X004869Y015951
X005667Y015349
X00407Y016552
X004869Y015951
X005667Y015349
X009069Y015589
X009738Y014845
X010407Y014102
X033544Y003644
X004317Y007905
X005907Y005361
X005105Y008984
X006695Y00644
X005105Y008984
X006695Y00644
X003487Y006613
X003174Y003629
X003487Y006613
X003174Y003629
X004317Y007905
X005907Y005361
X012957Y018803
X014964Y016573
X012957Y018803
X014964Y016573
X005616Y003125
X020099Y013402
X02106Y013678
X026269Y015127
X025329Y014785
X026269Y015127
X025329Y014785
X020099Y013402
X02106Y013678
X010696Y008444
X011544Y007914
X012392Y007384
X01324Y006854
X01483Y009399
X013982Y009928
X013134Y010458
X012286Y010988
X026718Y013421
X025757Y013146
X024796Y01287
X023834Y012594
X022873Y012319
X021912Y012043
X020951Y011768
X021778Y008884
X022739Y009159
X0237Y009435
X024661Y009711
X025623Y009986
X026584Y010262
X027545Y010538
X026718Y013421
X025757Y013146
X024796Y01287
X023834Y012594
X022873Y012319
X021912Y012043
X020951Y011768
X021778Y008884
X022739Y009159
X0237Y009435
X024661Y009711
X025623Y009986
X026584Y010262
X027545Y010538
X016513Y013484
X017733Y010743
X02286Y007683
X022965Y004685
X016333Y00701
X019217Y007837
X016333Y00701
X019217Y007837
X01078Y003955
X008551Y005962
X01078Y003955
X008551Y005962
X009946Y007007
X007093Y007934
X009349Y008664
X006495Y009591
X007605Y016257
X005884Y0138
X007605Y016257
X005884Y0138
X009349Y008664
X006495Y009591
X009946Y007007
X007093Y007934
X02286Y007683
X022965Y004685
X016513Y013484
X017733Y010743
X019183Y005901
X019458Y004939
X015705Y005263
X01598Y004301
X015705Y005263
X01598Y004301
X019183Y005901
X019458Y004939
X027974Y006537
X027665Y005586
X027356Y004635
X027974Y006537
X027665Y005586
X027356Y004635
X02337Y015263
X023266Y018261
X031125Y007527
X028125Y007527
X024114Y006612
X026122Y008841
X024114Y006612
X026122Y008841
X020027Y009304
X021151Y006522
X020027Y009304
X021151Y006522
X032579Y004892
X029601Y005257
X032579Y004892
X029601Y005257
X031125Y007527
X028125Y007527
X027339Y008872
X030339Y008872
X028904Y010899
X028078Y013783
X022199Y014869
X02079Y017517
X022199Y014869
X02079Y017517
X028904Y010899
X028078Y013783
X027339Y008872
X030339Y008872
X031795Y015127
X028884Y015853
X031795Y015127
X028884Y015853
X01578Y011037
X014656Y013818
X014314Y01147
X011887Y013233
X014314Y01147
X011887Y013233
X018479Y013814
X017164Y01651
X018479Y013814
X017164Y01651
X01578Y011037
X014656Y013818
X02337Y015263
X023266Y018261
X030934Y011871
X030527Y012784
X03012Y013698
T2
X002229Y010605
X001708Y01356
X033544Y003644
X002229Y010605
X001708Y01356
X005616Y003125
X03012Y013698
X030934Y011871
X030527Y012784
M30
