<?xml version="1.0" encoding="UTF-8"?>
<svg id="Layer_1" data-name="Layer 1" xmlns="http://www.w3.org/2000/svg" viewBox="0 0 148.62 269.25">
  <defs>
    <style>
      .cls-1, .cls-2 {
        stroke-width: 0px;
      }

      .cls-2 {
        fill: #fff;
      }
    </style>
  </defs>
  <path class="cls-2" d="m54.82,28.12c.44-3.43.96-6.58,1.2-9.76.15-2.05-.29-4.14-.2-6.19.19-3.99-1.24-7.07-4.42-9.5C48.58.51,45.41-.18,42.01.04c-6.47.42-13.1,3.43-13.11,11.45,0,2.95.41,5.9.75,8.84.3,2.51.78,5,1.15,7.3-2.55,2.53-5.27,5.16-7.89,7.87-1.16,1.2-1.99,1.3-3.31.1-2.54-2.31-5.21-1.6-6.48,1.62-.45,1.14-.62,2.39-.96,3.75-3.69,0-5.95,2.01-6.81,5.44-1.77,7.09-3.66,14.18-5,21.36-.87,4.63-.05,9.25,2.17,13.59.7,1.37.71,3.16.78,4.77.24,5.39-.66,11.1.8,16.12,1.95,6.7,5.27,13.14,8.87,19.17,2.11,3.53,4.19,6.67,4.37,10.93.09,2.27.9,4.58,1.71,6.75,3.42,9.1,4.68,18.63,6.19,28.15,1.28,8.05-1.14,15.97.29,24.05,1.46,8.24,1.58,16.71,2.42,25.07,1.04,10.33,5.43,20.08,4.39,30.89-.54,5.58,2.14,10.96,7.49,14.26,1.26.78,2.36,1.85,3.43,2.9,3.8,3.72,8.19,5.73,13.55,4.47,1.47-.35,3.37-1.12,3.98-2.27.53-1.01-.4-2.86-.86-4.27-.19-.57-.93-.94-1.3-1.49-2.83-4.24-7.56-7.33-7.14-13.49.33-4.84-.17-9.74-.28-14.61,0-.14.15-.28.29-.51,1.59,0,3.24.03,4.89,0,3.41-.07,6.87.13,10.21-.38,2.08-.32,4.34-1.34,5.91-2.74,2.65-2.35,1.82-4.66-1.68-5.42-3.01-.66-6.1-.96-9.06-1.78-2.28-.64-4.7-1.47-6.51-2.9-1.94-1.53-2.71-4.04-2.69-6.68.06-5.81-.46-11.66.12-17.41.8-8.02,1.91-15.94,4.11-23.88,3.5-12.65,5.15-25.84,7.31-38.84.92-5.54,1.18-11.2,1.74-16.8.55,1.75.67,3.6,1.25,5.28.96,2.76,1.97,5.55,3.43,8.06,1.11,1.91,3.09,1.64,4.54-.02,1.35-1.55,3.36-2.72,4.22-4.48,1.71-3.52,4.82-3.18,7.8-3.93,7.47-1.89,15.19-3.48,20.06-10.46.42-.6,1.15-.99,2.01-1.7,0,1.17.02,1.83,0,2.48-.22,6.49-.89,13.01-.55,19.47.33,6.27-.89,12.44.71,18.9,1.66,6.73,1.09,14.07,1.08,21.14,0,10.57-.55,21.14-.46,31.7.03,3.15.8,6.51,4.56,8.07,2.28.95,4.25,2.6,6.41,3.85,3.58,2.07,7.43,3.11,11.49,1.91,1.08-.32,2.26-1.54,2.62-2.61.23-.67-.85-1.95-1.58-2.73-.88-.94-2.01-1.64-3.56-2.86,1.26.1,1.81.12,2.35.19,2.22.3,4.45.88,6.65.8,1.13-.04,2.63-1,3.24-2,.89-1.45-.03-2.87-1.39-3.82-.82-.57-1.62-1.31-2.54-1.57-3.3-.92-4.62-3.11-4.44-6.38.29-5.41-1.12-10.92,1.29-16.22,1.02-2.24,1.57-4.74,2.04-7.18,1.15-5.88,2.08-11.8,3.25-17.67.17-.85,1.02-1.78,1.81-2.25,2.21-1.3,4.01-2.67,3.38-5.66-.14-.68.08-1.49.29-2.19.55-1.88,1.47-3.69,1.74-5.59,2.35-16.67.44-33.23-1.57-49.77-.26-2.1-1.35-3.45-3.42-4.14-2.72-.9-5.37-1.99-7.53-2.8.94-2.75,2.23-5.36,2.67-8.11.43-2.73-.12-5.6,0-8.39.18-4.51-1.78-7.95-5.42-10.23-3.92-2.45-8.29-3.21-12.58-.84-4.9,2.71-8.02,9.5-6.83,14.97.56,2.56,1.56,5.06,2.6,7.48.83,1.92,2.03,3.69,3.11,5.6-1.14.33-2.28.44-3.18.95-3.5,1.99-7.29,3.69-10.28,6.3-2.21,1.93-3.25,5.16-4.98,7.7-1.76,2.59-3.22,5.81-5.69,7.38-4.59,2.92-9.81,4.84-14.78,7.15-.56.26-1.22.29-2,.46-.51-2.9-1.16-5.57-1.42-8.29-.62-6.37-.98-12.76-2.98-18.92-.61-1.89-1.18-3.84-1.43-5.81-1.2-9.65-2.29-19.26-6.17-28.37-2.1-4.93-3.37-10.22-5.04-15.33-1.02-3.13-2.87-5.57-5.79-6.81Z"/>
  <path class="cls-1" d="m54.82,28.12c2.92,1.23,4.77,3.68,5.79,6.81,1.67,5.12,2.94,10.4,5.04,15.33,3.88,9.11,4.97,18.73,6.17,28.37.24,1.97.81,3.91,1.43,5.81,2,6.16,2.35,12.55,2.98,18.92.27,2.71.91,5.39,1.42,8.29.79-.17,1.45-.21,2-.46,4.97-2.3,10.19-4.23,14.78-7.15,2.47-1.57,3.93-4.79,5.69-7.38,1.72-2.54,2.77-5.77,4.98-7.7,2.99-2.61,6.77-4.32,10.28-6.3.91-.51,2.04-.62,3.18-.95-1.08-1.91-2.28-3.68-3.11-5.6-1.04-2.42-2.04-4.91-2.6-7.48-1.19-5.47,1.93-12.27,6.83-14.97,4.29-2.37,8.65-1.62,12.58.84,3.64,2.28,5.59,5.72,5.42,10.23-.11,2.8.44,5.67,0,8.39-.44,2.75-1.73,5.37-2.67,8.11,2.16.81,4.81,1.9,7.53,2.8,2.08.69,3.17,2.04,3.42,4.14,2.01,16.54,3.92,33.1,1.57,49.77-.27,1.91-1.19,3.72-1.74,5.59-.21.7-.43,1.51-.29,2.19.63,2.99-1.18,4.36-3.38,5.66-.79.47-1.64,1.4-1.81,2.25-1.17,5.87-2.1,11.8-3.25,17.67-.48,2.44-1.03,4.93-2.04,7.18-2.41,5.3-.99,10.81-1.29,16.22-.18,3.27,1.14,5.46,4.44,6.38.92.26,1.72,1,2.54,1.57,1.36.95,2.28,2.37,1.39,3.82-.61.99-2.11,1.96-3.24,2-2.21.08-4.43-.51-6.65-.8-.54-.07-1.09-.09-2.35-.19,1.54,1.22,2.68,1.92,3.56,2.86.73.78,1.81,2.06,1.58,2.73-.36,1.07-1.54,2.29-2.62,2.61-4.06,1.2-7.91.16-11.49-1.91-2.16-1.25-4.14-2.91-6.41-3.85-3.77-1.56-4.54-4.92-4.56-8.07-.09-10.56.46-21.13.46-31.7,0-7.07.58-14.41-1.08-21.14-1.59-6.46-.38-12.63-.71-18.9-.34-6.46.33-12.98.55-19.47.02-.66,0-1.32,0-2.48-.86.71-1.59,1.1-2.01,1.7-4.87,6.98-12.6,8.57-20.06,10.46-2.97.75-6.09.41-7.8,3.93-.85,1.76-2.86,2.93-4.22,4.48-1.44,1.65-3.42,1.93-4.54.02-1.46-2.51-2.47-5.3-3.43-8.06-.58-1.68-.7-3.52-1.25-5.28-.56,5.6-.82,11.26-1.74,16.8-2.17,13-3.81,26.19-7.31,38.84-2.2,7.94-3.31,15.86-4.11,23.88-.57,5.75-.06,11.6-.12,17.41-.03,2.64.74,5.15,2.69,6.68,1.82,1.43,4.23,2.26,6.51,2.9,2.95.83,6.05,1.13,9.06,1.78,3.5.76,4.33,3.06,1.68,5.42-1.57,1.4-3.83,2.42-5.91,2.74-3.35.51-6.8.31-10.21.38-1.65.03-3.3,0-4.89,0-.14.24-.29.38-.29.51.12,4.87.61,9.77.28,14.61-.42,6.16,4.31,9.24,7.14,13.49.36.55,1.11.91,1.3,1.49.47,1.42,1.39,3.26.86,4.27-.6,1.15-2.5,1.92-3.98,2.27-5.36,1.27-9.75-.75-13.55-4.47-1.07-1.05-2.17-2.12-3.43-2.9-5.35-3.29-8.03-8.67-7.49-14.26,1.04-10.81-3.35-20.56-4.39-30.89-.84-8.36-.97-16.83-2.42-25.07-1.43-8.08.99-16-.29-24.05-1.51-9.53-2.77-19.05-6.19-28.15-.81-2.17-1.62-4.48-1.71-6.75-.18-4.26-2.26-7.4-4.37-10.93-3.6-6.03-6.92-12.47-8.87-19.17-1.46-5.02-.56-10.72-.8-16.12-.07-1.61-.08-3.4-.78-4.77-2.22-4.34-3.03-8.96-2.17-13.59,1.34-7.18,3.23-14.26,5-21.36.86-3.43,3.12-5.43,6.81-5.44.34-1.36.52-2.61.96-3.75,1.26-3.21,3.94-3.93,6.48-1.62,1.32,1.2,2.15,1.1,3.31-.1,2.63-2.71,5.34-5.34,7.89-7.87-.37-2.29-.85-4.79-1.15-7.3-.35-2.94-.76-5.89-.75-8.84.01-8.02,6.64-11.03,13.11-11.45,3.41-.22,6.58.47,9.39,2.63,3.17,2.43,4.61,5.52,4.42,9.5-.1,2.06.34,4.14.2,6.19-.23,3.17-.76,6.33-1.2,9.76Zm-40.21,11.58c.24.21.48.42.72.63,1.39-.79,2.79-1.59,4.18-2.38.02-.23.05-.47.07-.7-1.15-.37-2.71-1.37-3.35-.96-.9.58-1.11,2.22-1.62,3.41Z"/>
  <path class="cls-2" d="m14.6,39.7c.51-1.19.72-2.82,1.62-3.41.64-.42,2.2.59,3.35.96-.02.23-.05.47-.07.7-1.39.79-2.79,1.59-4.18,2.38-.24-.21-.48-.42-.72-.63Z"/>
</svg>