<?xml version="1.0" encoding="UTF-8"?>
<svg id="Layer_1" data-name="Layer 1" xmlns="http://www.w3.org/2000/svg" viewBox="0 0 108.42 345.16">
  <defs>
    <style>
      .cls-1 {
        stroke-width: 0px;
      }
    </style>
  </defs>
  <path class="cls-1" d="m15.88,114.89c-.12-1.09-.13-1.83-.29-2.53-1.73-7.81-1.98-15.74-1.16-23.61.4-3.81,2.09-7.5,3.23-11.23.19-.63.64-1.2.78-1.83.86-4.1,1.67-8.22,2.5-12.33.13-.65.12-1.42.47-1.92,1.92-2.73.55-5.83.94-8.73.19-1.37-1.65-2.94-2.34-4.52-.77-1.75-1.6-3.58-1.79-5.44-.13-1.33-.38-2.07-1.5-2.78-2.28-1.42-2.36-2.49-1-4.68,1.48-2.39,2.27-4.57,1.22-7.84-1.25-3.9-.02-8.2,1.79-12.08.5-1.07.85-2.31.85-3.48,0-3.22,2.21-4.82,4.54-6.05,3.55-1.86,7.2-3.62,10.99-4.88C37.61.12,40.46-.09,43.13.03c3.47.15,7.05.49,10.35,1.5,3.74,1.14,7.32,2.94,10.79,4.79,2.05,1.09,4.08,2.55,5.53,4.33,2.72,3.34,5.02,7.04,7.49,10.58.94,1.35,2.12,2.6,2.8,4.07,2.09,4.54,4.07,9.13,5.94,13.76,1.57,3.9,3.09,7.84,4.32,11.86,1.07,3.51,1.88,7.11,2.51,10.73,1.1,6.36,1.91,12.76,2.94,19.13.52,3.23.53,6.39-.41,9.54-.14.47-.29.98-.27,1.46.42,9.06.77,18.13,1.38,27.17.17,2.43,1.45,4.78,1.7,7.22.21,2.08-.39,4.23-.5,6.35-.06,1.14,0,2.33.24,3.45,1.95,9.46,4.07,18.89,5.91,28.37,1.64,8.42,2.97,16.89,4.48,25.33.3,1.67-.06,2.96-1.57,3.82-3.83,2.18-7.65,4.37-11.49,6.52-.78.44-1.63.73-2.54,1.14.75,2.12,1.46,4.06,2.12,6.01,2.56,7.54,4.26,15.43,9.16,22.01,1.49,2,1.53,4.23.64,6.64-1.67,4.51-3.29,9.06-4.57,13.69-.56,2.03-.45,4.32-.26,6.46.81,9.37-3.93,15.07-12.08,18.53-2.31.98-4.72,1.71-7.15,2.58,2.3,3.35,4.57,7.16,7.35,10.55,1.75,2.13,4.35,3.53,6.39,5.45,2.61,2.44,3.1,5.7,1.73,8.75-2.92,6.51-4.21,13.46-6.2,20.23-2.37,8.05-8.18,13.78-15.05,18.37-.91.61-2.19.82-3.32.93-4.01.38-6.33-1.87-5.67-5.85.62-3.77,2.11-7.41,2.55-11.19.58-5.1.81-10.28.64-15.41-.15-4.33-3.2-6.85-6.98-8.47-.46,2.72-1.17,5.39-1.29,8.07-.07,1.78.41,3.73,1.17,5.36,1.53,3.27,1.06,12.1-1.26,14.72-.78.89-2.01,1.83-3.1,1.92-6.11.49-10.5,4.18-15.17,7.52-6.1,4.36-13.02,6.46-20.52,6.98-2.97.2-5.76.43-8.51-.95-3.06-1.53-4.01-5-1.58-7.41,2.17-2.15,4.76-3.88,7.22-5.73,5.73-4.29,11.77-8.25,16.09-14.09.99-1.33,1.73-3.4,1.5-4.98-1.02-6.9-2.58-13.73-3.64-20.62-.54-3.47-.26-7.06-.67-10.55-.44-3.72-1.15-7.41-1.99-11.06-.27-1.17-1.06-2.49-2.01-3.18-4.78-3.48-6.95-7.79-5.67-13.81,1.42-6.67,2.36-13.45,3.78-20.12.88-4.11-.02-7.93-1-11.8-1.35-5.32-2.79-10.62-4.14-15.95-.4-1.58-1.11-2.52-2.59-3.55-4.84-3.34-9.37-7.14-13.97-10.82-1.24-.99-1.52-2.23-1.26-3.98.25-1.65-.26-3.61-.98-5.19-2.04-4.47-1.7-9.07-1.31-13.73.17-2.07.98-4.25-.88-6.14-.38-.38-.21-1.46-.08-2.18.92-5.33,1.87-10.66,2.86-15.99.12-.64.3-1.42.74-1.82,3.49-3.22,3.93-7.99,6.11-11.87.97-1.72,1.25-3.45.06-5.41-.59-.98-.3-2.52-.33-3.82-.07-4.08,1.92-6.05,6.28-5.39Z"/>
</svg>